<?xml version="1.0" encoding="utf-8"?>
<!-- Generator: Adobe Illustrator 16.0.0, SVG Export Plug-In . SVG Version: 6.00 Build 0)  -->
<!DOCTYPE svg PUBLIC "-//W3C//DTD SVG 1.1//EN" "http://www.w3.org/Graphics/SVG/1.1/DTD/svg11.dtd">
<svg version="1.1" id="Layer_1" xmlns="http://www.w3.org/2000/svg" xmlns:xlink="http://www.w3.org/1999/xlink" x="0px" y="0px"
	 width="48px" height="40.936px" viewBox="0 0 48 40.936" enable-background="new 0 0 48 40.936" xml:space="preserve">
<path fill="#13C5E2" d="M32.611,18.2H31.33c-0.167-0.596-0.404-1.167-0.705-1.704l0.904-0.907l0.707-0.707l-0.707-0.707l-1.57-1.572
	l-0.707-0.707l-0.707,0.707l-0.906,0.906c-0.537-0.301-1.111-0.538-1.703-0.705v-1.281v-1h-1h-2.224h-1v1v1.274
	c-0.52,0.136-1.165,0.351-1.741,0.676l-0.869-0.87l-0.707-0.707l-0.707,0.707l-1.572,1.572l-0.707,0.707l0.707,0.707l0.905,0.907
	c-0.3,0.537-0.537,1.108-0.704,1.704h-1.282h-1v1v2.222v1h1h1.282c0.167,0.594,0.404,1.167,0.704,1.704l-0.905,0.905l-0.707,0.708
	l0.707,0.705l1.572,1.572l0.707,0.707l0.707-0.707l0.9-0.898c0.47,0.273,1.072,0.571,1.71,0.748v1.23v1h1h2.224h1v-1v-1.281
	c0.592-0.167,1.166-0.402,1.703-0.705l0.906,0.906l0.707,0.707l0.707-0.707l1.57-1.572l0.707-0.705l-0.707-0.708l-0.904-0.905
	c0.301-0.537,0.538-1.11,0.705-1.704h1.281h1v-1V19.2v-1H32.611z M27.532,20.311c0,2.074-1.687,3.764-3.761,3.764
	c-2.074,0-3.761-1.688-3.761-3.764s1.687-3.762,3.761-3.762C25.846,16.548,27.532,18.235,27.532,20.311"/>
<path fill="#002E44" d="M3.634,22.486C4.653,32.829,13.396,40.936,24,40.936c5.506,0,10.672-2.153,14.546-6.067l-2.827-2.801
	c-3.121,3.153-7.281,4.892-11.719,4.892c-8.407,0-15.352-6.329-16.352-14.472h3.396l-5.522-9.264L0,22.486H3.634z"/>
<path fill="#002E44" d="M44.337,18.22C43.214,7.99,34.525,0,24,0C18.408,0,13.187,2.213,9.295,6.231L12.154,9
	C15.288,5.762,19.495,3.979,24,3.979c8.327,0,15.216,6.212,16.316,14.241h-3.36l5.522,9.264L48,18.22H44.337z"/>
</svg>
