<svg id="Layer_1" data-name="Layer 1" xmlns="http://www.w3.org/2000/svg" viewBox="0 0 1965.67 385.59"><defs><style>.cls-1{fill:#a4e0de;}.cls-2{fill:#012e44;}.cls-3{fill:#13c5e2;}</style></defs><title>Artboard 1 copy 4</title><path class="cls-1" d="M117.52,156.13h0a39.08,39.08,0,0,1-31.45-18.18l.09,0a38.65,38.65,0,1,1,71.08-15.56,152.61,152.61,0,0,1,66.35,36.78,112.75,112.75,0,0,0,8-41.73h.1a112.85,112.85,0,1,0-204,66.45,113.77,113.77,0,0,0,7.56,9.28A112.71,112.71,0,0,1,117.52,156.13Z"/><path class="cls-2" d="M231.66,266.2A112.69,112.69,0,0,0,221.44,222q-2.35-5.11-5.2-10a113.27,113.27,0,0,0-13.77-18.74,112.93,112.93,0,0,1-79,36.89l-.56,0-2.21.06H120a39,39,0,0,1,31.7,18.24h-.06a38.65,38.65,0,1,1-71.27,16.77,152.83,152.83,0,0,1-66.58-37A112.38,112.38,0,0,0,6.1,268.94h0A112,112,0,0,0,34.17,343.4a114,114,0,0,0,29.52,23.91A112.48,112.48,0,0,0,176.34,366a112.81,112.81,0,0,0,55.32-99.8Z"/><path class="cls-3" d="M202.38,193.15h0c-21.28-23.52-51.17-37.26-82.94-37h0l-1.9,0a112.71,112.71,0,0,0-82.23,37h0l.09.1a113.74,113.74,0,0,0,83.4,37h0l1.83,0,2.21-.06.56,0a112.93,112.93,0,0,0,79-36.89S202.37,193.15,202.38,193.15Z"/><rect class="cls-2" x="669.2" y="108.78" width="53.52" height="209.65"/><rect class="cls-2" x="775.03" y="4.67" width="53.52" height="313.76"/><polygon class="cls-2" points="969.2 252.99 922.82 108.37 866.62 108.82 941.88 318.04 994.51 318.04 1069.05 108.39 1014.59 108.39 969.2 252.99"/><path class="cls-2" d="M1258.56,136.23c-15.84-19.21-39.63-29-70.73-29-19.16,0-36.52,4.57-51.61,13.57a93.58,93.58,0,0,0-35.41,38c-8.34,16.09-12.57,34.72-12.57,55.37s4.17,39.22,12.39,55.17A90.94,90.94,0,0,0,1136.08,307c15.19,8.87,33,13.36,52.8,13.36,16.89,0,32.52-3.16,46.45-9.39A99.81,99.81,0,0,0,1271,284.23l2.18-2.59-29.77-33.3-2.91,3.22a64,64,0,0,1-47.77,21.35c-13,0-23.61-3.7-32.46-11.32-7.75-6.66-13.26-15.7-16.41-26.93h137.64l.26-3.61c.24-3.4.36-8.45.36-15,0-34-7.93-60.83-23.58-79.83Zm-26.31,57.83h-89.78c2.38-12.07,7.35-21.8,14.81-29,8.35-8,18.46-11.93,30.9-11.93,13.34,0,23.71,3.94,31.71,12.05C1227,172.46,1231.18,182.15,1232.25,194.06Z"/><path class="cls-2" d="M1401.24,118.25a71.21,71.21,0,0,0-19.89,19V108.78h-53.52V318.43h53.52V220.91c0-17.66,2.14-33.13,16.2-47.14,13-13,25.66-16.4,43.7-16.26l4.14,0v-49l-4-.06C1426.23,108.75,1412.71,111,1401.24,118.25Z"/><path class="cls-2" d="M1506.68,83.76v24.72h-28.32v48.75h28.32V319.49h57.92V157.23h48V108.48h-48V90.21c0-23.77,16.85-32,29.82-32l18.15-.37V4.67h-28.52C1536.94,4.67,1506.68,35.79,1506.68,83.76Z"/><path class="cls-2" d="M1941.07,129.14h0c-13.15-14.76-31.29-22.24-54-22.24-28.13.44-49.46,10.39-63.6,29.61V108.78H1770V318.43h53.52V215.3c0-15.85,4.14-29,12.32-39.05s18.94-14.93,33-15.16c11.86,0,20.94,3.6,27.74,11s10.23,17.75,10.23,30.76V318.43h53.87V188.51C1960.7,163.75,1954.1,143.77,1941.07,129.14Z"/><path class="cls-2" d="M563.91,193l-28.3-6.07c-10.91-2-18.18-8.08-18.18-17.78,0-11.32,11.31-19.81,25.46-19.81,22.64,0,31.13,15,32.75,26.68l44.86-10.11c-2.42-21.42-21.42-57.4-78-57.4-42.85,0-74.38,29.51-74.38,65.08,0,27.9,17.38,50.94,55.78,59.43l26.28,6.06c15.36,3.23,21.42,10.51,21.42,19.4,0,10.51-8.49,19.81-26.27,19.81-23.45,0-35.17-14.55-36.38-30.32l-46.09,10.11c2.43,22.64,23,61.44,82.87,61.44,52.15,0,77.21-33.14,77.21-65.48C622.93,224.9,603.12,201.05,563.91,193Z"/><path class="cls-2" d="M695.53,4.67A32.14,32.14,0,1,0,727.67,36.8,32.12,32.12,0,0,0,695.53,4.67Z"/><rect class="cls-2" x="1663.86" y="108.78" width="53.52" height="209.65"/><circle class="cls-2" cx="1690.62" cy="36.8" r="32.14"/></svg>