<?xml version="1.0" encoding="utf-8"?>
<!-- Generator: Adobe Illustrator 16.0.0, SVG Export Plug-In . SVG Version: 6.00 Build 0)  -->
<!DOCTYPE svg PUBLIC "-//W3C//DTD SVG 1.1//EN" "http://www.w3.org/Graphics/SVG/1.1/DTD/svg11.dtd">
<svg version="1.1" id="Layer_1" xmlns="http://www.w3.org/2000/svg" xmlns:xlink="http://www.w3.org/1999/xlink" x="0px" y="0px"
	 width="45.757px" height="47.84px" viewBox="0 0 45.757 47.84" enable-background="new 0 0 45.757 47.84" xml:space="preserve">
<path fill="#13C5E2" d="M39.984,36.297c-0.834,0-1.627,0.183-2.344,0.503l-4.846-4.589l-2.648,2.795l4.699,4.449
	c-0.402,0.786-0.633,1.673-0.633,2.614c0,3.184,2.587,5.771,5.771,5.771c3.186,0,5.772-2.589,5.772-5.771
	C45.758,38.886,43.17,36.297,39.984,36.297 M39.984,43.993c-1.06,0-1.922-0.863-1.922-1.923c0-1.062,0.862-1.924,1.922-1.924
	c1.063,0,1.926,0.862,1.926,1.924C41.91,43.129,41.047,43.993,39.984,43.993"/>
<path fill="#13C5E2" d="M15.65,34.965l-2.649-2.795l-4.884,4.629c-0.718-0.319-1.51-0.502-2.346-0.502
	C2.587,36.297,0,38.886,0,42.07c0,3.183,2.587,5.771,5.771,5.771s5.773-2.589,5.773-5.771c0-0.941-0.231-1.828-0.632-2.614
	L15.65,34.965z M5.771,43.993c-1.059,0-1.922-0.863-1.922-1.923c0-1.062,0.863-1.924,1.922-1.924c1.061,0,1.924,0.862,1.924,1.924
	C7.695,43.129,6.832,43.993,5.771,43.993"/>
<path fill="#13C5E2" d="M24.639,15.45v-4.26c0.801-0.282,1.541-0.72,2.155-1.338c2.25-2.25,2.25-5.912,0-8.164
	c-2.25-2.25-5.914-2.25-8.164,0c-1.088,1.088-1.685,2.537-1.685,4.082c0,1.546,0.597,2.995,1.685,4.082
	c0.617,0.618,1.357,1.056,2.159,1.338v4.26v3.998v2.908c-0.086,0.069-0.176,0.128-0.255,0.207c-1.199,1.199-1.199,3.16,0,4.357
	c1.198,1.198,3.159,1.198,4.356,0c1.196-1.197,1.196-3.158,0-4.357c-0.078-0.079-0.17-0.138-0.254-0.207v-2.908V15.45H24.639z
	 M21.353,4.411c0.375-0.375,0.867-0.562,1.359-0.562c0.493,0,0.985,0.187,1.36,0.562c0.75,0.75,0.75,1.97,0,2.719
	c-0.722,0.72-1.998,0.72-2.719,0c-0.359-0.361-0.559-0.843-0.559-1.36C20.794,5.254,20.994,4.771,21.353,4.411"/>
<path fill="#002E44" d="M22.712,34.23c5.231,0,9.488-4.256,9.488-9.488c0-4.574-3.251-8.401-7.563-9.292v3.998
	c2.163,0.789,3.715,2.861,3.715,5.294c0,3.109-2.531,5.638-5.64,5.638c-3.109,0-5.64-2.528-5.64-5.638
	c0-2.433,1.552-4.505,3.715-5.294v-3.997c-4.312,0.891-7.564,4.718-7.564,9.292C13.224,29.974,17.48,34.23,22.712,34.23"/>
</svg>
