<?xml version="1.0" encoding="utf-8"?>
<!-- Generator: Adobe Illustrator 16.0.0, SVG Export Plug-In . SVG Version: 6.00 Build 0)  -->
<!DOCTYPE svg PUBLIC "-//W3C//DTD SVG 1.1//EN" "http://www.w3.org/Graphics/SVG/1.1/DTD/svg11.dtd">
<svg version="1.1" id="Layer_4" xmlns="http://www.w3.org/2000/svg" xmlns:xlink="http://www.w3.org/1999/xlink" x="0px" y="0px"
	 width="25.966px" height="25.986px" viewBox="86.999 37.031 25.966 25.986" enable-background="new 86.999 37.031 25.966 25.986"
	 xml:space="preserve">
<title>Icon - foresight</title>
<path fill="#27C0DE" d="M94.461,55.711c3.144,3.04,8.157,2.956,11.198-0.188c3.04-3.144,2.956-8.157-0.188-11.197
	c-3.14-3.036-8.143-2.958-11.186,0.175c-3.047,3.137-2.975,8.15,0.162,11.198C94.453,55.702,94.457,55.706,94.461,55.711z
	 M103.862,45.997c2.227,2.15,2.289,5.699,0.138,7.926c-2.15,2.227-5.699,2.288-7.926,0.139c-2.227-2.151-2.289-5.699-0.138-7.926
	l0,0C98.088,43.912,101.633,43.85,103.862,45.997z"/>
<path fill="#002E44" d="M91.725,39.99l1.459,1.781c0.414-0.337,0.853-0.643,1.314-0.913c3.301-1.947,7.391-1.985,10.729-0.102
	c0.467,0.257,0.911,0.552,1.329,0.883l0.729-0.905l0,0l0.729-0.934C103.211,36.039,96.439,36.118,91.725,39.99z"/>
<path fill="#002E44" d="M109.189,42.676l-0.897,0.73c0.349,0.429,0.666,0.883,0.949,1.357c1.811,3.177,1.86,7.061,0.132,10.284
	c-0.262,0.49-0.562,0.959-0.898,1.401l1.847,1.401c3.594-4.728,3.516-11.292-0.189-15.933L109.189,42.676z"/>
<path fill="#27C0DE" d="M89.601,42.201c-3.665,4.891-3.437,11.671,0.547,16.306l0.875-0.73l0,0l0.876-0.729
	c-0.352-0.401-0.669-0.831-0.949-1.285c-2.041-3.262-2.178-7.367-0.357-10.758c0.25-0.491,0.539-0.961,0.861-1.409l-0.92-0.693l0,0
	L89.601,42.201z"/>
<path fill="#002E44" d="M108.292,59.98l-0.729-0.891l0,0l-0.729-0.883c-0.429,0.351-0.88,0.672-1.351,0.964
	c-3.162,1.902-7.085,2.029-10.364,0.335c-0.491-0.257-0.964-0.547-1.416-0.868l-1.365,1.897
	C97.151,64.041,103.734,63.813,108.292,59.98z"/>
<path fill="#002E44" d="M101.541,48.383c-0.903-0.87-2.34-0.843-3.209,0.06s-0.843,2.34,0.06,3.21
	c0.902,0.868,2.338,0.842,3.208-0.059l0,0C102.467,50.69,102.44,49.255,101.541,48.383z"/>
</svg>
