<?xml version="1.0" encoding="utf-8"?>
<!-- Generator: Adobe Illustrator 16.0.0, SVG Export Plug-In . SVG Version: 6.00 Build 0)  -->
<!DOCTYPE svg PUBLIC "-//W3C//DTD SVG 1.1//EN" "http://www.w3.org/Graphics/SVG/1.1/DTD/svg11.dtd">
<svg version="1.1" id="Layer_1" xmlns="http://www.w3.org/2000/svg" xmlns:xlink="http://www.w3.org/1999/xlink" x="0px" y="0px"
	 width="40px" height="40px" viewBox="0 0 40 40" enable-background="new 0 0 40 40" xml:space="preserve">
<g>
	<path fill="#12C4E2" d="M5.901,10.536H5.853c-2.68,0-4.394-1.835-4.394-4.128c0-2.342,1.787-4.128,4.491-4.128
		c2.728,0,4.418,1.787,4.442,4.128C10.416,8.701,8.677,10.536,5.901,10.536z M9.884,37.721H1.917V13.795h7.967V37.721z
		 M38.541,37.721h-7.943V24.926c0-3.211-1.158-5.408-4.031-5.408c-2.197,0-3.5,1.473-4.08,2.896
		c-0.193,0.531-0.266,1.231-0.266,1.956v13.351h-7.942c0.097-21.681,0-23.926,0-23.926h7.942v3.477h-0.049
		c1.039-1.642,2.922-4.032,7.219-4.032c5.24,0,9.15,3.428,9.15,10.768V37.721z"/>
</g>
</svg>
