<?xml version="1.0" encoding="utf-8"?>
<!-- Generator: Adobe Illustrator 16.0.0, SVG Export Plug-In . SVG Version: 6.00 Build 0)  -->
<!DOCTYPE svg PUBLIC "-//W3C//DTD SVG 1.1//EN" "http://www.w3.org/Graphics/SVG/1.1/DTD/svg11.dtd">
<svg version="1.1" id="Layer_1" xmlns="http://www.w3.org/2000/svg" xmlns:xlink="http://www.w3.org/1999/xlink" x="0px" y="0px"
	 width="198.883px" height="38.386px" viewBox="0 0 198.883 38.386" enable-background="new 0 0 198.883 38.386"
	 xml:space="preserve">
<path fill="#A4E0DE" d="M11.348,15.427L11.348,15.427c-1.306-0.053-2.502-0.745-3.2-1.85h0.009c-1.153-1.84-0.597-4.268,1.244-5.421
	s4.267-0.596,5.42,1.244c0.484,0.772,0.685,1.689,0.568,2.593c2.529,0.66,4.852,1.947,6.751,3.742
	c0.538-1.351,0.814-2.792,0.814-4.246h0.01C22.969,5.149,17.832,0.005,11.491,0S0.005,5.132,0,11.474
	c-0.002,2.436,0.771,4.81,2.208,6.778c0.24,0.328,0.497,0.644,0.769,0.944C5.121,16.829,8.155,15.463,11.348,15.427z"/>
<path fill="#012E44" d="M22.961,26.626c-0.039-1.555-0.392-3.084-1.04-4.497c-0.16-0.347-0.336-0.687-0.529-1.018
	c-0.4-0.683-0.87-1.321-1.401-1.907c-2.069,2.277-4.964,3.629-8.038,3.754h-0.057l-0.225,0.006H11.6
	c1.316,0.045,2.525,0.74,3.226,1.855h-0.006c1.149,1.844,0.587,4.27-1.256,5.418c-1.843,1.149-4.269,0.588-5.418-1.256
	c-0.457-0.732-0.66-1.596-0.578-2.455c-2.54-0.663-4.87-1.959-6.774-3.765c-0.516,1.32-0.781,2.726-0.783,4.144l0,0
	c-0.007,2.789,1.009,5.484,2.856,7.576c0.858,0.973,1.874,1.795,3.004,2.432c3.569,2.01,7.94,1.959,11.461-0.133
	C20.909,34.665,23.062,30.781,22.961,26.626z"/>
<path fill="#13C5E2" d="M19.982,19.194L19.982,19.194c-2.165-2.393-5.206-3.791-8.439-3.765l0,0H11.35
	c-3.191,0.036-6.223,1.4-8.367,3.765l0,0l0.009,0.011c2.179,2.383,5.255,3.748,8.485,3.764l0,0h0.186l0.225-0.006h0.057
	c3.074-0.125,5.969-1.477,8.038-3.754C19.984,19.208,19.981,19.194,19.982,19.194z"/>
<rect x="67.479" y="13.609" fill="#012E44" width="5.445" height="21.332"/>
<rect x="78.247" y="3.017" fill="#012E44" width="5.446" height="31.924"/>
<polygon fill="#012E44" points="98.003,28.283 93.284,13.568 87.566,13.614 95.224,34.901 100.578,34.901 108.162,13.57 
	102.621,13.57 "/>
<path fill="#012E44" d="M127.445,16.402c-1.612-1.955-4.033-2.951-7.197-2.951c-1.949,0-3.716,0.465-5.251,1.381
	c-1.542,0.923-2.791,2.263-3.603,3.866c-0.85,1.637-1.279,3.533-1.279,5.634s0.424,3.991,1.261,5.613
	c0.806,1.6,2.06,2.931,3.606,3.832c1.546,0.902,3.357,1.359,5.373,1.359c1.718,0,3.309-0.321,4.726-0.956
	c1.399-0.621,2.64-1.551,3.63-2.721l0.221-0.264l-3.028-3.388l-0.296,0.327c-1.236,1.385-3.005,2.174-4.861,2.173
	c-1.322,0-2.402-0.376-3.303-1.151c-0.788-0.678-1.349-1.598-1.669-2.74h14.005l0.025-0.367c0.025-0.346,0.037-0.859,0.037-1.526
	c0-3.46-0.807-6.189-2.398-8.123L127.445,16.402z M124.768,22.287h-9.135c0.242-1.229,0.748-2.219,1.507-2.951
	c0.85-0.813,1.878-1.213,3.144-1.213c1.357,0,2.413,0.401,3.227,1.226C124.233,20.089,124.658,21.075,124.768,22.287z"/>
<path fill="#012E44" d="M141.962,14.573c-0.794,0.506-1.481,1.163-2.024,1.933v-2.897h-5.445v21.332h5.445v-9.923
	c0-1.796,0.219-3.37,1.648-4.796c1.323-1.323,2.611-1.669,4.447-1.655h0.421v-4.985l-0.407-0.006
	C144.504,13.606,143.129,13.835,141.962,14.573z"/>
<path fill="#012E44" d="M152.689,11.064v2.515h-2.881v4.96h2.881v16.509h5.894V18.539h4.884v-4.96h-4.884V11.72
	c0-2.418,1.714-3.256,3.034-3.256l1.847-0.038v-5.41h-2.901C155.77,3.017,152.689,6.183,152.689,11.064z"/>
<path fill="#012E44" d="M196.888,15.681L196.888,15.681c-1.338-1.502-3.184-2.263-5.494-2.263c-2.862,0.044-5.032,1.057-6.472,3.013
	v-2.822h-5.439v21.332h5.445V24.448c0-1.612,0.421-2.95,1.253-3.974c0.833-1.022,1.927-1.519,3.358-1.542
	c1.206,0,2.13,0.367,2.822,1.12c0.691,0.753,1.041,1.806,1.041,3.13v11.76h5.48V21.722
	C198.885,19.203,198.213,17.169,196.888,15.681z"/>
<path fill="#012E44" d="M56.767,22.179l-2.879-0.618c-1.11-0.204-1.85-0.822-1.85-1.81c0-1.151,1.151-2.015,2.591-2.015
	c2.303,0,3.167,1.527,3.332,2.714l4.564-1.028c-0.246-2.18-2.18-5.84-7.937-5.84c-4.36,0-7.568,3.002-7.568,6.622
	c0,2.839,1.769,5.183,5.676,6.047l2.674,0.616c1.563,0.329,2.179,1.07,2.179,1.975c0,1.068-0.864,2.016-2.673,2.016
	c-2.386,0-3.578-1.48-3.702-3.086L46.485,28.8c0.248,2.304,2.34,6.252,8.432,6.252c5.306,0,7.856-3.373,7.856-6.663
	C62.771,25.424,60.756,22.998,56.767,22.179z"/>
<path fill="#012E44" d="M70.158,3.017c-1.806,0-3.27,1.464-3.27,3.27c0,1.806,1.464,3.271,3.27,3.271
	c1.806,0,3.271-1.464,3.271-3.271c0,0,0,0,0-0.001c0-1.805-1.462-3.269-3.267-3.269C70.16,3.017,70.159,3.017,70.158,3.017z"/>
<rect x="168.683" y="13.609" fill="#012E44" width="5.445" height="21.332"/>
<circle fill="#012E44" cx="171.405" cy="6.286" r="3.27"/>
</svg>
