<?xml version="1.0" encoding="utf-8"?>
<!-- Generator: Adobe Illustrator 16.0.0, SVG Export Plug-In . SVG Version: 6.00 Build 0)  -->
<!DOCTYPE svg PUBLIC "-//W3C//DTD SVG 1.1//EN" "http://www.w3.org/Graphics/SVG/1.1/DTD/svg11.dtd">
<svg version="1.1" id="Layer_1" xmlns="http://www.w3.org/2000/svg" xmlns:xlink="http://www.w3.org/1999/xlink" x="0px" y="0px"
	 width="47.523px" height="44.617px" viewBox="0 0 47.523 44.617" enable-background="new 0 0 47.523 44.617" xml:space="preserve">
<polygon fill="#27C0DE" points="0,4.533 0,44.617 30.103,44.617 30.103,32.346 25.738,32.346 25.738,40.252 4.365,40.252 
	4.365,8.899 25.18,8.899 29.256,4.533 "/>
<polygon fill="#27C0DE" points="39.802,0 37.359,2.442 36.833,2.969 38.785,4.922 44.556,10.692 47.524,7.723 "/>
<polygon fill="#27C0DE" points="19,22.043 19.009,28.549 20.498,28.501 25.305,28.348 21,24.043 "/>
<polygon fill="#002E44" points="7.774,36.982 22.328,36.982 22.328,32.377 10.071,32.377 7.774,32.389 "/>
<rect x="7.983" y="23.939" fill="#002E44" width="7.07" height="4.594"/>
<path fill="#002E44" d="M28.947,26.299l1.156-1.154l8.684-8.683l5.77-5.77l-5.77-5.769l-1.954-1.954l-6.729,6.73l-4.365,4.365
	l-4.072,4.072l-0.441,0.442l0.354,0.352l4.16,4.161L28.947,26.299z M30.104,16.194l6.729-6.729l1.228,1.226l-7.956,7.956
	l-1.155,1.156l-1.229-1.226L30.104,16.194z"/>
</svg>
