<?xml version="1.0" encoding="utf-8"?>
<!-- Generator: Adobe Illustrator 16.0.0, SVG Export Plug-In . SVG Version: 6.00 Build 0)  -->
<!DOCTYPE svg PUBLIC "-//W3C//DTD SVG 1.1//EN" "http://www.w3.org/Graphics/SVG/1.1/DTD/svg11.dtd">
<svg version="1.1" id="Layer_1" xmlns="http://www.w3.org/2000/svg" xmlns:xlink="http://www.w3.org/1999/xlink" x="0px" y="0px"
	 width="40px" height="40px" viewBox="0 0 40 40" enable-background="new 0 0 40 40" xml:space="preserve">
<g>
	<path fill="#12C4E2" d="M35.502,11.536c0.025,0.347,0.025,0.693,0.025,1.04c0,10.575-8.049,22.759-22.759,22.759
		c-4.532,0-8.742-1.313-12.283-3.591c0.644,0.074,1.263,0.099,1.932,0.099c3.739,0,7.182-1.263,9.931-3.417
		c-3.517-0.074-6.464-2.378-7.479-5.548c0.495,0.074,0.991,0.124,1.511,0.124c0.718,0,1.436-0.099,2.105-0.272
		c-3.666-0.743-6.414-3.962-6.414-7.851c0-0.024,0-0.074,0-0.099c1.065,0.595,2.303,0.966,3.616,1.016
		c-2.155-1.437-3.566-3.888-3.566-6.662c0-1.486,0.396-2.848,1.09-4.037c3.938,4.854,9.856,8.024,16.493,8.371
		c-0.124-0.594-0.198-1.213-0.198-1.833c0-4.408,3.566-7.999,8-7.999c2.303,0,4.383,0.966,5.844,2.526
		c1.809-0.347,3.541-1.015,5.076-1.932c-0.594,1.857-1.857,3.417-3.516,4.408c1.609-0.173,3.17-0.619,4.605-1.238
		C38.424,8.985,37.063,10.396,35.502,11.536z"/>
</g>
</svg>
