<?xml version="1.0" encoding="utf-8"?>
<!-- Generator: Adobe Illustrator 16.0.0, SVG Export Plug-In . SVG Version: 6.00 Build 0)  -->
<!DOCTYPE svg PUBLIC "-//W3C//DTD SVG 1.1//EN" "http://www.w3.org/Graphics/SVG/1.1/DTD/svg11.dtd">
<svg version="1.1" id="Layer_1" xmlns="http://www.w3.org/2000/svg" xmlns:xlink="http://www.w3.org/1999/xlink" x="0px" y="0px"
	 width="255.768px" height="49.365px" viewBox="0 0 255.768 49.365" enable-background="new 0 0 255.768 49.365"
	 xml:space="preserve">
<path fill="#A4E0DE" d="M14.594,19.84L14.594,19.84c-1.68-0.069-3.217-0.959-4.115-2.379h0.011c-1.482-2.366-0.768-5.489,1.6-6.972
	c2.368-1.483,5.487-0.766,6.97,1.6c0.623,0.992,0.881,2.172,0.73,3.335c3.252,0.849,6.241,2.503,8.682,4.812
	c0.692-1.738,1.047-3.591,1.047-5.461h0.012C29.538,6.623,22.932,0.007,14.778,0C6.624-0.007,0.007,6.6,0,14.756
	c-0.003,3.133,0.991,6.186,2.84,8.717c0.309,0.421,0.637,0.828,0.988,1.214C6.586,21.644,10.487,19.887,14.594,19.84z"/>
<path fill="#FFFFFF" d="M29.528,34.242c-0.049-2-0.504-3.968-1.336-5.782c-0.206-0.445-0.432-0.884-0.681-1.312
	c-0.514-0.877-1.119-1.697-1.801-2.451c-2.66,2.926-6.384,4.667-10.336,4.828h-0.074L15.01,29.53h-0.091
	c1.691,0.06,3.246,0.955,4.148,2.388H19.06c1.478,2.372,0.753,5.493-1.617,6.967c-2.37,1.479-5.49,0.758-6.968-1.614
	c-0.587-0.943-0.849-2.053-0.743-3.157c-3.267-0.854-6.263-2.519-8.711-4.841c-0.664,1.695-1.005,3.505-1.008,5.328
	c-0.009,3.586,1.297,7.054,3.673,9.745c1.104,1.249,2.411,2.306,3.865,3.125c4.588,2.583,10.21,2.52,14.737-0.17
	C26.891,44.58,29.659,39.585,29.528,34.242z"/>
<path fill="#13C5E2" d="M25.696,24.684L25.696,24.684c-2.783-3.077-6.695-4.875-10.852-4.841h-0.248
	c-4.104,0.046-8.003,1.801-10.76,4.841l0.013,0.014c2.8,3.064,6.757,4.821,10.911,4.841h0.24l0.29-0.009h0.073
	c3.953-0.161,7.677-1.896,10.337-4.827C25.7,24.703,25.695,24.684,25.696,24.684z"/>
<rect x="86.779" y="17.502" fill="#FFFFFF" width="7.002" height="27.432"/>
<rect x="100.628" y="3.879" fill="#FFFFFF" width="7.003" height="41.054"/>
<polygon fill="#FFFFFF" points="126.033,36.373 119.965,17.448 112.611,17.509 122.461,44.883 129.344,44.883 139.099,17.452 
	131.971,17.452 "/>
<path fill="#FFFFFF" d="M160.454,28.662h-11.748c0.313-1.58,0.963-2.854,1.938-3.794c1.093-1.046,2.415-1.56,4.041-1.56
	c1.745,0,3.104,0.513,4.152,1.576C159.766,25.834,160.312,27.103,160.454,28.662z M163.898,21.092
	c-2.076-2.512-5.189-3.794-9.259-3.794c-2.505,0-4.776,0.598-6.751,1.777c-1.983,1.186-3.589,2.909-4.634,4.971
	c-1.093,2.104-1.644,4.544-1.644,7.248c0,2.7,0.544,5.13,1.621,7.217c1.037,2.056,2.649,3.769,4.638,4.928
	c1.989,1.159,4.317,1.747,6.91,1.747c2.209,0,4.255-0.413,6.075-1.23c1.801-0.799,3.396-1.993,4.669-3.497l0.284-0.34l-3.895-4.356
	l-0.379,0.418c-1.591,1.782-3.864,2.797-6.252,2.795c-1.699,0-3.089-0.484-4.248-1.479c-1.011-0.873-1.734-2.056-2.146-3.525h18.013
	l0.029-0.471c0.032-0.445,0.049-1.104,0.049-1.963c0-4.45-1.038-7.959-3.087-10.446L163.898,21.092z"/>
<path fill="#FFFFFF" d="M182.567,18.741c-1.024,0.652-1.906,1.497-2.604,2.485v-3.725h-7.001v27.432h7.001V32.173
	c0-2.308,0.282-4.333,2.12-6.168c1.701-1.7,3.359-2.146,5.72-2.126h0.539v-6.411l-0.521-0.009
	C185.835,17.499,184.069,17.792,182.567,18.741z"/>
<path fill="#FFFFFF" d="M196.363,14.23v3.232h-3.706v6.38h3.706v21.229h7.577V23.842h6.283v-6.38h-6.283v-2.389
	c0-3.109,2.205-4.187,3.904-4.187l2.374-0.051V3.879h-3.731C200.322,3.879,196.363,7.952,196.363,14.23z"/>
<path fill="#FFFFFF" d="M253.202,20.166L253.202,20.166c-1.72-1.93-4.094-2.91-7.065-2.91c-3.679,0.056-6.471,1.359-8.323,3.874
	v-3.628h-6.992v27.432h7.001V31.44c0-2.073,0.542-3.793,1.609-5.111c1.072-1.313,2.478-1.952,4.319-1.983
	c1.55,0,2.739,0.473,3.631,1.442c0.889,0.968,1.336,2.323,1.336,4.024v15.126h7.048V27.937
	C255.772,24.696,254.906,22.08,253.202,20.166z"/>
<path fill="#FFFFFF" d="M73.004,28.521l-3.703-0.792c-1.427-0.262-2.379-1.059-2.379-2.329c0-1.481,1.479-2.591,3.332-2.591
	c2.961,0,4.074,1.964,4.284,3.49l5.872-1.321c-0.317-2.802-2.805-7.51-10.208-7.51c-5.607,0-9.733,3.86-9.733,8.517
	c0,3.651,2.274,6.664,7.299,7.775l3.439,0.795c2.009,0.42,2.802,1.373,2.802,2.537c0,1.375-1.111,2.593-3.438,2.593
	c-3.068,0-4.601-1.904-4.76-3.969l-6.03,1.323c0.319,2.962,3.008,8.037,10.844,8.037c6.822,0,10.103-4.336,10.103-8.567
	C80.724,32.696,78.133,29.576,73.004,28.521z"/>
<path fill="#FFFFFF" d="M90.225,3.879c-2.323,0-4.206,1.884-4.206,4.207s1.883,4.207,4.206,4.207s4.206-1.884,4.206-4.207
	c0,0,0,0,0-0.002c0-2.32-1.879-4.205-4.201-4.205C90.229,3.879,90.226,3.879,90.225,3.879z"/>
<rect x="216.929" y="17.502" fill="#FFFFFF" width="7.003" height="27.432"/>
<circle fill="#FFFFFF" cx="220.431" cy="8.084" r="4.205"/>
<rect fill="none" width="255.768" height="49.365"/>
<rect fill="none" width="255.768" height="49.365"/>
</svg>
