<?xml version="1.0" encoding="utf-8"?>
<!-- Generator: Adobe Illustrator 16.0.0, SVG Export Plug-In . SVG Version: 6.00 Build 0)  -->
<!DOCTYPE svg PUBLIC "-//W3C//DTD SVG 1.1//EN" "http://www.w3.org/Graphics/SVG/1.1/DTD/svg11.dtd">
<svg version="1.1" id="Layer_1" xmlns="http://www.w3.org/2000/svg" xmlns:xlink="http://www.w3.org/1999/xlink" x="0px" y="0px"
	 width="50.806px" height="48.129px" viewBox="50.224 1.788 50.806 48.129" enable-background="new 50.224 1.788 50.806 48.129"
	 xml:space="preserve">
<title>Workflows 48px</title>
<path fill="#27C0DE" d="M67.228,43.959h17.586c1.027,3.526,4.258,5.953,7.933,5.957l0,0c4.575,0,8.283-3.708,8.283-8.283
	c0-4.574-3.708-8.283-8.283-8.283c-3.729,0-6.997,2.49-7.986,6.085H67.228c-3.038,0-5.502-2.461-5.503-5.5
	c-0.001-1.985,1.067-3.815,2.795-4.79c-0.231-0.972-0.348-1.965-0.351-2.963l0,0c0.002-0.601,0.048-1.201,0.138-1.795
	c-5.302,1.594-8.307,7.186-6.713,12.487c1.278,4.249,5.196,7.152,9.634,7.138V43.959z"/>
<path fill="#27C0DE" d="M77.263,34.933L77.263,34.933c4.85-0.006,8.777-3.942,8.771-8.793c-0.006-4.851-3.942-8.778-8.793-8.771
	c-4.85,0.006-8.777,3.942-8.772,8.792c0,0.004,0,0.007,0,0.011c0.013,4.851,3.954,8.773,8.804,8.761c0.007,0,0.015,0,0.021,0
	L77.263,34.933L77.263,34.933z M77.263,21.828c2.387,0.001,4.321,1.937,4.32,4.324c-0.001,2.385-1.935,4.319-4.32,4.32l0,0
	c-2.388-0.001-4.321-1.937-4.32-4.324C72.944,23.763,74.877,21.829,77.263,21.828z"/>
<path fill="#002D44" d="M58.998,19.386L58.998,19.386c3.986,0.016,7.48-2.665,8.496-6.52h19.498c3.038-0.001,5.502,2.46,5.503,5.499
	c0,1.86-0.938,3.595-2.497,4.611c0.258,1.042,0.39,2.112,0.393,3.186l0,0c-0.002,0.558-0.042,1.115-0.117,1.667
	c5.243-1.777,8.054-7.469,6.275-12.712c-1.387-4.091-5.237-6.833-9.557-6.806H67.495c-1.251-4.687-6.063-7.473-10.749-6.224
	c-4.687,1.25-7.473,6.061-6.224,10.748c1.024,3.841,4.501,6.516,8.476,6.52V19.386z M58.998,6.282c2.388,0,4.322,1.935,4.322,4.322
	s-1.935,4.322-4.322,4.322l0,0c-2.387,0-4.321-1.935-4.321-4.322C54.675,8.216,56.611,6.282,58.998,6.282z"/>
</svg>
