<svg xmlns="http://www.w3.org/2000/svg" width="19.76" height="22.36" viewBox="0 0 19.76 22.36">
  <g id="Group_32951" data-name="Group 32951" transform="translate(-474.259 -208.087)">
    <path id="Path_193" data-name="Path 193" d="M482.7,224.179a8.091,8.091,0,1,1-8.443,8.084,8.269,8.269,0,0,1,8.443-8.084" transform="translate(0 -9.9)" fill="#cce0ff"/>
    <path id="Path_194" data-name="Path 194" d="M486.308,214.728l2.425,2.335a1.02,1.02,0,0,1,.27.719l-.539,3.233,2.964-1.527a1.244,1.244,0,0,1,.808,0l2.964,1.527-.629-3.233a.6.6,0,0,1,.27-.719l2.425-2.335-3.323-.449c-.269-.09-.539-.18-.629-.449l-1.527-3.054-1.437,2.964a.676.676,0,0,1-.629.449Zm9.88,8.8c-.18,0-.269,0-.359-.09l-4.042-2.156-4.042,2.156a.983.983,0,0,1-1.168-.359,1.142,1.142,0,0,1-.09-.539l.808-4.581-3.323-3.144a.941.941,0,0,1,0-1.167,1.946,1.946,0,0,1,.449-.269l4.581-.629,2.066-4.131a.823.823,0,0,1,1.167-.449c.09.09.269.179.269.269l2.066,4.132,4.581.629a1.167,1.167,0,0,1,.719,1.078.494.494,0,0,1-.27.449l-3.323,3.144.808,4.491a.89.89,0,0,1-.718.988Z" transform="translate(-5.851 0)" fill="#056dff"/>
  </g>
</svg>
