<svg xmlns="http://www.w3.org/2000/svg" xmlns:xlink="http://www.w3.org/1999/xlink" width="160.029" height="20.714" viewBox="0 0 160.029 20.714">
  <defs>
    <clipPath id="clip-path">
      <path id="Path_12" data-name="Path 12" d="M0-12.541H160.029V-33.254H0Z" transform="translate(0 33.254)" fill="#fff"/>
    </clipPath>
  </defs>
  <g id="Group_13" data-name="Group 13" transform="translate(-655 33.254)">
    <g id="Group_12" data-name="Group 12" transform="translate(655 -33.254)" clip-path="url(#clip-path)">
      <g id="Group_1" data-name="Group 1" transform="translate(11.63 0)">
        <path id="Path_1" data-name="Path 1" d="M-5.082,0H-12.27a1.2,1.2,0,0,0-1.2,1.2,1.2,1.2,0,0,0,1.2,1.205h7.189A7.951,7.951,0,0,1,2.86,10.352a7.95,7.95,0,0,1-7.942,7.941h-5.983V10.352A1.205,1.205,0,0,0-12.27,9.146a1.205,1.205,0,0,0-1.2,1.205V19.5a1.2,1.2,0,0,0,1.2,1.2h7.189A10.363,10.363,0,0,0,5.27,10.352,10.363,10.363,0,0,0-5.082,0" transform="translate(13.475)" fill="#fff"/>
      </g>
      <g id="Group_2" data-name="Group 2" transform="translate(59.093 0.006)">
        <path id="Path_2" data-name="Path 2" d="M-9.667-2.864a1.206,1.206,0,0,0,1.7,0,1.205,1.205,0,0,0,0-1.7,10.362,10.362,0,0,0-14.638,0,10.282,10.282,0,0,0-3.032,7.319,10.284,10.284,0,0,0,3.031,7.32,10.284,10.284,0,0,0,7.32,3.032,10.282,10.282,0,0,0,7.319-3.032,1.2,1.2,0,0,0,0-1.7,1.2,1.2,0,0,0-1.7,0,7.892,7.892,0,0,1-5.615,2.326A7.893,7.893,0,0,1-20.9,8.367a7.891,7.891,0,0,1-2.326-5.616A7.89,7.89,0,0,1-20.9-2.864a7.951,7.951,0,0,1,11.231,0" transform="translate(25.633 7.595)" fill="#fff"/>
      </g>
      <g id="Group_3" data-name="Group 3" transform="translate(37.536 0)">
        <path id="Path_3" data-name="Path 3" d="M-8.868,0H-22.311a1.2,1.2,0,0,0-1.2,1.2,1.2,1.2,0,0,0,1.2,1.205H-8.868A1.2,1.2,0,0,0-7.664,1.2,1.2,1.2,0,0,0-8.868,0" transform="translate(23.516)" fill="#fff"/>
      </g>
      <g id="Group_4" data-name="Group 4" transform="translate(85.494 0)">
        <path id="Path_4" data-name="Path 4" d="M-.729,0a1.2,1.2,0,0,0-1.2,1.2V19.5a1.2,1.2,0,0,0,1.2,1.2,1.2,1.2,0,0,0,1.2-1.2V1.2A1.2,1.2,0,0,0-.729,0" transform="translate(1.933)" fill="#fff"/>
      </g>
      <g id="Group_5" data-name="Group 5" transform="translate(37.536 9.147)">
        <path id="Path_5" data-name="Path 5" d="M-8.868-5.538H-21.107v-6.737h7.419a1.2,1.2,0,0,0,1.2-1.205,1.205,1.205,0,0,0-1.2-1.2h-8.624a1.2,1.2,0,0,0-1.2,1.2v9.146a1.2,1.2,0,0,0,1.2,1.206H-8.868a1.2,1.2,0,0,0,1.2-1.206,1.2,1.2,0,0,0-1.2-1.2" transform="translate(23.516 14.684)" fill="#fff"/>
      </g>
      <g id="Group_6" data-name="Group 6" transform="translate(119.956 0)">
        <path id="Path_6" data-name="Path 6" d="M-8.868,0H-22.311a1.2,1.2,0,0,0-1.205,1.2v9.147a1.2,1.2,0,0,0,1.205,1.2h8.623a1.2,1.2,0,0,0,1.2-1.2,1.205,1.205,0,0,0-1.2-1.205h-7.419V2.41H-8.868A1.2,1.2,0,0,0-7.664,1.2,1.2,1.2,0,0,0-8.868,0" transform="translate(23.516)" fill="#fff"/>
      </g>
      <g id="Group_7" data-name="Group 7" transform="translate(119.956 18.294)">
        <path id="Path_7" data-name="Path 7" d="M-8.868,0H-22.311a1.2,1.2,0,0,0-1.205,1.2A1.2,1.2,0,0,0-22.311,2.41H-8.868A1.2,1.2,0,0,0-7.664,1.2,1.2,1.2,0,0,0-8.868,0" transform="translate(23.516)" fill="#fff"/>
      </g>
      <g id="Group_8" data-name="Group 8" transform="translate(144.176 0.001)">
        <path id="Path_8" data-name="Path 8" d="M-8.868-11.075H-21.107V-28.163a1.2,1.2,0,0,0-1.2-1.2,1.2,1.2,0,0,0-1.205,1.2V-9.871a1.2,1.2,0,0,0,1.205,1.206H-8.868a1.2,1.2,0,0,0,1.2-1.206,1.2,1.2,0,0,0-1.2-1.2" transform="translate(23.516 29.368)" fill="#fff"/>
      </g>
      <g id="Group_9" data-name="Group 9" transform="translate(96.701 0.001)">
        <path id="Path_9" data-name="Path 9" d="M-9.6-3.5a5.785,5.785,0,0,0-5.778-5.779h-8.87a1.2,1.2,0,0,0-1.2,1.2,1.2,1.2,0,0,0,1.2,1.205h8.87A3.372,3.372,0,0,1-12.007-3.5,3.372,3.372,0,0,1-15.375-.131h-2.93a1.2,1.2,0,0,0-1.2,1.2s0,0,0,.006,0,0,0,0a1.2,1.2,0,0,0,1.2,1.2h2.93a3.372,3.372,0,0,1,3.369,3.369,3.373,3.373,0,0,1-3.369,3.369H-23.04V1.074a1.205,1.205,0,0,0-1.205-1.2,1.2,1.2,0,0,0-1.2,1.2v9.157a1.2,1.2,0,0,0,1.2,1.2h8.87A5.784,5.784,0,0,0-9.6,5.658,5.764,5.764,0,0,0-11.865,1.08,5.764,5.764,0,0,0-9.6-3.5" transform="translate(25.45 9.277)" fill="#fff"/>
      </g>
      <g id="Group_10" data-name="Group 10" transform="translate(5.815 0.006)">
        <path id="Path_10" data-name="Path 10" d="M0-.728A1.2,1.2,0,0,0,1.2.474a1.2,1.2,0,0,0,1.2-1.2,1.2,1.2,0,0,0-1.2-1.2A1.2,1.2,0,0,0,0-.728" transform="translate(0 1.93)" fill="#fff"/>
      </g>
      <g id="Group_11" data-name="Group 11" transform="translate(0 0.006)">
        <path id="Path_11" data-name="Path 11" d="M0-.728A1.2,1.2,0,0,0,1.2.474a1.2,1.2,0,0,0,1.2-1.2,1.2,1.2,0,0,0-1.2-1.2A1.2,1.2,0,0,0,0-.728" transform="translate(0 1.93)" fill="#fff"/>
      </g>
    </g>
  </g>
</svg>