<svg xmlns="http://www.w3.org/2000/svg" width="25.564" height="19.953" viewBox="0 0 25.564 19.953">
  <g id="Group_32949" data-name="Group 32949" transform="translate(-570.502 -288.03)">
    <path id="Path_37651" data-name="Path 37651" d="M579.337,295.266A8.447,8.447,0,1,1,570.5,303.7a8.643,8.643,0,0,1,8.835-8.438" transform="translate(0 -4.159)" fill="#cce0ff"/>
    <path id="Path_37652" data-name="Path 37652" d="M591.412,298.652h14.2v-8.835h-14.2Zm14.1,1.787h-14.2a1.779,1.779,0,0,1-1.787-1.787v-8.835a1.78,1.78,0,0,1,1.787-1.787h14.2a1.78,1.78,0,0,1,1.787,1.787v8.835a1.78,1.78,0,0,1-1.787,1.787" transform="translate(-13.016 0)" fill="#056dff"/>
    <rect id="Rectangle_9350" data-name="Rectangle 9350" width="21.244" height="1.787" transform="translate(574.822 300.091)" fill="#056dff"/>
  </g>
</svg>
