<svg xmlns="http://www.w3.org/2000/svg" width="37.745" height="38.238" viewBox="0 0 37.745 38.238">
  <path id="Path_2" data-name="Path 2" d="M4220.083-429.456a2.771,2.771,0,0,0,3.57,0,2.048,2.048,0,0,0,0-3.148,23.8,23.8,0,0,0-30.658,0,17.933,17.933,0,0,0-6.349,13.523,17.939,17.939,0,0,0,6.338,13.521,23.078,23.078,0,0,0,15.329,5.6,23.071,23.071,0,0,0,15.329-5.6,2.046,2.046,0,0,0-.178-3.143,2.778,2.778,0,0,0-3.381,0,17.707,17.707,0,0,1-11.759,4.3,17.711,17.711,0,0,1-11.761-4.3,13.766,13.766,0,0,1-4.873-10.375,13.767,13.767,0,0,1,4.873-10.374,18.265,18.265,0,0,1,23.52,0" transform="translate(-4186.646 438.197)"/>
</svg>
