<svg xmlns="http://www.w3.org/2000/svg" width="16.378" height="13.813" viewBox="0 0 16.378 13.813">
  <g id="Group_32971" data-name="Group 32971" transform="translate(0 -3.384)">
    <path id="Path_37724" data-name="Path 37724" d="M187.487,423.886a6.915,6.915,0,1,1-7.251,6.906,7.085,7.085,0,0,1,7.251-6.906" transform="translate(-180.236 -420.502)" fill="#0464ec"/>
    <path id="Path_37725" data-name="Path 37725" d="M197.008,413.493a.452.452,0,0,0-.349.15l-.448.448a2.324,2.324,0,0,0-.3,2.888,11.549,11.549,0,0,0,3.386,3.387,2.338,2.338,0,0,0,2.888-.3l.448-.448a.542.542,0,0,0,0-.747l-.1-.05-.448-.349a.522.522,0,0,0-.647.05l-.149.149a1.624,1.624,0,0,1-2.241,0l-1.494-1.494a1.624,1.624,0,0,1,0-2.241l.149-.149a.469.469,0,0,0,.05-.648l-.3-.4a.523.523,0,0,0-.448-.249m3.486,8.317a3.176,3.176,0,0,1-1.793-.548,12.152,12.152,0,0,1-3.735-3.735,3.381,3.381,0,0,1,.448-4.183l.448-.448a1.624,1.624,0,0,1,2.241,0,1.087,1.087,0,0,1,.2.249l.3.448a1.583,1.583,0,0,1-.2,1.992l-.149.15a.541.541,0,0,0,0,.747l1.494,1.494a.541.541,0,0,0,.747,0l.149-.149a1.583,1.583,0,0,1,1.992-.2l.448.3a1.551,1.551,0,0,1,.448,2.191c-.05.1-.149.15-.2.249l-.448.448a3.574,3.574,0,0,1-2.39,1" transform="translate(-187.428 -408.637)" fill="#fff"/>
  </g>
</svg>
