<svg xmlns="http://www.w3.org/2000/svg" width="63.009" height="42.959" viewBox="0 0 63.009 42.959">
  <g id="Group_12" data-name="Group 12" opacity="0.07">
    <g id="Group_1" data-name="Group 1" transform="translate(24.125 0)">
      <path id="Path_1" data-name="Path 1" d="M2377.1,64.122H2362.19a2.5,2.5,0,0,0-2.5,2.5h0a2.5,2.5,0,0,0,2.5,2.5H2377.1a16.474,16.474,0,1,1,0,32.948H2364.69V85.6a2.5,2.5,0,0,0-5,.007v18.98a2.5,2.5,0,0,0,2.5,2.5H2377.1a21.48,21.48,0,0,0,0-42.959" transform="translate(-2359.692 -64.122)"/>
    </g>
    <g id="Group_10" data-name="Group 10" transform="translate(12.063 0.011)">
      <path id="Path_10" data-name="Path 10" d="M2350.8,66.623a2.492,2.492,0,0,0,2.492,2.495h0a2.494,2.494,0,0,0,2.5-2.492v0a2.5,2.5,0,0,0-2.493-2.493h0a2.494,2.494,0,0,0-2.493,2.493" transform="translate(-2350.795 -64.13)"/>
    </g>
    <g id="Group_11" data-name="Group 11" transform="translate(0 0.011)">
      <path id="Path_11" data-name="Path 11" d="M2341.9,66.623a2.492,2.492,0,0,0,2.492,2.495h0a2.494,2.494,0,0,0,2.495-2.492v0a2.494,2.494,0,0,0-2.493-2.493h0a2.493,2.493,0,0,0-2.493,2.493" transform="translate(-2341.897 -64.13)"/>
    </g>
  </g>
</svg>
