<svg xmlns="http://www.w3.org/2000/svg" width="314.185" height="253.515" viewBox="0 0 314.185 253.515">
  <g id="Group_32955" data-name="Group 32955" transform="translate(-8.407 14.583) rotate(-3)">
    <ellipse id="Ellipse_436" data-name="Ellipse 436" cx="4.914" cy="4.914" rx="4.914" ry="4.914" transform="translate(87.596 157.213) rotate(-31)" fill="#0de578"/>
    <ellipse id="Ellipse_437" data-name="Ellipse 437" cx="4.914" cy="4.914" rx="4.914" ry="4.914" transform="translate(3.507 187.1) rotate(-31)" fill="#fff"/>
    <ellipse id="Ellipse_438" data-name="Ellipse 438" cx="4.914" cy="4.914" rx="4.914" ry="4.914" transform="translate(137.615 91.614) rotate(-31)" fill="#fff"/>
    <ellipse id="Ellipse_439" data-name="Ellipse 439" cx="2.948" cy="2.948" rx="2.948" ry="2.948" transform="translate(219.503 44.703) rotate(-31)" fill="#0de578"/>
    <ellipse id="Ellipse_440" data-name="Ellipse 440" cx="2.948" cy="2.948" rx="2.948" ry="2.948" transform="translate(46.85 228.706) rotate(-31)" fill="#0de578"/>
    <ellipse id="Ellipse_441" data-name="Ellipse 441" cx="2.948" cy="2.948" rx="2.948" ry="2.948" transform="translate(171.847 118.056) rotate(-31)" fill="#0de578"/>
    <path id="Path_37696" data-name="Path 37696" d="M0,68.407,74.352,29.965l90.116,8.225L242.678,0l63.945,34.253" transform="translate(15.664 171.079) rotate(-31)" fill="none" stroke="#0de578" stroke-width="1" stroke-dasharray="2"/>
    <path id="Path_37697" data-name="Path 37697" d="M0,20.473C1.9,23.074,98.835,81,98.835,81L164.04,7.89l97.411,39.634L322.929,0" transform="translate(0 171.255) rotate(-31)" fill="none" stroke="#fff" stroke-width="1"/>
    <ellipse id="Ellipse_442" data-name="Ellipse 442" cx="2.948" cy="2.948" rx="2.948" ry="2.948" transform="translate(243.962 75.871) rotate(-31)" fill="#fff"/>
    <ellipse id="Ellipse_443" data-name="Ellipse 443" cx="4.914" cy="4.914" rx="4.914" ry="4.914" transform="translate(289.786 41.458) rotate(-31)" fill="#0de578"/>
    <ellipse id="Ellipse_444" data-name="Ellipse 444" cx="2.948" cy="2.948" rx="2.948" ry="2.948" transform="translate(273.581 3.037) rotate(-31)" fill="#fff"/>
  </g>
</svg>
