<svg xmlns="http://www.w3.org/2000/svg" width="15.673" height="15.611" viewBox="0 0 15.673 15.611">
  <g id="Group_32970" data-name="Group 32970" transform="translate(0 -0.381)">
    <path id="Path_37722" data-name="Path 37722" d="M127.126,421.085a6.9,6.9,0,1,1-7.237,6.893,7.071,7.071,0,0,1,7.237-6.893" transform="translate(-119.889 -418.879)" fill="#0464ec"/>
    <g id="Group_32972" data-name="Group 32972" transform="translate(-129.533 -413.234)">
      <path id="Path_37729" data-name="Path 37729" d="M144.066,413.615H137.42a1.135,1.135,0,0,0-1.14,1.139v6.711h-.506a1.646,1.646,0,0,0,0,3.292h8.292a1.123,1.123,0,0,0,1.14-1.076v-8.926A1.135,1.135,0,0,0,144.066,413.615Zm-8.229,10.128h-.063a.57.57,0,0,1,0-1.14v0h.506v.509A.629.629,0,0,1,135.837,423.743Zm8.229-.127h-6.773a1.516,1.516,0,0,0,.127-.57v-8.293h6.647Z" fill="#fff"/>
      <rect id="Rectangle_9434" data-name="Rectangle 9434" width="4.431" height="1.14" transform="translate(138.559 415.831)" fill="#fff"/>
      <rect id="Rectangle_9435" data-name="Rectangle 9435" width="2.216" height="1.14" transform="translate(138.559 418.109)" fill="#fff"/>
    </g>
  </g>
</svg>
