<svg xmlns="http://www.w3.org/2000/svg" width="61" height="61" viewBox="0 0 61 61">
  <g id="Group_32946" data-name="Group 32946" transform="translate(-10322 717.755)">
    <rect id="Rectangle_9412" data-name="Rectangle 9412" width="61" height="61" transform="translate(10322 -717.755)" fill="#056dff"/>
    <g id="Group_13" data-name="Group 13" transform="translate(10338.883 -696.776)">
      <g id="Group_164" data-name="Group 164" transform="translate(0 0)">
        <g id="Group_12" data-name="Group 12">
          <g id="Group_1" data-name="Group 1" transform="translate(10.588)">
            <path id="Path_1" data-name="Path 1" d="M839.051,521.4h-6.543a1.1,1.1,0,0,0,0,2.194h6.543a7.229,7.229,0,1,1,0,14.458H833.6v-7.229a1.1,1.1,0,1,0-2.193,0v8.328a1.1,1.1,0,0,0,1.1,1.095h6.543a9.423,9.423,0,0,0,0-18.846" transform="translate(-831.411 -521.401)" fill="#fff"/>
          </g>
          <g id="Group_10" data-name="Group 10" transform="translate(5.294 0.005)">
            <path id="Path_10" data-name="Path 10" d="M820.435,522.505a1.094,1.094,0,1,0,1.094-1.094h0a1.1,1.1,0,0,0-1.094,1.094h0" transform="translate(-820.435 -521.411)" fill="#fff"/>
          </g>
          <g id="Group_11" data-name="Group 11" transform="translate(0 0.005)">
            <path id="Path_11" data-name="Path 11" d="M809.461,522.505a1.094,1.094,0,1,0,1.094-1.094h0a1.1,1.1,0,0,0-1.094,1.094" transform="translate(-809.461 -521.411)" fill="#fff"/>
          </g>
        </g>
      </g>
    </g>
  </g>
</svg>
