<svg xmlns="http://www.w3.org/2000/svg" width="22.335" height="20.481" viewBox="0 0 22.335 20.481">
  <g id="Group_32918" data-name="Group 32918" transform="translate(-873 -998.881)">
    <g id="Group_32851" data-name="Group 32851" transform="translate(873 998.881)">
      <path id="Path_37645" data-name="Path 37645" d="M576.835,222.086a8.146,8.146,0,1,1-8.5,8.139,8.324,8.324,0,0,1,8.5-8.139" transform="translate(-568.338 -217.883)" fill="#cce0ff"/>
      <path id="Path_37646" data-name="Path 37646" d="M600.449,226.5a1.7,1.7,0,1,0,1.7,1.7,1.7,1.7,0,0,0-1.7-1.7m0,5.187a3.4,3.4,0,1,1,3.4-3.4,3.4,3.4,0,0,1-3.4,3.4" transform="translate(-586.049 -219.61)" fill="#056dff"/>
      <path id="Path_37647" data-name="Path 37647" d="M589.12,222.92l.447.447a4.706,4.706,0,0,0,2.325,1.342l.537.179.179,1.789h1.073l.179-1.789.536-.179a5.492,5.492,0,0,0,2.326-1.342l.357-.447,1.789.716.536-.895-1.341-1.073.179-.536a4.574,4.574,0,0,0,0-2.683l-.268-.626,1.431-1.073-.536-.895-1.61.716-.358-.447a4.608,4.608,0,0,0-2.415-1.342l-.537-.179-.179-1.789h-1.163l-.179,1.789-.537.179a5.5,5.5,0,0,0-2.325,1.342l-.447.447-1.61-.716-.536.895,1.431,1.073-.179.536a4.569,4.569,0,0,0,0,2.683l.179.537-1.431,1.073.536.894Zm4.561,5.366h-1.073a1.666,1.666,0,0,1-1.7-1.52l-.09-.626a6.463,6.463,0,0,1-2.146-1.252l-.537.268a1.72,1.72,0,0,1-2.146-.715l-.537-.895a1.694,1.694,0,0,1,.448-2.236l.536-.358a5.906,5.906,0,0,1,0-2.5l-.536-.358a1.7,1.7,0,0,1-.448-2.236l.537-.894a1.72,1.72,0,0,1,2.146-.715l.537.268a6.449,6.449,0,0,1,2.146-1.252l.09-.626a1.666,1.666,0,0,1,1.7-1.52h1.073a1.666,1.666,0,0,1,1.7,1.52l.09.626a6.452,6.452,0,0,1,2.146,1.252l.536-.268a1.721,1.721,0,0,1,2.147.715l.536.894a1.7,1.7,0,0,1-.447,2.236l-.536.358a5.919,5.919,0,0,1,0,2.5l.536.358a1.676,1.676,0,0,1,.447,2.236l-.536.895a1.721,1.721,0,0,1-2.147.715l-.536-.268a6.466,6.466,0,0,1-2.146,1.252l-.09.626a1.737,1.737,0,0,1-1.7,1.52" transform="translate(-578.745 -211.115)" fill="#056dff"/>
    </g>
  </g>
</svg>
