<svg xmlns="http://www.w3.org/2000/svg" width="33.523" height="43.783" viewBox="0 0 33.523 43.783">
  <g id="Group_32954" data-name="Group 32954" opacity="0.07">
    <g id="Group_6" data-name="Group 6" transform="translate(0)">
      <path id="Path_6" data-name="Path 6" d="M4965.544-438.267h-28.433a2.546,2.546,0,0,0-2.548,2.546h0v19.35a2.547,2.547,0,0,0,2.547,2.547h18.239a2.547,2.547,0,0,0,2.546-2.547h0a2.548,2.548,0,0,0-2.546-2.547h-15.69v-14.254h25.886a2.547,2.547,0,0,0,2.542-2.549,2.546,2.546,0,0,0-2.542-2.547" transform="translate(-4934.563 438.267)"/>
    </g>
    <g id="Group_7" data-name="Group 7" transform="translate(0 38.687)">
      <path id="Path_7" data-name="Path 7" d="M4965.544-213.465h-28.433a2.546,2.546,0,0,0-2.548,2.546h0a2.547,2.547,0,0,0,2.544,2.55h28.437a2.546,2.546,0,0,0,2.542-2.55h0a2.546,2.546,0,0,0-2.542-2.546" transform="translate(-4934.563 213.465)"/>
    </g>
  </g>
</svg>
