<?xml version="1.0" standalone="no"?>
<!DOCTYPE svg PUBLIC "-//W3C//DTD SVG 20010904//EN"
 "http://www.w3.org/TR/2001/REC-SVG-20010904/DTD/svg10.dtd">
<svg version="1.0" xmlns="http://www.w3.org/2000/svg"
 width="448.000000pt" height="199.000000pt" viewBox="0 0 448.000000 199.000000"
 preserveAspectRatio="xMidYMid meet">
<metadata>
Created by potrace 1.16, written by Peter Selinger 2001-2019
</metadata>
<g transform="translate(0.000000,199.000000) scale(0.100000,-0.100000)"
fill="#000000" stroke="none">
<path d="M10 995 l0 -975 390 0 390 0 0 975 0 975 -390 0 -390 0 0 -975z"/>
<path d="M800 995 l0 -975 1620 0 1620 0 0 904 0 904 -33 20 c-61 36 -201 84
-300 103 -93 18 -163 19 -1502 19 l-1405 0 0 -975z"/>
<path d="M4050 920 l0 -900 210 0 210 0 0 696 0 695 -40 59 c-54 80 -128 162
-202 227 -60 52 -160 123 -172 123 -3 0 -6 -405 -6 -900z"/>
</g>
</svg>
