<svg id="Component_18_1" data-name="Component 18 – 1" xmlns="http://www.w3.org/2000/svg" width="20.057" height="21.611" viewBox="0 0 20.057 21.611">
  <g id="Group_33338" data-name="Group 33338" transform="translate(-135.001 -168.996)">
    <path id="Path_37691" data-name="Path 37691" d="M678.422,310.322a8.133,8.133,0,1,1-8.472,8.126,8.3,8.3,0,0,1,8.472-8.126" transform="translate(-534.949 -135.966)" fill="#cce0ff"/>
    <path id="Path_37692" data-name="Path 37692" d="M682.651,297.579v8.558h9.77l2.852-4.236-2.852-4.236h-9.77Zm9.77,10.2h-9.77a1.734,1.734,0,0,1-1.729-1.729v-8.472a1.734,1.734,0,0,1,1.729-1.729h9.77a1.466,1.466,0,0,1,1.383.778l2.853,4.236a1.873,1.873,0,0,1,0,1.9l-2.853,4.323a1.57,1.57,0,0,1-1.383.691" transform="translate(-541.858 -126.854)" fill="#056dff"/>
  </g>
</svg>
