<svg xmlns="http://www.w3.org/2000/svg" xmlns:xlink="http://www.w3.org/1999/xlink" width="202.443" height="101.806" viewBox="0 0 202.443 101.806">
  <defs>
    <clipPath id="clip-path">
      <path id="Path_37668" data-name="Path 37668" d="M0-30.084H48.308V-46.917H0Z" transform="translate(0 46.917)" fill="#e1e1e1"/>
    </clipPath>
    <clipPath id="clip-path-2">
      <path id="Path_37681" data-name="Path 37681" d="M0-12.872H89.831V-23.964H0Z" transform="translate(0 23.964)" fill="#e1e1e1"/>
    </clipPath>
    <clipPath id="clip-path-3">
      <path id="Path_37683" data-name="Path 37683" d="M0-21.267H37.288V-37.723H0Z" transform="translate(0 37.723)" fill="#e1e1e1"/>
    </clipPath>
  </defs>
  <g id="Group_33345" data-name="Group 33345" transform="translate(-1169.568 -300.307)">
    <g id="Dixons_Carphone" data-name="Dixons Carphone" transform="translate(1169.568 300.307)">
      <g id="Group_32983" data-name="Group 32983" transform="translate(0 0)" clip-path="url(#clip-path)">
        <g id="Group_32975" data-name="Group 32975" transform="translate(7.9 7.73)">
          <path id="Path_37660" data-name="Path 37660" d="M-65.436-7.407a1.443,1.443,0,0,1,1.45-1.431,1.458,1.458,0,0,1,1.46,1.431ZM-62.546-6a1.221,1.221,0,0,1-1.313.99,1.492,1.492,0,0,1-1.577-1.666h3.792c.049-1.225-.5-2.9-2.293-2.9a2.438,2.438,0,0,0-2.381,2.636c.049,1.548.813,2.665,2.43,2.665A2.042,2.042,0,0,0-61.723-6Zm-8.49,1.607h.833V-7.251a1.423,1.423,0,0,1,1.5-1.587.954.954,0,0,1,1.029,1.019V-4.39h.833V-7.721c0-1.088-.412-1.852-1.744-1.852a1.764,1.764,0,0,0-1.646.921h-.02v-.8h-.784Zm-4.579-2.528c0-1.235.705-1.921,1.578-1.921s1.577.686,1.577,1.921-.705,1.911-1.577,1.911-1.578-.686-1.578-1.911m-.882,0a2.4,2.4,0,0,0,2.459,2.646,2.4,2.4,0,0,0,2.459-2.646,2.4,2.4,0,0,0-2.459-2.655A2.4,2.4,0,0,0-76.5-6.918M-86.573-2.45h.833V-5.066h.02a1.939,1.939,0,0,0,1.636.794,2.34,2.34,0,0,0,2.313-2.636A2.374,2.374,0,0,0-84.1-9.573a1.7,1.7,0,0,0-1.616.8h-.02v-.686h-.833Zm3.919-4.517c0,.99-.382,1.96-1.518,1.96s-1.6-.921-1.6-1.921c0-.95.431-1.911,1.548-1.911,1.078,0,1.567.921,1.567,1.871M-89.712-4.39h.833V-6.643c0-1.284.49-2.048,1.832-2.048v-.882a1.842,1.842,0,0,0-1.862,1.186h-.019V-9.455h-.784Zm-6.145-4.889a2.677,2.677,0,0,0-2.881-2.273c-2.155,0-3.311,1.656-3.311,3.684s1.058,3.645,3.233,3.645a2.848,2.848,0,0,0,3.027-2.8h-.931a1.979,1.979,0,0,1-2.018,2.018c-1.675,0-2.381-1.333-2.381-2.93,0-1.46.705-2.831,2.371-2.831a1.843,1.843,0,0,1,1.96,1.489Z" transform="translate(102.049 11.552)" fill="#e1e1e1"/>
        </g>
        <g id="Group_32976" data-name="Group 32976" transform="translate(14.662 9.709)">
          <path id="Path_37661" data-name="Path 37661" d="M-8.581-.21h-.833V.475h-.019a1.705,1.705,0,0,0-1.617-.8,2.373,2.373,0,0,0-2.332,2.665A2.34,2.34,0,0,0-11.07,4.973a1.941,1.941,0,0,0,1.636-.794h.019v.673h.833ZM-12.5,2.278c0-.95.49-1.872,1.568-1.872,1.117,0,1.548.96,1.548,1.911,0,1-.451,1.921-1.6,1.921s-1.519-.97-1.519-1.96" transform="translate(13.382 0.328)" fill="#e1e1e1"/>
        </g>
        <g id="Group_32977" data-name="Group 32977" transform="translate(8.123 0.044)">
          <path id="Path_37662" data-name="Path 37662" d="M-39.192-9.648c.049,1.254,1.009,1.715,2.146,1.715,1.029,0,2.156-.392,2.156-1.6,0-.98-.823-1.254-1.656-1.44-.774-.186-1.656-.284-1.656-.882,0-.509.578-.647,1.078-.647.549,0,1.117.206,1.176.852h.833c-.068-1.235-.96-1.588-2.077-1.588-.882,0-1.891.422-1.891,1.44,0,.97.833,1.244,1.656,1.43s1.656.294,1.656.941-.706.754-1.225.754c-.686,0-1.332-.235-1.362-.98Zm-4.7,1.6h.833v-2.861a1.424,1.424,0,0,1,1.5-1.588.955.955,0,0,1,1.029,1.019v3.43h.832v-3.331c0-1.088-.411-1.852-1.744-1.852a1.763,1.763,0,0,0-1.646.921h-.02v-.8h-.784Zm-4.427-2.528c0-1.235.705-1.921,1.578-1.921s1.577.686,1.577,1.921-.705,1.91-1.577,1.91-1.578-.686-1.578-1.91m-.882,0a2.4,2.4,0,0,0,2.459,2.645,2.4,2.4,0,0,0,2.459-2.645,2.4,2.4,0,0,0-2.459-2.655A2.4,2.4,0,0,0-49.2-10.579m-4.47,2.528h1.01l1.411-2.1,1.411,2.1h1.068l-1.96-2.734,1.744-2.332h-1l-1.264,1.773-1.215-1.773h-1.068l1.764,2.4Zm-.306-7h-.833v1.019h.833Zm-.832,7h.833v-5.066H-54.8Zm-5.384-6.212h1.567c1.715,0,2.332,1.01,2.332,2.675,0,2.577-1.715,2.754-2.351,2.754h-1.548Zm-.931,6.212h2.4c2.332,0,3.361-1.323,3.361-3.665,0-2.253-1.205-3.331-3.361-3.331h-2.4Z" transform="translate(61.12 15.046)" fill="#e1e1e1"/>
        </g>
        <g id="Group_32978" data-name="Group 32978" transform="translate(28.712 7.897)">
          <path id="Path_37663" data-name="Path 37663" d="M0-12.5H.833v-2.861a1.423,1.423,0,0,1,1.5-1.587.954.954,0,0,1,1.029,1.019V-12.5h.833v-3.331c0-1.087-.412-1.852-1.744-1.852a1.715,1.715,0,0,0-1.6.862H.833V-19.5H0Z" transform="translate(0 19.499)" fill="#e1e1e1"/>
        </g>
        <g id="Group_32979" data-name="Group 32979" transform="translate(3.833 0.003)">
          <path id="Path_37664" data-name="Path 37664" d="M0-1.3A9.015,9.015,0,0,1,1.417.372Q1.532.314,1.65.262V-2.026A7.664,7.664,0,0,0,0-1.3" transform="translate(0 2.026)" fill="#e1e1e1"/>
        </g>
        <g id="Group_32980" data-name="Group 32980" transform="translate(0 12.509)">
          <path id="Path_37665" data-name="Path 37665" d="M0-.183V2.106a7.674,7.674,0,0,0,1.636-.72A9.012,9.012,0,0,1,.217-.285c-.071.036-.144.07-.217.1" transform="translate(0 0.285)" fill="#e1e1e1"/>
        </g>
        <g id="Group_32981" data-name="Group 32981" transform="translate(0 0)">
          <path id="Path_37666" data-name="Path 37666" d="M-5.954-13.24l.01.2a4.418,4.418,0,0,0,1.4,3.107,7.779,7.779,0,0,0,.734-3.3,7.73,7.73,0,0,0-5.477-7.418v2.288a5.577,5.577,0,0,1,3.332,5.12" transform="translate(9.286 20.648)" fill="#e1e1e1"/>
        </g>
        <g id="Group_32982" data-name="Group 32982" transform="translate(0.005 4.187)">
          <path id="Path_37667" data-name="Path 37667" d="M-1.313,0A7.763,7.763,0,0,0,.877,9.366L.918,9.4a7.691,7.691,0,0,0,2.513,1.318V8.428A5.623,5.623,0,0,1,.1,3.312L.09,3.267V3.231A4.387,4.387,0,0,0-1.313,0" transform="translate(2.047)" fill="#e1e1e1"/>
        </g>
      </g>
    </g>
    <g id="River_Island" data-name="River Island" transform="translate(1281.572 301.051)">
      <g id="Group_32997" data-name="Group 32997" transform="translate(0 0)" clip-path="url(#clip-path-2)">
        <g id="Group_32985" data-name="Group 32985" transform="translate(46.633 0)">
          <path id="Path_37669" data-name="Path 37669" d="M-4.7,0C-4.209.168-3.691.22-3.2.405c.254.1.381.2.354.494-.031.336-.007.677-.007,1.05A10.341,10.341,0,0,0-4.11,1.376a3.686,3.686,0,0,0-2.067-.188,1.369,1.369,0,0,0-.7,2.344,4.357,4.357,0,0,0,1.332.891A15.79,15.79,0,0,1-3.612,5.479a2.983,2.983,0,0,1,1.337,3.25,2.909,2.909,0,0,1-2.6,2.293c-.049.008-.09.013-.1.071H-6.806c-.472-.218-1-.272-1.477-.472-.343-.142-.5-.309-.455-.687A9.622,9.622,0,0,0-8.731,8.9,5.007,5.007,0,0,0-5.911,9.99,3,3,0,0,0-4.7,9.85a1.557,1.557,0,0,0,.619-2.626A6.7,6.7,0,0,0-5.973,6.04a8.87,8.87,0,0,1-1.561-.93A2.84,2.84,0,0,1-8.605,2.056,2.615,2.615,0,0,1-6.312.075C-6.241.061-6.141.11-6.1,0h.351a1.255,1.255,0,0,0,.914,0Z" transform="translate(8.745)" fill="#e1e1e1"/>
        </g>
        <g id="Group_32986" data-name="Group 32986" transform="translate(49.626 0)">
          <path id="Path_37670" data-name="Path 37670" d="M-1.06,0a1.255,1.255,0,0,1-.914,0Z" transform="translate(1.974)" fill="#e1e1e1"/>
        </g>
        <g id="Group_32987" data-name="Group 32987" transform="translate(0 0.186)">
          <path id="Path_37671" data-name="Path 37671" d="M-4.986-6.726l3.2,4.905c-.6,0-1.131,0-1.665,0-.118,0-.158-.075-.208-.154q-1.68-2.606-3.359-5.213a.569.569,0,0,1-.037-.12A8.394,8.394,0,0,0-5.765-7.43,1.706,1.706,0,0,0-4.423-8.912a2.982,2.982,0,0,0-.031-1.116,1.8,1.8,0,0,0-1.82-1.409c-.362-.025-.727,0-1.088-.025-.285-.023-.371.052-.37.355.013,2.97,0,5.941.017,8.912,0,.325-.094.394-.389.37a7.191,7.191,0,0,0-.947,0c-.193.01-.231-.061-.231-.238q.007-5.105,0-10.21c0-.109-.042-.238.157-.232a30.467,30.467,0,0,1,3.858.1A2.689,2.689,0,0,1-2.894-10.5,2.884,2.884,0,0,1-3.61-7.458a3.09,3.09,0,0,1-1.377.732" transform="translate(9.283 12.522)" fill="#e1e1e1"/>
        </g>
        <g id="Group_32988" data-name="Group 32988" transform="translate(29.054 0.205)">
          <path id="Path_37672" data-name="Path 37672" d="M-5.031-6.727l3.2,4.884c-.589,0-1.121,0-1.653,0-.114,0-.163-.064-.215-.145L-7.057-7.237c-.011-.017-.006-.044-.01-.09A8.614,8.614,0,0,0-5.8-7.455,1.648,1.648,0,0,0-4.528-8.677,2.76,2.76,0,0,0-4.5-10.03,1.68,1.68,0,0,0-5.957-11.4a11.942,11.942,0,0,0-1.611-.074c-.3-.011-.2.2-.2.334-.005,2.97-.01,5.94.005,8.911,0,.33-.093.42-.4.386-.379-.042-.891.161-1.105-.079-.188-.21-.055-.711-.055-1.084,0-3.064,0-6.127-.006-9.192,0-.249.039-.341.317-.331,1.157.043,2.318-.055,3.474.073a2.886,2.886,0,0,1,2.4,4.307,2.882,2.882,0,0,1-1.9,1.416" transform="translate(9.367 12.525)" fill="#e1e1e1"/>
        </g>
        <g id="Group_32989" data-name="Group 32989" transform="translate(21.636 0.208)">
          <path id="Path_37673" data-name="Path 37673" d="M-.007-6.18c0-1.673.006-3.346-.006-5.019,0-.247.063-.308.308-.306q2.565.017,5.13,0c.244,0,.314.061.312.308-.008.748,0,.748-.741.748-1.054,0-2.109.006-3.163-.005-.223,0-.295.048-.292.283q.022,1.491,0,2.983c0,.245.082.281.3.279,1.136-.009,2.272,0,3.408-.009.225,0,.33.026.327.295-.009.756.005.756-.766.756-1,0-1.992.006-2.987,0-.21,0-.281.043-.279.268q.017,1.737,0,3.474c0,.232.08.261.28.26,1.324-.008,2.647,0,3.971-.012.271,0,.33.076.324.334-.014.723,0,.723-.731.723-1.7,0-3.4-.006-5.1.006-.249,0-.306-.065-.3-.308C0-2.811-.007-4.495-.007-6.18" transform="translate(0.013 11.505)" fill="#e1e1e1"/>
        </g>
        <g id="Group_32990" data-name="Group 32990" transform="translate(11.593 0.203)">
          <path id="Path_37674" data-name="Path 37674" d="M0-.012c.53,0,1.022.015,1.512-.006.244-.011.256.157.306.3Q3.167,4.127,4.512,7.972c.046.131.1.259.168.442l1.375-4c.473-1.378.95-2.755,1.414-4.136.075-.224.175-.322.42-.294a3.6,3.6,0,0,0,.667,0c.23-.017.28.036.194.267-.3.809-.578,1.625-.865,2.438-.9,2.55-1.8,5.1-2.692,7.653a.406.406,0,0,1-.469.327c-.9-.019-.9-.008-1.2-.862Q1.821,5.068.12.329L0-.012" transform="translate(0 0.022)" fill="#e1e1e1"/>
        </g>
        <g id="Group_32991" data-name="Group 32991" transform="translate(8.657 0.204)">
          <path id="Path_37675" data-name="Path 37675" d="M-1.854-6.2c0,1.673-.006,3.346.006,5.018,0,.254-.047.355-.322.333a8.889,8.889,0,0,0-1.018,0c-.189.007-.264-.035-.264-.247q.01-5.088,0-10.177c0-.191.041-.272.249-.261a7.657,7.657,0,0,0,.983,0c.284-.022.375.053.372.355C-1.863-9.52-1.854-7.859-1.854-6.2" transform="translate(3.452 11.54)" fill="#e1e1e1"/>
        </g>
        <g id="Group_32992" data-name="Group 32992" transform="translate(43.15 0.205)">
          <path id="Path_37676" data-name="Path 37676" d="M-1.826-6.239c0,1.661-.006,3.323.006,4.984,0,.251-.042.354-.319.33a8.59,8.59,0,0,0-1.018,0c-.175.006-.242-.031-.242-.226q.01-5.107,0-10.214c0-.213.078-.249.263-.242a7.8,7.8,0,0,0,.948,0c.283-.023.374.049.371.353-.017,1.673-.008,3.346-.008,5.019" transform="translate(3.4 11.615)" fill="#e1e1e1"/>
        </g>
        <g id="Group_32993" data-name="Group 32993" transform="translate(81.519 0.222)">
          <path id="Path_37677" data-name="Path 37677" d="M-.008-6.178c0-1.66.007-3.321-.007-4.981,0-.281.077-.349.349-.342,1.182.03,2.364-.025,3.546.055A4.4,4.4,0,0,1,8.224-7.3a7.691,7.691,0,0,1-.369,3.727A4.135,4.135,0,0,1,4.32-.915a36.305,36.305,0,0,1-4.139.1c-.243.007-.188-.146-.188-.276q0-2.543,0-5.086M1.56-6.2c0,1.332.006,2.665-.005,4,0,.228.057.3.291.3.55-.011,1.1-.011,1.648-.061A3.11,3.11,0,0,0,6.409-4.342a6.582,6.582,0,0,0,.019-3.6,3.052,3.052,0,0,0-2.652-2.405,14.242,14.242,0,0,0-1.889-.11c-.259-.006-.336.058-.333.326C1.568-8.819,1.56-7.51,1.56-6.2" transform="translate(0.015 11.502)" fill="#e1e1e1"/>
        </g>
        <g id="Group_32994" data-name="Group 32994" transform="translate(71.728 0.181)">
          <path id="Path_37678" data-name="Path 37678" d="M-7.879-8.948c0-2.511.006-4.919-.008-7.328,0-.3.075-.388.365-.356.265.03.62-.084.779.05.19.159.061.525.061.8.006,3.157,0,6.315.011,9.473,0,.285-.063.347-.355.372A1.1,1.1,0,0,1-8.132-6.5c-1.728-2.456-3.493-4.885-5.307-7.41v.44c0,2.4,0,4.795.006,7.192,0,.249-.039.367-.318.329s-.669.122-.838-.063c-.142-.156-.05-.531-.05-.809,0-3.158,0-6.315-.008-9.473,0-.28.087-.31.344-.346a1.386,1.386,0,0,1,1.469.749c1.533,2.221,3.128,4.4,4.7,6.595.066.092.134.181.257.349" transform="translate(14.669 16.659)" fill="#e1e1e1"/>
        </g>
        <g id="Group_32995" data-name="Group 32995" transform="translate(61.51 0.181)">
          <path id="Path_37679" data-name="Path 37679" d="M-10.514-12.424c-.516,0-1.007-.009-1.5,0-.181.005-.235-.077-.287-.227-.275-.781-.569-1.555-.84-2.337a.328.328,0,0,0-.372-.265q-1.792.017-3.584,0a.3.3,0,0,0-.345.249c-.262.773-.545,1.538-.81,2.31-.064.187-.141.3-.363.268a4.971,4.971,0,0,1-.96-.049c.1-.3.189-.6.3-.891q1.715-4.716,3.428-9.434c.087-.242.2-.334.45-.306.31.034.7-.12.916.063.2.169.239.541.345.825q1.762,4.737,3.522,9.474c.036.1.064.194.1.315M-15.314-21c-.545,1.541-1.06,3-1.582,4.463-.079.221,0,.246.2.243.667-.01,1.334,0,2,0h1.078l-1.7-4.7" transform="translate(19.574 23.13)" fill="#e1e1e1"/>
        </g>
        <g id="Group_32996" data-name="Group 32996" transform="translate(55.013 0.203)">
          <path id="Path_37680" data-name="Path 37680" d="M-6.8-11.18c-.116.325-.231.628-.33.935-.041.125-.127.114-.219.114-1.7,0-3.394-.005-5.091.006-.251,0-.214-.137-.214-.287q0-2.981,0-5.962c0-1.367.006-2.735-.006-4.1,0-.246.032-.36.317-.334a5.436,5.436,0,0,0,.982,0c.29-.026.28.124.28.33q-.006,4.419,0,8.837c0,.463,0,.463.455.463H-6.8" transform="translate(12.658 20.815)" fill="#e1e1e1"/>
        </g>
      </g>
    </g>
    <g id="Walmart" transform="translate(1169.568 339.983)">
      <g id="Group_33253" data-name="Group 33253" transform="translate(0 0)">
        <g id="Group_33252" data-name="Group 33252">
          <g id="Group_33251" data-name="Group 33251">
            <g id="Group_33250" data-name="Group 33250">
              <path id="Path_38134" data-name="Path 38134" d="M113.879,102.158c0-1.877-.8-3.527-3.51-3.527a6.414,6.414,0,0,0-3.1.738l.441,1.508a4.534,4.534,0,0,1,2.258-.635c1.374,0,1.6.778,1.6,1.279v.118c-3,0-4.887,1.032-4.887,3.145a2.494,2.494,0,0,0,2.639,2.5,3,3,0,0,0,2.409-1.07h.052s.342,1.43,2.226.883a12.241,12.241,0,0,1-.13-1.995m-2.236-.963a1.6,1.6,0,0,1-.056.448,1.57,1.57,0,0,1-1.511,1.059,1.023,1.023,0,0,1-1.112-1.1c0-1.137,1.253-1.452,2.679-1.444Z" transform="translate(-67.22 -91.206)" fill="#e1e1e1"/>
              <path id="Path_38135" data-name="Path 38135" d="M18,92.89s1.956,8.018,2.269,9.32c.364,1.519,1.021,2.078,2.915,1.7l1.221-4.971c.31-1.236.518-2.115.716-3.372h.035a32.839,32.839,0,0,0,.594,3.375s.5,2.257.752,3.442.966,1.932,2.821,1.525L32.236,92.89H29.885l-.994,4.765c-.268,1.387-.509,2.471-.7,3.741h-.033c-.17-1.257-.385-2.3-.658-3.649L26.469,92.89h-2.45l-1.106,4.734c-.314,1.438-.607,2.6-.794,3.826h-.033c-.192-1.154-.446-2.614-.721-4.006,0,0-.659-3.385-.889-4.553" transform="translate(-18 -88.02)" fill="#e1e1e1"/>
              <path id="Path_38136" data-name="Path 38136" d="M56.028,102.158c0-1.877-.8-3.527-3.509-3.527a6.416,6.416,0,0,0-3.1.738l.441,1.508a4.531,4.531,0,0,1,2.258-.635c1.375,0,1.6.778,1.6,1.279v.118c-3,0-4.887,1.032-4.887,3.145a2.493,2.493,0,0,0,2.638,2.5,3,3,0,0,0,2.41-1.07h.05s.343,1.43,2.229.883a12.031,12.031,0,0,1-.132-1.995m-2.236-.963a1.527,1.527,0,0,1-.056.448,1.568,1.568,0,0,1-1.509,1.059,1.022,1.022,0,0,1-1.112-1.1c0-1.137,1.252-1.452,2.677-1.444Z" transform="translate(-35.113 -91.206)" fill="#e1e1e1"/>
              <path id="Path_38137" data-name="Path 38137" d="M70.6,101.569V92.888H68.358V103.91H70.6" transform="translate(-45.949 -88.019)" fill="#e1e1e1"/>
              <path id="Path_38138" data-name="Path 38138" d="M139.191,92.89v8.131a3.411,3.411,0,0,0,.663,2.386,2.476,2.476,0,0,0,1.82.691,5.3,5.3,0,0,0,1.62-.24l-.029-1.749a3.407,3.407,0,0,1-.85.1c-.762,0-1.017-.488-1.017-1.495v-3.11h1.948V95.5H141.4V92.89" transform="translate(-85.262 -88.02)" fill="#e1e1e1"/>
              <path id="Path_38139" data-name="Path 38139" d="M126.208,98.818V107.1h2.308v-4.24a3.2,3.2,0,0,1,.05-.611,1.744,1.744,0,0,1,1.826-1.455,4.212,4.212,0,0,1,.665.059V98.682a2.2,2.2,0,0,0-.508-.051,2.436,2.436,0,0,0-2.253,1.748h-.063V98.818" transform="translate(-78.056 -91.206)" fill="#e1e1e1"/>
              <path id="Path_38140" data-name="Path 38140" d="M76.909,98.818V107.1h2.25v-4.855a1.926,1.926,0,0,1,.106-.678,1.525,1.525,0,0,1,1.367-1.061c.908,0,1.333.767,1.333,1.876V107.1h2.247v-4.914a2.289,2.289,0,0,1,.094-.672,1.417,1.417,0,0,1,1.35-1.009c.921,0,1.362.755,1.362,2.058V107.1h2.249v-4.876c0-2.572-1.306-3.59-2.779-3.59a3,3,0,0,0-1.634.449,3.489,3.489,0,0,0-1.049,1.031h-.033a2.361,2.361,0,0,0-2.282-1.481,2.607,2.607,0,0,0-2.411,1.312h-.033V98.818" transform="translate(-50.695 -91.206)" fill="#e1e1e1"/>
              <path id="Path_38141" data-name="Path 38141" d="M174.1,88.339a.814.814,0,0,0,.86-.53l.439-4.97c0-.491-.575-.894-1.3-.894s-1.3.4-1.3.894l.439,4.97a.811.811,0,0,0,.86.53" transform="translate(-103.916 -81.946)" fill="#e1e1e1"/>
              <path id="Path_38142" data-name="Path 38142" d="M162.477,94.862a.814.814,0,0,0-.03-1.011l-4.084-2.865c-.425-.244-1.061.051-1.423.678s-.3,1.325.126,1.571l4.522,2.105a.818.818,0,0,0,.891-.48" transform="translate(-94.982 -86.916)" fill="#e1e1e1"/>
              <path id="Path_38143" data-name="Path 38143" d="M181.559,94.86a.817.817,0,0,0,.89.48l4.523-2.105c.426-.246.487-.945.125-1.571s-1-.922-1.423-.678l-4.085,2.865a.818.818,0,0,0-.029,1.011" transform="translate(-108.691 -86.916)" fill="#e1e1e1"/>
              <path id="Path_38144" data-name="Path 38144" d="M174.1,110.26a.814.814,0,0,1,.86.53l.439,4.97c0,.491-.575.9-1.3.9s-1.3-.4-1.3-.9l.439-4.97a.811.811,0,0,1,.86-.53" transform="translate(-103.916 -97.661)" fill="#e1e1e1"/>
              <path id="Path_38145" data-name="Path 38145" d="M181.559,106.143a.816.816,0,0,1,.89-.481l4.523,2.1c.426.246.487.946.125,1.572s-1,.922-1.423.677l-4.085-2.864a.818.818,0,0,1-.029-1.011" transform="translate(-108.691 -95.093)" fill="#e1e1e1"/>
              <path id="Path_38146" data-name="Path 38146" d="M162.477,106.141a.814.814,0,0,1-.03,1.011l-4.084,2.864c-.425.244-1.061-.051-1.423-.676s-.3-1.327.126-1.573l4.522-2.1a.815.815,0,0,1,.891.48" transform="translate(-94.982 -95.093)" fill="#e1e1e1"/>
            </g>
          </g>
        </g>
      </g>
    </g>
    <g id="Calvin_Klein" data-name="Calvin Klein" transform="translate(1281.572 344.391)">
      <path id="Path_38121" data-name="Path 38121" d="M873.116,462.611a6.029,6.029,0,0,1-.023-12.052,5.909,5.909,0,0,1,4.851,2.612h1.549a6.967,6.967,0,0,0-1.719-2.2,7.529,7.529,0,0,0-4.658-1.674,7.293,7.293,0,1,0,4.523,12.98,9.088,9.088,0,0,0,1.91-2.34H878a6.02,6.02,0,0,1-4.884,2.68Z" transform="translate(-865.835 -449.292)" fill="#e1e1e1" fill-rule="evenodd"/>
      <path id="Path_38122" data-name="Path 38122" d="M904.178,458.87a4.88,4.88,0,0,0-3.935-2.047,5.337,5.337,0,1,0,0,10.673,4.711,4.711,0,0,0,3.935-2.024h0v1.786h1.277V457.072h-1.277v1.8Zm-4,7.451a4.164,4.164,0,1,1,4-4.161,4.137,4.137,0,0,1-4,4.161Z" transform="translate(-880.842 -453.182)" fill="#e1e1e1" fill-rule="evenodd"/>
      <path id="Path_38123" data-name="Path 38123" d="M919.956,463.683h1.368V449.9h-1.368v13.782Z" transform="translate(-893.794 -449.606)" fill="#e1e1e1" fill-rule="evenodd"/>
      <path id="Path_38124" data-name="Path 38124" d="M928.328,465.908l-3.46-8.57h-1.357l4.149,10.187h1.379l4.138-10.187h-1.334l-3.516,8.57Z" transform="translate(-895.631 -453.448)" fill="#e1e1e1" fill-rule="evenodd"/>
      <path id="Path_38125" data-name="Path 38125" d="M944.678,467.525h1.368V457.338h-1.368v10.187Z" transform="translate(-906.565 -453.448)" fill="#e1e1e1" fill-rule="evenodd"/>
      <path id="Path_38126" data-name="Path 38126" d="M944.678,452.184h1.368V449.9h-1.368v2.284Z" transform="translate(-906.565 -449.606)" fill="#e1e1e1" fill-rule="evenodd"/>
      <path id="Path_38127" data-name="Path 38127" d="M955.078,456.823a4.107,4.107,0,0,0-3.053,1.583h0v-1.334h-1.266v10.187H952.1v-6.207h0a3.05,3.05,0,0,1,3-3.053c2.069,0,3.109,1.8,3.109,3.652h0v5.608h1.266v-5.608h0c0-2.645-1.549-4.828-4.4-4.828Z" transform="translate(-909.706 -453.182)" fill="#e1e1e1" fill-rule="evenodd"/>
      <path id="Path_38128" data-name="Path 38128" d="M986.974,449.9l-6.219,7.9v-7.9H979.41v13.782h1.345V459.9l1.764-2.193,4.489,5.981h1.708l-5.337-7.066,5.337-6.716Z" transform="translate(-924.507 -449.606)" fill="#e1e1e1" fill-rule="evenodd"/>
      <path id="Path_38129" data-name="Path 38129" d="M999.688,463.683h1.334V449.9h-1.334v13.782Z" transform="translate(-934.983 -449.606)" fill="#e1e1e1" fill-rule="evenodd"/>
      <path id="Path_38130" data-name="Path 38130" d="M1014.485,459.638a5.366,5.366,0,1,0-4.715,7.858,5.5,5.5,0,0,0,3.765-1.515,5.938,5.938,0,0,0,1.3-2.058H1013.4a4,4,0,0,1-7.643-1.277h9.4a5.99,5.99,0,0,0-.667-3.008Zm-8.684,1.832a4.144,4.144,0,0,1,3.969-3.471,3.958,3.958,0,0,1,3.991,3.471h-7.96Z" transform="translate(-937.399 -453.182)" fill="#e1e1e1" fill-rule="evenodd"/>
      <path id="Path_38131" data-name="Path 38131" d="M1028.738,467.525h1.345V457.338h-1.345v10.187Z" transform="translate(-949.99 -453.448)" fill="#e1e1e1" fill-rule="evenodd"/>
      <path id="Path_38132" data-name="Path 38132" d="M1028.738,452.229h1.345V449.9h-1.345v2.329Z" transform="translate(-949.99 -449.606)" fill="#e1e1e1" fill-rule="evenodd"/>
      <path id="Path_38133" data-name="Path 38133" d="M1039.078,456.823a4.156,4.156,0,0,0-3.087,1.583h0v-1.334H1034.7v10.187h1.357v-6.207h0A3.074,3.074,0,0,1,1039.1,458c2.058,0,3.143,1.8,3.143,3.652h0v5.608h1.266v-5.608h0c0-2.645-1.572-4.828-4.432-4.828Z" transform="translate(-953.07 -453.182)" fill="#e1e1e1" fill-rule="evenodd"/>
    </g>
    <g id="Chanel" transform="translate(1169.568 387.348)">
      <path id="path2342" d="M195.427,472.333l-.263-.027a6.236,6.236,0,0,1-2.915-1.117,6.507,6.507,0,0,1-2.522-3.752,6.744,6.744,0,0,1-.11-2.546,6.484,6.484,0,0,1,3.86-5,6.234,6.234,0,0,1,1.615-.432,8.016,8.016,0,0,1,1.471,0,6.154,6.154,0,0,1,1.925.573,5.78,5.78,0,0,1,1.717,1.236,6.179,6.179,0,0,1,1.16,1.565l.076.139-.268.2c-.37.273-1.236.891-1.519,1.083l-.233.158-.1-.208a3.921,3.921,0,0,0-.34-.615A3.751,3.751,0,0,0,196.617,462a3.858,3.858,0,0,0-3.133.758,5.1,5.1,0,0,0-.635.629,4,4,0,0,0-.779,3.377,4.336,4.336,0,0,0,.568,1.332,3.868,3.868,0,0,0,2.753,1.719,5.274,5.274,0,0,0,.873,0,3.858,3.858,0,0,0,2.534-1.425,4.007,4.007,0,0,0,.459-.717,1.709,1.709,0,0,1,.129-.228c.006,0,.463.322,1.015.716l1,.716-.1.192a6.416,6.416,0,0,1-.912,1.259,6.1,6.1,0,0,1-1.865,1.385,6.242,6.242,0,0,1-2.007.59C196.358,472.327,195.54,472.346,195.427,472.333ZM204,465.814V459.54h2.433v4.5h6.356v-4.5h2.434v12.549h-2.434v-5.521h-6.356v5.521H204v-6.275Zm13.682,5.162,2.781-6.274,2.288-5.162h3.414l2.766,6.2,2.8,6.274.035.077h-2.914l-.563-1.244-.562-1.243-3.256,0-3.256,0-.556,1.239-.556,1.24h-2.913Zm9.016-3.907c-.01-.045-2.221-4.986-2.23-4.986s-2.107,4.9-2.14,4.994c0,.01.836.017,2.185.017A21.836,21.836,0,0,0,226.7,467.07Zm7.032-1.255V459.54h3.424l2.679,3.762,2.679,3.762,0-3.763,0-3.763h2.452v12.55l-.984,0-.984,0-3.4-4.717c-1.869-2.594-3.4-4.717-3.411-4.717s-.014,2.124-.014,4.721v4.722h-2.452Zm15.673,0V459.54h8.772v2.524h-6.32v2.506H257.7v2.524h-5.848V469.6h7.228v2.488H249.4Zm13.112,0V459.54h2.452V469.6H271.8v2.488h-9.28Z" transform="translate(-189.544 -459.422)" fill="#e1e1e1"/>
    </g>
    <g id="Lego" transform="translate(1281.572 385.657)">
      <g id="Group_33000" data-name="Group 33000" transform="translate(0 0)" clip-path="url(#clip-path-3)">
        <g id="Group_32999" data-name="Group 32999" transform="translate(0 0)">
          <path id="Path_37682" data-name="Path 37682" d="M-42.083-.074a5.958,5.958,0,0,0-4.783,2.106,2.76,2.76,0,0,0-.5-.741A5.148,5.148,0,0,0-51.4-.116a6.591,6.591,0,0,0-4.314,1.439A3.9,3.9,0,0,0-59.083-.131c-2.019,0-4.219.286-5.523,2.39A2.115,2.115,0,0,0-65.132.65,2.933,2.933,0,0,0-67.3-.041a3.756,3.756,0,0,0-3.408,1.97c-1.167,1.865-4,8-3.933,10.974.041,1.92,1.329,3.3,3.633,3.358A5.448,5.448,0,0,0-66.9,14.916a4.663,4.663,0,0,0,3.508,1.39,5.77,5.77,0,0,0,4.261-1.568,4.64,4.64,0,0,0,3.772,1.587,6.8,6.8,0,0,0,5.322-2.618c.683,1.86,2.417,2.6,4.309,2.6,4.147,0,5.969-2.852,7.486-7.363A17.293,17.293,0,0,0-37.368,4.8c.126-2.371-.877-4.879-4.715-4.879m-27.594,11.34c2.145-.374,2.686.4,2.618,1.122-.2,2.151-2.175,2.632-3.889,2.592-1.242-.029-2.359-.6-2.391-2.042-.055-2.524,2.52-8.364,3.731-10.3a2.5,2.5,0,0,1,2.329-1.372c1.03,0,1.286.528,1.27,1.162-.04,1.691-2.771,6.831-3.669,8.839m6.988-1.982c-.142.383-.411,1.188-.628,2.042a7.022,7.022,0,0,1,2.137-.277c1.031.025,1.689.453,1.689,1.307,0,2.066-2.284,2.673-3.868,2.673-1.741,0-3.269-.991-3.269-2.894,0-2.232,1.209-5.615,2.344-7.868,1.394-2.769,2.818-3.136,5.27-3.136,1.078,0,2.319.461,2.319,1.478,0,1.412-1.194,1.949-2.379,2.018a16.9,16.9,0,0,1-1.751.024,9.988,9.988,0,0,0-.814,1.672c2.194-.309,3.125.189,2.755,1.459-.5,1.714-1.987,1.828-3.806,1.5M-51.9,3.947a1.563,1.563,0,0,0-1.27.782A22.523,22.523,0,0,0-55.4,10.672c-.147,1.008.288,1.214.763,1.214.762,0,1.617-.807,1.908-2.139,0,0-1.451-.035-1.05-1.323.389-1.249,1.125-1.52,2.348-1.57,2.408-.1,2.17,1.682,1.977,2.63-.626,3.08-2.818,5.555-5.917,5.555A3.1,3.1,0,0,1-58.809,11.7a16.727,16.727,0,0,1,1.372-5.383c1.291-3.015,2.644-5.127,6.093-5.127,2.069,0,3.7.744,3.462,2.683a2.321,2.321,0,0,1-2.181,2.36c-.363.028-1.843-.009-1.351-1.41.171-.49.242-.875-.486-.875m13.026,2.547a20.841,20.841,0,0,1-2.075,5.566c-1.453,2.613-3.218,2.978-4.757,2.96s-3.277-.588-3.29-2.965a17.8,17.8,0,0,1,1.351-5.693c1.089-2.862,2.2-5.2,5.719-5.154,4.1.049,3.37,3.7,3.051,5.287M-41.8,4.7a28.734,28.734,0,0,1-2.22,6.444c-.246.42-.525.766-1.028.766a.622.622,0,0,1-.645-.667,25.466,25.466,0,0,1,2.4-6.751.962.962,0,0,1,.934-.489c.515.007.568.378.555.7" transform="translate(74.645 0.131)" fill="#e1e1e1"/>
        </g>
      </g>
    </g>
  </g>
</svg>
