<svg xmlns="http://www.w3.org/2000/svg" width="193.9" height="107.201" viewBox="0 0 193.9 107.201">
  <g id="Group_33340" data-name="Group 33340" transform="translate(-801.722 -98.265)">
    <path id="Amadeus" d="M-475.413,133.1a16.592,16.592,0,0,0,3.95.476,17.567,17.567,0,0,0,3.453-.248V131.57a16.526,16.526,0,0,1-2.833.227,12.459,12.459,0,0,1-2.316-.186V129.13h4.467v-1.737h-4.467v-2.357a12.8,12.8,0,0,1,2.171-.165,18.7,18.7,0,0,1,2.812.227V123.34a16.368,16.368,0,0,0-3.06-.248,17.3,17.3,0,0,0-4.177.455m-31.969,5.583a4.729,4.729,0,0,0-.165.579,4.73,4.73,0,0,0-.186-.579l-1.964-5.087c-.352-.848-.868-.951-1.84-.951-.331,0-1.013.041-1.013.041l-1.013,10.3h2.254l.5-6.907,2.151,5.232c.145.414.476.579,1.117.579s.951-.165,1.117-.579l2.151-5.232.5,6.907h2.254l-1.034-10.3s-.682-.041-1.013-.041c-.951,0-1.489.1-1.82.951Zm-11.29,2.109a8.466,8.466,0,0,1-2.523.558c-.93,0-1.634-.31-1.634-1.344,0-.889.5-1.385,1.778-1.427l2.378-.1Zm-1.344-8.147a10.145,10.145,0,0,0-4.2.806l.476,1.675a10.8,10.8,0,0,1,3.06-.538c1.3,0,1.964.352,1.964,1.634v.744h-1.964c-3.329,0-4.322,1.51-4.322,3.205,0,2.254,1.737,2.957,3.329,2.957a6.719,6.719,0,0,0,3.06-.765,4.026,4.026,0,0,0,2.171.414V126.07C-516.439,123.94-517.763,123.092-520.016,123.092Zm27.027,8.147a8.167,8.167,0,0,1-2.5.558c-.93,0-1.634-.31-1.634-1.344,0-.889.5-1.385,1.778-1.427l2.357-.1Zm-1.323-8.147a10.145,10.145,0,0,0-4.2.806l.476,1.675a10.8,10.8,0,0,1,3.06-.538c1.3,0,1.964.352,1.964,1.634v.744h-1.964c-3.329,0-4.322,1.51-4.322,3.205,0,2.254,1.737,2.957,3.329,2.957a6.827,6.827,0,0,0,3.06-.765,4.025,4.025,0,0,0,2.171.414V126.07C-490.736,123.94-492.059,123.092-494.313,123.092Zm35.733,7.775a6.912,6.912,0,0,1-2.771.7c-1.551,0-1.8-.7-1.8-2.3v-6.1h-.331a15.285,15.285,0,0,0-1.923.145v6.245c0,2.73.662,4.012,3.433,4.012a7.491,7.491,0,0,0,3.433-.806,4.728,4.728,0,0,0,2.213.455v-9.905c-.165-.021-1.241-.145-1.8-.145h-.455Zm4.922,2.357a15.242,15.242,0,0,0,3.35.352c1.861,0,4.177-.62,4.177-3.122,0-1.634-1.2-2.337-3.164-3.04-1.075-.393-1.964-.744-1.964-1.489,0-.352.248-1.034,1.613-1.034a7.131,7.131,0,0,1,2.564.6l.558-1.675a7.422,7.422,0,0,0-3.329-.724c-1.861,0-3.681.993-3.681,2.978,0,2.068,1.861,2.688,3.309,3.164.993.331,1.84.682,1.84,1.344,0,.641-.352,1.2-2.026,1.2a15.633,15.633,0,0,1-2.833-.31Zm-31.535-8.189a11.058,11.058,0,0,1,1.778-.165c1.634,0,2.916.91,2.916,3.391,0,2.4-.62,3.536-3.123,3.536a13.8,13.8,0,0,1-1.572-.1Zm1.882-1.944a14.221,14.221,0,0,0-4.156.62v9.554a21.062,21.062,0,0,0,3.784.31c4.012,0,5.583-1.572,5.583-5.314C-478.1,125.036-480.086,123.092-483.312,123.092Z" transform="translate(1438.727 -22.469)" fill="#e1e1e1"/>
    <g id="Hewlett_Packard" data-name="Hewlett Packard" transform="translate(801.723 180.794)">
      <path id="Path_38328" data-name="Path 38328" d="M112.958,313.145H92.567v-5.859h20.391Zm-19.05-1.34h17.71v-3.179H93.907Z" transform="translate(-92.567 -307.286)" fill="#e1e1e1"/>
      <g id="Group_33320" data-name="Group 33320" transform="translate(0.029 9.222)">
        <path id="Path_38329" data-name="Path 38329" d="M97.682,375.981v5.635H96.508v-2.368H93.957v2.368H92.782v-5.635h1.175v2.239h2.551v-2.239Z" transform="translate(-92.782 -375.651)" fill="#e1e1e1"/>
        <path id="Path_38330" data-name="Path 38330" d="M134.724,388.747a1.065,1.065,0,0,0,1.184.945,1.987,1.987,0,0,0,1.175-.358v.936a2.255,2.255,0,0,1-1.349.358,2.149,2.149,0,0,1-.174-4.286c1.193,0,1.808.826,1.808,2.037v.367Zm.037-.743h1.551a.711.711,0,0,0-.725-.752A.857.857,0,0,0,134.761,388Z" transform="translate(-127.952 -384.572)" fill="#e1e1e1"/>
        <path id="Path_38331" data-name="Path 38331" d="M166.96,389.618l.734-2.615h1.1l-1.248,4.1H166.5l-.67-2.514-.67,2.514h-1.046l-1.248-4.1h1.138l.734,2.615.67-2.615h.872Z" transform="translate(-153.121 -385.14)" fill="#e1e1e1"/>
        <path id="Path_38332" data-name="Path 38332" d="M228.478,388.747a1.065,1.065,0,0,0,1.184.945,1.987,1.987,0,0,0,1.175-.358v.936a2.255,2.255,0,0,1-1.349.358,2.149,2.149,0,0,1-.174-4.286c1.193,0,1.808.826,1.808,2.037v.367Zm.037-.743h1.551a.711.711,0,0,0-.725-.752A.857.857,0,0,0,228.515,388Z" transform="translate(-208.669 -384.572)" fill="#e1e1e1"/>
        <path id="Path_38333" data-name="Path 38333" d="M313.541,379.661v1.955h-1.166v-5.635h2.294a1.845,1.845,0,1,1,0,3.68Zm1.055-2.68h-1.055v1.679H314.6a.842.842,0,1,0,0-1.679Z" transform="translate(-281.84 -375.651)" fill="#e1e1e1"/>
        <path id="Path_38334" data-name="Path 38334" d="M347.68,387.976c0-.395-.339-.642-.917-.642a2.031,2.031,0,0,0-1.12.33v-.982a2.8,2.8,0,0,1,1.367-.339c1.129,0,1.762.578,1.762,1.578v2.615H347.68v-.22a1.6,1.6,0,0,1-.991.294,1.364,1.364,0,0,1-1.514-1.331,1.42,1.42,0,0,1,1.588-1.312,1.832,1.832,0,0,1,.917.239Zm0,1.147a.788.788,0,0,0-.725-.358c-.358,0-.725.156-.725.5s.367.5.725.5a.788.788,0,0,0,.725-.358Z" transform="translate(-310.079 -384.572)" fill="#e1e1e1"/>
        <path id="Path_38335" data-name="Path 38335" d="M379.068,386.343a1.8,1.8,0,0,1,1.11.321V387.7a1.414,1.414,0,0,0-.973-.367,1.159,1.159,0,0,0,0,2.313,1.457,1.457,0,0,0,.973-.367v1.028a1.8,1.8,0,0,1-1.11.321,2.144,2.144,0,0,1,0-4.286Z" transform="translate(-337.473 -384.572)" fill="#e1e1e1"/>
        <path id="Path_38336" data-name="Path 38336" d="M410.516,379.57h-1.331l-1.477-1.89v1.89H406.57v-5.965h1.138v3.487l1.4-1.624h1.367l-1.707,1.881Z" transform="translate(-362.937 -373.605)" fill="#e1e1e1"/>
        <path id="Path_38337" data-name="Path 38337" d="M438.642,387.976c0-.395-.339-.642-.918-.642a2.03,2.03,0,0,0-1.12.33v-.982a2.8,2.8,0,0,1,1.367-.339c1.129,0,1.762.578,1.762,1.578v2.615h-1.092v-.22a1.6,1.6,0,0,1-.991.294,1.364,1.364,0,0,1-1.514-1.331,1.42,1.42,0,0,1,1.588-1.312,1.832,1.832,0,0,1,.918.239Zm0,1.147a.788.788,0,0,0-.725-.358c-.358,0-.725.156-.725.5s.367.5.725.5a.788.788,0,0,0,.725-.358Z" transform="translate(-388.392 -384.572)" fill="#e1e1e1"/>
        <path id="Path_38338" data-name="Path 38338" d="M472.291,387.554a1.136,1.136,0,0,0-.569-.138.742.742,0,0,0-.78.578v2.542H469.8v-4.1h1.138v.4a1.054,1.054,0,0,1,.918-.5,1.069,1.069,0,0,1,.431.073Z" transform="translate(-417.378 -384.572)" fill="#e1e1e1"/>
        <path id="Path_38339" data-name="Path 38339" d="M493.286,379.23a1.413,1.413,0,0,1-1.028.431,2.164,2.164,0,0,1,0-4.285,1.413,1.413,0,0,1,1.028.431v-2.2h1.147v5.965h-1.147Zm0-2.386a.869.869,0,0,0-.771-.477,1.166,1.166,0,0,0,0,2.3.842.842,0,0,0,.771-.477Z" transform="translate(-435.105 -373.605)" fill="#e1e1e1"/>
        <path id="Path_38340" data-name="Path 38340" d="M212.6,381.165a.507.507,0,0,1-.558-.552h.017v-4.343h-1.138v4.4a1.347,1.347,0,0,0,1.45,1.459,1.532,1.532,0,0,0,.633-.11v-.964A.7.7,0,0,1,212.6,381.165Z" transform="translate(-194.494 -375.9)" fill="#e1e1e1"/>
        <path id="Path_38341" data-name="Path 38341" d="M261.552,378.867h1.036v-.927h-1.036v-1.669h-1.138v1.669h-1.643v-1.669h-1.138v1.669h-.746v.927h.746v1.8a1.347,1.347,0,0,0,1.45,1.459,1.531,1.531,0,0,0,.633-.11v-.964a.7.7,0,0,1-.4.11.508.508,0,0,1-.559-.552h.017v-1.747h1.643v1.8a1.347,1.347,0,0,0,1.45,1.459,1.533,1.533,0,0,0,.633-.11v-.964a.705.705,0,0,1-.4.11.508.508,0,0,1-.559-.552h.017Z" transform="translate(-234.068 -375.9)" fill="#e1e1e1"/>
      </g>
      <g id="Group_33321" data-name="Group 33321" transform="translate(0.094 17.312)">
        <path id="Path_38342" data-name="Path 38342" d="M96.858,432.579v.647H93.964v1.794H96.59v.647H93.964V437.6h2.894v.657H93.243v-5.678Z" transform="translate(-93.243 -432.468)" fill="#e1e1e1"/>
        <path id="Path_38343" data-name="Path 38343" d="M127.091,443.369h.693v.518a1.534,1.534,0,0,1,1.211-.6,1.356,1.356,0,0,1,1.443,1.5v2.691h-.7v-2.58a.855.855,0,0,0-.906-.971,1.114,1.114,0,0,0-1.045.768v2.783h-.693Z" transform="translate(-122.384 -441.686)" fill="#e1e1e1"/>
        <path id="Path_38344" data-name="Path 38344" d="M178.781,445.542a1.311,1.311,0,0,0,1.378,1.405,1.774,1.774,0,0,0,1.165-.388v.638a1.976,1.976,0,0,1-1.248.361,2.151,2.151,0,0,1-.148-4.272c1.109,0,1.683.8,1.683,2.007v.25Zm.037-.546h2.118c-.028-.6-.333-1.119-1-1.119C179.391,443.878,178.948,444.238,178.818,445Z" transform="translate(-166.298 -441.686)" fill="#e1e1e1"/>
        <path id="Path_38345" data-name="Path 38345" d="M212.257,444.063a.878.878,0,0,0-.462-.111.994.994,0,0,0-.952.768v2.755h-.694v-4.106h.694v.536a1.146,1.146,0,0,1,1.017-.619,1,1,0,0,1,.4.065Z" transform="translate(-193.893 -441.686)" fill="#e1e1e1"/>
        <path id="Path_38346" data-name="Path 38346" d="M231.188,449.047H230.5v-5.677h.693v.481a1.46,1.46,0,0,1,1.156-.564,2.158,2.158,0,0,1,0,4.272,1.46,1.46,0,0,1-1.156-.564Zm0-2.792a1.182,1.182,0,0,0,1.054.675c.786,0,1.248-.638,1.248-1.507s-.462-1.507-1.248-1.507a1.182,1.182,0,0,0-1.054.675Z" transform="translate(-211.41 -441.686)" fill="#e1e1e1"/>
        <path id="Path_38347" data-name="Path 38347" d="M266.986,444.063a.878.878,0,0,0-.462-.111.994.994,0,0,0-.953.768v2.755h-.693v-4.106h.693v.536a1.146,1.146,0,0,1,1.017-.619,1,1,0,0,1,.4.065Z" transform="translate(-241.012 -441.686)" fill="#e1e1e1"/>
        <path id="Path_38348" data-name="Path 38348" d="M285.937,432.669a.45.45,0,0,1-.444-.444.448.448,0,0,1,.9,0A.452.452,0,0,1,285.937,432.669Zm.351,4.9h-.693v-4.106h.693Z" transform="translate(-258.76 -431.781)" fill="#e1e1e1"/>
        <path id="Path_38349" data-name="Path 38349" d="M298.394,446.411a1.985,1.985,0,0,0,1.35.555c.453,0,.851-.166.851-.573,0-.305-.231-.472-.592-.592l-.564-.194c-.62-.2-1.036-.5-1.036-1.165,0-.721.638-1.156,1.452-1.156a2.137,2.137,0,0,1,1.221.361v.721a1.838,1.838,0,0,0-1.221-.49c-.425,0-.777.185-.777.536,0,.333.222.444.61.583l.629.213a1.188,1.188,0,0,1,.962,1.156c0,.758-.675,1.193-1.535,1.193a2.274,2.274,0,0,1-1.35-.407Z" transform="translate(-269.867 -441.686)" fill="#e1e1e1"/>
        <path id="Path_38350" data-name="Path 38350" d="M324.812,445.542a1.311,1.311,0,0,0,1.378,1.405,1.774,1.774,0,0,0,1.165-.388v.638a1.976,1.976,0,0,1-1.248.361,2.151,2.151,0,0,1-.148-4.272c1.109,0,1.683.8,1.683,2.007v.25Zm.037-.546h2.117c-.028-.6-.333-1.119-1-1.119C325.422,443.878,324.979,444.238,324.849,445Z" transform="translate(-292.023 -441.686)" fill="#e1e1e1"/>
        <path id="Path_38351" data-name="Path 38351" d="M157.357,441.2a.654.654,0,0,1-.675-.749v-.355h.017v-1.888h1.089v-.579H156.7v-1.02H156v1.02h-.944v.579H156v2.3a1.206,1.206,0,0,0,1.257,1.3,1.328,1.328,0,0,0,.536-.092v-.629A.8.8,0,0,1,157.357,441.2Z" transform="translate(-146.459 -435.935)" fill="#e1e1e1"/>
      </g>
    </g>
    <g id="Intuit" transform="translate(801.723 137.172)">
      <path id="Path_38352" data-name="Path 38352" d="M183.682,312.839h-1.774a.684.684,0,0,0-.684.684v11.153a.684.684,0,0,0,.684.684h1.774a.683.683,0,0,0,.684-.684V313.523A.685.685,0,0,0,183.682,312.839Z" transform="translate(-181.224 -307.642)" fill="#e1e1e1"/>
      <path id="Path_38353" data-name="Path 38353" d="M363.987,312.839h-1.775a.685.685,0,0,0-.684.684v11.153a.685.685,0,0,0,.684.684h1.775a.685.685,0,0,0,.684-.684V313.523A.685.685,0,0,0,363.987,312.839Z" transform="translate(-316.864 -307.642)" fill="#e1e1e1"/>
      <path id="Path_38354" data-name="Path 38354" d="M265.761,312.839h-8.744a.684.684,0,0,0-.685.684V315.3a.685.685,0,0,0,.685.684h2.813v8.694a.685.685,0,0,0,.685.684h1.774a.685.685,0,0,0,.685-.684v-8.694h2.788a.685.685,0,0,0,.685-.684v-1.775a.684.684,0,0,0-.685-.684Z" transform="translate(-237.727 -307.642)" fill="#e1e1e1"/>
      <path id="Path_38355" data-name="Path 38355" d="M392.106,315.3v-1.775a.684.684,0,0,0-.684-.684h-8.745a.684.684,0,0,0-.685.684V315.3a.685.685,0,0,0,.685.684h2.813v8.694a.685.685,0,0,0,.685.684h1.774a.685.685,0,0,0,.685-.684v-8.694h2.788A.685.685,0,0,0,392.106,315.3Z" transform="translate(-332.259 -307.642)" fill="#e1e1e1"/>
      <path id="Path_38356" data-name="Path 38356" d="M214.651,312.129h0a4.359,4.359,0,0,0-1.431-.24,6.408,6.408,0,0,0-3.885,1.568v-.648a.684.684,0,0,0-.684-.684h-1.774a.685.685,0,0,0-.684.684v11.153a.684.684,0,0,0,.684.684h1.774a.683.683,0,0,0,.684-.684v-7.923a5.754,5.754,0,0,1,3.032-1.292,1.524,1.524,0,0,1,.931.283,1.994,1.994,0,0,1,.676,1.071,4.122,4.122,0,0,1,.152,1.012v6.848a.685.685,0,0,0,.685.684h1.774a.685.685,0,0,0,.685-.684v-7.818c0-.009,0-.055,0-.135a4.657,4.657,0,0,0-.386-1.822A3.768,3.768,0,0,0,214.651,312.129Z" transform="translate(-200.007 -306.927)" fill="#e1e1e1"/>
      <path id="Path_38357" data-name="Path 38357" d="M315.6,312.839h-1.774a.983.983,0,0,0-.561.2.653.653,0,0,0-.293.5v7.926a5.28,5.28,0,0,1-2.893,1.309,1.443,1.443,0,0,1-.885-.274,2.027,2.027,0,0,1-.675-1.06,4.087,4.087,0,0,1-.168-1.072v-6.846a.684.684,0,0,0-.684-.684h-1.775a.685.685,0,0,0-.684.684v7.818c0,.009,0,.056,0,.137a4.655,4.655,0,0,0,.386,1.822,3.766,3.766,0,0,0,2.234,2.057h0a4.362,4.362,0,0,0,1.43.24,6.4,6.4,0,0,0,3.885-1.568v.648a.685.685,0,0,0,.685.684H315.6a.453.453,0,0,0,.41-.214.9.9,0,0,0,.1-.47V313.523a.9.9,0,0,0-.1-.469A.453.453,0,0,0,315.6,312.839Z" transform="translate(-274.493 -307.642)" fill="#e1e1e1"/>
      <path id="Path_38358" data-name="Path 38358" d="M270.692,295.815a1.977,1.977,0,1,0-1.977-1.978A1.978,1.978,0,0,0,270.692,295.815Z" transform="translate(-247.043 -291.861)" fill="#e1e1e1"/>
      <path id="Path_38359" data-name="Path 38359" d="M396.4,295.815a1.977,1.977,0,1,0-1.977-1.978A1.978,1.978,0,0,0,396.4,295.815Z" transform="translate(-341.613 -291.861)" fill="#e1e1e1"/>
      <path id="Path_38360" data-name="Path 38360" d="M420.559,354.978a.966.966,0,0,0-.392-.387,1.046,1.046,0,0,0-1.03,0,.979.979,0,0,0-.393.387,1.065,1.065,0,0,0-.14.526,1.05,1.05,0,0,0,.139.52.967.967,0,0,0,.388.388,1.054,1.054,0,0,0,1.042,0,.979.979,0,0,0,.387-.388,1.052,1.052,0,0,0,0-1.046Zm-.148.96a.823.823,0,0,1-.324.323.867.867,0,0,1-.868,0,.807.807,0,0,1-.324-.323.868.868,0,0,1-.117-.434.882.882,0,0,1,.118-.438.808.808,0,0,1,.326-.323.867.867,0,0,1,.859,0,.793.793,0,0,1,.326.323.88.88,0,0,1,.118.438A.894.894,0,0,1,420.411,355.938Z" transform="translate(-359.803 -338.95)" fill="#e1e1e1"/>
      <path id="Path_38361" data-name="Path 38361" d="M421.62,357.156a.3.3,0,0,0-.1-.059.352.352,0,0,0,.234-.1.3.3,0,0,0,.088-.215.283.283,0,0,0-.053-.164.279.279,0,0,0-.142-.109.946.946,0,0,0-.286-.032h-.389V357.6h.184v-.479h.105a.225.225,0,0,1,.145.039.87.87,0,0,1,.191.262l.1.177h.222l-.136-.22A1.27,1.27,0,0,0,421.62,357.156Zm-.239-.19h-.22v-.341h.2a.573.573,0,0,1,.182.02.168.168,0,0,1,.079.06.159.159,0,0,1,.028.089.154.154,0,0,1-.059.125A.352.352,0,0,1,421.381,356.966Z" transform="translate(-361.587 -340.468)" fill="#e1e1e1"/>
    </g>
    <g id="Web.com" transform="translate(913.727 138.35)">
      <path id="Path_38362" data-name="Path 38362" d="M28.1,287.969l-3-8.177a1.294,1.294,0,0,1-.1-.4.621.621,0,0,1,.068-.273.9.9,0,0,1,.164-.232.744.744,0,0,1,.246-.15.636.636,0,0,1,.273-.041.784.784,0,0,1,.751.6l2.485,7.262,2.512-7.276a.744.744,0,0,1,.724-.587H32.3a.818.818,0,0,1,.491.164.79.79,0,0,1,.273.423l2.485,7.276,2.525-7.3a.792.792,0,0,1,.246-.409.757.757,0,0,1,.45-.164.879.879,0,0,1,.273.041.616.616,0,0,1,.232.15.832.832,0,0,1,.164.218.592.592,0,0,1,.055.259,1.4,1.4,0,0,1-.1.4l-3.031,8.191a.863.863,0,0,1-.805.655h-.055a.818.818,0,0,1-.805-.655l-2.471-7.058-2.485,7.058a.818.818,0,0,1-.805.655H28.9A.79.79,0,0,1,28.1,287.969Zm17.323.737a4.851,4.851,0,0,1-4.928-5.037v-.041a4.82,4.82,0,0,1,4.737-5.037,4.593,4.593,0,0,1,4.587,4.9.64.64,0,0,1-.2.478.728.728,0,0,1-.491.2H41.969a3.423,3.423,0,0,0,3.481,3.276,4.083,4.083,0,0,0,2.853-1.119.744.744,0,0,1,.328-.164.529.529,0,0,1,.355.041.641.641,0,0,1,.273.232.6.6,0,0,1,.109.341.565.565,0,0,1-.068.259.605.605,0,0,1-.164.2,5.037,5.037,0,0,1-1.706,1.106A4.76,4.76,0,0,1,45.422,288.706Zm2.921-5.6c-.15-1.761-1.188-3.29-3.153-3.29a3.368,3.368,0,0,0-3.208,3.29Zm3.413-7.658a1.04,1.04,0,0,1,.041-.287.6.6,0,0,1,.164-.246.775.775,0,0,1,.246-.164.713.713,0,0,1,.287-.055.672.672,0,0,1,.287.055.753.753,0,0,1,.41.41.527.527,0,0,1,.041.287v5.3a4.461,4.461,0,0,1,3.781-2.157,4.763,4.763,0,0,1,4.723,5.024v.041a4.784,4.784,0,0,1-4.723,5.037,4.466,4.466,0,0,1-3.781-2.061v1.215a.611.611,0,0,1-.055.273,1.351,1.351,0,0,1-.15.232.9.9,0,0,1-.232.164.713.713,0,0,1-.287.055.8.8,0,0,1-.532-.218.746.746,0,0,1-.218-.519Zm8.464,8.218v-.041a3.517,3.517,0,0,0-3.467-3.74,3.649,3.649,0,0,0-3.577,3.727v.041a3.635,3.635,0,0,0,3.577,3.74A3.435,3.435,0,0,0,60.22,283.669Zm6.007.027v-.041a5.042,5.042,0,0,1,5.065-5.051,5.1,5.1,0,0,1,3.631,1.406.556.556,0,0,1,.164.232.611.611,0,0,1,.055.273.693.693,0,0,1-.2.491.731.731,0,0,1-.969.041,3.845,3.845,0,0,0-2.7-1.16,3.6,3.6,0,0,0-3.536,3.74v.041a3.644,3.644,0,0,0,3.631,3.768,3.98,3.98,0,0,0,2.758-1.188.615.615,0,0,1,.191-.137.643.643,0,0,1,.232-.055.663.663,0,0,1,.464.2.723.723,0,0,1,.2.451.642.642,0,0,1-.191.45,5.038,5.038,0,0,1-3.727,1.556,5.289,5.289,0,0,1-1.952-.382,5.086,5.086,0,0,1-1.652-1.078,4.673,4.673,0,0,1-1.092-1.625A5.365,5.365,0,0,1,66.227,283.7Zm10.252,0v-.041a5.01,5.01,0,0,1,1.5-3.577,5.165,5.165,0,0,1,3.645-1.488,5.222,5.222,0,0,1,3.645,1.461,5.039,5.039,0,0,1,1.529,3.563v.041a4.96,4.96,0,0,1-.382,1.939,5.205,5.205,0,0,1-1.119,1.652,5.1,5.1,0,0,1-1.679,1.092,5.2,5.2,0,0,1-1.979.369,5.08,5.08,0,0,1-1.966-.369,4.836,4.836,0,0,1-1.665-1.092,4.9,4.9,0,0,1-1.106-1.638A3.913,3.913,0,0,1,76.479,283.7Zm8.791,0v-.041a3.7,3.7,0,0,0-3.672-3.781,3.6,3.6,0,0,0-3.618,3.74v.041a3.664,3.664,0,0,0,3.645,3.768A3.619,3.619,0,0,0,85.27,283.7Zm3.413-4.259a.7.7,0,0,1,.2-.505.722.722,0,0,1,.519-.218.713.713,0,0,1,.287.055.775.775,0,0,1,.246.164.9.9,0,0,1,.164.232.713.713,0,0,1,.055.287v1a3.623,3.623,0,0,1,3.194-1.829,3.354,3.354,0,0,1,3.167,1.925A3.963,3.963,0,0,1,100,278.618c2.28,0,3.672,1.5,3.672,3.891v5.338a.714.714,0,0,1-.218.505.733.733,0,0,1-.519.2.8.8,0,0,1-.519-.2.714.714,0,0,1-.218-.505v-5.01c0-1.87-.956-2.921-2.566-2.921a2.725,2.725,0,0,0-2.717,2.99v4.942a.714.714,0,0,1-.218.505.733.733,0,0,1-.519.2.8.8,0,0,1-.519-.2.714.714,0,0,1-.218-.505V282.8c0-1.816-.969-2.894-2.539-2.894a2.83,2.83,0,0,0-2.758,3.058v4.887a.88.88,0,0,1-.041.273.681.681,0,0,1-.15.232.775.775,0,0,1-.246.164.779.779,0,0,1-.573,0,.774.774,0,0,1-.246-.164.9.9,0,0,1-.164-.232.713.713,0,0,1-.055-.287l.014-8.4Z" transform="translate(-25 -274.7)" fill="#e1e1e1"/>
      <path id="Path_38363" data-name="Path 38363" d="M303.706,362.757a1.079,1.079,0,1,0-1.106-1.078A1.087,1.087,0,0,0,303.706,362.757Z" transform="translate(-264.704 -348.874)" fill="#e1e1e1"/>
      <path id="Path_38364" data-name="Path 38364" d="M609.2,304.319a1.045,1.045,0,0,1,.15-.532,1.1,1.1,0,0,1,.4-.4,1.04,1.04,0,0,1,.805-.082,1.014,1.014,0,0,1,.642.491,1.076,1.076,0,0,1,.123.792,1.057,1.057,0,0,1-.478.655,1.107,1.107,0,0,1-.56.15,1.186,1.186,0,0,1-.56-.15,1.1,1.1,0,0,1-.4-.4A1.508,1.508,0,0,1,609.2,304.319Zm.164,0a.945.945,0,0,0,.123.464,1.021,1.021,0,0,0,.341.341.928.928,0,0,0,1.392-.805.945.945,0,0,0-.123-.464,1.02,1.02,0,0,0-.341-.341.93.93,0,0,0-1.27.341A.7.7,0,0,0,609.364,304.319Zm1.379-.259a.384.384,0,0,1-.055.2.443.443,0,0,1-.177.137l.341.56h-.246l-.3-.505h-.191v.505H609.9V303.7h.382a.5.5,0,0,1,.341.1.747.747,0,0,1,.1.123.341.341,0,0,1,.027.137Zm-.628.2h.164a.314.314,0,0,0,.191-.055.136.136,0,0,0,.055-.068.253.253,0,0,0,0-.164.137.137,0,0,0-.055-.068.237.237,0,0,0-.191-.041h-.15v.4Z" transform="translate(-529.45 -299.363)" fill="#e1e1e1"/>
    </g>
    <g id="Equiniti" transform="translate(913.727 183.152)">
      <g id="g8" transform="translate(0 0)">
        <path id="path4" d="M19.684,10.6v-.035a7.183,7.183,0,0,0,.875-.629,4.414,4.414,0,0,0,.826-.928,4.925,4.925,0,0,0,.6-1.273,5.568,5.568,0,0,0,.228-1.674A5.853,5.853,0,0,0,20.346,1.7,6.316,6.316,0,0,0,18.332.441a6.829,6.829,0,0,0-4.88,0A6.3,6.3,0,0,0,11.438,1.7,5.865,5.865,0,0,0,9.57,6.059a6.608,6.608,0,0,0,.5,2.629,5.7,5.7,0,0,0,1.376,1.97A6.049,6.049,0,0,0,13.519,11.9a7.6,7.6,0,0,0,2.608.433h7.005V10.6Zm-.018-2.781a4.093,4.093,0,0,1-.849,1.361,3.858,3.858,0,0,1-1.3.893,4.106,4.106,0,0,1-1.639.322,4.044,4.044,0,0,1-1.625-.322,3.874,3.874,0,0,1-1.282-.893,4.018,4.018,0,0,1-.849-1.361,4.668,4.668,0,0,1-.3-1.71,4.483,4.483,0,0,1,.3-1.666,4.181,4.181,0,0,1,.84-1.326,3.8,3.8,0,0,1,1.273-.875,4.057,4.057,0,0,1,1.607-.316,4.3,4.3,0,0,1,1.674.316,3.786,3.786,0,0,1,1.3.875,4.008,4.008,0,0,1,.849,1.326,4.425,4.425,0,0,1,.3,1.666,4.608,4.608,0,0,1-.3,1.71M.46,12.332H8.739V10.394H2.6V7.13H8.127V5.192H2.6V2.235H8.434V.294H.46Z" transform="translate(-0.46 0.01)" fill="#e1e1e1"/>
        <path id="path6" d="M125.368,1.04h-2.143V13.078h2.143Zm-7.023,1.935h3.689V1.04h-9.52V2.978H116.2v10.1h2.143V2.975Zm-9.145,10.1h2.143V1.04H109.2Zm-4.778,0h2.72V1.04H105V9.98h-.035L99.138,1.04H96.3V13.078h2.143V3.844h.032Zm-12.307,0h2.143V1.04H92.115Zm-2.38-2.456a4.958,4.958,0,0,0,.375-1.964V1.04H87.967V8.587a3.444,3.444,0,0,1-.138.928,2.6,2.6,0,0,1-.451.893,2.435,2.435,0,0,1-.831.67,3.259,3.259,0,0,1-2.567,0,2.381,2.381,0,0,1-.831-.67,2.6,2.6,0,0,1-.451-.893,3.42,3.42,0,0,1-.135-.928V1.04H80.42V8.657a5.073,5.073,0,0,0,.366,1.964,4.2,4.2,0,0,0,1.022,1.487,4.572,4.572,0,0,0,1.537.943,5.39,5.39,0,0,0,1.92.331,5.455,5.455,0,0,0,1.92-.331,4.489,4.489,0,0,0,1.531-.943,4.437,4.437,0,0,0,1.019-1.49" transform="translate(-57.012 -0.733)" fill="#e1e1e1"/>
      </g>
      <g id="g18" transform="translate(55.814 15.729)">
        <path id="path10" d="M191.12,53.72h1.241a1.722,1.722,0,0,1,1.932,1.751,1.772,1.772,0,0,1-1.932,1.751H191.12Zm1.142,2.957c.641,0,1.364-.261,1.364-1.206,0-1-.72-1.215-1.364-1.215h-.518v2.421Z" transform="translate(-191.12 -53.72)" fill="#e1e1e1"/>
        <path id="path12" d="M204.019,53.72h.539l1.508,3.5h-.711l-.325-.8h-1.516l-.316.8h-.7Zm.79,2.166-.539-1.423-.547,1.423Z" transform="translate(-199.169 -53.72)" fill="#e1e1e1"/>
        <path id="path14" d="M215.011,54.265H213.94V53.72h2.766v.545h-1.071v2.954h-.624V54.265Z" transform="translate(-207.26 -53.72)" fill="#e1e1e1"/>
        <path id="path16" d="M224.169,53.72h.539l1.508,3.5H225.5l-.325-.8h-1.516l-.316.8h-.7Zm.79,2.166-.539-1.423-.547,1.423Z" transform="translate(-213.42 -53.72)" fill="#e1e1e1"/>
      </g>
    </g>
    <g id="Abbott" transform="translate(801.723 98.265)">
      <g id="g2404" transform="translate(0 0)">
        <path id="path2384" d="M364.12,286.528H345.984v2.786h17.231v0a.9.9,0,0,1,.9.9v9.36l0,.006a.9.9,0,0,1-.9.894H349.67a.9.9,0,0,1-.9-.9v-3.783a.9.9,0,0,1,.9-.9h11.651v-2.785H348.762a2.776,2.776,0,0,0-2.778,2.776v5.6a2.779,2.779,0,0,0,2.778,2.779H364.12a2.778,2.778,0,0,0,2.778-2.779V289.306a2.777,2.777,0,0,0-2.778-2.778" transform="translate(-345.984 -286.528)" fill="#e1e1e1"/>
        <path id="path2386" d="M392.613,286.537l2.178,6.516c.261.795.443.979.9.979h.443v1.146h-4.757v-1.146h.389c.392,0,.72-.053.72-.2a1.78,1.78,0,0,0-.066-.469l-.274-.94h-2.66l-.155.522a2.935,2.935,0,0,0-.2.834c0,.211.456.25.81.25h.376v1.146h-3.831v-1.147h.443c.456,0,.638-.184.9-.979l2.177-6.516h2.605m-2.753,4.745h1.893l-.938-2.8h-.025Z" transform="translate(-361.335 -286.531)" fill="#e1e1e1"/>
        <path id="path2388" d="M402.584,288.14c0-.366-.091-.56-.469-.56h-.6v-1.043h3.234v3.245a2.359,2.359,0,0,1,1.68-.9c1.955,0,2.683,1.526,2.683,3.245s-.728,3.243-2.683,3.243a2.241,2.241,0,0,1-2.009-1l-.376.81h-1.462V288.14m2.167,3.988c0,1.33.3,2.125,1.028,2.125s1.03-.8,1.03-2.125-.3-2.123-1.03-2.123-1.028.793-1.028,2.123" transform="translate(-367.03 -286.531)" fill="#e1e1e1"/>
        <path id="path2390" d="M414.361,288.14c0-.366-.093-.56-.468-.56h-.6v-1.043h3.233v3.245a2.363,2.363,0,0,1,1.681-.9c1.954,0,2.684,1.526,2.684,3.245s-.73,3.243-2.684,3.243a2.238,2.238,0,0,1-2.01-1l-.378.81h-1.46V288.14m2.165,3.988c0,1.33.3,2.125,1.028,2.125s1.031-.8,1.031-2.125-.3-2.123-1.031-2.123-1.028.793-1.028,2.123" transform="translate(-371.494 -286.531)" fill="#e1e1e1"/>
        <path id="path2392" d="M433.263,293.559a3.366,3.366,0,1,1-3.363-3.245,3.088,3.088,0,0,1,3.363,3.245m-4.42,0c0,1.537.273,2.2,1.056,2.2s1.055-.665,1.055-2.2-.274-2.2-1.055-2.2-1.056.664-1.056,2.2" transform="translate(-376.512 -287.963)" fill="#e1e1e1"/>
        <path id="path2394" d="M446.736,292.3v1.018c0,.6-.13.951-.627.951a.439.439,0,0,1-.442-.5v-3.586h1.6V289.15h-1.6v-2.424h-1.292c-.1,1.081-.443,2.424-1.745,2.424H440.6v-2.424h-1.29c-.105,1.081-.444,2.424-1.746,2.424v1.041h.874v3.273c0,1.33.742,1.979,2.083,1.979,1.566,0,2.19-.7,2.19-1.979V292.3h-1.04v1.018c0,.6-.132.951-.627.951a.44.44,0,0,1-.444-.5v-3.585H443.5v3.273c0,1.33.741,1.979,2.083,1.979,1.566,0,2.191-.7,2.191-1.979V292.3h-1.043" transform="translate(-380.691 -286.603)" fill="#e1e1e1"/>
      </g>
    </g>
  </g>
</svg>
