<svg xmlns="http://www.w3.org/2000/svg" xmlns:xlink="http://www.w3.org/1999/xlink" width="202.029" height="105.326" viewBox="0 0 202.029 105.326">
  <defs>
    <clipPath id="clip-path">
      <path id="Path_38179" data-name="Path 38179" d="M881.366-121.506a14.1,14.1,0,0,1-4.306,2.286c-1.482.556-2.139.753-2.968,1.023-.937.3-2.814.873-2.814.873a46.3,46.3,0,0,0,6.628,1.511,21.017,21.017,0,0,0,3.3-1.476,8.484,8.484,0,0,0,2.019-1.29,1.951,1.951,0,0,0,.6-1,1.441,1.441,0,0,0,.023-.22s0-.065-.005-.121a.534.534,0,0,0-.014-.109,1.667,1.667,0,0,0-.05-.2,1.328,1.328,0,0,0-.359-.495,3,3,0,0,0-1.217-.683,7.367,7.367,0,0,0-.755-.193Zm0,0" transform="translate(-871.278 121.598)" fill="#e1e1e1"/>
    </clipPath>
  </defs>
  <g id="Group_33342" data-name="Group 33342" transform="translate(-82.537 -296.705)">
    <g id="Accor_Hotels" data-name="Accor Hotels" transform="translate(195.72 296.705)">
      <path id="path137718" d="M6.175,215.831l-3.112-7.313H1.59l-3.112,7.313H.106L.77,214.2H3.84l.664,1.629Zm-2.9-3.039H1.341l.965-2.355Zm10.246,1.867L12.5,213.632a2.62,2.62,0,0,1-1.908.85A2.156,2.156,0,0,1,8.486,212.2v-.021a2.151,2.151,0,0,1,2.106-2.261,2.679,2.679,0,0,1,1.857.82l1.017-1.172a3.746,3.746,0,0,0-2.863-1.12A3.69,3.69,0,0,0,6.816,212.2v.02a3.665,3.665,0,0,0,3.724,3.734,3.712,3.712,0,0,0,2.977-1.3m7.759,0-1.016-1.027a2.62,2.62,0,0,1-1.909.85,2.156,2.156,0,0,1-2.106-2.282v-.021a2.151,2.151,0,0,1,2.106-2.261,2.679,2.679,0,0,1,1.857.82l1.017-1.172a3.746,3.746,0,0,0-2.863-1.12,3.69,3.69,0,0,0-3.786,3.755v.021a3.665,3.665,0,0,0,3.724,3.734,3.712,3.712,0,0,0,2.977-1.3M30.05,212.2v-.021a3.861,3.861,0,0,0-7.718.021v.021a3.861,3.861,0,0,0,7.718-.021m-1.67.021a2.171,2.171,0,0,1-2.178,2.261A2.206,2.206,0,0,1,24,212.2v-.021a2.171,2.171,0,0,1,2.178-2.261,2.206,2.206,0,0,1,2.2,2.282v.021Zm9.677,3.61-1.773-2.594a2.255,2.255,0,0,0,1.556-2.251v-.021c0-1.493-1.027-2.4-2.738-2.4H31.782v7.261h1.6v-2.323h1.255l1.556,2.323Zm-1.836-4.761c0,.612-.446,1.027-1.224,1.027H33.379v-2.085h1.587c.778,0,1.255.353,1.255,1.037v.021" transform="translate(1.522 -198.764)" fill="#e1e1e1"/>
      <path id="path137722" d="M152.645,174.973c0,.1.406.087.813.087a19.525,19.525,0,0,0,4.495-.478,9.968,9.968,0,0,0,3.514-1.738c2.192-1.235,4.965-1.02,4.965-1.227,0-.056-.04-.072-.813-.271a.832.832,0,0,0-.837-.486c-.9,0-2.375,1.044-3.7,1.044a2.531,2.531,0,0,1-.423-.04,4.344,4.344,0,0,0-3.259-2.072c-.869-.112-1.49-.215-1.984-.3a9.741,9.741,0,0,1-2.4-.773c-.04,0-.056.04-.056.072a6.175,6.175,0,0,0,1.546,2.335c.622.693,1.65,1.7,1.65,2.176,0,.263-.581.582-1.69,1.052-1.291.55-1.825.542-1.825.622" transform="translate(-115.074 -168.717)" fill="#e1e1e1"/>
      <path id="path137724" d="M180.613,215.831V208.57h-1.6v2.874h-3.634V208.57h-1.6v7.261h1.6v-2.915h3.634v2.915Zm9.45-3.631v-.021a3.86,3.86,0,0,0-7.717.021v.021a3.86,3.86,0,0,0,7.717-.021m-1.67.021a2.171,2.171,0,0,1-2.178,2.261,2.206,2.206,0,0,1-2.2-2.282v-.021a2.172,2.172,0,0,1,2.179-2.261,2.205,2.205,0,0,1,2.2,2.282v.021Zm8.589-2.178V208.57h-6.016v1.473h2.21v5.788h1.6v-5.788Zm7.063,5.788V214.41H200.1v-1.524h3.423v-1.422H200.1v-1.473h3.89V208.57h-5.477v7.261Zm6.606,0v-1.452h-3.277V208.57h-1.6v7.261Zm6.762-2.147v-.021c0-1.266-.829-1.794-2.3-2.178-1.255-.321-1.567-.477-1.567-.954v-.02c0-.353.322-.633.934-.633a3.4,3.4,0,0,1,1.887.716l.83-1.2a4.2,4.2,0,0,0-2.7-.923,2.271,2.271,0,0,0-2.541,2.188v.021c0,1.442.944,1.846,2.407,2.22,1.214.311,1.462.519,1.462.923v.02c0,.426-.394.685-1.048.685a3.331,3.331,0,0,1-2.168-.882l-.944,1.131a4.621,4.621,0,0,0,3.081,1.161c1.566,0,2.665-.809,2.665-2.251" transform="translate(-131.062 -198.764)" fill="#e1e1e1"/>
    </g>
    <g id="AirFrance" transform="translate(82.537 346.233)">
      <path id="Path_38174" data-name="Path 38174" d="M386.683,288.545l-4.008,5.8a3.425,3.425,0,0,1-2.418,1.576v.179h4.458a3.262,3.262,0,0,0,2.63-1.62l4.115-5.933Z" transform="translate(-302.238 -288.545)" fill="#e1e1e1"/>
      <path id="Path_38175" data-name="Path 38175" d="M199.206,289.921h2.018v6.916h-2.018Zm46.535,6.917-4.848-4.107v4.107h-1.7v-6.917h1.448l4.784,4.043v-4.043h1.7v6.917Zm10.544-4.685a7.149,7.149,0,0,0-3.3-.812c-1.626,0-2.838.841-2.838,2.01,0,1.2,1.234,2.046,2.823,2.046a6.45,6.45,0,0,0,3.379-.927v1.711a7.877,7.877,0,0,1-3.465.785c-2.766,0-4.941-1.412-4.941-3.615,0-2.167,2.218-3.558,4.934-3.558a9.086,9.086,0,0,1,3.408.635Zm-43.833,4.685v-6.917H219.2V291.4H214.47v1.718h4.62v1.483h-4.62v2.232Zm45.052,0v-6.917h7V291.4h-4.984v1.2h4.9v1.484h-4.9v1.269h4.962v1.484Zm-31.3-2.6,2.788,2.6H226.84a1.4,1.4,0,0,1-1.041-.392l-1.9-1.84a.226.226,0,0,0-.164-.057h-1.291v2.289H220.43v-6.917h4.37c2.267,0,3.223,1.02,3.223,2.147a2.456,2.456,0,0,1-1.818,2.175m-1.611-1.141c.8,0,1.183-.406,1.183-.862s-.342-.834-1.183-.834h-2.146v1.7Zm-15.707,1.141,2.788,2.6h-2.153a1.4,1.4,0,0,1-1.041-.392l-1.9-1.84a.228.228,0,0,0-.164-.057H205.13v2.289h-2.018v-6.917h4.37c2.267,0,3.223,1.02,3.223,2.147a2.456,2.456,0,0,1-1.818,2.175m-1.611-1.141c.8,0,1.184-.406,1.184-.862s-.342-.834-1.184-.834H205.13v1.7Zm-11.229,3.737-.884-1.52H191.3l-.806,1.52h-1.925l3.85-6.909h1.754l4.363,6.909Zm-3.978-2.959h2.253l-1.169-2.11Zm44.268,2.959-.864-1.52h-3.764l-.777,1.52h-1.875l3.75-6.909h1.7l4.242,6.909Zm-3.872-2.959h2.2l-1.141-2.11Z" transform="translate(-188.568 -289.285)" fill="#e1e1e1"/>
    </g>
    <g id="British_Airways" data-name="British Airways" transform="translate(195.72 340.375)">
      <path id="Path_38176" data-name="Path 38176" d="M715.864-106.817a.6.6,0,0,0,.282-.538v-4.966a.609.609,0,0,0-.282-.546h2.368c1.055,0,2.086.433,2.086,1.631a1.363,1.363,0,0,1-1.152,1.25,1.541,1.541,0,0,1,1.693,1.467c0,1.357-1.425,1.7-2.425,1.7h-2.569Zm1.917-5.529a2.628,2.628,0,0,0-.389.025v2.117h.24c.726,0,1.426-.222,1.426-1.064s-.56-1.077-1.277-1.077Zm.15,2.688c-.173,0-.328,0-.539.015v2.238a4.249,4.249,0,0,0,.809.067,1.1,1.1,0,0,0,1.225-1.2c0-.916-.73-1.121-1.5-1.121Zm5.268-2.688a2.133,2.133,0,0,0-.311.032v2.094c.1.005.188.017.288.017a1.067,1.067,0,0,0,1.185-1.118c0-.756-.5-1.026-1.162-1.026Zm3.05,5.566a2.576,2.576,0,0,1-.709-.058c-.412-.121-.98-1.048-1.206-1.413-.351-.592-.658-1.407-1.446-1.416v2.312a.593.593,0,0,0,.288.538h-1.817a.6.6,0,0,0,.282-.538v-4.966a.621.621,0,0,0-.282-.546h2.187c.953,0,2.144.366,2.144,1.509a1.5,1.5,0,0,1-1.68,1.451c1.26.008,2,2.962,3.39,2.972a4.078,4.078,0,0,1-1.15.156Zm1.242-.037a.588.588,0,0,0,.307-.538v-4.966a.607.607,0,0,0-.307-.546h1.862a.589.589,0,0,0-.3.546v4.966a.571.571,0,0,0,.3.538Zm4.042,0a.583.583,0,0,0,.3-.538v-4.818h-1.338a1.919,1.919,0,0,0-.941.2l.416-.89H734.4a5.146,5.146,0,0,0,1.076-.082,1.278,1.278,0,0,1-.963.794c-.353-.009-.935-.032-1.438-.032v4.833a.593.593,0,0,0,.3.538Zm4.166,0a.587.587,0,0,0,.3-.538v-4.966a.606.606,0,0,0-.3-.546h1.862a.6.6,0,0,0-.309.546v4.966a.577.577,0,0,0,.309.538Zm5.489-1.369c0-1.152-2.715-1.413-2.715-3.252,0-1.139,1.083-1.513,2.036-1.513a3.876,3.876,0,0,1,1.428.238l.067,1.131a1.622,1.622,0,0,0-1.392-.861c-.439,0-.9.217-.9.719,0,1.2,2.761,1.488,2.761,3.23,0,1.265-1.106,1.789-2.22,1.789a3.605,3.605,0,0,1-1.869-.449,4.159,4.159,0,0,1-.044-.621,5,5,0,0,1,.057-.738,1.949,1.949,0,0,0,1.737,1.246c.6,0,1.053-.263,1.053-.92ZM747-106.817a.592.592,0,0,0,.273-.538v-2.251a12.328,12.328,0,0,0-1.285-.052,12.723,12.723,0,0,0-1.3.052v2.251a.6.6,0,0,0,.268.538h-1.792a.59.59,0,0,0,.274-.538v-4.966a.612.612,0,0,0-.274-.546h1.792a.614.614,0,0,0-.268.546v2.034c.332.034.778.052,1.3.052.508,0,.961-.023,1.285-.052v-2.034a.614.614,0,0,0-.273-.546h1.791a.607.607,0,0,0-.266.546v4.966a.6.6,0,0,0,.266.538Zm0,0" transform="translate(-715.864 120.421)" fill="#e1e1e1"/>
      <path id="Path_38177" data-name="Path 38177" d="M791.844-106.817a.266.266,0,0,0,.109-.209.635.635,0,0,0-.057-.209s-.5-1.354-.556-1.511a9.383,9.383,0,0,0-1.143-.046,10.174,10.174,0,0,0-1.087.046c-.05.136-.583,1.48-.583,1.48a1.147,1.147,0,0,0-.1.284c0,.09.077.134.142.165h-1.218a.931.931,0,0,0,.412-.466l2-5.167a.168.168,0,0,0,.012-.073.406.406,0,0,0-.221-.345h1.57l2.036,5.581a.928.928,0,0,0,.408.47Zm-1.582-4.9-.918,2.356a8.154,8.154,0,0,0,.834.036,8.023,8.023,0,0,0,.939-.036Zm3.624,4.9a.587.587,0,0,0,.3-.538v-4.966a.606.606,0,0,0-.3-.546h1.862a.59.59,0,0,0-.307.546v4.966a.572.572,0,0,0,.307.538Zm4.691-5.529a2.109,2.109,0,0,0-.3.032v2.094c.1.005.186.017.282.017a1.067,1.067,0,0,0,1.185-1.118c0-.756-.5-1.026-1.164-1.026Zm3.2,5.566a2.572,2.572,0,0,1-.707-.058c-.414-.121-.982-1.048-1.208-1.413-.349-.592-.805-1.416-1.59-1.416v2.312a.592.592,0,0,0,.282.538h-1.817a.592.592,0,0,0,.288-.538v-4.966a.613.613,0,0,0-.288-.546h2.193c.949,0,2.14.366,2.14,1.509a1.5,1.5,0,0,1-1.524,1.451c1.305.077,2.092,2.972,3.387,2.972a4.122,4.122,0,0,1-1.156.156Zm7.55-5.5-1.838,5.46a.719.719,0,0,1-.386-.111,5.119,5.119,0,0,1-.569-1.175l-.832-2.1-1.2,3.387h-.572l-2.057-5.473a1.072,1.072,0,0,0-.464-.577H803.2a.29.29,0,0,0-.127.253.732.732,0,0,0,.052.211l1.34,3.622,1.427-4.085,1.572,3.938,1.191-3.564a.667.667,0,0,0,.046-.194.212.212,0,0,0-.105-.18h1.183a1.063,1.063,0,0,0-.453.59Zm2.2.562-.918,2.356a8.239,8.239,0,0,0,.836.036,8.059,8.059,0,0,0,.94-.036Zm1.58,4.9a.256.256,0,0,0,.109-.209.879.879,0,0,0-.056-.209s-.493-1.354-.552-1.511a9.494,9.494,0,0,0-1.146-.046,10.161,10.161,0,0,0-1.085.046c-.052.136-.581,1.48-.581,1.48a.969.969,0,0,0-.1.284c0,.09.075.134.138.165h-1.218a.916.916,0,0,0,.41-.466l2.009-5.167a.26.26,0,0,0,.012-.073.4.4,0,0,0-.226-.345H812.4l2.036,5.581a.94.94,0,0,0,.41.47Zm5.468-5.414-1.434,2.513v2.362a.6.6,0,0,0,.27.538h-1.783a.635.635,0,0,0,.267-.538v-2.372l-1.246-2c-.113-.186-.633-1.056-1.266-1.056a4.022,4.022,0,0,1,1.047-.165,1.165,1.165,0,0,1,1.237.615l1.152,1.827c.1-.178,1.011-1.765,1.011-1.765a1.315,1.315,0,0,0,.186-.4.228.228,0,0,0-.127-.2h1.285a1.582,1.582,0,0,0-.6.637Zm3.355,4.045c0-1.152-2.715-1.413-2.715-3.252,0-1.139,1.079-1.513,2.032-1.513a3.863,3.863,0,0,1,1.428.238l.069,1.131a1.629,1.629,0,0,0-1.394-.861c-.439,0-.9.217-.9.719,0,1.2,2.761,1.488,2.761,3.23,0,1.265-1.1,1.789-2.22,1.789a3.622,3.622,0,0,1-1.871-.449,3.925,3.925,0,0,1-.048-.621,4.762,4.762,0,0,1,.061-.738,1.947,1.947,0,0,0,1.737,1.246c.606,0,1.057-.263,1.057-.92Zm0,0" transform="translate(-752.268 120.421)" fill="#e1e1e1"/>
      <g id="Group_33266" data-name="Group 33266" transform="translate(76.277 3.227)">
        <path id="Path_38178" data-name="Path 38178" d="M881.366-121.506a14.1,14.1,0,0,1-4.306,2.286c-1.482.556-2.139.753-2.968,1.023-.937.3-2.814.873-2.814.873a46.3,46.3,0,0,0,6.628,1.511,21.017,21.017,0,0,0,3.3-1.476,8.484,8.484,0,0,0,2.019-1.29,1.951,1.951,0,0,0,.6-1,1.441,1.441,0,0,0,.023-.22s0-.065-.005-.121a.534.534,0,0,0-.014-.109,1.667,1.667,0,0,0-.05-.2,1.328,1.328,0,0,0-.359-.495,3,3,0,0,0-1.217-.683,7.367,7.367,0,0,0-.755-.193Zm0,0" transform="translate(-871.278 121.598)" fill="#e1e1e1"/>
        <g id="Group_33265" data-name="Group 33265" clip-path="url(#clip-path)">
          <g id="Group_33264" data-name="Group 33264" transform="translate(-0.066 -0.111)">
            <rect id="Rectangle_650" data-name="Rectangle 650" width="12.722" height="6.007" fill="#e1e1e1"/>
          </g>
        </g>
      </g>
      <g id="Group_33267" data-name="Group 33267" transform="translate(52.815 0)">
        <path id="Path_38180" data-name="Path 38180" d="M859.5-123.175a1,1,0,0,0-.032-.2.713.713,0,0,0-.111-.241,2.084,2.084,0,0,0-.287-.34,2.591,2.591,0,0,0-.342-.265,4.525,4.525,0,0,0-1.821-.627,16.893,16.893,0,0,0-2.118-.106c-.345-.006-2.585.013-3.16.023-2.554.052-5.682.059-6.5.059-8.458.038-12.139-.144-16.239-.964a46.826,46.826,0,0,1-5.42-1.352c3.075-.105,21.017-.849,24.289-.937,2.141-.059,3.664-.073,4.881,0a16.658,16.658,0,0,1,1.934.211,9.406,9.406,0,0,1,1.595.431,3.793,3.793,0,0,1,1.647,1.06,3.051,3.051,0,0,1,.211.255c.136.19.295.424.348.51a11.38,11.38,0,0,1,.727,1.242c.08.155.15.314.218.472a3.323,3.323,0,0,1,.115.318,1.825,1.825,0,0,1,.059.349Zm0,0" transform="translate(-823.473 128.173)" fill="#e1e1e1"/>
      </g>
    </g>
    <g id="Lufthansa" transform="translate(195.72 387.33)">
      <path id="Path_38181" data-name="Path 38181" d="M282.711,401.21h.361v-1.443H281.9a2.125,2.125,0,0,0-2.345,2.435v.18h-.9v1.443h.9v5.141h2.165v-5.141h1.263v-1.443h-1.263v-.18A.9.9,0,0,1,282.711,401.21Z" transform="translate(-242.396 -397.512)" fill="#e1e1e1"/>
      <path id="Path_38182" data-name="Path 38182" d="M289.8,403.023h-.9v1.443h.9v3.156c0,1.353.632,1.984,1.894,1.984h1.623v-1.533h-.451l-.721-.091a1.932,1.932,0,0,1-.181-.9v-2.615h1.263v-1.443h-1.263v-2.074H289.8Z" transform="translate(-247.951 -398.153)" fill="#e1e1e1"/>
      <path id="Path_38183" data-name="Path 38183" d="M301.7,399.767h-2.165v9.2H301.7v-3.788q0-1.353,1.082-1.353c.632,0,.9.451.9,1.353v3.788h2.164v-3.788a4.638,4.638,0,0,0-.271-1.894,2.214,2.214,0,0,0-2.074-1.082,1.823,1.823,0,0,0-1.8.9Z" transform="translate(-253.72 -397.512)" fill="#e1e1e1"/>
      <path id="Path_38184" data-name="Path 38184" d="M318.028,406.332c.631,0,.9.18.9.631,0,.271-.18.451-.631.542l-1.895.361c-1.262.361-1.894,1.082-1.894,2.075a1.8,1.8,0,0,0,.722,1.533,2.857,2.857,0,0,0,1.8.541,3.6,3.6,0,0,0,2.165-.812l.09.541h1.983l-.18-.9v-3.427c0-1.714-.991-2.525-3.067-2.525s-3.157.812-3.157,2.345h1.984C316.856,406.693,317.216,406.332,318.028,406.332Zm-.361,2.615,1.353-.36v.541c0,.9-.451,1.353-1.532,1.353-.541,0-.9-.181-.9-.632S316.946,409.128,317.667,408.947Z" transform="translate(-261.839 -400.289)" fill="#e1e1e1"/>
      <path id="Path_38185" data-name="Path 38185" d="M332.455,405.266h-1.984v6.584h2.164v-3.788q0-1.353,1.083-1.353c.631,0,.992.451.992,1.353v3.788h2.165v-3.788a5.053,5.053,0,0,0-.361-1.894,2.215,2.215,0,0,0-2.075-1.082,2.265,2.265,0,0,0-1.894.9Z" transform="translate(-270.494 -400.396)" fill="#e1e1e1"/>
      <path id="Path_38186" data-name="Path 38186" d="M347.88,406.873q0-.541.812-.541c.63,0,.9.271.992.9h2.075l-.361-1.173c-.361-.812-1.263-1.172-2.616-1.172-2.165,0-3.157.721-3.157,2.255,0,.992.722,1.623,2.255,1.984h.632c.811.18,1.262.451,1.262.812s-.36.542-1.081.542-1.173-.271-1.173-.812v-.09h-2.074c0,1.623,1.082,2.435,3.427,2.435,1.985,0,3.066-.721,3.066-2.255,0-1.082-.812-1.8-2.345-2.074l-.722-.18C348.241,407.414,347.88,407.234,347.88,406.873Z" transform="translate(-278.613 -400.289)" fill="#e1e1e1"/>
      <path id="Path_38187" data-name="Path 38187" d="M363.936,406.332c.631,0,.9.18.9.631,0,.271-.181.451-.633.542l-1.893.361c-1.263.361-1.894,1.082-1.894,2.075a1.792,1.792,0,0,0,.721,1.533,2.858,2.858,0,0,0,1.8.541,3.6,3.6,0,0,0,2.164-.812l.091.541h1.984l-.18-.9v-3.427c0-1.714-.993-2.525-3.066-2.525-1.985,0-3.066.812-3.156,2.345h1.983C362.764,406.693,363.125,406.332,363.936,406.332Zm-.361,2.615,1.353-.36v.541c0,.9-.451,1.353-1.533,1.353-.542,0-.9-.181-.9-.632S362.853,409.128,363.575,408.947Z" transform="translate(-286.733 -400.289)" fill="#e1e1e1"/>
      <path id="Path_38188" data-name="Path 38188" d="M211.173,396.825a6.264,6.264,0,0,0-4.78-1.984,6.947,6.947,0,0,0-4.96,1.984,6.6,6.6,0,0,0-1.984,4.87,6.46,6.46,0,0,0,1.984,4.87,6.968,6.968,0,0,0,9.74,0,6.46,6.46,0,0,0,1.984-4.87A6.6,6.6,0,0,0,211.173,396.825Zm-4.96-1.353a6.16,6.16,0,1,1-4.329,1.8A6.23,6.23,0,0,1,206.212,395.472Z" transform="translate(-199.448 -394.841)" fill="#e1e1e1"/>
      <path id="Path_38189" data-name="Path 38189" d="M202.984,406.359l-.09.361-.992-.271-.09.361a13.679,13.679,0,0,1,2.8,1.263,22.828,22.828,0,0,0,6.494,2.8l.631-.541h-.451a4.155,4.155,0,0,1-3.247-1.353,6.684,6.684,0,0,1,3.067-.722l.721.09.271-.361h-.812l-1.894.091.091-.271h2.8l.271-.361h-2.886l.09-.18h2.976l.18-.271-2.976-.09.09-.271,3.067.09.27-.271-2.435-.18-2.435.18a2.122,2.122,0,0,1-2.164,1.624,3.427,3.427,0,0,1-1.624-.542l-.271-.18.09-.09,1.443.541.09-.18Z" transform="translate(-200.729 -401.038)" fill="#e1e1e1"/>
      <path id="Path_38190" data-name="Path 38190" d="M251.747,399.767h-2.255v9.2h6.133v-1.8h-3.879Z" transform="translate(-226.584 -397.512)" fill="#e1e1e1"/>
      <path id="Path_38191" data-name="Path 38191" d="M270.189,405.48h-2.165v3.788q0,1.353-1.082,1.353c-.632,0-.9-.451-.9-1.353V405.48h-2.164v3.969a3.026,3.026,0,0,0,.361,1.713,2.042,2.042,0,0,0,2.074,1.082,2.6,2.6,0,0,0,1.894-.812v.631h1.984Z" transform="translate(-234.383 -400.61)" fill="#e1e1e1"/>
    </g>
    <g id="Radisson" transform="translate(82.537 385.957)">
      <g id="g4107" transform="translate(0 0)">
        <path id="path682" d="M25.375,17.434V16.161H24.147v1.273h-.666V14.262h.666v1.256h1.228V14.262h.666v3.172Z" transform="translate(-3.977 -2.416)" fill="#e1e1e1"/>
        <path id="path694" d="M30.97,17.478a1.587,1.587,0,0,1-1.6-1.631v-.01a1.608,1.608,0,1,1,3.216-.008v.009a1.6,1.6,0,0,1-1.612,1.64m.917-1.64a.945.945,0,0,0-.917-1,.93.93,0,0,0-.909.988v.01a.945.945,0,0,0,.917,1,.93.93,0,0,0,.909-.988Z" transform="translate(-4.974 -2.405)" fill="#e1e1e1"/>
        <path id="path698" d="M37.211,14.906v2.528h-.665V14.906h-.921v-.643h2.507v.643Z" transform="translate(-6.034 -2.416)" fill="#e1e1e1"/>
        <path id="path702" d="M41.645,17.434V14.262h2.283v.621H42.306v.644h1.426v.62H42.306v.666H43.95v.62Z" transform="translate(-7.054 -2.416)" fill="#e1e1e1"/>
        <path id="path706" d="M47.519,17.434V14.262h.666V16.8h1.508v.635Z" transform="translate(-8.049 -2.416)" fill="#e1e1e1"/>
        <path id="path710" d="M57.912,17.478a1.551,1.551,0,0,1-1.591-1.631v-.01a1.591,1.591,0,0,1,1.586-1.64,1.615,1.615,0,0,1,1.189.435l-.42.53a1.088,1.088,0,0,0-.791-.322.935.935,0,0,0-.869.988v.009a.93.93,0,0,0,.917,1.006,1.024,1.024,0,0,0,.626-.191V16.2h-.669v-.6H59.2v1.377a1.913,1.913,0,0,1-1.292.5" transform="translate(-9.539 -2.405)" fill="#e1e1e1"/>
        <path id="path714" d="M64.935,17.434l-.649-1.014h-.523v1.014H63.1V14.262h1.383a1.01,1.01,0,0,1,1.142,1.047v.01a.986.986,0,0,1-.649.983l.739,1.131Zm.012-2.089c0-.3-.2-.453-.522-.453h-.663v.91h.674c.325,0,.511-.18.511-.449Z" transform="translate(-10.687 -2.416)" fill="#e1e1e1"/>
        <path id="path718" d="M70.543,17.478a1.588,1.588,0,0,1-1.6-1.631v-.01a1.609,1.609,0,1,1,3.217-.008v.009a1.6,1.6,0,0,1-1.612,1.64m.916-1.64a.944.944,0,0,0-.916-1,.93.93,0,0,0-.908.988v.01a.944.944,0,0,0,.915,1,.93.93,0,0,0,.909-.988Z" transform="translate(-11.676 -2.405)" fill="#e1e1e1"/>
        <path id="path722" d="M77.015,17.484a1.232,1.232,0,0,1-1.31-1.409V14.263h.665v1.795c0,.516.248.783.654.783s.652-.258.652-.761V14.263h.666v1.789a1.249,1.249,0,0,1-1.327,1.432" transform="translate(-12.823 -2.416)" fill="#e1e1e1"/>
        <path id="path726" d="M83.107,16.483H82.6v.951h-.667V14.263h1.238a1.058,1.058,0,0,1,1.158,1.1v.009a1.1,1.1,0,0,1-1.224,1.114m.549-1.11c0-.312-.207-.48-.54-.48H82.6v.97h.527a.478.478,0,0,0,.527-.481Z" transform="translate(-13.878 -2.416)" fill="#e1e1e1"/>
        <path id="path728" d="M23.482,12.113H74.287v.2H23.482Z" transform="translate(-3.977 -2.052)" fill="#e1e1e1"/>
        <path id="path732" d="M35.71,5.676H33.578L34.64,3.081ZM34.048,1.289l-3.083,7.4h1.4l.705-1.736h3.14l.7,1.736h1.443l-3.084-7.4Z" transform="translate(-5.245 -0.218)" fill="#e1e1e1"/>
        <path id="path736" d="M45.688,5.035a2.207,2.207,0,0,1-2.3,2.356H42.108V2.657h1.274a2.241,2.241,0,0,1,2.3,2.378m-2.3-3.684H40.747V8.7h2.636a3.582,3.582,0,0,0,3.725-3.682,3.573,3.573,0,0,0-3.725-3.664" transform="translate(-6.902 -0.229)" fill="#e1e1e1"/>
        <path id="path740" d="M73.07,5.01a2.257,2.257,0,1,1-4.491-.02,2.257,2.257,0,1,1,4.491.02M70.834,1.2A3.66,3.66,0,0,0,67.159,5.01a3.667,3.667,0,1,0,7.33-.02A3.642,3.642,0,0,0,70.834,1.2" transform="translate(-11.375 -0.204)" fill="#e1e1e1"/>
        <path id="path744" d="M27.863,3.782c0,.7-.51,1.134-1.333,1.134H24.843V2.658H26.52c.866,0,1.343.4,1.343,1.124m1.38-.072a2.321,2.321,0,0,0-2.626-2.357H23.482V8.7h1.361V6.19h1.39L27.919,8.7h1.608L27.653,5.941a2.19,2.19,0,0,0,1.591-2.232" transform="translate(-3.977 -0.229)" fill="#e1e1e1"/>
        <path id="path746" d="M49.763,8.7h1.36V1.351h-1.36Z" transform="translate(-8.429 -0.229)" fill="#e1e1e1"/>
        <path id="path750" d="M55.77,4.353C54.438,4.02,54.2,3.785,54.2,3.288c0-.47.418-.786,1.04-.786a2.94,2.94,0,0,1,1.814.723l.066.051.733-1.081L57.8,2.15a3.8,3.8,0,0,0-2.54-.922A2.207,2.207,0,0,0,52.84,3.4c0,1.371.86,1.857,2.344,2.233,1.274.309,1.489.568,1.489,1.034,0,.516-.436.837-1.139.837a2.975,2.975,0,0,1-2.113-.915l-.062-.056-.821,1.024.053.05a4.2,4.2,0,0,0,2.915,1.17,2.242,2.242,0,0,0,2.528-2.234c0-1.147-.655-1.782-2.263-2.192" transform="translate(-8.899 -0.208)" fill="#e1e1e1"/>
        <path id="path754" d="M62.91,4.353c-1.331-.333-1.568-.568-1.568-1.065,0-.47.417-.786,1.04-.786a2.942,2.942,0,0,1,1.814.723l.065.051.733-1.081-.053-.045A3.8,3.8,0,0,0,62.4,1.228,2.207,2.207,0,0,0,59.98,3.4c0,1.371.86,1.857,2.344,2.233,1.274.309,1.489.568,1.489,1.034,0,.516-.436.837-1.137.837a2.978,2.978,0,0,1-2.115-.915L60.5,6.535l-.823,1.023.053.05a4.2,4.2,0,0,0,2.915,1.171,2.242,2.242,0,0,0,2.528-2.234c0-1.147-.656-1.782-2.264-2.191" transform="translate(-10.108 -0.208)" fill="#e1e1e1"/>
        <path id="path766" d="M82.055,1.352V6.166L78.519,1.383,78.5,1.351H77.263V8.7H78.6V3.739l3.644,4.926.022.032H83.4V1.351Z" transform="translate(-13.086 -0.229)" fill="#e1e1e1"/>
        <path id="path770" d="M10.077,10.843H8.522V8.71h-2v2.133H4.97V5.23H6.525v2.1h2V5.23h1.555Zm3.624.113a2.878,2.878,0,0,1-3.047-2.9V8.037a2.91,2.91,0,0,1,3.014-2.918H15A8.026,8.026,0,0,0,0,5.23H2.067a2.488,2.488,0,0,1,1.828.6,1.754,1.754,0,0,1,.5,1.307v.016A1.777,1.777,0,0,1,3.237,8.887l1.339,1.957H2.788l-1.131-1.7H.967v1.7H0A8.026,8.026,0,0,0,15.1,10.7a3.839,3.839,0,0,1-1.4.258" fill="#e1e1e1"/>
        <path id="path782" d="M3.034,8.6V8.582c0-.449-.329-.673-.841-.673H1.164V9.265H2.2c.522,0,.834-.257.834-.666" transform="translate(-0.197 -1.34)" fill="#e1e1e1"/>
        <path id="path786" d="M17.16,10.028v.682a1.543,1.543,0,0,1-.9.233,1.487,1.487,0,0,1-1.525-1.565V9.363a1.469,1.469,0,0,1,1.436-1.532h1.733a7.794,7.794,0,0,1,.126,1.06h-1.97v1.138Z" transform="translate(-2.496 -1.326)" fill="#e1e1e1"/>
        <path id="path788" d="M23.486,12.3h50.8v-.2h-50.8Z" transform="translate(-3.978 -2.05)" fill="#e1e1e1"/>
        <path id="path792" d="M87.08,14.263l-.194.311-.2-.311h-.176V15h.158v-.5l.2.323h.016l.2-.323V15h.157v-.738Zm-1.33,0v.149h.22V15h.168v-.589h.22v-.149Z" transform="translate(-14.524 -2.416)" fill="#e1e1e1"/>
      </g>
    </g>
    <g id="Trivago" transform="translate(82.537 301.383)">
      <path id="Path_38192" data-name="Path 38192" d="M219.97,249.919h2.96v1.558h.029a3.318,3.318,0,0,1,1.11-1.321,2.8,2.8,0,0,1,1.617-.442c.169,0,.342.005.51.018a2.836,2.836,0,0,1,.472.076v2.668a5.455,5.455,0,0,0-.618-.146,4.014,4.014,0,0,0-.635-.049,3.109,3.109,0,0,0-1.326.234,1.761,1.761,0,0,0-.75.652,2.48,2.48,0,0,0-.336,1,9.778,9.778,0,0,0-.073,1.286v3.965h-2.96v-9.5" transform="translate(-211.091 -245.867)" fill="#e1e1e1"/>
      <path id="Path_38193" data-name="Path 38193" d="M285.8,219.052h2.882v9.5H285.8Zm-.118-2.5a1.554,1.554,0,1,1,.455,1.1,1.494,1.494,0,0,1-.455-1.1" transform="translate(-269.527 -215)" fill="#e1e1e1"/>
      <path id="Path_38194" data-name="Path 38194" d="M412.323,255.269c-.22,0-.5-.006-.828.013a4.224,4.224,0,0,0-.954.158,2.124,2.124,0,0,0-.779.4.939.939,0,0,0-.321.758.833.833,0,0,0,.448.778,1.873,1.873,0,0,0,.934.253,2.925,2.925,0,0,0,.828-.117,2.461,2.461,0,0,0,.711-.331,1.622,1.622,0,0,0,.5-.545,1.578,1.578,0,0,0,.191-.779v-.591h-.734m.734,2.96H413a2.951,2.951,0,0,1-1.294,1.074,4.538,4.538,0,0,1-2.98.134,3.21,3.21,0,0,1-1.081-.557,2.681,2.681,0,0,1-.74-.917,2.785,2.785,0,0,1-.273-1.266,2.9,2.9,0,0,1,.3-1.383,2.692,2.692,0,0,1,.817-.935,4.066,4.066,0,0,1,1.178-.574,8.607,8.607,0,0,1,1.374-.3,13.3,13.3,0,0,1,1.421-.117q.71-.019,1.314-.02a1.517,1.517,0,0,0-.555-1.236,2,2,0,0,0-1.315-.457,2.865,2.865,0,0,0-1.315.3,3.6,3.6,0,0,0-1.061.828l-1.558-1.6a5.354,5.354,0,0,1,1.909-1.139,6.807,6.807,0,0,1,2.259-.38,5.907,5.907,0,0,1,2.113.321,3.079,3.079,0,0,1,1.324.945,3.62,3.62,0,0,1,.678,1.528,10.129,10.129,0,0,1,.182,2.094V259.4h-2.648Z" transform="translate(-377.075 -245.843)" fill="#e1e1e1"/>
      <path id="Path_38195" data-name="Path 38195" d="M590.229,254.65a2.609,2.609,0,0,0,.555,1.733,2.168,2.168,0,0,0,3.119,0,2.982,2.982,0,0,0,0-3.466,2.167,2.167,0,0,0-3.119,0,2.611,2.611,0,0,0-.555,1.733m-2.643,0a5.432,5.432,0,0,1,.369-2.045,4.727,4.727,0,0,1,1.014-1.567,4.409,4.409,0,0,1,1.515-1,5.1,5.1,0,0,1,3.718,0,4.418,4.418,0,0,1,1.515,1,4.719,4.719,0,0,1,1.013,1.567,5.826,5.826,0,0,1,0,4.09,4.711,4.711,0,0,1-1.013,1.568,4.407,4.407,0,0,1-1.515,1,5.1,5.1,0,0,1-3.718,0,4.4,4.4,0,0,1-1.515-1,4.719,4.719,0,0,1-1.014-1.568,5.425,5.425,0,0,1-.369-2.045" transform="translate(-537.975 -245.84)" fill="#e1e1e1"/>
      <path id="Path_38196" data-name="Path 38196" d="M499.373,250.544v1.273h-.044a1.789,1.789,0,0,0-.332-.355,3.887,3.887,0,0,0-.75-.5,4.15,4.15,0,0,0-.935-.37,4.977,4.977,0,0,0-1.207-.165,3.939,3.939,0,0,0-1.83.464,3.511,3.511,0,0,0-1.282,1.038,4.256,4.256,0,0,0-.722,1.545,7.667,7.667,0,0,0-.206,1.936,7.344,7.344,0,0,0,.283,2.009,4.179,4.179,0,0,0,.826,1.6,3.406,3.406,0,0,0,1.382.935,4.615,4.615,0,0,0,1.887.321,3.869,3.869,0,0,0,1.379-.3,2.794,2.794,0,0,0,1.2-.912h.034v.921a2.26,2.26,0,0,1-.57,1.67,2.551,2.551,0,0,1-1.94.671,5.217,5.217,0,0,1-1.584-.152,5.367,5.367,0,0,1-1.69-.757l-1.421,2.086a6.552,6.552,0,0,0,2.264,1.1,9.681,9.681,0,0,0,2.494.284,5.356,5.356,0,0,0,4.064-1.4,5.625,5.625,0,0,0,1.274-4.094v-8.852h-2.579m-.728,6.512a2.175,2.175,0,0,1-3.129,0,2.994,2.994,0,0,1,0-3.478,2.174,2.174,0,0,1,3.129,0,2.991,2.991,0,0,1,0,3.478Z" transform="translate(-452.851 -246.502)" fill="#e1e1e1"/>
      <path id="Path_38197" data-name="Path 38197" d="M147.937,231.4h-2.882v3.181a5.251,5.251,0,0,0,.061.711,1.354,1.354,0,0,0,.2.555.958.958,0,0,0,.465.36,2.236,2.236,0,0,0,.827.127,6.187,6.187,0,0,0,.685-.048,1.3,1.3,0,0,0,.642-.224V238.5a5.846,5.846,0,0,1-1.123.234,11.366,11.366,0,0,1-1.139.058,6.744,6.744,0,0,1-1.5-.156,3.583,3.583,0,0,1-1.2-.5,2.407,2.407,0,0,1-.812-.886,2.8,2.8,0,0,1-.3-1.324V231.4h-2.025v-2.336h2.025v-2.8h3.193v2.8h2.882V231.4" transform="translate(-139.837 -225.016)" fill="#e1e1e1"/>
      <path id="Path_38198" data-name="Path 38198" d="M316.212,251.569h3.155l2.4,6.464h.039l2.221-6.464h2.94l-3.739,9.5h-3.1l-3.914-9.5" transform="translate(-296.669 -247.517)" fill="#e1e1e1"/>
    </g>
  </g>
</svg>
