<svg xmlns="http://www.w3.org/2000/svg" xmlns:xlink="http://www.w3.org/1999/xlink" width="209.757" height="105.488" viewBox="0 0 209.757 105.488">
  <defs>
    <clipPath id="clip-path">
      <path id="Path_37644" data-name="Path 37644" d="M0-6.08H59.069V-19.8H0Z" transform="translate(0 19.803)" fill="#e1e1e1"/>
    </clipPath>
  </defs>
  <g id="Group_33343" data-name="Group 33343" transform="translate(-436.235 -309.304)">
    <g id="Adidas" transform="translate(436.281 356.464)">
      <g id="Group_32959" data-name="Group 32959" transform="translate(0 0)" clip-path="url(#clip-path)">
        <g id="Group_32955" data-name="Group 32955" transform="translate(26.86 0)">
          <path id="Path_37640" data-name="Path 37640" d="M-3.6-3.985A2.915,2.915,0,0,1-6.443-1.63H-6.47A2.913,2.913,0,0,1-9.35-4.536a2.9,2.9,0,0,1,2.879-2.9h.027A2.907,2.907,0,0,1-3.6-5.088Zm0-4.986a5.21,5.21,0,0,0-2.844-.845H-6.47a5.292,5.292,0,0,0-5.253,5.28A5.291,5.291,0,0,0-6.47.743h.027A5.216,5.216,0,0,0-3.6-.1V.45h2.427V-12.98H-3.6Z" transform="translate(11.723 12.98)" fill="#e1e1e1"/>
        </g>
        <g id="Group_32956" data-name="Group 32956" transform="translate(38.254 3.164)">
          <path id="Path_37641" data-name="Path 37641" d="M-3.6-2.583A2.915,2.915,0,0,1-6.444-.228H-6.47A2.914,2.914,0,0,1-9.35-3.134a2.9,2.9,0,0,1,2.88-2.9h.026A2.907,2.907,0,0,1-3.6-3.686Zm0-4.986a5.19,5.19,0,0,0-2.845-.845H-6.47a5.292,5.292,0,0,0-5.253,5.28A5.291,5.291,0,0,0-6.47,2.145h.026A5.2,5.2,0,0,0-3.6,1.3v.551h2.426v-10H-3.6Z" transform="translate(11.723 8.414)" fill="#e1e1e1"/>
        </g>
        <g id="Group_32957" data-name="Group 32957" transform="translate(49.888 3.049)">
          <path id="Path_37642" data-name="Path 37642" d="M-3.343-2.1c-.089-.045-.213-.089-.355-.143a25.8,25.8,0,0,0-2.649-.684c-1.075-.24-1.617-.551-1.617-.942a.829.829,0,0,1,.284-.658,2.089,2.089,0,0,1,1.333-.319,1.94,1.94,0,0,1,1.4.418,1.73,1.73,0,0,1,.374.9H-2A2.863,2.863,0,0,0-3.53-6.25,1,1,0,0,0-3.7-6.338a6.671,6.671,0,0,0-2.8-.5,4.181,4.181,0,0,0-3.19,1.128,3.1,3.1,0,0,0-.845,2.213A2.479,2.479,0,0,0-8.916-1.121a17.421,17.421,0,0,0,2.987.809c1.057.231,1.59.56,1.59.977a.833.833,0,0,1-.337.658A2.021,2.021,0,0,1-6.009,1.7a2.784,2.784,0,0,1-1.68-.39,1.281,1.281,0,0,1-.5-1.076h-2.7A2.968,2.968,0,0,0-9.333,2.976a6.532,6.532,0,0,0,3.253.711A6.026,6.026,0,0,0-3.7,3.243c.143-.062.267-.125.4-.2a2.975,2.975,0,0,0,1.59-2.8A2.488,2.488,0,0,0-3.343-2.1" transform="translate(10.889 6.836)" fill="#e1e1e1"/>
        </g>
        <g id="Group_32958" data-name="Group 32958" transform="translate(0 3.164)">
          <path id="Path_37643" data-name="Path 37643" d="M-3.6-2.583A2.918,2.918,0,0,1-6.452-.228h-.027A2.911,2.911,0,0,1-9.35-3.134a2.9,2.9,0,0,1,2.87-2.9h.027A2.91,2.91,0,0,1-3.6-3.686Zm0-4.986a5.242,5.242,0,0,0-2.853-.845h-.027a5.29,5.29,0,0,0-5.244,5.28A5.289,5.289,0,0,0-6.479,2.145h.027A5.248,5.248,0,0,0-3.6,1.3v.551h2.426v-10H-3.6Z" transform="translate(11.723 8.414)" fill="#e1e1e1"/>
        </g>
      </g>
      <path id="Path_37645" data-name="Path 37645" d="M33.578-17.406h2.64v-2.32h-2.64Z" transform="translate(-10.309 19.779)" fill="#e1e1e1"/>
      <path id="Path_37646" data-name="Path 37646" d="M33.578-4.971h2.64V-15.237h-2.64Z" transform="translate(-10.309 18.401)" fill="#e1e1e1"/>
      <g id="Group_32961" data-name="Group 32961" transform="translate(0 0)" clip-path="url(#clip-path)">
        <g id="Group_32960" data-name="Group 32960" transform="translate(11.501 0)">
          <path id="Path_37647" data-name="Path 37647" d="M-3.6-3.985A2.918,2.918,0,0,1-6.456-1.63h-.026a2.914,2.914,0,0,1-2.88-2.906,2.9,2.9,0,0,1,2.88-2.9h.026A2.91,2.91,0,0,1-3.6-5.088Zm0-4.986a5.239,5.239,0,0,0-2.853-.845h-.026a5.292,5.292,0,0,0-5.253,5.28A5.291,5.291,0,0,0-6.482.743h.026A5.244,5.244,0,0,0-3.6-.1V.45h2.427V-12.98H-3.6Z" transform="translate(11.735 12.98)" fill="#e1e1e1"/>
        </g>
      </g>
    </g>
    <g id="Siemens" transform="translate(548.238 358.822)">
      <path id="Path_37589" data-name="Path 37589" d="M878.9,526.751V529.1a10.625,10.625,0,0,0-3.313-.618c-1.2,0-1.872.367-1.872,1.025,0,.42.293.7,1.134,1.076l2.261,1.014c1.808.812,2.719,2,2.719,3.538,0,2.377-2.057,3.876-5.319,3.876a18.645,18.645,0,0,1-4.023-.5v-2.426a15.2,15.2,0,0,0,3.8.6c1.348,0,2.07-.376,2.07-1.075,0-.422-.282-.731-.928-1.018l-2.474-1.1c-1.834-.818-2.68-1.92-2.68-3.491,0-2.251,1.983-3.686,5.094-3.686a15.888,15.888,0,0,1,3.534.436Z" transform="translate(-870.275 -526.315)" fill="#e1e1e1" fill-rule="evenodd"/>
      <path id="Path_37590" data-name="Path 37590" d="M895.345,526.86H899v12.2h-3.656v-12.2Z" transform="translate(-884.029 -526.614)" fill="#e1e1e1" fill-rule="evenodd"/>
      <path id="Path_37591" data-name="Path 37591" d="M918.751,526.86V529.1h-5.519v2.752h4.821v2.021h-4.821v2.854h5.59v2.339H909.68v-12.2Z" transform="translate(-891.894 -526.614)" fill="#e1e1e1" fill-rule="evenodd"/>
      <path id="Path_37592" data-name="Path 37592" d="M949.659,526.86v12.2h-3.537v-8.032l-3.464,8.127h-2.236l-3.441-8.127v8.032h-2.442v-12.2H939l3.156,7.422,3.14-7.422Z" transform="translate(-905.531 -526.614)" fill="#e1e1e1" fill-rule="evenodd"/>
      <path id="Path_37593" data-name="Path 37593" d="M983.345,526.86V529.1h-5.527v2.752h4.82v2.021h-4.82v2.854h5.59v2.339h-9.151v-12.2Z" transform="translate(-927.323 -526.614)" fill="#e1e1e1" fill-rule="evenodd"/>
      <path id="Path_37594" data-name="Path 37594" d="M1009.87,526.86v12.2h-3.9l-4.393-7.827v7.827h-2.443v-12.2h4l4.3,7.723V526.86Z" transform="translate(-940.971 -526.614)" fill="#e1e1e1" fill-rule="evenodd"/>
      <path id="Path_37595" data-name="Path 37595" d="M1035.938,526.752V529.1a10.651,10.651,0,0,0-3.295-.618c-1.222,0-1.891.361-1.891,1.021,0,.431.273.688,1.143,1.081l2.251,1.014c1.821.821,2.721,2,2.721,3.554,0,2.364-2.059,3.86-5.313,3.86a18.71,18.71,0,0,1-4.028-.5v-2.426a15.189,15.189,0,0,0,3.787.6c1.339,0,2.081-.375,2.081-1.053,0-.449-.26-.738-.937-1.04l-2.465-1.1c-1.845-.825-2.682-1.913-2.682-3.49,0-2.25,1.984-3.686,5.088-3.686a15.928,15.928,0,0,1,3.54.436Z" transform="translate(-956.429 -526.316)" fill="#e1e1e1" fill-rule="evenodd"/>
    </g>
    <g id="Allstate" transform="translate(436.356 398.908)">
      <path id="Path_38173" data-name="Path 38173" d="M73.8,16.932a.826.826,0,1,1,.808-.824A.777.777,0,0,1,73.8,16.932Zm0-1.556a.731.731,0,1,0,.693.732A.672.672,0,0,0,73.8,15.376Zm.239,1.173-.273-.39h-.089v.377h-.157v-.913H73.8c.193,0,.321.1.321.266a.248.248,0,0,1-.186.252l.264.373Zm-.243-.785h-.119v.27h.113c.1,0,.168-.042.168-.135s-.058-.135-.162-.135ZM31.062,6.925,24.837,16.932h2.116s1.535-2.491,1.589-2.576h3.572v2.577h2.009V6.925Zm1.048,5.658H29.655C29.807,12.34,32.11,8.6,32.11,8.6v3.985Zm3.438-5.658H37.5V16.933H35.549Zm3.373,0h1.949V16.933H38.922Zm6.246,5.281c-1.062-.278-1.284-.432-1.256-.874.022-.4.349-.631.9-.631a4.788,4.788,0,0,1,2.209.635l.111.064L47.4,9.73l-.064-.03a6.116,6.116,0,0,0-2.525-.509,2.945,2.945,0,0,0-2.138.774,2.027,2.027,0,0,0-.576,1.483c.034,1.543.769,1.979,2.512,2.427,1.152.284,1.387.453,1.378,1-.006.493-.3.68-1.084.68a4.82,4.82,0,0,1-2.545-.825l-.116-.077-.27,1.676.058.033a6.2,6.2,0,0,0,2.815.7,3.265,3.265,0,0,0,2.392-.762,2.134,2.134,0,0,0,.57-1.59C47.773,13.057,46.937,12.662,45.168,12.206Zm7.371,3.041-.1.027a2.027,2.027,0,0,1-.536.056c-.579,0-.848-.261-.848-.825V10.961h1.431l.028-1.63H51.056V6.924h-1.92V9.33h-1v1.63h1V14.8c0,1.52.793,2.263,2.43,2.263a4.868,4.868,0,0,0,1.139-.123l.088-.016-.254-1.675Zm4.156-6.072a7.5,7.5,0,0,0-2.859.582l-.07.027.251,1.6.11-.048a5.717,5.717,0,0,1,2.337-.567c.769,0,1.131.318,1.131,1v.2c-2.883.3-4.286,1.28-4.286,3.008a1.971,1.971,0,0,0,2.11,2.1,3.164,3.164,0,0,0,2.3-.984c.037.221.137.837.137.837h1.687v-5.21c0-1.737-.907-2.549-2.851-2.549Zm-.676,6.383a.716.716,0,0,1-.778-.768c0-.842.812-1.393,2.35-1.6v1.648A2.258,2.258,0,0,1,56.019,15.557Zm8.529-.31-.1.027a2.025,2.025,0,0,1-.533.056c-.58,0-.852-.261-.852-.825V10.961H64.5l.025-1.63H63.062V6.924H61.14V9.33h-1v1.63h1V14.8c0,1.52.8,2.263,2.436,2.263a4.867,4.867,0,0,0,1.139-.123l.086-.016-.252-1.675Zm6.693-.586a4.03,4.03,0,0,1-2.395.867c-1.048,0-1.7-.71-1.81-1.943h4.549l.019-.52c0-2.576-1.07-3.885-3.186-3.89a3.057,3.057,0,0,0-2.264.864,4.286,4.286,0,0,0-1.067,3.115c0,2.424,1.37,3.927,3.568,3.927a5.011,5.011,0,0,0,2.9-.883l.048-.031-.238-1.59-.119.085ZM67.064,12.3c.088-1.09.563-1.716,1.312-1.716,1.01,0,1.277.91,1.317,1.716ZM13.423,3.46c-5.668,0-10.283,3.5-10.283,7.806s4.613,8.078,10.283,8.078S23.7,15.569,23.7,11.266,19.093,3.46,13.423,3.46Zm0,15.351c-4.908,0-8.9-3.522-8.9-7.536s3.994-7.282,8.9-7.282,8.9,3.266,8.9,7.282S18.334,18.811,13.424,18.811Z" transform="translate(-3.14 -3.46)" fill="#e1e1e1"/>
      <g id="Group_33260" data-name="Group 33260" transform="translate(3.035 0.923)">
        <path id="a" d="M28.867,19.923l.177.18s.356.2.356.2l.337.184.043.024.248.138.419.229a.367.367,0,0,0,.076.007l.537-.034a2.3,2.3,0,0,1,.91.11.311.311,0,0,1,.175.383s.275-.2.223-.429c-.027-.2-.264-.457-1.048-.5a5.149,5.149,0,0,0-.618.019h-.034c0-.006-.352-.232-.352-.232l-.147-.085c-.021-.009-.487-.255-.487-.255l-.3-.117c0-.009-.264-.379-.264-.379l-.1-.137-.282-.407-.12-.177c-.007-.01-.162-.249-.162-.249a.71.71,0,0,0,.144-.463c-.021.033-.036.04-.145.135a2.343,2.343,0,0,1-.662.3l-.1.027.787,1.033Zm1.292-.585.053.068c.022.019.355.151.355.151a5.864,5.864,0,0,1,.668.316l.376.221c.03.012.417-.016.671,0a.906.906,0,0,1,.7.333.448.448,0,0,1-.037.511.733.733,0,0,0,.382-.618c-.024-.35-.327-.678-1.451-.665,0,0-.309-.183-.309-.183l-.091-.053-.5-.255-.407-.138a1.941,1.941,0,0,0-.1-.178,6.07,6.07,0,0,0-.472-.68l-.049-.059s-.276-.382-.309-.429a.8.8,0,0,0,.013-.46,1.222,1.222,0,0,1-.123.187,1.718,1.718,0,0,1-.423.337l-.076.049,1.02,1.393.105.148Zm.46-2.493a.667.667,0,0,0-.056-.444l-.061.143a1,1,0,0,1-.395.4l-.062.034.824,1.179s.049.077.049.077l.157.212c.021.021.344.2.344.2l.122.068.371.221.34.227.025.007.508.033a1.1,1.1,0,0,1,.576.2.462.462,0,0,1,.148.578.7.7,0,0,0,.147-.843.818.818,0,0,0-.678-.346l-.524-.073s-.282-.194-.282-.194L31.8,18.3l-.1-.056-.3-.132-.787-1.269ZM27.192,9.851c.027.027.113.113.113.114l.416.38s.238.224.238.224c.175.168.217.254.211.288s-.04.048-.071.065a.376.376,0,0,1-.08.03L28,11.11l.1,0a2.135,2.135,0,0,1,1.4.673,3.959,3.959,0,0,1,1.113,2.283l.453,2.355.171.362.033.074.074.154a1.449,1.449,0,0,0,.172.3c.01.01.235.189.235.189l.327.334.1.1.156.156c.012.009.474.068.474.068.8.134.768.579.768.579s.478-.733-.662-.99c0,0-.359-.068-.367-.068h0c0-.009-.128-.183-.128-.183l-.043-.048c-.007-.009-.347-.344-.347-.344l-.156-.148s-.143-.382-.143-.382l-.2-.488a4.556,4.556,0,0,1-.131-.722c0-.013-.036-.239-.036-.239l-.15-.987c0-.016.034-.193.034-.193a4.842,4.842,0,0,1,.413-1.219,2.468,2.468,0,0,1,.775-.877,4.053,4.053,0,0,1,1.256-.429.184.184,0,0,0,.174-.148l.013-.04-.039-.006a1.057,1.057,0,0,1-.377-.119.081.081,0,0,1-.006-.03.312.312,0,0,1,.062-.138s.248-.238.248-.238l.144-.143.683-.661-.56-.189c-.074.076-.619.641-.619.641a5.967,5.967,0,0,1-1.084,1.024,2.548,2.548,0,0,0-1.263,1.207s-.092.241-.143.371a3.678,3.678,0,0,0-.624-1.158,2.741,2.741,0,0,0-1.1-.8c-.242-.23-1.039-.959-1.471-1.314ZM29.32,21.735c-.732.373-1.137.049-.959-.343A2.74,2.74,0,0,0,29.32,21.735Zm-1.256-.557c-.5.137-.683-.214-.566-.5A4.361,4.361,0,0,0,28.064,21.179ZM23.58,12.254l.137.1c.013.009.632.523.725.6l-.27.745a5.544,5.544,0,0,0-.481,1.648l0,.076c0,.01.2,1.059.2,1.059l.015.077c.113.551.241,1.177.294,1.627.012.128.043.2.092.235a8.7,8.7,0,0,1,1.407,2.2c.018.033.027.052.036.065a.633.633,0,0,0,.217.339.517.517,0,0,0,.456,0,1.718,1.718,0,0,0,.662-.828c.048.056.175.224.2.248a.689.689,0,0,0,.725,1.1c-.189.545.508.983,1.162.692a.69.69,0,0,0,.632.508,4.174,4.174,0,0,0,1.217.028,6.079,6.079,0,0,0,2.018-.512,3.4,3.4,0,0,0,1.277-1.1c0-.007.043-.055.07-.092a1.789,1.789,0,0,0,.235.341.735.735,0,0,0,.591.279.37.37,0,0,0,.275-.232,9.682,9.682,0,0,1,1.488-2.239s.049-.1.049-.1c.114-.429.518-1.492.733-2.067l.153-.413s.03-.1.03-.1c.01-.165.016-.33.016-.491A6.428,6.428,0,0,0,37.631,14a3.725,3.725,0,0,0-.3-.664l-.11-.2a4.122,4.122,0,0,1,.925-.744.3.3,0,0,1,.027-.015l-.425-.465-.3.2a.978.978,0,0,1-.815.218c-.028-.01-.285-.156-.285-.156a.6.6,0,0,0-.061-.031l-.088-.012c-.01,0-.1.019-.1.019l-.056.013.088.1a3.184,3.184,0,0,1,.405.65l.079.147.074.174.015.036.1.252.018.053.053.145.2.719a8.465,8.465,0,0,1,.266,1.85c0,.007-.007.059-.007.059s-.241.677-.241.677c-.248.7-.558,1.572-.628,1.932l-.015.043a7.012,7.012,0,0,0-1.335,2c-.031.064-.053.073-.062.074-.031.006-.108-.065-.15-.1a1.059,1.059,0,0,1-.254-.793,1.309,1.309,0,0,1,.481-.992c.048-.036.03-.1.019-.141a1.649,1.649,0,0,1,.334-1.366l.073-.053-.071-.055a3.725,3.725,0,0,1-1.246-2.666l0-.114-.126.053a.734.734,0,0,0-.062.086,2.692,2.692,0,0,0-.046.508,4.188,4.188,0,0,0,.122.977,3.087,3.087,0,0,0,.7,1.326l.015.018a1.959,1.959,0,0,0-.218,1.01,1.685,1.685,0,0,0,.019.281,1.484,1.484,0,0,0-.506,1.041s.012.315.012.318-.186.235-.186.235l-.036.052a3.155,3.155,0,0,1-1.219,1.155,5.958,5.958,0,0,1-2.761.5.283.283,0,0,1-.272-.321.183.183,0,0,1,.042-.113l.079-.085a3.775,3.775,0,0,0,1.841-.171c.013-.012.108-.154.108-.154l.037-.067-.076.018a5.456,5.456,0,0,1-2.69-.349,3.561,3.561,0,0,1-1.652-1.488l-.178-.233a1.482,1.482,0,0,0-.183-.676,1.226,1.226,0,0,0-.29-.341,1.792,1.792,0,0,0,.076-.545,1.523,1.523,0,0,0-.15-.726,1.5,1.5,0,0,0,.707-1.186,2.143,2.143,0,0,0-.117-.521l-.181-.085.012.12c.073.738-.615,1.216-1.07,1.535,0,0-.134.092-.134.092l.088.055c.356.223.362.972.281,1.394l0,.024.019.034.021.01.171.138a1.375,1.375,0,0,1-.065,1.67c-.08.083-.123.094-.146.092-.059-.012-.105-.15-.119-.2L26,20.044a7.939,7.939,0,0,0-1.176-1.912s-.015-.058-.015-.058c-.117-.946-.264-1.646-.408-2.322l-.079-.367s-.009-.1-.009-.1a5.97,5.97,0,0,1,.526-1.936l.157-.408.131-.312s.024-.046.024-.046a2.877,2.877,0,0,1,.609-.618l.111-.083-.145-.061a1.913,1.913,0,0,0-.566.171l-.05.024a.865.865,0,0,1-.625.1l-.5-.3-.4.428Z" transform="translate(-23.58 -9.68)" fill="#e1e1e1"/>
      </g>
    </g>
    <path id="CVS_pharmacy" data-name="CVS pharmacy" d="M75.554,172.052H76.9v.823h.031a2.279,2.279,0,0,1,1.92-.99c1.63,0,2.712,1.31,2.712,3.321,0,2.026-1.066,3.306-2.712,3.306a2.148,2.148,0,0,1-1.874-.9h-.031v3.032H75.57v-8.592h-.015Zm4.586,3.184c0-1.265-.488-2.209-1.585-2.209-1.173,0-1.676.99-1.676,2.209,0,1.234.533,2.118,1.722,2.118.975,0,1.539-.823,1.539-2.118Zm3.687-2.346h.031a2.125,2.125,0,0,1,1.889-.99,2.041,2.041,0,0,1,2.133,2.224v4.22H86.508v-4.052A1.113,1.113,0,0,0,85.29,173.1a1.459,1.459,0,0,0-1.463,1.554v3.687H82.456v-8.73h1.371Zm8.973,4.631a2.2,2.2,0,0,1-1.95.945c-1.219,0-2.1-.625-2.1-1.843,0-1.432,1.127-1.813,2.575-2.026.945-.152,1.478-.229,1.478-.792,0-.533-.427-.868-1.188-.868-.838,0-1.249.335-1.28,1.066h-1.31c.031-1.143.823-2.087,2.575-2.087,1.691,0,2.56.7,2.56,2.163v2.742c0,.457.091.64.533.564h.031v.884a1.244,1.244,0,0,1-.64.137c-.762.015-1.158-.244-1.28-.884Zm.015-1.447v-.99a4.2,4.2,0,0,1-1.234.4c-.9.2-1.432.366-1.432,1.1,0,.686.457.884,1.051.884A1.456,1.456,0,0,0,92.816,176.074Zm4.022-2.986h.031a1.834,1.834,0,0,1,1.676-1.082,1.341,1.341,0,0,1,.4.046V173.3H98.91a1.089,1.089,0,0,0-.335-.031,1.66,1.66,0,0,0-1.691,1.843v3.215H95.512v-6.277h1.341v1.036h-.015Zm2.757-1.036h1.341v.868h.031a2.1,2.1,0,0,1,1.828-1.021,1.782,1.782,0,0,1,1.691,1.112h.031a2.183,2.183,0,0,1,1.9-1.112,1.917,1.917,0,0,1,2,2.148v4.3H107.03V174.23a1.008,1.008,0,0,0-1.036-1.143,1.361,1.361,0,0,0-1.31,1.493v3.748h-1.371v-4.113c0-.746-.4-1.143-1.006-1.143a1.39,1.39,0,0,0-1.325,1.493v3.748H99.611v-6.262H99.6Zm13.727,5.469a2.2,2.2,0,0,1-1.95.945c-1.219,0-2.1-.625-2.1-1.843,0-1.432,1.127-1.813,2.575-2.026.945-.152,1.478-.229,1.478-.792,0-.533-.427-.868-1.188-.868-.838,0-1.249.335-1.28,1.066h-1.31c.031-1.143.823-2.087,2.575-2.087,1.691,0,2.56.7,2.56,2.163v2.742c0,.457.091.64.533.564h.031v.884a1.243,1.243,0,0,1-.64.137c-.746.015-1.158-.244-1.28-.884Zm.015-1.447v-.99a4.2,4.2,0,0,1-1.234.4c-.9.2-1.432.366-1.432,1.1,0,.686.457.884,1.051.884A1.456,1.456,0,0,0,113.337,176.073Zm2.346-.884a3.063,3.063,0,0,1,3.077-3.306,2.587,2.587,0,0,1,2.773,2.24h-1.371A1.32,1.32,0,0,0,118.791,173c-1.143,0-1.737.9-1.737,2.179,0,1.265.579,2.179,1.722,2.179a1.309,1.309,0,0,0,1.432-1.249h1.341a2.541,2.541,0,0,1-2.757,2.392,3.079,3.079,0,0,1-3.108-3.306Zm6.658,5.454v-1.127h.031a1.9,1.9,0,0,0,.548.076.864.864,0,0,0,.945-.7l.259-.716-2.362-6.125h1.463l1.158,3.275c.2.548.411,1.31.411,1.31h.031s.2-.762.4-1.31l1.112-3.275h1.417l-2.529,6.917c-.472,1.341-.945,1.752-2.026,1.752a3.069,3.069,0,0,1-.853-.076Zm-55.41-5.576c.168.777.609,1.051,1.523,1.051.808,0,1.249-.289,1.249-.746,0-.655-.594-.7-1.828-1.021a10.214,10.214,0,0,1-2.8-1.006,2.739,2.739,0,0,1-1.188-2.392c0-2.011,1.585-3.321,4.342-3.321,2.681,0,4.251,1.173,4.433,3.275H69.506c-.107-.625-.533-.914-1.341-.914-.7,0-1.051.229-1.051.7,0,.548.533.655,1.539.914a10.149,10.149,0,0,1,2.971.99,2.68,2.68,0,0,1,1.325,2.422c0,2.255-1.615,3.58-4.631,3.58-2.788,0-4.418-1.31-4.631-3.534h3.245Zm-12.249-.792C54.5,177,52.7,178.6,49.716,178.6c-3.321,0-5.332-2.1-5.332-5.485,0-3.4,2.042-5.485,5.271-5.485,3.017,0,4.784,1.523,4.982,4.22H51.468a1.594,1.594,0,0,0-1.767-1.615c-1.31,0-1.95.96-1.95,2.879,0,1.889.7,2.864,2.057,2.864a1.678,1.678,0,0,0,1.752-1.722h3.123v.015Zm-.716-6.338h3.4l1.752,6.7,1.874-6.7h3.275l-3.489,10.39H57.455ZM33.7,167.649a1.487,1.487,0,0,0-1.082.457l-2.179,2.179a1.554,1.554,0,0,0,0,2.179L36.6,178.6l6.14-6.155a1.554,1.554,0,0,0,0-2.179l-2.179-2.163a1.527,1.527,0,0,0-2.179,0L36.6,169.9l-1.8-1.8a1.546,1.546,0,0,0-1.1-.457Z" transform="translate(518.242 233.633)" fill="#e1e1e1" fill-rule="evenodd"/>
    <g id="AARP" transform="translate(436.235 315.199)">
      <g id="SM" transform="translate(55.417 0)">
        <path id="Path_38257" data-name="Path 38257" d="M390.964,75.712a.689.689,0,0,1-1.125-.129.784.784,0,0,1-.025-.172h.3a.418.418,0,0,0,.027.115.311.311,0,0,0,.308.171c.1,0,.259-.041.259-.158a.136.136,0,0,0-.021-.066c-.034-.063-.16-.106-.226-.132a2.046,2.046,0,0,1-.429-.192.371.371,0,0,1-.165-.314c0-.287.271-.437.555-.437a.551.551,0,0,1,.509.262.491.491,0,0,1,.048.2h-.3c0-.139-.122-.219-.264-.219-.1,0-.237.05-.237.16s.143.143.229.175a2.486,2.486,0,0,1,.45.186.359.359,0,0,1,.168.322.423.423,0,0,1-.062.223" transform="translate(-389.814 -74.399)" fill="#e1e1e1"/>
        <path id="Path_38258" data-name="Path 38258" d="M401.012,76.085V74.924l-.347,1.161h-.322L400,74.924v1.161h-.279V74.6h.433l.351,1.182.356-1.182h.429v1.488Z" transform="translate(-398.231 -74.567)" fill="#e1e1e1"/>
      </g>
      <path id="AARP-2" data-name="AARP" d="M31.468,84.66l.031-.006-.847,2.292H27.29l.818-1.962h.03a18.6,18.6,0,0,0,3.331-.33ZM77.2,79.1c0,2.591-2.048,4.258-5.421,4.258h-2.03v3.591H60.584l-3.7-4.877v4.877H48.042l-.971-2.676a12.892,12.892,0,0,0-2.216-.2,14.245,14.245,0,0,0-2.251.192l-1,2.682H37.1l-.735-2.036a8.976,8.976,0,0,1,2.373.977l.187-.461a10.573,10.573,0,0,0-5.313-1.367c-2.112,0-3.455.515-5.65.515a11.334,11.334,0,0,1-6.151-1.822l.947-2.315A10.7,10.7,0,0,0,28.1,82.129a12.21,12.21,0,0,0,1.23-.061l2.96-7.23h4.92l2.929,7.593,3.1-7.593h4.928l4.31,11.175V74.838h5.89c4.006,0,5.968,1.838,5.968,4.259A3.882,3.882,0,0,1,61.9,82.7l3.451,3.753V74.838h6.427C75.335,74.838,77.2,76.637,77.2,79.1ZM35.265,81.865l-1.352-3.729-1.325,3.571c.225-.009.464-.014.723-.014A10.675,10.675,0,0,1,35.265,81.865ZM46.2,81.789l-1.349-3.606-1.373,3.606a13.51,13.51,0,0,1,1.373-.094A11.511,11.511,0,0,1,46.2,81.789ZM59.815,79.1a2.069,2.069,0,0,0-2.284-2.264h-.647v4.519h.647A2.055,2.055,0,0,0,59.815,79.1Zm12.862,0a2,2,0,0,0-2.033-2.264h-.893v4.519h.893A1.988,1.988,0,0,0,72.677,79.1Z" transform="translate(-21.811 -74.772)" fill="#e1e1e1"/>
    </g>
    <g id="Save_the_Children" data-name="Save the Children" transform="translate(548.239 309.304)">
      <path id="Path_38259" data-name="Path 38259" d="M-481.757,48.59c-1.949,1.978-3.779,3.041-5.461,3.159a6.949,6.949,0,0,1-4.074-1.151,15.771,15.771,0,0,1-2.568-2.037l-.059-.059a7.8,7.8,0,0,1,3.513-2.185h0a3.894,3.894,0,0,0-.059,1.653,3.777,3.777,0,0,0,1.417,2.48,2.787,2.787,0,0,0,1.948.5,2.715,2.715,0,0,0,1.712-1.092,3.722,3.722,0,0,0,.59-2.775,1.9,1.9,0,0,0-.118-.561,8.956,8.956,0,0,1,2.686,1.624c.177.148.325.3.472.443m-9.211,7.882a18.423,18.423,0,0,0-.236,5.314,9.508,9.508,0,0,1-1.83-1.24,8.634,8.634,0,0,1-2.893-5.078,8.084,8.084,0,0,1,.856-5.4c.354.354.768.768,1.21,1.181a27.936,27.936,0,0,1,2.834,3.1C-490.672,54.819-490.791,55.439-490.968,56.472Zm11.277-7.5c.827-.974,1.181-1.447,1.122-1.683a.9.9,0,0,0-.561-.443,1.332,1.332,0,0,0-.945-.059c-.059.059-.177.177-.472.5l-.236.3c-.177-.177-.354-.354-.531-.5a8.884,8.884,0,0,0-4.458-2.066,2.769,2.769,0,0,0-2.391-.915,2.7,2.7,0,0,0-1.8,1.21,10.331,10.331,0,0,0-4.428,2.8,2.247,2.247,0,0,0-1.24.236.662.662,0,0,0-.354.413c-.029.118.03.3.5.827a9.587,9.587,0,0,0-1.446,6.317,8.857,8.857,0,0,0,2.982,5.7,9.009,9.009,0,0,0,1.919,1.269,11.052,11.052,0,0,0,3.306,1,10.8,10.8,0,0,0,6.849-1.358.529.529,0,0,0,.206-.738l-.029-.089c-.5-1.122-2.066-4.605-1.21-7.793a12.206,12.206,0,0,1,2.332-3.867,8.707,8.707,0,0,1,1.358,5.018,7.859,7.859,0,0,1-1.565,4.487.153.153,0,0,0-.059.118c.03.029.03.029.03.059l.089.236a.248.248,0,0,0,.207.118c.03-.03.088-.059.118-.088A9.528,9.528,0,0,0-479.691,48.974Z" transform="translate(497 -44.079)" fill="#e1e1e1"/>
      <path id="Path_38260" data-name="Path 38260" d="M-145.722,145.483h-1.447l-.945,2.421-.945-2.421h-1.358l1.889,4.4h.827M-102,148.7a1.276,1.276,0,0,1-.827.354c-.649,0-1.063-.531-1.063-1.328,0-.886.413-1.387,1.122-1.387a1.791,1.791,0,0,1,.768.236Zm1.387-5.314H-102v2.3a2.563,2.563,0,0,0-1.151-.3,2.128,2.128,0,0,0-2.125,2.3,2.126,2.126,0,0,0,2.066,2.273,1.713,1.713,0,0,0,1.21-.443v.354h1.387Zm13.137,2.037a1.625,1.625,0,0,0-1.387.738v-.679h-1.387v4.428h1.387v-2.627a.851.851,0,0,1,.915-.856c.443,0,.709.3.709.974v2.509h1.387v-2.8A1.531,1.531,0,0,0-87.478,145.423Zm-4.871,1.771a.939.939,0,0,0-.945-.974.945.945,0,0,0-.974.974Zm1.24.709H-94.3a1.318,1.318,0,0,0,1.476,1.269,2.62,2.62,0,0,0,1.624-.649v.886a3.3,3.3,0,0,1-1.978.561,2.264,2.264,0,0,1-2.539-2.273,2.241,2.241,0,0,1,2.332-2.3A2.24,2.24,0,0,1-91.109,147.9Zm-7.085-2.421h-1.387v4.4h1.387v-1.919c0-.827.413-1.269,1.122-1.269a1.866,1.866,0,0,1,.827.325l.384-1.21a1.6,1.6,0,0,0-.915-.413,1.562,1.562,0,0,0-1.417,1.122Zm-8.207-2.1h-1.387v4.782c0,.856.236,1.771,1.683,1.8l.443-1c-.59-.089-.738-.384-.738-1.033Zm-2.45,2.1h-1.358v4.4h1.358Zm-.679-2.185a.781.781,0,0,0-.768.768.782.782,0,0,0,.768.768.782.782,0,0,0,.768-.768A.781.781,0,0,0-109.53,143.3Zm-47.026.5a5.317,5.317,0,0,0-2.214-.5c-1.506,0-2.48.738-2.48,1.86,0,2.362,3.306,1.948,3.306,3.041,0,.354-.325.59-.945.59a3.763,3.763,0,0,1-2.214-.856v1.417a4.4,4.4,0,0,0,2.332.62c1.446,0,2.509-.708,2.509-1.978,0-2.273-3.306-1.978-3.306-2.982,0-.3.354-.531.945-.531a5.181,5.181,0,0,1,2.067.59Zm42.392-.413h-1.388v6.494h1.388v-2.6a.862.862,0,0,1,.945-.856c.413,0,.709.3.709.945v2.509h1.387v-2.8a1.561,1.561,0,0,0-1.624-1.683,1.791,1.791,0,0,0-1.417.738Zm-19.218,0h-1.387v6.494h1.387v-2.6a.836.836,0,0,1,.915-.856c.443,0,.708.3.708.945v2.509h1.387v-2.8a1.54,1.54,0,0,0-1.594-1.683,1.712,1.712,0,0,0-1.417.738Zm7.144,3.808a.962.962,0,0,0-.974-.974.939.939,0,0,0-.945.974Zm1.21.709h-3.159a1.308,1.308,0,0,0,1.447,1.269,2.63,2.63,0,0,0,1.653-.649v.886a3.3,3.3,0,0,1-1.978.561A2.264,2.264,0,0,1-129.6,147.7a2.217,2.217,0,0,1,2.3-2.3A2.24,2.24,0,0,1-125.028,147.9Zm-17.211-.709a.939.939,0,0,0-.945-.974.939.939,0,0,0-.945.974Zm1.181.709h-3.159a1.272,1.272,0,0,0,1.447,1.24,2.507,2.507,0,0,0,1.624-.62v.856a3.146,3.146,0,0,1-1.948.59,2.274,2.274,0,0,1-2.568-2.273,2.241,2.241,0,0,1,2.332-2.3A2.24,2.24,0,0,1-141.058,147.9Zm-11.277-1.328a1.593,1.593,0,0,0-.8-.236c-.8,0-1.063.827-1.063,1.447A1.081,1.081,0,0,0-153.1,149a1.1,1.1,0,0,0,.768-.3Zm1.948,2.745-.974.649a1.31,1.31,0,0,1-.856-.531,1.727,1.727,0,0,1-1.3.531,2.144,2.144,0,0,1-2.1-2.273,2.148,2.148,0,0,1,2.126-2.3,2.184,2.184,0,0,1,1.151.3v-.207h1.387v2.893C-150.947,148.759-150.888,149.2-150.386,149.32Zm33.8-1.417a5.239,5.239,0,0,1-2.362.709,2.1,2.1,0,0,1-2.332-1.978,2.109,2.109,0,0,1,2.362-1.978,4.7,4.7,0,0,1,2.244.65v-1.447a4.587,4.587,0,0,0-2.362-.561c-2.48,0-3.926,1.624-3.926,3.365,0,1.683,1.269,3.306,3.808,3.306a5.039,5.039,0,0,0,2.568-.649Zm-18.952-1.476h-1.594v1.83a.644.644,0,0,0,.679.709,1.985,1.985,0,0,0,.915-.266v1a2.889,2.889,0,0,1-1.269.266,1.519,1.519,0,0,1-1.712-1.653v-1.889h-.62v-.266l1.83-2.037h.177v1.358h1.594Z" transform="translate(183.607 -136.691)" fill="#e1e1e1"/>
    </g>
  </g>
</svg>
