<svg xmlns="http://www.w3.org/2000/svg" width="186.363" height="99.546" viewBox="0 0 186.363 99.546">
  <g id="Group_33346" data-name="Group 33346" transform="translate(-82.537 -501.48)">
    <path id="Bupa" d="M980.02,451.172a6.472,6.472,0,0,1-1.785-.188,5.593,5.593,0,0,1-1.518-.938c-.253-.194-.513-.4-.794-.583a1.653,1.653,0,0,0-.9-.334,1.671,1.671,0,0,0-1.159.648,23.14,23.14,0,0,0-1.9,2.539.137.137,0,0,1-.1.073c-.092,0-.095-.12-.095-.16-.018-1.571-.264-10.144-.436-12.7-.077-1.132-.427-1.835-.919-1.835-.394,0-.984.524-1.354,2-.94,3.761-2.946,12.119-3.809,16.365a.09.09,0,0,1-.181,0c-.1-.434-.182-.926-.262-1.341a9.09,9.09,0,0,0-.92-3.063c-.5-.706-1.243-.751-2.142-.155a6.388,6.388,0,0,0-.591.471,3.361,3.361,0,0,1-2.311,1.059H948.253l-.26,1.4h11.14a5.144,5.144,0,0,0,2.826-1.109,1.5,1.5,0,0,1,.72-.363c.244,0,.353.249.443.623.045.183.1.437.162.728a25.433,25.433,0,0,0,.931,3.514c.188.473.465.734.784.734.486,0,.983-.576,1.263-1.467.375-1.186,2.628-10.948,3.579-15.035.039-.167.06-.262.062-.27a.135.135,0,0,1,.121-.119c.05,0,.106.042.107.135v.015c.072,4.136.277,11.4.586,12.147.17.412.431.631.754.631a1.577,1.577,0,0,0,1.146-.77c.162-.235.368-.541.586-.866.538-.8,1.147-1.7,1.327-1.9.268-.285.577-.285,1.016.014.063.043.139.1.228.163a6.969,6.969,0,0,0,2.128,1.047,7.648,7.648,0,0,0,1.856.193c.34,0,.7-.014.806-.02l.241-1.3c-.127.006-.469.016-.787.016Zm-28.23-7.59c2.019.113,1.391,4.325-.752,4.206-2.195-.121-1.48-4.33.752-4.206Zm-3.167,7.432.611-3.32a2.195,2.195,0,0,0,1.993,1.076,3.3,3.3,0,0,0,3.267-3.294c.127-1.888-.98-2.975-2.268-2.975a2.683,2.683,0,0,0-2.263,1.108l.017-.08a.757.757,0,0,0-.793-.9h-.417s-1.133,6.477-1.289,7.258a.861.861,0,0,0,.8,1.13Zm-2.167-8.388h-.391s-.577,3.307-.642,3.684a1.443,1.443,0,0,1-1.628,1.365,1,1,0,0,1-1.09-1.222c.056-.326.47-2.73.506-2.923.115-.65-.439-.9-.9-.9h-.347c-.084.5-.464,2.617-.609,3.446a3.429,3.429,0,0,0-.055.89,2.161,2.161,0,0,0,2.337,1.809,2.8,2.8,0,0,0,3.15-2.408c.082-.431.482-2.613.513-2.833a.784.784,0,0,0-.848-.9Zm-8.4,1.139a2.96,2.96,0,0,1-.888.079h-1.013l.476-2.7h1.326c1.592,0,1.468,2.166.1,2.616Zm-.576,3.84a4.632,4.632,0,0,1-1.013.065h-.99l.5-2.825h1.467c1.939,0,1.762,2.331.035,2.76Zm3.193-5.391c0-1.362-.874-1.994-2.41-1.994-.944,0-2.431,0-2.972,0l-1.5,8.425,2.722,0a9.158,9.158,0,0,0,1.548-.09,2.745,2.745,0,0,0,2.269-2.248,1.747,1.747,0,0,0-1.351-2.053,2.142,2.142,0,0,0,1.693-2.034Zm18.063,1.263c2.2.122,1.48,4.318-.751,4.194-2.02-.112-1.392-4.313.751-4.194Zm-1.135,5.29a2.409,2.409,0,0,0,2.2-1.121l-.021.09a.762.762,0,0,0,.793.9h.381l1.058-6.02H960.7l-.175.919a2.158,2.158,0,0,0-1.984-1.044,3.358,3.358,0,0,0-3.224,3.241,2.473,2.473,0,0,0,2.278,3.03Z" transform="translate(-851.253 63.79)" fill="#e1e1e1"/>
    <g id="Pharmacy2U" transform="translate(194.541 546.282)">
      <path id="path4" d="M28.082,3.958a3.677,3.677,0,0,0,.609-.034,1.783,1.783,0,0,0,.507-.169,1.3,1.3,0,0,0,.372-.372,1.21,1.21,0,0,0,.135-.643A1.21,1.21,0,0,0,29.57,2.1a.793.793,0,0,0-.372-.372,1.127,1.127,0,0,0-.507-.169,3.677,3.677,0,0,0-.609-.034H26.661v2.5h1.421ZM28.589,0a3.232,3.232,0,0,1,1.353.237,2.545,2.545,0,0,1,.913.609,2.453,2.453,0,0,1,.507.846,3.189,3.189,0,0,1,.169,1.015,3.143,3.143,0,0,1-.169.981,2.3,2.3,0,0,1-.507.88,3.075,3.075,0,0,1-.913.609,3.232,3.232,0,0,1-1.353.237H26.661V8.424H24.8V0ZM42.155,5.413a.68.68,0,0,1-.271.135c-.1.034-.2.068-.338.1s-.237.034-.372.068a1.7,1.7,0,0,0-.406.068c-.135.034-.237.068-.372.1a.654.654,0,0,0-.3.169.455.455,0,0,0-.2.237.669.669,0,0,0-.068.372,1.216,1.216,0,0,0,.068.372.79.79,0,0,0,.237.237,1.013,1.013,0,0,0,.338.135,1.517,1.517,0,0,0,.372.034,1.659,1.659,0,0,0,.778-.169,1.166,1.166,0,0,0,.406-.406,1.334,1.334,0,0,0,.169-.474,1.66,1.66,0,0,0,.034-.372V5.413ZM38.3,4.195a2.1,2.1,0,0,1,.3-.981,1.83,1.83,0,0,1,.643-.609,2.686,2.686,0,0,1,.913-.338,5.163,5.163,0,0,1,1.015-.1,8.3,8.3,0,0,1,.913.068,3.094,3.094,0,0,1,.846.237,1.947,1.947,0,0,1,.643.507,1.424,1.424,0,0,1,.237.88V7a5.736,5.736,0,0,0,.034.778,1.949,1.949,0,0,0,.169.575H42.324a.988.988,0,0,1-.068-.3.937.937,0,0,1-.034-.3,2.112,2.112,0,0,1-.947.575,4.254,4.254,0,0,1-1.116.169,2.96,2.96,0,0,1-.812-.1,1.472,1.472,0,0,1-.643-.338,1.254,1.254,0,0,1-.44-.575,2.044,2.044,0,0,1-.169-.812,1.972,1.972,0,0,1,.169-.846,1.485,1.485,0,0,1,.474-.541,2.244,2.244,0,0,1,.643-.3,5.892,5.892,0,0,1,.744-.169c.237-.034.507-.068.744-.1s.474-.068.643-.1a.765.765,0,0,0,.44-.2.56.56,0,0,0,.169-.406.846.846,0,0,0-.1-.44.533.533,0,0,0-.237-.237.571.571,0,0,0-.338-.1,1.647,1.647,0,0,0-.406-.034,1.326,1.326,0,0,0-.778.2.9.9,0,0,0-.338.71H38.3ZM50.545,2.3v.812h.034a2.72,2.72,0,0,1,.778-.744A2.2,2.2,0,0,1,52.405,2.1a2.175,2.175,0,0,1,1.049.237,1.351,1.351,0,0,1,.71.778,2.5,2.5,0,0,1,.744-.71,1.932,1.932,0,0,1,1.083-.3,3.687,3.687,0,0,1,.88.1,1.79,1.79,0,0,1,.71.372,2.019,2.019,0,0,1,.474.677,2.886,2.886,0,0,1,.169,1.015v4.06H56.566V4.939a3.1,3.1,0,0,0-.034-.575A1.1,1.1,0,0,0,56.4,3.89a.664.664,0,0,0-.3-.3,1.288,1.288,0,0,0-.541-.1.968.968,0,0,0-.575.135,1.075,1.075,0,0,0-.338.338,1.783,1.783,0,0,0-.169.507,2.91,2.91,0,0,0-.034.541V8.39H52.777V4.432a1.08,1.08,0,0,0-.1-.474,1.057,1.057,0,0,0-.3-.372,1.017,1.017,0,0,0-.609-.135,1.716,1.716,0,0,0-.3.068.806.806,0,0,0-.372.2.859.859,0,0,0-.3.44,1.481,1.481,0,0,0-.135.71V8.39H48.988V2.3Zm12.28,3.112a.68.68,0,0,1-.271.135c-.1.034-.2.068-.338.1s-.237.034-.372.068a1.7,1.7,0,0,0-.406.068c-.135.034-.237.068-.372.1a.654.654,0,0,0-.3.169.455.455,0,0,0-.2.237.669.669,0,0,0-.068.372,1.216,1.216,0,0,0,.068.372.79.79,0,0,0,.237.237,1.013,1.013,0,0,0,.338.135,1.517,1.517,0,0,0,.372.034,1.659,1.659,0,0,0,.778-.169,1.166,1.166,0,0,0,.406-.406,1.334,1.334,0,0,0,.169-.474,1.66,1.66,0,0,0,.034-.372V5.413ZM58.968,4.195a2.1,2.1,0,0,1,.3-.981,1.83,1.83,0,0,1,.643-.609,2.686,2.686,0,0,1,.913-.338,5.163,5.163,0,0,1,1.015-.1,8.3,8.3,0,0,1,.913.068,3.094,3.094,0,0,1,.846.237,1.947,1.947,0,0,1,.643.507,1.424,1.424,0,0,1,.237.88V7a5.734,5.734,0,0,0,.034.778,1.949,1.949,0,0,0,.169.575H62.994a.988.988,0,0,1-.068-.3.937.937,0,0,1-.034-.3,2.112,2.112,0,0,1-.947.575,4.254,4.254,0,0,1-1.116.169,2.96,2.96,0,0,1-.812-.1,1.472,1.472,0,0,1-.643-.338,1.254,1.254,0,0,1-.44-.575,2.044,2.044,0,0,1-.169-.812,1.972,1.972,0,0,1,.169-.846,1.485,1.485,0,0,1,.474-.541,2.244,2.244,0,0,1,.643-.3A5.892,5.892,0,0,1,60.8,4.8c.237-.034.507-.068.744-.1s.474-.068.643-.1a.765.765,0,0,0,.44-.2.56.56,0,0,0,.169-.406.846.846,0,0,0-.1-.44.533.533,0,0,0-.237-.237.572.572,0,0,0-.338-.1,1.647,1.647,0,0,0-.406-.034,1.326,1.326,0,0,0-.778.2.9.9,0,0,0-.338.71H58.968Zm9.066-.778a1.43,1.43,0,0,0-.677.169,1.474,1.474,0,0,0-.44.474,2.094,2.094,0,0,0-.237.643,5.085,5.085,0,0,0-.068.677,5.085,5.085,0,0,0,.068.677,1.638,1.638,0,0,0,.237.609,1.1,1.1,0,0,0,.44.44A1.3,1.3,0,0,0,68,7.273a1.129,1.129,0,0,0,.913-.338,1.758,1.758,0,0,0,.406-.913h1.624A2.831,2.831,0,0,1,70,7.882a2.951,2.951,0,0,1-2,.643,3.058,3.058,0,0,1-1.252-.237,3.289,3.289,0,0,1-.981-.643,2.669,2.669,0,0,1-.609-.981,3.742,3.742,0,0,1-.237-1.252,4.148,4.148,0,0,1,.2-1.319,2.949,2.949,0,0,1,.609-1.049,2.549,2.549,0,0,1,.981-.677,3.171,3.171,0,0,1,1.319-.237,3.569,3.569,0,0,1,1.049.135,2.39,2.39,0,0,1,.88.44,2.558,2.558,0,0,1,.643.71,1.885,1.885,0,0,1,.271,1.015H69.253a1.091,1.091,0,0,0-1.218-1.015m5.616,6.766a2.506,2.506,0,0,1-1.353.3,2.561,2.561,0,0,1-.507-.034c-.169,0-.338-.034-.507-.034V9.033c.169,0,.3.034.474.034a2.543,2.543,0,0,0,.507,0,.622.622,0,0,0,.474-.271.831.831,0,0,0,.169-.507,1.216,1.216,0,0,0-.068-.372L70.707,2.233h1.759l1.387,4.161h.034l1.319-4.161h1.725l-2.537,6.9a1.8,1.8,0,0,1-.744,1.049M77.439,2.03A2.878,2.878,0,0,1,78.015.981a2.5,2.5,0,0,1,.947-.71A3.171,3.171,0,0,1,80.281.034,3.813,3.813,0,0,1,81.364.2a2.436,2.436,0,0,1,.913.507,1.847,1.847,0,0,1,.609.812A2.221,2.221,0,0,1,83.123,2.6a2.687,2.687,0,0,1-.2,1.083,2.145,2.145,0,0,1-.541.778,4.627,4.627,0,0,1-.744.643,7.2,7.2,0,0,1-.846.541,6.347,6.347,0,0,0-.812.609,3.706,3.706,0,0,0-.71.744h3.89V8.424H77.135a3.6,3.6,0,0,1,.2-1.252,4.313,4.313,0,0,1,.541-.947,5.93,5.93,0,0,1,.812-.778q.457-.355,1.015-.71c.169-.135.372-.237.575-.372a2.363,2.363,0,0,0,.541-.44,3.415,3.415,0,0,0,.44-.541,1.43,1.43,0,0,0,.169-.677,1.253,1.253,0,0,0-.338-.947,1.2,1.2,0,0,0-.88-.338,1.168,1.168,0,0,0-.609.169,1.267,1.267,0,0,0-.406.44,1.616,1.616,0,0,0-.2.609,4.584,4.584,0,0,0-.068.677h-1.59a2.668,2.668,0,0,1,.1-1.286M37.452,3.62a1.818,1.818,0,0,0-.338-.778,2.092,2.092,0,0,0-.677-.507,2.51,2.51,0,0,0-1.083-.169,1.965,1.965,0,0,0-.947.237,1.8,1.8,0,0,0-.812.778h-.034V0L31.9.474V8.39h1.658V5.21a2.23,2.23,0,0,1,.3-1.319,1.161,1.161,0,0,1,.981-.406.963.963,0,0,1,.846.372,1.958,1.958,0,0,1,.237,1.116V8.39h1.658V4.669a7.98,7.98,0,0,0-.135-1.049" transform="translate(-16.41 0)" fill="#e1e1e1"/>
      <path id="path6" d="M127.683.507v4.7a2.193,2.193,0,0,1-.372,1.387,1.669,1.669,0,0,1-1.353.44,2.316,2.316,0,0,1-.913-.169,1.045,1.045,0,0,1-.507-.406,1.228,1.228,0,0,1-.237-.575,4.163,4.163,0,0,1-.068-.677V0l-1.861.507v4.7a3.127,3.127,0,0,0,.947,2.537,3.849,3.849,0,0,0,2.639.812,3.969,3.969,0,0,0,2.639-.812,3.127,3.127,0,0,0,.947-2.537V0ZM86.952,2.165a1.916,1.916,0,0,0-.609.1,1.628,1.628,0,0,0-.541.271,1.78,1.78,0,0,0-.474.406,2.019,2.019,0,0,0-.3.507H84.99V2.3l-1.59.44V8.356h1.658V5.616a5.552,5.552,0,0,1,.068-.778,1.672,1.672,0,0,1,.271-.609,1.5,1.5,0,0,1,.507-.406,1.764,1.764,0,0,1,.778-.169.937.937,0,0,1,.3.034c.1,0,.2.034.271.034V2.2a.84.84,0,0,0-.3-.034" transform="translate(-55.185 0)" fill="#e1e1e1"/>
      <path id="path8" d="M4.195,4.195h2.1v2.1h-2.1ZM4.195,0h2.1V2.1h-2.1ZM0,4.195H2.1v2.1H0ZM0,0H2.1V2.1H0Z" transform="translate(0 0)" fill="#e1e1e1"/>
    </g>
    <g id="UPMC" transform="translate(82.537 545.103)">
      <path id="Path_38229" data-name="Path 38229" d="M442.476,15.506h.849v2.323h1.489v.746h-2.338" transform="translate(-390.632 -15.363)" fill="#e1e1e1"/>
      <rect id="Rectangle_654" data-name="Rectangle 654" width="0.858" height="3.069" transform="translate(54.451 0.143)" fill="#e1e1e1"/>
      <path id="Path_38230" data-name="Path 38230" d="M475.094,15.506h2.456v.745h-1.6v.522H477.4v.705h-1.451v1.1h-.852" transform="translate(-419.288 -15.363)" fill="#e1e1e1"/>
      <path id="Path_38231" data-name="Path 38231" d="M497.962,15.506h2.47v.723H498.8v.464h1.474v.671H498.8v.487h1.649v.724h-2.492" transform="translate(-439.376 -15.363)" fill="#e1e1e1"/>
      <g id="Group_33281" data-name="Group 33281" transform="translate(51.627 4.306)">
        <path id="Path_38232" data-name="Path 38232" d="M440.7,51.366v-.009a1.578,1.578,0,0,1,1.619-1.6,1.5,1.5,0,0,1,1.3.64l-.642.5a.813.813,0,0,0-.669-.359.759.759,0,0,0-.733.811v.008a.76.76,0,0,0,.733.82A.845.845,0,0,0,443,51.8l.64.457a1.617,1.617,0,0,1-2.945-.9" transform="translate(-440.695 -49.761)" fill="#e1e1e1"/>
      </g>
      <path id="Path_38233" data-name="Path 38233" d="M467.085,50.267h.849v1.149h1.091V50.267h.852v3.07h-.852V52.169h-1.091v1.167h-.849" transform="translate(-412.252 -45.9)" fill="#e1e1e1"/>
      <path id="Path_38234" data-name="Path 38234" d="M493.674,51.968l-.343-.872-.346.872Zm-.745-1.881h.819l1.308,3.091h-.912l-.225-.548h-1.185l-.219.548h-.894" transform="translate(-433.806 -45.742)" fill="#e1e1e1"/>
      <path id="Path_38235" data-name="Path 38235" d="M521.478,50.267h.794l1.263,1.622V50.267h.842v3.07h-.746l-1.312-1.684v1.684h-.841" transform="translate(-460.035 -45.9)" fill="#e1e1e1"/>
      <g id="Group_33282" data-name="Group 33282" transform="translate(64.701 4.306)">
        <path id="Path_38236" data-name="Path 38236" d="M548.289,51.366v-.009a1.593,1.593,0,0,1,1.653-1.6,1.785,1.785,0,0,1,1.246.448l-.5.6a1.077,1.077,0,0,0-.74-.29.807.807,0,0,0-.786.842v.008a.812.812,0,0,0,.835.851.855.855,0,0,0,.489-.128v-.372h-.6V51.1h1.411V52.48a2.081,2.081,0,0,1-1.332.474,1.58,1.58,0,0,1-1.673-1.588" transform="translate(-548.289 -49.761)" fill="#e1e1e1"/>
      </g>
      <rect id="Rectangle_655" data-name="Rectangle 655" width="0.858" height="3.07" transform="translate(68.155 4.367)" fill="#e1e1e1"/>
      <path id="Path_38237" data-name="Path 38237" d="M587.865,50.267h.795l1.262,1.622V50.267h.844v3.07h-.746l-1.314-1.684v1.684h-.841" transform="translate(-518.355 -45.9)" fill="#e1e1e1"/>
      <g id="Group_33283" data-name="Group 33283" transform="translate(72.769 4.306)">
        <path id="Path_38238" data-name="Path 38238" d="M614.689,51.366v-.009a1.594,1.594,0,0,1,1.654-1.6,1.784,1.784,0,0,1,1.244.448l-.5.6a1.088,1.088,0,0,0-.741-.29.806.806,0,0,0-.785.842v.008a.811.811,0,0,0,.834.851.862.862,0,0,0,.492-.128v-.372h-.607V51.1H617.7V52.48a2.091,2.091,0,0,1-1.336.474,1.58,1.58,0,0,1-1.671-1.588" transform="translate(-614.689 -49.761)" fill="#e1e1e1"/>
      </g>
      <path id="Path_38239" data-name="Path 38239" d="M442.476,85.028h.9l.733,1.188.731-1.188h.9V88.1h-.847V86.334l-.784,1.2h-.018l-.781-1.192V88.1h-.833" transform="translate(-390.632 -76.437)" fill="#e1e1e1"/>
      <path id="Path_38240" data-name="Path 38240" d="M473.445,85.028h2.469v.724h-1.626v.464h1.472v.671h-1.472v.487h1.65V88.1h-2.493" transform="translate(-417.838 -76.437)" fill="#e1e1e1"/>
      <g id="Group_33284" data-name="Group 33284" transform="translate(58.509 8.591)">
        <path id="Path_38241" data-name="Path 38241" d="M498.531,87.343a.753.753,0,0,0,.846-.777v-.009a.755.755,0,0,0-.846-.776h-.348v1.561Zm-1.2-2.315h1.184a1.528,1.528,0,0,1,1.734,1.518v.009A1.555,1.555,0,0,1,498.5,88.1h-1.171" transform="translate(-497.331 -85.028)" fill="#e1e1e1"/>
      </g>
      <rect id="Rectangle_656" data-name="Rectangle 656" width="0.856" height="3.069" transform="translate(61.795 8.59)" fill="#e1e1e1"/>
      <g id="Group_33285" data-name="Group 33285" transform="translate(63.015 8.53)">
        <path id="Path_38242" data-name="Path 38242" d="M534.416,86.133v-.008a1.576,1.576,0,0,1,1.619-1.6,1.507,1.507,0,0,1,1.3.64l-.642.495a.823.823,0,0,0-.669-.359.758.758,0,0,0-.734.811v.008a.759.759,0,0,0,.734.82.839.839,0,0,0,.692-.372l.639.456a1.616,1.616,0,0,1-2.942-.9" transform="translate(-534.416 -84.53)" fill="#e1e1e1"/>
      </g>
      <rect id="Rectangle_657" data-name="Rectangle 657" width="0.855" height="3.069" transform="translate(66.226 8.59)" fill="#e1e1e1"/>
      <path id="Path_38243" data-name="Path 38243" d="M571.969,85.028h.795l1.265,1.623V85.028h.84V88.1h-.745l-1.312-1.683V88.1h-.842" transform="translate(-504.391 -76.437)" fill="#e1e1e1"/>
      <path id="Path_38244" data-name="Path 38244" d="M599.957,85.028h2.47v.724H600.8v.464h1.476v.671H600.8v.487h1.649V88.1h-2.491" transform="translate(-528.978 -76.437)" fill="#e1e1e1"/>
      <g id="Group_33286" data-name="Group 33286" transform="translate(0 0)">
        <path id="Path_38245" data-name="Path 38245" d="M32.133,21.106v-3.76c-.016-1.34.131-1.34,1.357-1.34a2.625,2.625,0,0,1,2.65,2.841,2.8,2.8,0,0,1-3.087,2.874c-.823,0-.921-.242-.921-.614m5.751-2.388c0-.663-.4-3.2-4.264-3.2-.841,0-2.149.037-2.3.037-1.017,0-2.181.009-2.309.009H28.8c-.227,0-1.6-.009-2.1-.009-1.051,0-2.1-.037-2.374-.037-.081,0-.13.049-.13.242,0,.147,0,.243.13.243,1.664,0,2.132,0,2.132,2.244v3.2c0,3.845-1.632,4.892-3.522,4.892-2.714,0-3.619-1.887-3.619-4.052V19.363c0-1.146.016-1.534.033-2.276.016-.952.29-1.081,1.7-1.081.177,0,.177-.129.177-.274,0-.1-.032-.211-.144-.211-.13,0-1.535.065-2.57.065-1.017,0-2.423-.065-2.553-.065-.112,0-.144.115-.144.211,0,.145,0,.274.178.274,1.406,0,1.68.129,1.7,1.081.016.742.032,1.13.032,2.276v3.7c0,1.775,1.017,4.2,4.637,4.2,1.874,0,4.653-1.163,4.653-5.522V17.911c0-1.906.324-1.906,1.875-1.906h.164c1.163,0,1.437.129,1.455,1.081.014.742.031,1.13.031,2.276V23.32c0,.694-.017,1.742-.049,2.551-.016.435-.112.71-1.389.71-.452,0-.452.1-.452.275,0,.146,0,.209.131.209.112,0,.175-.033,2.55-.033,2.391,0,2.844.033,2.957.033.129,0,.129-.063.129-.209,0-.178,0-.275-.451-.275-1.665,0-1.761-.387-1.794-1.034-.017-.485-.033-.937-.033-3.5a10.1,10.1,0,0,0,1.955.163c2.2,0,3.8-1.18,3.8-3.488" transform="translate(-15.813 -15.375)" fill="#e1e1e1"/>
        <path id="Path_38246" data-name="Path 38246" d="M206.365,15.7c.047-.13.094-.178.193-.178.08,0,1.259.066,1.632.066.274,0,1.646-.066,1.762-.066.16,0,.177.13.177.276s-.065.21-.195.21c-1.454,0-1.631.113-1.631.855,0,1.051.178,4.441.34,8.962a.8.8,0,0,0,.888.758c.906,0,.921.1.921.211,0,.241-.08.273-.178.273-.145,0-.322-.032-2.568-.032-2.1,0-2.2.032-2.324.032-.18,0-.18-.112-.18-.258,0-.112.033-.226.775-.226,1.068,0,1.083-.259,1.083-.9,0-.972-.242-6.185-.371-9.206h-.033c-1.18,3.021-2.667,6.491-3.733,9.088-.613,1.489-.613,1.665-.823,1.665s-.243-.143-.581-1.259c-.355-1.162-2.988-8.3-3.055-8.3a66.87,66.87,0,0,0-1.338,8.154c0,.5.273.758.807.758.4,0,.872.033.872.129,0,.308,0,.355-.178.355-.129,0-.29-.032-1.954-.032-1.471,0-1.583.032-1.681.032-.128,0-.178-.014-.178-.273,0-.163.082-.211.856-.211.566,0,.68-.21.856-1.131.437-2.323.825-4.665,1.326-6.99a7.049,7.049,0,0,0,.208-1.518,1.688,1.688,0,0,0-.419-.808A5.467,5.467,0,0,0,196.25,16c-.193,0-.193-.128-.193-.242,0-.129.032-.243.177-.243.307,0,1.7.066,1.873.066.422,0,1.1-.066,1.309-.066.179,0,.226.178.387.761.341,1.21,2.682,7.749,2.973,8.346,1.211-2.856,2.44-5.811,3.588-8.928" transform="translate(-173.061 -15.373)" fill="#e1e1e1"/>
        <path id="Path_38247" data-name="Path 38247" d="M336.773,22.982c.1,0,.177.016.177.192,0,.195-.224,1.792-.224,2.132a.278.278,0,0,1-.229.291,13.941,13.941,0,0,1-4.441.613,5.7,5.7,0,0,1-5.978-5.619,5.991,5.991,0,0,1,5.978-6.265,9.525,9.525,0,0,1,3.653.614c.288,0,.4-.274.627-.274.033,0,.113.033.113.194a21.039,21.039,0,0,0,.306,2.584c0,.146-.193.21-.306.21a.165.165,0,0,1-.177-.13c-.695-1.775-1.712-2.777-3.8-2.777-2,0-4.477,1.905-4.477,5.779a4.878,4.878,0,0,0,4.767,5.264,4.186,4.186,0,0,0,3.749-2.68c.034-.079.1-.129.259-.129" transform="translate(-288.377 -14.327)" fill="#e1e1e1"/>
      </g>
    </g>
    <path id="CVS_pharmacy" data-name="CVS pharmacy" d="M70.648,171.576h1.2v.734h.027a2.034,2.034,0,0,1,1.713-.884c1.455,0,2.42,1.169,2.42,2.963s-.952,2.95-2.42,2.95a1.916,1.916,0,0,1-1.672-.8h-.027v2.705H70.662v-7.667h-.014Zm4.092,2.841c0-1.128-.435-1.971-1.414-1.971-1.047,0-1.5.884-1.5,1.971s.476,1.89,1.536,1.89c.87,0,1.373-.734,1.373-1.89Zm3.29-2.093h.027a1.9,1.9,0,0,1,1.686-.884,1.821,1.821,0,0,1,1.9,1.985v3.766H80.422v-3.616a.993.993,0,0,0-1.088-1.06A1.3,1.3,0,0,0,78.03,173.9v3.29H76.806V169.4H78.03Zm8.007,4.133a1.967,1.967,0,0,1-1.74.843c-1.088,0-1.876-.557-1.876-1.645,0-1.278,1.006-1.618,2.3-1.808.843-.136,1.319-.2,1.319-.707,0-.476-.381-.775-1.06-.775-.748,0-1.115.3-1.142.952H82.665c.027-1.02.734-1.862,2.3-1.862,1.509,0,2.284.625,2.284,1.93v2.447c0,.408.082.571.476.5h.027v.788a1.109,1.109,0,0,1-.571.122c-.68.014-1.033-.217-1.142-.788Zm.014-1.292v-.884a3.745,3.745,0,0,1-1.1.354c-.8.177-1.278.326-1.278.979,0,.612.408.788.938.788A1.3,1.3,0,0,0,86.05,175.165Zm3.589-2.664h.027a1.636,1.636,0,0,1,1.5-.965,1.2,1.2,0,0,1,.354.041v1.115h-.027a.972.972,0,0,0-.3-.027,1.481,1.481,0,0,0-1.509,1.645v2.868H88.457v-5.6h1.2v.924h-.014Zm2.461-.924h1.2v.775h.027a1.875,1.875,0,0,1,1.631-.911,1.59,1.59,0,0,1,1.509.992h.027a1.948,1.948,0,0,1,1.7-.992,1.711,1.711,0,0,1,1.781,1.917v3.834H98.734v-3.67a.9.9,0,0,0-.924-1.02,1.214,1.214,0,0,0-1.169,1.332v3.344H95.417v-3.67c0-.666-.354-1.02-.9-1.02a1.241,1.241,0,0,0-1.183,1.332v3.344H92.113v-5.587H92.1Zm12.248,4.88a1.967,1.967,0,0,1-1.74.843c-1.088,0-1.876-.557-1.876-1.645,0-1.278,1.006-1.618,2.3-1.808.843-.136,1.319-.2,1.319-.707,0-.476-.381-.775-1.06-.775-.748,0-1.115.3-1.142.952h-1.169c.027-1.02.734-1.862,2.3-1.862,1.509,0,2.284.625,2.284,1.93v2.447c0,.408.082.571.476.5h.027v.788a1.11,1.11,0,0,1-.571.122c-.666.014-1.033-.217-1.142-.788Zm.014-1.292v-.884a3.746,3.746,0,0,1-1.1.354c-.8.177-1.278.326-1.278.979,0,.612.408.788.938.788A1.3,1.3,0,0,0,104.361,175.164Zm2.093-.788a2.733,2.733,0,0,1,2.746-2.95,2.308,2.308,0,0,1,2.474,2h-1.223a1.178,1.178,0,0,0-1.224-1.006c-1.02,0-1.55.8-1.55,1.944s.517,1.944,1.536,1.944a1.168,1.168,0,0,0,1.278-1.115h1.2a2.268,2.268,0,0,1-2.461,2.134,2.747,2.747,0,0,1-2.773-2.95Zm5.941,4.867v-1.006h.027a1.7,1.7,0,0,0,.489.068.771.771,0,0,0,.843-.625l.231-.639-2.107-5.465h1.305l1.033,2.923c.177.489.367,1.169.367,1.169h.027s.177-.68.354-1.169l.992-2.923h1.264l-2.257,6.172c-.421,1.2-.843,1.563-1.808,1.563a2.739,2.739,0,0,1-.761-.068Zm-49.442-4.976c.15.693.544.938,1.359.938.721,0,1.115-.258,1.115-.666,0-.584-.53-.625-1.631-.911a9.114,9.114,0,0,1-2.5-.9,2.444,2.444,0,0,1-1.06-2.134c0-1.794,1.414-2.963,3.874-2.963,2.393,0,3.793,1.047,3.956,2.923H65.251c-.1-.557-.476-.816-1.2-.816-.625,0-.938.2-.938.625,0,.489.476.585,1.373.816a9.057,9.057,0,0,1,2.651.884,2.391,2.391,0,0,1,1.183,2.162c0,2.012-1.441,3.195-4.133,3.195-2.488,0-3.942-1.169-4.133-3.154h2.9Zm-10.93-.707c-.163,2.433-1.767,3.861-4.432,3.861-2.963,0-4.758-1.876-4.758-4.894s1.822-4.894,4.7-4.894c2.692,0,4.269,1.359,4.445,3.766H49.156a1.422,1.422,0,0,0-1.577-1.441c-1.169,0-1.74.856-1.74,2.569,0,1.686.625,2.556,1.835,2.556a1.5,1.5,0,0,0,1.563-1.536h2.787v.014Zm-.639-5.655h3.031l1.563,5.981,1.672-5.981h2.923l-3.113,9.271H54.5Zm-18.08-.258a1.327,1.327,0,0,0-.965.408L30.4,170a1.387,1.387,0,0,0,0,1.944l5.492,5.478,5.478-5.492a1.387,1.387,0,0,0,0-1.944l-1.944-1.93a1.362,1.362,0,0,0-1.944,0l-1.591,1.6-1.6-1.6a1.38,1.38,0,0,0-.979-.408Z" transform="translate(52.54 421.712)" fill="#e1e1e1" fill-rule="evenodd"/>
    <g id="GlaxoSmithKline" transform="translate(194.541 502.659)">
      <path id="Path_38212" data-name="Path 38212" d="M2376.013,5164.587a.269.269,0,0,0-.26-.276.286.286,0,0,0-.277.276.27.27,0,0,0,.277.259.254.254,0,0,0,.26-.248v-.011" transform="translate(-2326.157 -5152.524)" fill="#e1e1e1"/>
      <path id="Path_38213" data-name="Path 38213" d="M2012.514,5164.587a.285.285,0,0,0-.277-.276.268.268,0,0,0-.259.276.253.253,0,0,0,.248.259h.011a.269.269,0,0,0,.277-.259" transform="translate(-1972.326 -5152.524)" fill="#e1e1e1"/>
      <g id="Group_33275" data-name="Group 33275" transform="translate(20.653 11.892)">
        <path id="Path_38214" data-name="Path 38214" d="M2520.524,5205.054h-1.206c.037-.316.168-.706.632-.706.408,0,.575.317.575.706m.492.353a1.111,1.111,0,0,0,.007-.134c0-.75-.262-1.295-1.075-1.295a1.145,1.145,0,0,0-1.131,1.282c0,.834.371,1.371,1.262,1.371a1.449,1.449,0,0,0,.741-.166V5206a1.26,1.26,0,0,1-.724.259.792.792,0,0,1-.781-.8c0-.016,0-.033,0-.05Z" transform="translate(-2486.341 -5203.028)" fill="#e1e1e1"/>
        <path id="Path_38215" data-name="Path 38215" d="M2421.9,5206.526v-1.5c0-.686-.277-1.093-.928-1.093a.835.835,0,0,0-.8.464h-.018v-.409h-.446v2.542h.464v-1.168c0-.632.2-1.076.742-1.058.408.019.519.317.519.909v1.317h.464" transform="translate(-2389.864 -5202.978)" fill="#e1e1e1"/>
        <rect id="Rectangle_651" data-name="Rectangle 651" width="0.464" height="2.541" transform="translate(28.702 1.006)" fill="#e1e1e1"/>
        <path id="Path_38216" data-name="Path 38216" d="M2333.627,5172.615c-.186-.055-.222-.185-.222-.351v-3.153h-.483v3.208a.326.326,0,0,0,.273.371.332.332,0,0,0,.1,0,.677.677,0,0,0,.335-.075" transform="translate(-2305.384 -5169.088)" fill="#e1e1e1"/>
        <path id="Path_38217" data-name="Path 38217" d="M2233.785,5174.719l-1.46-1.821,1.334-1.646h-.571l-1.225,1.542v-1.542h-.487v3.468h.487v-1.688l1.28,1.688h.641" transform="translate(-2206.543 -5171.172)" fill="#e1e1e1"/>
        <path id="Path_38218" data-name="Path 38218" d="M2125.1,5172.635v-1.5c0-.686-.277-1.094-.928-1.094a.851.851,0,0,0-.779.427h-.019v-1.353h-.463v3.524h.463v-1.168c0-.632.2-1.076.743-1.057.408.019.519.315.519.908v1.317h.464" transform="translate(-2100.963 -5169.088)" fill="#e1e1e1"/>
        <path id="Path_38219" data-name="Path 38219" d="M2047.393,5181.439v-.387a.629.629,0,0,1-.316.093c-.222,0-.39-.167-.39-.464v-1.391h.633v-.371h-.633v-.743l-.463.148v.593h-.446v.372h.446v1.483c0,.519.3.742.779.742a1.141,1.141,0,0,0,.389-.074" transform="translate(-2025.88 -5177.913)" fill="#e1e1e1"/>
        <rect id="Rectangle_652" data-name="Rectangle 652" width="0.463" height="2.541" transform="translate(19.015 1.006)" fill="#e1e1e1"/>
        <path id="Path_38220" data-name="Path 38220" d="M1855.128,5206.513v-1.632c0-.556-.241-.963-.89-.963a.9.9,0,0,0-.779.482.751.751,0,0,0-.723-.482.873.873,0,0,0-.818.426v-.372h-.446v2.541h.465v-1.279c0-.483.2-.947.668-.947.389,0,.464.391.464.706v1.521h.463v-1.279c0-.483.186-.947.668-.947.371,0,.446.391.446.706v1.521h.482" transform="translate(-1836.742 -5202.966)" fill="#e1e1e1"/>
        <path id="Path_38221" data-name="Path 38221" d="M1756.3,5170.9c0-.705-.593-.909-1.113-1.15a1.105,1.105,0,0,1-.26-.129.479.479,0,0,1-.26-.409c0-.371.371-.483.686-.483a2.12,2.12,0,0,1,.705.15l.074-.409a2.507,2.507,0,0,0-.8-.151c-.706,0-1.225.333-1.225.947,0,.668.649.834,1.113,1.057.26.111.556.277.556.593,0,.444-.464.593-.76.593a2.465,2.465,0,0,1-.817-.167l-.036.445a2.982,2.982,0,0,0,.769.129c.76,0,1.364-.3,1.364-1.02" transform="translate(-1741.971 -5168.322)" fill="#e1e1e1"/>
        <path id="Path_38222" data-name="Path 38222" d="M1561.144,5208.615l-.817-1.336.743-1.205h-.539l-.482.91-.482-.91h-.575l.742,1.205-.835,1.336h.556l.557-1,.556,1h.576" transform="translate(-1551.95 -5205.067)" fill="#e1e1e1"/>
        <path id="Path_38223" data-name="Path 38223" d="M1428.666,5172.615c-.185-.055-.223-.185-.223-.351v-3.153h-.482v3.208a.325.325,0,0,0,.272.371.336.336,0,0,0,.1,0,.616.616,0,0,0,.333-.075" transform="translate(-1424.49 -5169.088)" fill="#e1e1e1"/>
        <path id="Path_38224" data-name="Path 38224" d="M1300.5,5171.717V5170.2h-.5v1.162a1.67,1.67,0,0,1-.556.057,1.355,1.355,0,0,1,.018-2.708,1.822,1.822,0,0,1,.964.241l.039-.5a2.436,2.436,0,0,0-1.02-.186,1.74,1.74,0,0,0-1.834,1.639c0,.048,0,.095,0,.142a1.7,1.7,0,0,0,1.582,1.819,1.74,1.74,0,0,0,.237,0,3.632,3.632,0,0,0,1.076-.148" transform="translate(-1297.602 -5168.263)" fill="#e1e1e1"/>
        <path id="Path_38225" data-name="Path 38225" d="M1651.44,5205.307a1.219,1.219,0,1,0-2.43-.2,1.165,1.165,0,0,0,0,.2,1.22,1.22,0,1,0,2.43,0m-.5,0c0,.463-.167.965-.7.965-.557,0-.723-.5-.723-.965,0-.482.2-.947.723-.947C1650.717,5204.362,1650.939,5204.825,1650.939,5205.307Z" transform="translate(-1639.66 -5203.039)" fill="#e1e1e1"/>
        <path id="Path_38226" data-name="Path 38226" d="M1469.075,5206.573a2.776,2.776,0,0,1-.019-.5v-1.058c0-.687-.259-1.039-.983-1.039a1.455,1.455,0,0,0-.816.241l.037.39a1.134,1.134,0,0,1,.705-.259c.464,0,.575.223.575.668a3.883,3.883,0,0,0-.482-.019c-.482,0-1.113.2-1.113.834,0,.557.353.8.89.8a.841.841,0,0,0,.742-.389h.019v.333h.445m-.5-.984a.614.614,0,0,1-.553.669.749.749,0,0,1-.115,0,.419.419,0,0,1-.427-.411v-.017c0-.444.575-.481.816-.481.111,0,.185.019.276.019Z" transform="translate(-1462.474 -5203.026)" fill="#e1e1e1"/>
      </g>
      <path id="Path_38227" data-name="Path 38227" d="M535.315,4738.06a7.317,7.317,0,0,1-4.437,1.577c-3.434,0-6.4-2.469-8.074-5.327a3.95,3.95,0,0,0,1.243.649,6.649,6.649,0,0,0,1.818.279c1.967,0,2.784-.743,2.821-1.764.018-.89-.65-1.391-1.893-1.465l-1.28-.074c-.593-.038-.724-.224-.724-.465a.573.573,0,0,1,.23-.435.908.908,0,0,1,.4-.182,3.479,3.479,0,0,0,.416.024,2,2,0,0,0,2.264-1.911,1.909,1.909,0,0,0-.464-1.244,8.74,8.74,0,0,1,1.1.074v-.742a4.349,4.349,0,0,1-1.1.111,3.029,3.029,0,0,1-.836-.13,3.758,3.758,0,0,0-1-.167,2.11,2.11,0,0,0-2.353,2.046,1.917,1.917,0,0,0,1.255,1.779,1.233,1.233,0,0,0-.854,1.058,1.137,1.137,0,0,0,1.151,1.057c.482.037.724.056,1.411.094a3.971,3.971,0,0,1,1.169.148.636.636,0,0,1,.409.556.887.887,0,0,1-.632.818,4.584,4.584,0,0,1-1.374.167,4.48,4.48,0,0,1-4.287-2.858,7.563,7.563,0,0,1-.65-3.23,5.476,5.476,0,0,1,.5-2.265c2.117-4.38,8.706-5.125,12.975-5.125a17.716,17.716,0,0,1,2.969.186c2.822.445,5.068,1.818,5.068,4.918,0,4.139-4.046,9.466-7.238,11.843m-9.452-7.777a1.382,1.382,0,0,1-1.407-1.522,1.182,1.182,0,0,1,1.079-1.277,1.233,1.233,0,0,1,.17,0,1.355,1.355,0,0,1,1.369,1.5A1.162,1.162,0,0,1,525.863,4730.281Zm13.572,2.283c-.316,0-.835-.222-1.522-.964-.891-.984-1.838-2.1-1.838-2.1l1.578-1.484c.928-.873,1.188-.927,1.263-.947h-1.467a5.414,5.414,0,0,1-.632.688l-1.689,1.578v-4.975l-1.281.333c.167.223.222.593.222,1.43v5.141a3.159,3.159,0,0,1-.166,1.447h1.374a3.439,3.439,0,0,1-.149-1.447v-1.485l1.708,2.042a2.2,2.2,0,0,0,1.651,1.021,1.939,1.939,0,0,0,1.132-.316.609.609,0,0,1-.184.038Zm-7.8-3.007c-.741-.371-1.447-.705-1.447-1.3,0-.5.538-.724,1.095-.724a2.5,2.5,0,0,1,1.559.557v-.835a3.171,3.171,0,0,0-1.542-.389c-1,0-2.116.5-2.116,1.652,0,.946.836,1.354,1.615,1.725.706.335,1.355.632,1.355,1.244s-.649.743-1.17.743a4.424,4.424,0,0,1-1.858-.538v.853a4.672,4.672,0,0,0,1.818.372c1.04,0,2.282-.427,2.282-1.671,0-.854-.813-1.3-1.593-1.688Z" transform="translate(-521.039 -4721.106)" fill="#e1e1e1"/>
    </g>
  </g>
</svg>
