<svg xmlns="http://www.w3.org/2000/svg" xmlns:xlink="http://www.w3.org/1999/xlink" width="167.646" height="108.401" viewBox="0 0 167.646 108.401">
  <defs>
    <clipPath id="clip-path">
      <rect id="Rectangle_664" data-name="Rectangle 664" width="55.642" height="17.535" fill="#e1e1e1"/>
    </clipPath>
  </defs>
  <g id="Group_33344" data-name="Group 33344" transform="translate(-801.722 -295.942)">
    <g id="BT" transform="translate(801.723 295.942)">
      <path id="path3008" d="M11.49,0A11.491,11.491,0,1,0,22.981,11.49,11.49,11.49,0,0,0,11.49,0Zm-.005,1.417A10.086,10.086,0,1,1,1.4,11.5,10.086,10.086,0,0,1,11.485,1.417Z" transform="translate(0 0)" fill="#e1e1e1"/>
      <path id="path2998" d="M250.544,328.741v7.823h3.183a2.348,2.348,0,0,0,2.559-2.334,1.949,1.949,0,0,0-.985-1.743,1.878,1.878,0,0,0,.756-1.556,2.237,2.237,0,0,0-2.436-2.19Zm1.76,1.529h.94c.668,0,.96.344.96.768,0,.461-.33.751-.916.751H252.3Zm0,3.087h.94c.668,0,.96.344.96.768,0,.461-.33.751-.916.751H252.3Z" transform="translate(-244.781 -321.178)" fill="#e1e1e1"/>
      <path id="path3000" d="M528.008,335.919v-6h-1.76v-1.809h5.474v1.809H529.89v6Z" transform="translate(-514.142 -320.557)" fill="#e1e1e1"/>
    </g>
    <g id="Charter" transform="translate(913.727 299.793)">
      <g id="Group_33327" data-name="Group 33327" transform="translate(0 0)">
        <g id="Group_33326" data-name="Group 33326" clip-path="url(#clip-path)">
          <path id="Path_38389" data-name="Path 38389" d="M141.33,195.888a3.8,3.8,0,0,0-2.731,1.057v-4.458h-1.631v13.077H138.6v-5.416a2.568,2.568,0,0,1,2.612-2.7,2.264,2.264,0,0,1,2.357,2.561v5.552H145.2v-5.705a3.712,3.712,0,0,0-3.868-3.971" transform="translate(-126.378 -192.487)" fill="#e1e1e1"/>
          <path id="Path_38390" data-name="Path 38390" d="M197.188,221.85c0-1.018.919-1.625,2.459-1.625a10.79,10.79,0,0,1,2.543.308v.671c0,1.3-1.24,2.272-2.883,2.272-1.053,0-2.118-.546-2.118-1.591Zm2.578-6.607a7.429,7.429,0,0,0-3.247.785l-.347.162.62,1.482.383-.2a5.418,5.418,0,0,1,2.54-.654c1.092,0,2.386.375,2.453,2.119a10.791,10.791,0,0,0-2.47-.264c-2.546,0-4.191,1.266-4.191,3.223v.034c0,2.027,1.932,3.12,3.749,3.12a4.355,4.355,0,0,0,2.918-1.037v.832h1.614v-5.807c0-2.38-1.5-3.8-4.022-3.8" transform="translate(-175.992 -211.774)" fill="#e1e1e1"/>
          <path id="Path_38391" data-name="Path 38391" d="M257.644,216.869v-1.475h-1.631v9.472h1.631v-3.954c0-2.721,1.687-3.938,3.36-3.938h.483v-1.713H261.1a4.475,4.475,0,0,0-3.46,1.608" transform="translate(-227.276 -211.789)" fill="#e1e1e1"/>
          <path id="Path_38392" data-name="Path 38392" d="M299.46,208.767c-.924,0-1.336-.4-1.336-1.284V202.3h3.043v-1.714h-3.043V197.95h-1.631v2.639h-1.1V202.3h1.1v5.265a2.6,2.6,0,0,0,2.83,2.78,3.6,3.6,0,0,0,1.579-.343l.232-.108v-1.654l-.562.252a2.512,2.512,0,0,1-1.112.271" transform="translate(-260.652 -197.117)" fill="#e1e1e1"/>
          <path id="Path_38393" data-name="Path 38393" d="M337.066,216.358a2.7,2.7,0,0,1,2.664,2.571h-5.4a2.9,2.9,0,0,1,2.732-2.571m.033-1.563a4.682,4.682,0,0,0-4.514,4.923v.034a4.688,4.688,0,0,0,4.65,4.923,4.981,4.981,0,0,0,3.882-1.76l.278-.3-1.176-1.036-.264.283a3.494,3.494,0,0,1-2.685,1.234,2.992,2.992,0,0,1-2.951-2.621h7.121l.018-.351.02-.355v-.034c0-2.909-1.8-4.941-4.379-4.941" transform="translate(-292.175 -211.394)" fill="#e1e1e1"/>
          <path id="Path_38394" data-name="Path 38394" d="M401.681,215.225a4.3,4.3,0,0,0-3.461,1.611v-1.475h-1.631v9.472h1.631V220.88c0-2.72,1.688-3.938,3.36-3.938h.484v-1.7Z" transform="translate(-346.422 -211.756)" fill="#e1e1e1"/>
          <path id="Path_38395" data-name="Path 38395" d="M76.1,204.168a4.079,4.079,0,0,1-2.764,1.039c-2.334,0-4.162-2.163-4.162-4.925,0-2.789,1.79-4.891,4.162-4.891a4.031,4.031,0,0,1,2.657.961l.278.222,1.2-1.2-.333-.28a5.535,5.535,0,0,0-3.791-1.34c-3.333,0-5.847,2.823-5.847,6.567,0,3.723,2.492,6.531,5.8,6.531a5.482,5.482,0,0,0,3.9-1.5l.31-.281-1.133-1.132Z" transform="translate(-67.503 -193.557)" fill="#e1e1e1"/>
          <path id="Path_38396" data-name="Path 38396" d="M73.892,292.062v-.007a1.248,1.248,0,0,1,1.272-1.276,1.283,1.283,0,0,1,.965.384l-.278.32a.981.981,0,0,0-.691-.306.83.83,0,0,0-.814.87v.007a.831.831,0,0,0,.814.874.962.962,0,0,0,.708-.317l.279.282a1.273,1.273,0,0,1-1,.437,1.24,1.24,0,0,1-1.254-1.268" transform="translate(-72.918 -275.795)" fill="#e1e1e1"/>
          <path id="Path_38397" data-name="Path 38397" d="M100.939,292.062v-.007a.845.845,0,0,0-.839-.877.833.833,0,0,0-.832.87v.007a.842.842,0,0,0,.839.874.83.83,0,0,0,.832-.867m-2.125,0v-.007a1.29,1.29,0,0,1,2.579-.007v.007a1.29,1.29,0,0,1-2.579.007" transform="translate(-94.04 -275.795)" fill="#e1e1e1"/>
          <path id="Path_38398" data-name="Path 38398" d="M127.505,291.058h.461l.751,1.166.751-1.166h.462v2.466H129.5v-1.769l-.779,1.163H128.7l-.771-1.156v1.762h-.426Z" transform="translate(-118.358 -276.031)" fill="#e1e1e1"/>
          <path id="Path_38399" data-name="Path 38399" d="M155.872,291.058h.462l.751,1.166.751-1.166h.461v2.466h-.434v-1.769l-.779,1.163h-.014l-.772-1.156v1.762h-.426Z" transform="translate(-142.401 -276.031)" fill="#e1e1e1"/>
          <path id="Path_38400" data-name="Path 38400" d="M183.985,292.477v-1.42h.434v1.4c0,.458.236.7.623.7s.62-.229.62-.684v-1.42h.433v1.4a.985.985,0,0,1-1.061,1.106.972.972,0,0,1-1.05-1.085" transform="translate(-166.228 -276.031)" fill="#e1e1e1"/>
          <path id="Path_38401" data-name="Path 38401" d="M210.04,291.058h.4l1.321,1.705v-1.705h.426v2.466h-.363l-1.36-1.755v1.755h-.426Z" transform="translate(-188.311 -276.031)" fill="#e1e1e1"/>
          <rect id="Rectangle_662" data-name="Rectangle 662" width="0.434" height="2.466" transform="translate(25.807 15.027)" fill="#e1e1e1"/>
          <path id="Path_38402" data-name="Path 38402" d="M251.561,292.062v-.007a1.248,1.248,0,0,1,1.272-1.276,1.284,1.284,0,0,1,.966.384l-.278.32a.981.981,0,0,0-.691-.306.829.829,0,0,0-.814.87v.007a.831.831,0,0,0,.814.874.963.963,0,0,0,.709-.317l.278.282a1.273,1.273,0,0,1-1,.437,1.24,1.24,0,0,1-1.254-1.268" transform="translate(-223.502 -275.795)" fill="#e1e1e1"/>
          <path id="Path_38403" data-name="Path 38403" d="M277.982,292.447l-.426-.986-.423.986Zm-.62-1.5h.4l1.085,2.484h-.458l-.25-.6h-1.166l-.254.6h-.444Z" transform="translate(-244.45 -275.933)" fill="#e1e1e1"/>
          <path id="Path_38404" data-name="Path 38404" d="M301.8,291.458h-.782v-.4h2v.4h-.782v2.065H301.8Z" transform="translate(-265.415 -276.03)" fill="#e1e1e1"/>
          <rect id="Rectangle_663" data-name="Rectangle 663" width="0.434" height="2.466" transform="translate(39.347 15.027)" fill="#e1e1e1"/>
          <path id="Path_38405" data-name="Path 38405" d="M342.51,292.062v-.007a.845.845,0,0,0-.839-.877.833.833,0,0,0-.832.87v.007a.842.842,0,0,0,.839.874.83.83,0,0,0,.832-.867m-2.125,0v-.007a1.29,1.29,0,0,1,2.579-.007v.007a1.29,1.29,0,0,1-2.579.007" transform="translate(-298.786 -275.795)" fill="#e1e1e1"/>
          <path id="Path_38406" data-name="Path 38406" d="M369.074,291.058h.4l1.322,1.705v-1.705h.426v2.466h-.363l-1.36-1.755v1.755h-.426Z" transform="translate(-323.101 -276.031)" fill="#e1e1e1"/>
          <path id="Path_38407" data-name="Path 38407" d="M394.553,292.969l.261-.31a1.142,1.142,0,0,0,.779.32c.268,0,.437-.126.437-.31v-.007c0-.177-.1-.272-.557-.377-.525-.127-.821-.282-.821-.736v-.007a.754.754,0,0,1,.843-.715,1.368,1.368,0,0,1,.9.31l-.233.327a1.12,1.12,0,0,0-.669-.254c-.254,0-.4.131-.4.293v.007c0,.19.113.275.588.388.522.127.789.314.789.722v.007c0,.461-.363.736-.881.736a1.519,1.519,0,0,1-1.029-.395" transform="translate(-344.696 -275.835)" fill="#e1e1e1"/>
        </g>
      </g>
    </g>
    <g id="Frontier" transform="translate(913.727 336.365)">
      <g id="g6162" transform="translate(0 0)">
        <path id="path3715" d="M-25.341,138.853v1.906h-5.549v2.875h5.248v1.839h-5.248v4.8h-2.173V138.853Z" transform="translate(33.062 -133.427)" fill="#e1e1e1"/>
        <path id="path3727" d="M5.447,154.569a2.307,2.307,0,0,0-.819-.167c-1.22,0-2.206,1.22-2.206,2.975v3.075H.35V152.68H2.406v1.271h.033A2.3,2.3,0,0,1,4.578,152.5a2.166,2.166,0,0,1,.869.184v1.889Z" transform="translate(8.123 -143.611)" fill="#e1e1e1"/>
        <path id="path3731" d="M164.733,154.569a2.307,2.307,0,0,0-.819-.167c-1.22,0-2.206,1.22-2.206,2.975v3.075h-2.072V152.68h2.056v1.271h.033a2.3,2.3,0,0,1,2.139-1.454,2.165,2.165,0,0,1,.869.184v1.889Z" transform="translate(-110.77 -143.611)" fill="#e1e1e1"/>
        <path id="path3735" d="M23.2,156.559a2.054,2.054,0,1,0,4.095.033,2.168,2.168,0,0,0-1.989-2.256,2.116,2.116,0,0,0-2.106,2.223m6.317.017a4.12,4.12,0,0,1-4.3,4.061,4.045,4.045,0,0,1-4.245-4.045,4.123,4.123,0,0,1,4.161-4.094,4.114,4.114,0,0,1,4.379,4.078" transform="translate(-7.273 -143.612)" fill="#e1e1e1"/>
        <path id="path3739" d="M64.56,160.452H62.488v-4.513c0-.8-.234-1.437-1.137-1.437-1.253,0-1.989,1.3-1.989,2.791v3.159H57.29V152.68h2.071l0,1.22a2.725,2.725,0,0,1,2.457-1.4,2.61,2.61,0,0,1,2.741,2.891v5.064Z" transform="translate(-34.378 -143.611)" fill="#e1e1e1"/>
        <path id="path3741" d="M115.444,160.992h-2.072v-7.771h2.072Z" transform="translate(-76.238 -144.152)" fill="#e1e1e1"/>
        <path id="path3745" d="M130.11,155.421a1.608,1.608,0,0,0-1.571-1.371,1.867,1.867,0,0,0-1.755,1.371Zm2.24,1.421H126.6a2.661,2.661,0,0,0,.485,1,2.494,2.494,0,0,0,1.889.885,5.155,5.155,0,0,0,3.075-1.286v2.122a7.375,7.375,0,0,1-3.409,1.07,4.071,4.071,0,1,1-.15-8.139,3.748,3.748,0,0,1,3.861,4.028v.318Z" transform="translate(-84.502 -143.611)" fill="#e1e1e1"/>
        <path id="path3749" d="M90.737,144.034v2.34H92.91v1.554H90.8v3.393c0,.869.468,1.086,1,1.086a2.814,2.814,0,0,0,1.1-.267v1.839a7.25,7.25,0,0,1-1.889.268,2.036,2.036,0,0,1-2.289-2.223v-4.094H87.445v-1.554h1.288v-2.349h2" transform="translate(-56.886 -137.288)" fill="#e1e1e1"/>
        <path id="path3753" d="M102.094,131.777a.988.988,0,1,1-.988-.988.988.988,0,0,1,.988.988" transform="translate(-66.345 -127.408)" fill="#e1e1e1"/>
        <path id="path3757" d="M88.757,124.753a.832.832,0,1,1-.832-.832.832.832,0,0,1,.832.832" transform="translate(-56.623 -122.282)" fill="#e1e1e1"/>
        <path id="path3761" d="M75.423,120.188a.78.78,0,1,1-.78-.78.78.78,0,0,1,.78.78" transform="translate(-46.748 -118.913)" fill="#e1e1e1"/>
        <path id="path3765" d="M61.472,118.133a.676.676,0,1,1-.676-.676.675.675,0,0,1,.676.676" transform="translate(-36.49 -117.457)" fill="#e1e1e1"/>
        <path id="path3769" d="M47.315,118.439a.572.572,0,1,1-.572-.572.572.572,0,0,1,.572.572" transform="translate(-26.079 -117.763)" fill="#e1e1e1"/>
        <path id="path3773" d="M33.39,120.478a.506.506,0,1,1-.506-.507.507.507,0,0,1,.506.507" transform="translate(-15.782 -119.333)" fill="#e1e1e1"/>
        <path id="path3777" d="M20.258,126.066a.35.35,0,1,1-.35-.351.35.35,0,0,1,.35.351" transform="translate(-6.213 -123.621)" fill="#e1e1e1"/>
        <path id="path3781" d="M9.437,134.2a.219.219,0,1,1-.219-.219.219.219,0,0,1,.219.219" transform="translate(1.667 -129.794)" fill="#e1e1e1"/>
        <path id="path3785" d="M2.812,142.979a.164.164,0,1,1-.165-.165.164.164,0,0,1,.165.165" transform="translate(6.531 -136.384)" fill="#e1e1e1"/>
        <path id="path3789" d="M115.2,141.828a1.1,1.1,0,1,1-1.149-1.119,1.167,1.167,0,0,1,1.149,1.119" transform="translate(-75.954 -134.813)" fill="#e1e1e1"/>
        <path id="path3793" d="M-29.916,193.47a1.755,1.755,0,0,1-1.278.505,1.667,1.667,0,0,1-1.792-1.744,1.7,1.7,0,0,1,1.792-1.783,1.718,1.718,0,0,1,1.244.515l-.364.35a1.257,1.257,0,0,0-.879-.35,1.192,1.192,0,0,0-1.253,1.263,1.174,1.174,0,0,0,1.253,1.239,1.319,1.319,0,0,0,.9-.369l.374.374Z" transform="translate(33.005 -171.938)" fill="#e1e1e1"/>
        <path id="path3797" d="M-16.809,193.465a1.142,1.142,0,0,0,1.2-1.249,1.191,1.191,0,0,0-1.191-1.292,1.165,1.165,0,0,0-1.21,1.292,1.172,1.172,0,0,0,1.2,1.249m1.739-1.258a1.649,1.649,0,0,1-1.739,1.758,1.657,1.657,0,0,1-1.739-1.754,1.7,1.7,0,0,1,1.749-1.783,1.667,1.667,0,0,1,1.729,1.778" transform="translate(22.229 -171.924)" fill="#e1e1e1"/>
        <path id="path3801" d="M2.133,191.489.977,193.1H.86l-1.142-1.608V194.1H-.826v-3.4h.632l1.122,1.594L2.045,190.7h.631v3.4H2.133v-2.609Z" transform="translate(9.001 -172.124)" fill="#e1e1e1"/>
        <path id="path3813" d="M20.7,191.489,19.548,193.1h-.117l-1.141-1.608V194.1h-.544v-3.4h.632l1.122,1.594,1.117-1.594h.632v3.4H20.7v-2.609Z" transform="translate(-4.862 -172.124)" fill="#e1e1e1"/>
        <path id="path3817" d="M39.072,190.7v1.992a1.443,1.443,0,1,1-2.886,0V190.7h.539v1.992a.906.906,0,1,0,1.807,0V190.7Z" transform="translate(-18.625 -172.123)" fill="#e1e1e1"/>
        <path id="path3829" d="M54.53,193.1v-2.419h.544v3.4h-.413l-1.929-2.4v2.4h-.549v-3.4H52.6L54.53,193.1Z" transform="translate(-30.567 -172.109)" fill="#e1e1e1"/>
        <path id="path3831" d="M68.331,190.678h.539v3.4h-.539Z" transform="translate(-42.619 -172.11)" fill="#e1e1e1"/>
        <path id="path3835" d="M77.484,193.47a1.754,1.754,0,0,1-1.278.505,1.667,1.667,0,0,1-1.792-1.744,1.783,1.783,0,0,1,3.036-1.268l-.364.35a1.258,1.258,0,0,0-.879-.35,1.192,1.192,0,0,0-1.253,1.263,1.174,1.174,0,0,0,1.253,1.239,1.32,1.32,0,0,0,.9-.369l.374.374Z" transform="translate(-47.159 -171.938)" fill="#e1e1e1"/>
        <path id="path3839" d="M90.714,191.251,90,192.869h1.438Zm.918,2.113H89.791l-.321.714h-.578l1.526-3.4h.593l1.526,3.4h-.578Z" transform="translate(-57.966 -172.11)" fill="#e1e1e1"/>
        <path id="path3843" d="M104.627,191.168H103.51v-.491h2.779v.491h-1.113v2.91h-.549Z" transform="translate(-68.877 -172.109)" fill="#e1e1e1"/>
        <path id="path3845" d="M117.781,190.678h.539v3.4h-.539Z" transform="translate(-79.529 -172.11)" fill="#e1e1e1"/>
        <path id="path3849" d="M125.6,193.465a1.142,1.142,0,0,0,1.2-1.249,1.191,1.191,0,0,0-1.19-1.292,1.272,1.272,0,0,0-.01,2.541m1.739-1.258a1.739,1.739,0,1,1-3.479,0,1.7,1.7,0,0,1,1.749-1.783,1.667,1.667,0,0,1,1.729,1.778" transform="translate(-84.069 -171.924)" fill="#e1e1e1"/>
        <path id="path3853" d="M143.932,193.1v-2.419h.544v3.4h-.413l-1.929-2.4v2.4h-.549v-3.4H142l1.929,2.419Z" transform="translate(-97.297 -172.109)" fill="#e1e1e1"/>
        <path id="path3865" d="M158.942,191.26a1.035,1.035,0,0,0-.841-.379c-.456,0-.787.189-.787.486,0,.33.379.422.826.486.7.1,1.365.291,1.365,1.045s-.7,1.049-1.409,1.049a1.489,1.489,0,0,1-1.462-.772l.408-.272a1.183,1.183,0,0,0,1.059.558c.408,0,.86-.131.86-.563,0-.35-.388-.486-.869-.549-.676-.092-1.317-.262-1.317-.991.015-.656.69-.947,1.312-.947a1.385,1.385,0,0,1,1.268.573l-.413.277Z" transform="translate(-108.53 -171.91)" fill="#e1e1e1"/>
        <path id="path3869" d="M181.24,153.188l.166.231.168-.231h.112v.533h-.116l.005-.35-.159.223h-.025l-.156-.229,0,.356h-.118v-.533Zm-.659.11v-.108h.468v.108h-.176v.423h-.116V153.3Z" transform="translate(-126.403 -144.127)" fill="#e1e1e1"/>
      </g>
    </g>
    <g id="Vodafone" transform="translate(801.723 343.415)">
      <path id="Path_38418" data-name="Path 38418" d="M10.694.725A3.112,3.112,0,0,0,8.261,3.713a.746.746,0,0,0,.01.123c2.282.556,3.317,1.933,3.325,3.837a4.012,4.012,0,0,1-4.041,4h0A4.386,4.386,0,0,1,3.343,7.1,6.364,6.364,0,0,1,5.631,2.372,7.5,7.5,0,0,1,10.166.661a1.97,1.97,0,0,1,.51.055,8.072,8.072,0,1,0,.018.01Z" transform="translate(0 0)" fill="#e1e1e1"/>
      <path id="path2339-2" d="M20.574,10.817,18.282,5.349h1.5L21.208,8.98l1.386-3.631h1.429L21.8,10.817Z" transform="translate(-0.744 -0.218)" fill="#e1e1e1"/>
      <path id="path2341-0" d="M28.26,8.048A2.55,2.55,0,0,0,28.18,7.4a1.536,1.536,0,0,0-.238-.529,1.207,1.207,0,0,0-.386-.353,1.146,1.146,0,0,0-1.066,0,1.2,1.2,0,0,0-.386.353,1.554,1.554,0,0,0-.238.529,2.712,2.712,0,0,0,0,1.3,1.709,1.709,0,0,0,.231.529,1.124,1.124,0,0,0,.387.359,1.079,1.079,0,0,0,.539.131,1.048,1.048,0,0,0,.532-.131,1.194,1.194,0,0,0,.386-.359A1.613,1.613,0,0,0,28.18,8.7a2.541,2.541,0,0,0,.081-.656m1.383.007a3.48,3.48,0,0,1-.163,1.05,2.893,2.893,0,0,1-.489.924,2.411,2.411,0,0,1-.816.658,2.781,2.781,0,0,1-2.3,0,2.428,2.428,0,0,1-.818-.658,2.908,2.908,0,0,1-.487-.924,3.451,3.451,0,0,1-.164-1.05,3.4,3.4,0,0,1,.164-1.045,2.861,2.861,0,0,1,.487-.912,2.4,2.4,0,0,1,.818-.647,2.817,2.817,0,0,1,2.3,0,2.457,2.457,0,0,1,.816.647,2.769,2.769,0,0,1,.495.912,3.429,3.429,0,0,1,.163,1.045" transform="translate(-0.993 -0.212)" fill="#e1e1e1"/>
      <path id="path2343-6" d="M34.123,6.463a2.1,2.1,0,0,0-.758-.159,1.328,1.328,0,0,0-.62.137,1.231,1.231,0,0,0-.43.369,1.7,1.7,0,0,0-.253.525,2.113,2.113,0,0,0-.085.6,2.815,2.815,0,0,0,.075.654,1.7,1.7,0,0,0,.225.547,1.21,1.21,0,0,0,.383.375,1.036,1.036,0,0,0,.549.142,1.14,1.14,0,0,0,.53-.142.935.935,0,0,0,.385-.336Zm.113,4.265-.057-.419a1.726,1.726,0,0,1-.509.379,1.592,1.592,0,0,1-.746.165,2.021,2.021,0,0,1-.995-.238A2.223,2.223,0,0,1,31.2,9.98a2.882,2.882,0,0,1-.447-.92,3.883,3.883,0,0,1-.152-1.089,3.533,3.533,0,0,1,.156-1.044,2.767,2.767,0,0,1,.481-.913,2.407,2.407,0,0,1,.81-.646,2.524,2.524,0,0,1,1.142-.246,3.08,3.08,0,0,1,.929.159V3.161h1.405v7.567Z" transform="translate(-1.246 -0.129)" fill="#e1e1e1"/>
      <path id="path2345-7" d="M39.734,8.247c-.152.008-.309.022-.468.04s-.312.044-.456.074a1.046,1.046,0,0,0-.635.312A.763.763,0,0,0,38,9.155a.537.537,0,0,0,.2.436.87.87,0,0,0,.565.164,1.3,1.3,0,0,0,.531-.112,1.583,1.583,0,0,0,.439-.284Zm.113,2.56-.056-.41a1.555,1.555,0,0,1-.581.4,2.046,2.046,0,0,1-.773.143,1.941,1.941,0,0,1-.678-.119,1.773,1.773,0,0,1-.576-.341A1.671,1.671,0,0,1,36.626,9.2a1.558,1.558,0,0,1,.159-.719,1.578,1.578,0,0,1,.433-.528,2.378,2.378,0,0,1,.626-.351,3.9,3.9,0,0,1,.74-.205,5.336,5.336,0,0,1,.6-.084c.217-.019.4-.035.541-.051v-.08a.792.792,0,0,0-.234-.648.986.986,0,0,0-.643-.193,1.739,1.739,0,0,0-.458.059,1.941,1.941,0,0,0-.387.14,3.391,3.391,0,0,0-.3.171,2.262,2.262,0,0,0-.21.153l-.466-.985a2.089,2.089,0,0,1,.278-.193,3.147,3.147,0,0,1,.455-.223,3.912,3.912,0,0,1,.6-.181,3.3,3.3,0,0,1,.72-.075,2.72,2.72,0,0,1,.829.12,1.681,1.681,0,0,1,.647.375,1.737,1.737,0,0,1,.426.646,2.6,2.6,0,0,1,.153.946v3.515Z" transform="translate(-1.491 -0.212)" fill="#e1e1e1"/>
      <path id="path2347-3" d="M45.7,4.4a2.509,2.509,0,0,0-.266-.1,1.842,1.842,0,0,0-.53-.062.717.717,0,0,0-.492.177.731.731,0,0,0-.2.573v.261h1.18V6.388H44.224v4.334H42.816V6.388h-.725V5.254h.725v-.3a2.636,2.636,0,0,1,.136-.9,1.564,1.564,0,0,1,.381-.6,1.484,1.484,0,0,1,.573-.342,2.317,2.317,0,0,1,.716-.107,3.061,3.061,0,0,1,.844.1,2.54,2.54,0,0,1,.391.13Z" transform="translate(-1.713 -0.122)" fill="#e1e1e1"/>
      <path id="path2349-9" d="M49.686,8.048a2.594,2.594,0,0,0-.081-.648,1.554,1.554,0,0,0-.238-.529,1.217,1.217,0,0,0-.386-.353,1.146,1.146,0,0,0-1.066,0,1.21,1.21,0,0,0-.387.353,1.593,1.593,0,0,0-.239.529,2.744,2.744,0,0,0,0,1.3,1.759,1.759,0,0,0,.233.529,1.13,1.13,0,0,0,.386.359,1.084,1.084,0,0,0,.539.131,1.049,1.049,0,0,0,.533-.131,1.2,1.2,0,0,0,.386-.359,1.633,1.633,0,0,0,.238-.529,2.583,2.583,0,0,0,.081-.656m1.383.007a3.423,3.423,0,0,1-.165,1.05,2.87,2.87,0,0,1-.487.924,2.406,2.406,0,0,1-.817.658,2.781,2.781,0,0,1-2.3,0,2.424,2.424,0,0,1-.817-.658,2.889,2.889,0,0,1-.487-.924,3.422,3.422,0,0,1-.164-1.05,3.372,3.372,0,0,1,.164-1.045A2.842,2.842,0,0,1,46.48,6.1a2.394,2.394,0,0,1,.817-.647,2.572,2.572,0,0,1,1.151-.245,2.542,2.542,0,0,1,1.146.245,2.456,2.456,0,0,1,.816.647,2.747,2.747,0,0,1,.493.912,3.373,3.373,0,0,1,.165,1.045" transform="translate(-1.865 -0.212)" fill="#e1e1e1"/>
      <path id="path2351-6" d="M55.7,10.811V7.692a1.563,1.563,0,0,0-.26-.965.87.87,0,0,0-.727-.34,1.134,1.134,0,0,0-.606.171,2.524,2.524,0,0,0-.483.374v3.879H52.214V5.343H53.5l.067.431a2.539,2.539,0,0,1,1.577-.566,2.323,2.323,0,0,1,.794.13,1.556,1.556,0,0,1,.625.414,1.918,1.918,0,0,1,.4.737A3.7,3.7,0,0,1,57.1,7.577v3.234Z" transform="translate(-2.125 -0.212)" fill="#e1e1e1"/>
      <path id="path2353-4" d="M61.723,7.419a1.438,1.438,0,0,0-.12-.493,1.036,1.036,0,0,0-.24-.34.922.922,0,0,0-.644-.256,1.072,1.072,0,0,0-.7.272,1.164,1.164,0,0,0-.389.816ZM59.6,8.428a1.312,1.312,0,0,0,.433,1,1.565,1.565,0,0,0,1,.307,2.712,2.712,0,0,0,.535-.051,2.478,2.478,0,0,0,.445-.13,2.753,2.753,0,0,0,.33-.158,1.121,1.121,0,0,0,.205-.149l.375,1.146c-.054.037-.139.088-.256.153a2.693,2.693,0,0,1-.436.181,4.853,4.853,0,0,1-.613.148,4.465,4.465,0,0,1-.771.061,3.031,3.031,0,0,1-1.016-.169,2.267,2.267,0,0,1-.844-.529,2.574,2.574,0,0,1-.578-.89A3.359,3.359,0,0,1,58.2,8.077a3.5,3.5,0,0,1,.2-1.225,2.6,2.6,0,0,1,.544-.9,2.409,2.409,0,0,1,.806-.556,2.529,2.529,0,0,1,.981-.193,2.7,2.7,0,0,1,.966.171,1.99,1.99,0,0,1,.766.528,2.545,2.545,0,0,1,.509.926,4.322,4.322,0,0,1,.187,1.35v.248Z" transform="translate(-2.369 -0.212)" fill="#e1e1e1"/>
    </g>
    <g id="EE" transform="translate(913.727 380.361)">
      <path id="path2998-2" data-name="path2998" d="M-428.065,15.1a6.82,6.82,0,0,0-6.835,6.787,6.739,6.739,0,0,0,2.116,4.987c.209.184.156.28.007.431a7.186,7.186,0,0,0-2.123,4.919,6.786,6.786,0,0,0,6.835,6.859,6.789,6.789,0,0,0,6.811-6.811,6.94,6.94,0,0,0-2.038-4.892c-.287-.277-.287-.323,0-.576a6.681,6.681,0,0,0,2.038-4.916,6.79,6.79,0,0,0-6.811-6.787Zm-1.521,3.521a.555.555,0,0,1,.465.252.555.555,0,0,1,.465-.252.556.556,0,0,1,.5.322.555.555,0,0,1,.5-.322.556.556,0,0,1,.5.322.556.556,0,0,1,.5-.322.555.555,0,0,1,.555.555.556.556,0,0,1-.555.556.556.556,0,0,1-.5-.321.556.556,0,0,1-.5.321.555.555,0,0,1-.5-.322.556.556,0,0,1-.5.322.555.555,0,0,1-.465-.252.559.559,0,0,1-.149.154.555.555,0,0,1,.241.457.555.555,0,0,1-.238.456.555.555,0,0,1,.238.456.555.555,0,0,1-.238.456.557.557,0,0,1,.116.11.555.555,0,0,1,.435-.21.555.555,0,0,1,.478.274.556.556,0,0,1,.479-.274.555.555,0,0,1,.475.268.555.555,0,0,1,.475-.268.556.556,0,0,1,.556.555.556.556,0,0,1-.556.556.555.555,0,0,1-.475-.268.555.555,0,0,1-.475.268.555.555,0,0,1-.479-.274.555.555,0,0,1-.478.274.555.555,0,0,1-.435-.21.555.555,0,0,1-.119.111.554.554,0,0,1,.241.457.556.556,0,0,1-.241.458.555.555,0,0,1,.241.457.554.554,0,0,1-.241.457.557.557,0,0,1,.148.151.555.555,0,0,1,.466-.253.556.556,0,0,1,.5.322.555.555,0,0,1,.5-.322.556.556,0,0,1,.5.322.556.556,0,0,1,.5-.322.556.556,0,0,1,.555.556.555.555,0,0,1-.555.555.556.556,0,0,1-.5-.321.556.556,0,0,1-.5.321.555.555,0,0,1-.5-.322.555.555,0,0,1-.5.322.555.555,0,0,1-.464-.25.555.555,0,0,1-.466.253.555.555,0,0,1-.555-.555.555.555,0,0,1,.241-.457.554.554,0,0,1-.241-.457.555.555,0,0,1,.241-.457.556.556,0,0,1-.241-.458.554.554,0,0,1,.241-.457.555.555,0,0,1-.241-.457.555.555,0,0,1,.238-.456.555.555,0,0,1-.238-.456.555.555,0,0,1,.238-.456.555.555,0,0,1-.238-.456.555.555,0,0,1,.241-.457.556.556,0,0,1-.241-.458.555.555,0,0,1,.555-.555Zm0,10.351a.555.555,0,0,1,.465.252.555.555,0,0,1,.465-.252.556.556,0,0,1,.5.322.555.555,0,0,1,.5-.322.556.556,0,0,1,.5.321.556.556,0,0,1,.5-.321.556.556,0,0,1,.555.556.555.555,0,0,1-.555.555.556.556,0,0,1-.5-.321.556.556,0,0,1-.5.321.555.555,0,0,1-.5-.322.556.556,0,0,1-.5.322.555.555,0,0,1-.465-.252.559.559,0,0,1-.148.154.555.555,0,0,1,.24.457.555.555,0,0,1-.238.456.554.554,0,0,1,.238.456.555.555,0,0,1-.238.456.558.558,0,0,1,.117.11.555.555,0,0,1,.435-.21.555.555,0,0,1,.478.274.556.556,0,0,1,.479-.274.555.555,0,0,1,.475.268.555.555,0,0,1,.475-.268.556.556,0,0,1,.556.556.556.556,0,0,1-.556.555.555.555,0,0,1-.475-.268.555.555,0,0,1-.475.268.555.555,0,0,1-.479-.274.555.555,0,0,1-.478.274.555.555,0,0,1-.435-.21.557.557,0,0,1-.119.112.555.555,0,0,1,.241.457.555.555,0,0,1-.24.457.555.555,0,0,1,.24.457.555.555,0,0,1-.241.457.557.557,0,0,1,.148.152.555.555,0,0,1,.466-.253.556.556,0,0,1,.5.322.555.555,0,0,1,.5-.322.556.556,0,0,1,.5.322.556.556,0,0,1,.5-.322.555.555,0,0,1,.555.555.556.556,0,0,1-.555.556.556.556,0,0,1-.5-.321.556.556,0,0,1-.5.321.555.555,0,0,1-.5-.322.556.556,0,0,1-.5.322.555.555,0,0,1-.464-.25.555.555,0,0,1-.466.253.556.556,0,0,1-.555-.556.554.554,0,0,1,.241-.457.555.555,0,0,1-.241-.457.555.555,0,0,1,.24-.457.555.555,0,0,1-.24-.457.555.555,0,0,1,.241-.457.554.554,0,0,1-.241-.457.556.556,0,0,1,.238-.456.555.555,0,0,1-.238-.456.554.554,0,0,1,.238-.456.555.555,0,0,1-.238-.456.555.555,0,0,1,.24-.457.555.555,0,0,1-.24-.457A.556.556,0,0,1-429.586,28.971Z" transform="translate(434.9 -15.1)" fill="#e1e1e1"/>
    </g>
    <g id="Vonage" transform="translate(801.723 386.137)">
      <g id="Vonage-2" data-name="Vonage" transform="translate(0 0)">
        <path id="Path_38419" data-name="Path 38419" d="M6.785,117.861H3.355l4.892,11.116a.106.106,0,0,0,.194,0l1.627-3.828Z" transform="translate(-3.355 -117.861)" fill="#e1e1e1"/>
        <path id="Path_38420" data-name="Path 38420" d="M35.214,117.861S29.957,129.9,29.254,131.01c-.819,1.291-1.361,1.784-2.364,1.941a.019.019,0,0,0-.016.019.02.02,0,0,0,.019.019h3.141a3.57,3.57,0,0,0,2.886-2.14c.618-1.141,5.785-12.989,5.785-12.989Z" transform="translate(-21.338 -117.861)" fill="#e1e1e1"/>
        <path id="Path_38421" data-name="Path 38421" d="M107.325,140.346a.021.021,0,0,1-.037,0l-2.607-5.706h-1.465s2.687,6.055,2.956,6.507a1.2,1.2,0,0,0,2.271,0c.269-.452,2.956-6.507,2.956-6.507h-1.465Z" transform="translate(-79.712 -130.691)" fill="#e1e1e1"/>
        <path id="Path_38422" data-name="Path 38422" d="M142.62,140.3a2.6,2.6,0,1,1,2.345-2.587,2.277,2.277,0,0,1-2.345,2.587m0-6.369a3.785,3.785,0,1,0,3.646,3.782,3.456,3.456,0,0,0-3.646-3.782" transform="translate(-107.055 -130.149)" fill="#e1e1e1"/>
        <path id="Path_38423" data-name="Path 38423" d="M181.39,134.638v7.231h-1.5l-3.5-5.287v5.287h-1.281v-7.231h1.506l3.5,5.322v-5.322Z" transform="translate(-134.684 -130.689)" fill="#e1e1e1"/>
        <path id="Path_38424" data-name="Path 38424" d="M207.925,138.635l1.262-2.954a.021.021,0,0,1,.038,0l1.261,2.954Zm1.281-4.349a1.253,1.253,0,0,0-1.062.8c-.218.41-2.823,6.513-2.823,6.513h1.339l.748-1.751H211l.748,1.751h1.338s-2.6-6.1-2.822-6.513a1.254,1.254,0,0,0-1.062-.8Z" transform="translate(-157.785 -130.42)" fill="#e1e1e1"/>
        <path id="Path_38425" data-name="Path 38425" d="M242.452,138.54h2.291a1.954,1.954,0,0,1-2.171,1.76c-1.395,0-2.307-.923-2.307-2.587,0-1.8.845-2.6,2.385-2.6a1.736,1.736,0,0,1,1.935,1.3h1.329a3.125,3.125,0,0,0-3.341-2.487,3.772,3.772,0,0,0,0,7.536,2.768,2.768,0,0,0,2.176-1.015l0,.876h1.226v-3.9h-3.517Z" transform="translate(-183.526 -130.149)" fill="#e1e1e1"/>
        <path id="Path_38426" data-name="Path 38426" d="M279.755,135.848v-1.21h-5.2v7.231h5.2v-1.21h-3.918v-1.9h3.613v-1.21h-3.613v-1.7Z" transform="translate(-210.726 -130.689)" fill="#e1e1e1"/>
      </g>
    </g>
  </g>
</svg>
