<svg xmlns="http://www.w3.org/2000/svg" xmlns:xlink="http://www.w3.org/1999/xlink" width="209.258" height="106.857" viewBox="0 0 209.258 106.857">
  <defs>
    <clipPath id="clip-path">
      <path id="Path_38262" data-name="Path 38262" d="M309.945,295.68l-2.158,10.412h3.973l2.158-10.412Zm-5.239,1.815v-.035l.41-1.78H301.28l-2.158,10.412H303.1l.924-4.35c.411-1.918,1.233-2.672,2.5-2.672a4.044,4.044,0,0,1,1.645.275l.753-3.563a2.709,2.709,0,0,0-1.13-.17,3.884,3.884,0,0,0-3.082,1.884m-19.556-.343.411-1.472h-3.836l-2.157,10.412h3.972l1.164-5.515c.24-1.1.651-1.986,1.917-1.986.652,0,1.13.342,1.13.993a15.944,15.944,0,0,1-.308,1.746l-1.028,4.761h3.9l1.268-5.891a10.07,10.07,0,0,0,.274-1.987c0-2.158-1.712-2.808-3.082-2.808a4.644,4.644,0,0,0-3.63,1.746m28.528,4.384c.034,2.225,1.062,4.794,5.65,4.794a5.773,5.773,0,0,0,5.925-4.452h-3.937a2.261,2.261,0,0,1-2.022,1.714c-1.13,0-1.471-.72-1.369-2.192.034-.788.479-3.289,2.329-3.289a1.427,1.427,0,0,1,1.369,1.713h3.939c.034-2.979-2.089-4.418-5.206-4.418a6.371,6.371,0,0,0-6.678,6.131m16.472.171c0-1.643.926-3.6,2.33-3.6,1.164,0,1.575.789,1.575,1.851,0,2.192-1.062,3.562-2.364,3.562-.923,0-1.541-.514-1.541-1.816m-4.177.308c0,1.885.754,4.315,3.8,4.315a4.419,4.419,0,0,0,3.322-1.507v.035a2.925,2.925,0,0,0,.206,1.233h3.974a4.978,4.978,0,0,1,.033-2.569c.207-.925,1.644-7.843,1.644-7.843H334.98l-.308,1.336a3.192,3.192,0,0,0-3.083-1.61c-3.665,0-5.617,3.562-5.617,6.609m-51.406-4.281c1.13,0,1.678.651,1.473,1.885h-3.527a2.215,2.215,0,0,1,2.055-1.885m-6.4,3.939c0,2.773,1.643,4.76,5.479,4.76a5.66,5.66,0,0,0,5.548-3.46h-3.835a1.534,1.534,0,0,1-1.542.925,1.457,1.457,0,0,1-1.37-.754,2.842,2.842,0,0,1-.273-1.472H279.6a6.874,6.874,0,0,0,.205-1.781c0-3.151-2.329-4.589-5.1-4.589-3.013,0-6.541,1.882-6.541,6.37m-12.329-.173c0,2.261.959,5,5.616,5a5.869,5.869,0,0,0,5.925-4.624h-3.939c-.308.891-.993,1.884-1.986,1.884-1.2,0-1.507-.89-1.4-2.362.068-.754.514-3.426,2.329-3.426,1.3,0,1.4,1.336,1.4,1.85h3.939c.034-2.979-2.123-4.589-5.206-4.589a6.475,6.475,0,0,0-6.678,6.267m40.309-8.938c-1.3.034-1.747.034-1.747.034l-.685,3.083h-1.85a2.633,2.633,0,0,1,.856.959,4.092,4.092,0,0,1,.171,2.294c-.309,1.746-.686,3.426-.686,3.426-.65,2.98.548,3.938,3.357,3.938a15.047,15.047,0,0,0,2.465-.2l.582-2.809a10.393,10.393,0,0,1-1.574.137.793.793,0,0,1-.891-.822,5.979,5.979,0,0,1,.171-1.131l.685-3.151h2.671l.616-2.637h-2.808l.719-3.185s-.616.034-2.055.068m15.685-1.541c-1.233.788-1.746,2.226-1.13,3.15s2.09.993,3.356.206c1.234-.822,1.713-2.226,1.131-3.151a1.818,1.818,0,0,0-1.588-.775,3.246,3.246,0,0,0-1.768.569" transform="translate(-255.834 -290.453)" fill="#e1e1e1"/>
    </clipPath>
    <clipPath id="clip-path-2">
      <path id="Path_38266" data-name="Path 38266" d="M24.824-153.841c-.076.037-.132.069-.217.116,0,0-.324.457-.682,1.027-.331.526-.69,1.147-.918,1.593l-.109.211a4.766,4.766,0,0,1,2.309-.793,25.863,25.863,0,0,1,4.03-.058c1.258.054,2.6.137,3.94.2a10.072,10.072,0,0,0,6.809-2.619l-.09.053c-2.961,1.712-5.641,1.339-8.042.9-1.809-.33-3.633-1.013-5.246-1.013a3.99,3.99,0,0,0-1.785.376" transform="translate(-22.898 154.217)" fill="#e1e1e1"/>
    </clipPath>
    <clipPath id="clip-path-3">
      <path id="Path_38268" data-name="Path 38268" d="M43.377-157.422l.033-.016-.033.016m.033-.016c1.965-.936,4.494.2,7,.653,2.4.437,5.081.809,8.042-.9l.09-.053s-.612.057-1.517.069-2.773-.064-3.907-.16c-2.383-.2-4.182-.337-5.621-.337a9.059,9.059,0,0,0-4.086.732" transform="translate(-43.377 158.17)" fill="#e1e1e1"/>
    </clipPath>
    <clipPath id="clip-path-4">
      <path id="Path_38271" data-name="Path 38271" d="M111.383-245.8a25.829,25.829,0,0,1-4.03.058c-1.257-.053-2.6-.137-3.94-.2a10.071,10.071,0,0,0-6.809,2.62l.091-.053c2.96-1.712,5.64-1.339,8.041-.9,2.518.459,5.061,1.6,7.031.637.075-.037.131-.068.217-.116,0,0,.323-.458.681-1.027.331-.526.69-1.147.918-1.592l.109-.212a4.764,4.764,0,0,1-2.31.793" transform="translate(-96.604 246.594)" fill="#e1e1e1"/>
    </clipPath>
    <clipPath id="clip-path-5">
      <path id="Path_38273" data-name="Path 38273" d="M111.734-224.907l.033-.016-.033.016m-15.039.249-.091.053s.612-.057,1.517-.069,2.773.064,3.906.16c5.294.448,7.7.57,9.707-.394-1.965.936-4.494-.2-7-.653a18.222,18.222,0,0,0-3.287-.368,9.205,9.205,0,0,0-4.754,1.27" transform="translate(-96.604 225.927)" fill="#e1e1e1"/>
    </clipPath>
    <clipPath id="clip-path-6">
      <path id="Path_38276" data-name="Path 38276" d="M63.142-199.693a33.8,33.8,0,0,0-7.227-.052,35.639,35.639,0,0,0-2.625,2.959c2.292-.833,5.316-.591,8.439-.348a33.7,33.7,0,0,0,7.234.05,38.42,38.42,0,0,0,2.621-2.958c-2.294.834-5.318.591-8.443.349" transform="translate(-53.29 200.042)" fill="#e1e1e1"/>
    </clipPath>
  </defs>
  <g id="Group_33347" data-name="Group 33347" transform="translate(-436.235 -499.122)">
    <g id="Centrica" transform="translate(436.235 499.232)">
      <path id="Path_38261" data-name="Path 38261" d="M309.945,295.68l-2.158,10.412h3.973l2.158-10.412Zm-5.239,1.815v-.035l.41-1.78H301.28l-2.158,10.412H303.1l.924-4.35c.411-1.918,1.233-2.672,2.5-2.672a4.044,4.044,0,0,1,1.645.275l.753-3.563a2.709,2.709,0,0,0-1.13-.17,3.884,3.884,0,0,0-3.082,1.884m-19.556-.343.411-1.472h-3.836l-2.157,10.412h3.972l1.164-5.515c.24-1.1.651-1.986,1.917-1.986.652,0,1.13.342,1.13.993a15.944,15.944,0,0,1-.308,1.746l-1.028,4.761h3.9l1.268-5.891a10.07,10.07,0,0,0,.274-1.987c0-2.158-1.712-2.808-3.082-2.808a4.644,4.644,0,0,0-3.63,1.746m28.528,4.384c.034,2.225,1.062,4.794,5.65,4.794a5.773,5.773,0,0,0,5.925-4.452h-3.937a2.261,2.261,0,0,1-2.022,1.714c-1.13,0-1.471-.72-1.369-2.192.034-.788.479-3.289,2.329-3.289a1.427,1.427,0,0,1,1.369,1.713h3.939c.034-2.979-2.089-4.418-5.206-4.418a6.371,6.371,0,0,0-6.678,6.131m16.472.171c0-1.643.926-3.6,2.33-3.6,1.164,0,1.575.789,1.575,1.851,0,2.192-1.062,3.562-2.364,3.562-.923,0-1.541-.514-1.541-1.816m-4.177.308c0,1.885.754,4.315,3.8,4.315a4.419,4.419,0,0,0,3.322-1.507v.035a2.925,2.925,0,0,0,.206,1.233h3.974a4.978,4.978,0,0,1,.033-2.569c.207-.925,1.644-7.843,1.644-7.843H334.98l-.308,1.336a3.192,3.192,0,0,0-3.083-1.61c-3.665,0-5.617,3.562-5.617,6.609m-51.406-4.281c1.13,0,1.678.651,1.473,1.885h-3.527a2.215,2.215,0,0,1,2.055-1.885m-6.4,3.939c0,2.773,1.643,4.76,5.479,4.76a5.66,5.66,0,0,0,5.548-3.46h-3.835a1.534,1.534,0,0,1-1.542.925,1.457,1.457,0,0,1-1.37-.754,2.842,2.842,0,0,1-.273-1.472H279.6a6.874,6.874,0,0,0,.205-1.781c0-3.151-2.329-4.589-5.1-4.589-3.013,0-6.541,1.882-6.541,6.37m-12.329-.173c0,2.261.959,5,5.616,5a5.869,5.869,0,0,0,5.925-4.624h-3.939c-.308.891-.993,1.884-1.986,1.884-1.2,0-1.507-.89-1.4-2.362.068-.754.514-3.426,2.329-3.426,1.3,0,1.4,1.336,1.4,1.85h3.939c.034-2.979-2.123-4.589-5.206-4.589a6.475,6.475,0,0,0-6.678,6.267m40.309-8.938c-1.3.034-1.747.034-1.747.034l-.685,3.083h-1.85a2.633,2.633,0,0,1,.856.959,4.092,4.092,0,0,1,.171,2.294c-.309,1.746-.686,3.426-.686,3.426-.65,2.98.548,3.938,3.357,3.938a15.047,15.047,0,0,0,2.465-.2l.582-2.809a10.393,10.393,0,0,1-1.574.137.793.793,0,0,1-.891-.822,5.979,5.979,0,0,1,.171-1.131l.685-3.151h2.671l.616-2.637h-2.808l.719-3.185s-.616.034-2.055.068m15.685-1.541c-1.233.788-1.746,2.226-1.13,3.15s2.09.993,3.356.206c1.234-.822,1.713-2.226,1.131-3.151a1.818,1.818,0,0,0-1.588-.775,3.246,3.246,0,0,0-1.768.569" transform="translate(-255.834 -290.453)" fill="#e1e1e1"/>
      <g id="Group_33294" data-name="Group 33294" transform="translate(0 0)" clip-path="url(#clip-path)">
        <rect id="Rectangle_658" data-name="Rectangle 658" width="83.119" height="16.05" transform="translate(0 0)" fill="#e1e1e1"/>
      </g>
    </g>
    <g id="Constellation" transform="translate(552.954 499.122)">
      <path id="Path_38263" data-name="Path 38263" d="M297.354-168.887a2.952,2.952,0,0,1-2.184-.854c-.818-.831-.855-1.675-.855-3.445s.037-2.611.855-3.443a2.957,2.957,0,0,1,2.184-.853,2.92,2.92,0,0,1,3.019,2.6h-1.307a1.688,1.688,0,0,0-1.712-1.461,1.643,1.643,0,0,0-1.244.523c-.428.451-.512.961-.512,2.634s.084,2.186.512,2.638a1.648,1.648,0,0,0,1.244.523,1.721,1.721,0,0,0,1.736-1.461h1.283a2.929,2.929,0,0,1-3.019,2.6m8.218-.713a2.436,2.436,0,0,1-1.806.713,2.4,2.4,0,0,1-1.792-.713,3.176,3.176,0,0,1-.713-2.375,3.163,3.163,0,0,1,.713-2.364,2.413,2.413,0,0,1,1.792-.713,2.445,2.445,0,0,1,1.806.713,3.166,3.166,0,0,1,.712,2.364,3.179,3.179,0,0,1-.712,2.375m-3.1-2.374a2.32,2.32,0,0,0,.418,1.648,1.2,1.2,0,0,0,.878.358,1.227,1.227,0,0,0,.891-.358,2.32,2.32,0,0,0,.415-1.648,2.334,2.334,0,0,0-.415-1.652,1.228,1.228,0,0,0-.891-.343,1.2,1.2,0,0,0-.878.343,2.334,2.334,0,0,0-.418,1.652m8.43,3.016v-3.669a1.169,1.169,0,0,0-1.212-1.341,1.2,1.2,0,0,0-1.246,1.341v3.669h-1.211v-6.021h1.187v.607a2.153,2.153,0,0,1,1.6-.678,2.08,2.08,0,0,1,1.483.547,2.214,2.214,0,0,1,.605,1.7v3.847H310.9Zm4.569.071a3.31,3.31,0,0,1-2.529-.868l.8-.794a2.334,2.334,0,0,0,1.732.629c.749,0,1.32-.262,1.32-.831,0-.417-.227-.653-.809-.713l-.962-.084c-1.139-.106-1.78-.6-1.78-1.661,0-1.187,1.01-1.841,2.27-1.841a3.278,3.278,0,0,1,2.231.678l-.76.771a2.282,2.282,0,0,0-1.485-.439c-.736,0-1.093.309-1.093.771,0,.416.238.63.831.689l.845.071c1.247.108,1.9.653,1.9,1.711,0,1.259-1.068,1.911-2.506,1.911m5.386-.071a1.568,1.568,0,0,1-1.651-1.674v-3.42h-.689v-.926h.689V-176.7h1.212v1.722h1.163v.926h-1.163v3.361a.612.612,0,0,0,.666.7h.5v1.033h-.724Zm2.518-2.66c0,1.046.535,1.686,1.534,1.686a1.794,1.794,0,0,0,1.46-.617l.772.723a2.823,2.823,0,0,1-2.256.94c-1.509,0-2.707-.8-2.707-3.087,0-1.96,1.009-3.076,2.552-3.076,1.615,0,2.553,1.165,2.553,2.922v.51h-3.907Zm2.542-1.663a1.254,1.254,0,0,0-1.187-.76,1.254,1.254,0,0,0-1.2.76,1.878,1.878,0,0,0-.156.82h2.708a2.04,2.04,0,0,0-.166-.82m4.022,4.323a1.535,1.535,0,0,1-1.65-1.663v-6.791H329.5v6.721c0,.462.166.7.653.7h.534v1.033h-.749Zm3.192,0a1.536,1.536,0,0,1-1.653-1.663v-6.791h1.212v6.721c0,.462.167.7.653.7h.535v1.033h-.746Zm5.031,0v-.547a1.979,1.979,0,0,1-1.6.619,2.134,2.134,0,0,1-1.616-.546,1.862,1.862,0,0,1-.472-1.3c0-1.009.7-1.733,2.088-1.733h1.581v-.428c0-.771-.369-1.128-1.318-1.128a1.457,1.457,0,0,0-1.319.594l-.783-.749a2.427,2.427,0,0,1,2.149-.879c1.663,0,2.485.713,2.485,2.066v4.026Zm-.023-2.66h-1.389c-.739,0-1.105.308-1.105.867s.344.856,1.14.856a1.443,1.443,0,0,0,1.092-.347,1.159,1.159,0,0,0,.262-.89v-.486Zm4.307,2.66a1.568,1.568,0,0,1-1.652-1.674v-3.42h-.69v-.926h.69V-176.7H342v1.722h1.163v.926H342v3.361a.612.612,0,0,0,.664.7h.5v1.033h-.724Zm1.63-8.49h1.284v1.283h-1.284Zm.035,2.469h1.211v6.021h-1.211Zm6.61,5.38a2.436,2.436,0,0,1-1.806.713,2.407,2.407,0,0,1-1.793-.713,3.174,3.174,0,0,1-.714-2.375,3.161,3.161,0,0,1,.714-2.364,2.415,2.415,0,0,1,1.793-.713,2.444,2.444,0,0,1,1.806.713,3.166,3.166,0,0,1,.712,2.364,3.179,3.179,0,0,1-.712,2.375m-.915-4.026a1.227,1.227,0,0,0-.89-.343,1.2,1.2,0,0,0-.88.343,2.34,2.34,0,0,0-.414,1.652,2.326,2.326,0,0,0,.414,1.648,1.2,1.2,0,0,0,.88.358,1.226,1.226,0,0,0,.89-.358,2.321,2.321,0,0,0,.417-1.648,2.335,2.335,0,0,0-.417-1.652m6.413,4.668v-3.669c0-.938-.533-1.341-1.21-1.341a1.2,1.2,0,0,0-1.248,1.341v3.669h-1.211v-6.021h1.188v.607a2.145,2.145,0,0,1,1.6-.678,2.086,2.086,0,0,1,1.485.547,2.212,2.212,0,0,1,.606,1.7v3.847h-1.212Zm3.114,0a.512.512,0,0,1-.4-.155l.086-.086a.4.4,0,0,0,.32.128c.172,0,.277-.081.277-.218a.189.189,0,0,0-.056-.147.258.258,0,0,0-.153-.056l-.137-.021a.424.424,0,0,1-.216-.089.278.278,0,0,1-.089-.22.333.333,0,0,1,.377-.332.467.467,0,0,1,.349.129l-.08.081a.37.37,0,0,0-.275-.1.216.216,0,0,0-.247.218.171.171,0,0,0,.052.136.343.343,0,0,0,.159.064l.129.02a.381.381,0,0,1,.215.083.3.3,0,0,1,.1.233c0,.206-.162.333-.407.333m1.485-.01v-.893l-.322.708h-.107l-.327-.708v.893h-.126v-1.176h.126l.384.834.373-.834h.125v1.176Z" transform="translate(-268.796 183.981)" fill="#e1e1e1"/>
      <g id="Group_33298" data-name="Group 33298" transform="translate(0 8.686)">
        <g id="Group_33297" data-name="Group 33297">
          <path id="Path_38264" data-name="Path 38264" d="M24.824-153.841c-.076.037-.132.069-.217.116,0,0-.324.457-.682,1.027-.331.526-.69,1.147-.918,1.593l-.109.211a4.766,4.766,0,0,1,2.309-.793,25.863,25.863,0,0,1,4.03-.058c1.258.054,2.6.137,3.94.2a10.072,10.072,0,0,0,6.809-2.619l-.09.053c-2.961,1.712-5.641,1.339-8.042.9-1.809-.33-3.633-1.013-5.246-1.013a3.99,3.99,0,0,0-1.785.376" transform="translate(-22.898 154.217)" fill="#e1e1e1"/>
          <g id="Group_33296" data-name="Group 33296" clip-path="url(#clip-path-2)">
            <path id="Path_38265" data-name="Path 38265" d="M15.428-224.679,5.222-234.885l10.206-10.206,10.206,10.206Z" transform="translate(-6.884 236.546)" fill="#e1e1e1"/>
          </g>
        </g>
      </g>
      <g id="Group_33301" data-name="Group 33301" transform="translate(1.925 8.314)">
        <g id="Group_33300" data-name="Group 33300" transform="translate(0 0)">
          <path id="Path_38267" data-name="Path 38267" d="M43.377-157.422l.033-.016-.033.016m.033-.016c1.965-.936,4.494.2,7,.653,2.4.437,5.081.809,8.042-.9l.09-.053s-.612.057-1.517.069-2.773-.064-3.907-.16c-2.383-.2-4.182-.337-5.621-.337a9.059,9.059,0,0,0-4.086.732" transform="translate(-43.377 158.17)" fill="#e1e1e1"/>
          <g id="Group_33299" data-name="Group 33299" clip-path="url(#clip-path-3)">
            <rect id="Rectangle_659" data-name="Rectangle 659" width="15.163" height="2.398" transform="translate(0 -0.204)" fill="#e1e1e1"/>
          </g>
        </g>
      </g>
      <g id="Group_33304" data-name="Group 33304" transform="translate(6.93 0)">
        <g id="Group_33303" data-name="Group 33303" transform="translate(0 0)">
          <path id="Path_38269" data-name="Path 38269" d="M111.383-245.8a25.829,25.829,0,0,1-4.03.058c-1.257-.053-2.6-.137-3.94-.2a10.071,10.071,0,0,0-6.809,2.62l.091-.053c2.96-1.712,5.64-1.339,8.041-.9,2.518.459,5.061,1.6,7.031.637.075-.037.131-.068.217-.116,0,0,.323-.458.681-1.027.331-.526.69-1.147.918-1.592l.109-.212a4.764,4.764,0,0,1-2.31.793" transform="translate(-96.604 246.594)" fill="#e1e1e1"/>
          <g id="Group_33302" data-name="Group 33302" clip-path="url(#clip-path-4)">
            <path id="Path_38270" data-name="Path 38270" d="M86.3-337.466l10.5,10.5-10.5,10.5-10.5-10.5Z" transform="translate(-77.752 328.922)" fill="#e1e1e1"/>
          </g>
        </g>
      </g>
      <g id="Group_33307" data-name="Group 33307" transform="translate(6.93 1.943)">
        <g id="Group_33306" data-name="Group 33306" transform="translate(0 0)">
          <path id="Path_38272" data-name="Path 38272" d="M111.734-224.907l.033-.016-.033.016m-15.039.249-.091.053s.612-.057,1.517-.069,2.773.064,3.906.16c5.294.448,7.7.57,9.707-.394-1.965.936-4.494-.2-7-.653a18.222,18.222,0,0,0-3.287-.368,9.205,9.205,0,0,0-4.754,1.27" transform="translate(-96.604 225.927)" fill="#e1e1e1"/>
          <g id="Group_33305" data-name="Group 33305" clip-path="url(#clip-path-5)">
            <rect id="Rectangle_660" data-name="Rectangle 660" width="15.163" height="1.984" transform="translate(0 0)" fill="#e1e1e1"/>
          </g>
        </g>
      </g>
      <g id="Group_33310" data-name="Group 33310" transform="translate(2.857 4.377)">
        <g id="Group_33309" data-name="Group 33309" transform="translate(0 0)">
          <path id="Path_38274" data-name="Path 38274" d="M63.142-199.693a33.8,33.8,0,0,0-7.227-.052,35.639,35.639,0,0,0-2.625,2.959c2.292-.833,5.316-.591,8.439-.348a33.7,33.7,0,0,0,7.234.05,38.42,38.42,0,0,0,2.621-2.958c-2.294.834-5.318.591-8.443.349" transform="translate(-53.29 200.042)" fill="#e1e1e1"/>
          <g id="Group_33308" data-name="Group 33308" clip-path="url(#clip-path-6)">
            <path id="Path_38275" data-name="Path 38275" d="M46.445-297.66l10.807,10.807L46.445-276.046,35.638-286.853Z" transform="translate(-37.298 288.481)" fill="#e1e1e1"/>
          </g>
        </g>
      </g>
    </g>
    <g id="Direct_Energy" data-name="Direct Energy" transform="translate(436.235 541.566)">
      <path id="Path_38277" data-name="Path 38277" d="M502.333-82.017c-1.5.034-2.257.516-2.257,2.008v3.663h1.42v-3.663c0-.7.266-.8.813-.826.351-.024.474.046.787-.127.291-.148.407-.5.395-1.01-.383-.023-.693-.057-1.158-.046" transform="translate(-430.134 88.01)" fill="#e1e1e1"/>
      <path id="Path_38278" data-name="Path 38278" d="M165.5-89.287h-1.463V-94.4H165.5c1.627,0,2.011.481,2.011,2.579s-.384,2.533-2.011,2.533m0,1.272c2.6,0,3.522-1.168,3.522-3.805,0-2.878-.918-3.852-3.522-3.852h-2.928v7.657Z" transform="translate(-141.938 99.668)" fill="#e1e1e1"/>
      <path id="Path_38279" data-name="Path 38279" d="M212.194-93.06h1.419v-1.375c-.7-.081-1.419.115-1.419.882Z" transform="translate(-184.311 98.627)" fill="#e1e1e1"/>
      <rect id="Rectangle_661" data-name="Rectangle 661" width="1.429" height="5.594" transform="translate(27.872 6.06)" fill="#e1e1e1"/>
      <path id="Path_38280" data-name="Path 38280" d="M295.563-77.492a12.118,12.118,0,0,1-1.335.092c-1.221,0-1.488-.367-1.488-1.79,0-1.4.338-1.627,1.14-1.627.267,0,.661.034.859.045.662.035.953-.4.918-1.089a11.023,11.023,0,0,0-1.731-.16c-1.86,0-2.626.722-2.626,2.831,0,2.259.847,2.948,2.766,2.948a12.882,12.882,0,0,0,1.568-.116Z" transform="translate(-251.859 88.011)" fill="#e1e1e1"/>
      <path id="Path_38281" data-name="Path 38281" d="M327.66-91.455h1.011c.745,0,1.023-.332.954-1.112H327.66v-1.868c-.7-.081-1.418.115-1.418.882v.987h-1.056v1.112h1.056v2.532c0,1.4.582,2.008,2.057,2.008a9.567,9.567,0,0,0,1.2-.08l-.034-1.113c-.268.022-.663.046-.988.046-.546,0-.814-.184-.814-.779Z" transform="translate(-280.795 98.627)" fill="#e1e1e1"/>
      <path id="Path_38282" data-name="Path 38282" d="M382.389-89.24h-3.72v-2.087h2.371c.766,0,1.15-.423,1.045-1.226h-3.416v-1.892h2.673c.767,0,1.15-.424,1.047-1.226H377.2v7.657h5.184Z" transform="translate(-325.214 99.668)" fill="#e1e1e1"/>
      <path id="Path_38283" data-name="Path 38283" d="M462.533-80.875c.743,0,1.044.265,1.044.712,0,.413-.068.688-.94.688a9.306,9.306,0,0,1-1.509-.091c.072-1.091.491-1.31,1.4-1.31m.128,3.476c-.977,0-1.39-.246-1.507-1.108a10.389,10.389,0,0,0,1.646.075c1.6-.022,2.1-.584,2.1-1.764,0-1.113-.709-1.824-2.325-1.824-1.87,0-2.9.826-2.9,2.889,0,2.2.987,2.89,2.87,2.89a11.136,11.136,0,0,0,1.986-.2l-.069-1.134a11.7,11.7,0,0,1-1.8.172" transform="translate(-395.635 88.011)" fill="#e1e1e1"/>
      <path id="Path_38284" data-name="Path 38284" d="M254.4-80.875c.743,0,1.046.265,1.046.712,0,.413-.07.688-.941.688a9.312,9.312,0,0,1-1.51-.091c.073-1.091.491-1.31,1.405-1.31m.127,3.476c-.977,0-1.388-.246-1.507-1.108a10.407,10.407,0,0,0,1.647.075c1.6-.022,2.1-.584,2.1-1.764,0-1.113-.709-1.824-2.324-1.824-1.87,0-2.9.826-2.9,2.889,0,2.2.988,2.89,2.87,2.89a11.162,11.162,0,0,0,1.988-.2l-.071-1.134a11.7,11.7,0,0,1-1.8.172" transform="translate(-217.912 88.011)" fill="#e1e1e1"/>
      <path id="Path_38285" data-name="Path 38285" d="M420.611-80.808c.953,0,1.266.206,1.266.951v3.507H423.3v-3.531c0-1.616-.861-2.131-2.686-2.131-1.707,0-2.683.515-2.683,2.131v3.531h1.417v-3.507c0-.745.313-.951,1.266-.951" transform="translate(-359.988 88.004)" fill="#e1e1e1"/>
      <path id="Path_38286" data-name="Path 38286" d="M526.174-77.921c-.662,0-.883-.4-.883-1.537,0-1.307.361-1.7,1.208-1.7a7.954,7.954,0,0,1,1.237.1c0,.78,0,1.882-.005,2.8a4.654,4.654,0,0,1-1.557.332m.35-4.392c-1.907,0-2.674.711-2.674,2.924,0,1.915.6,2.74,1.918,2.74a5.7,5.7,0,0,0,1.963-.47v.5c0,.769-.511.871-1.08.893a14.141,14.141,0,0,1-1.906-.09l-.093,1.124a17.684,17.684,0,0,0,1.952.114c1.673-.037,2.557-.516,2.557-2.008v-5.41a13.953,13.953,0,0,0-2.637-.322" transform="translate(-450.435 88.261)" fill="#e1e1e1"/>
      <path id="Path_38287" data-name="Path 38287" d="M571.159-82.273h-1.416v3.783a5.748,5.748,0,0,1-1.777.482.585.585,0,0,1-.628-.631V-82.33c-.7-.081-1.417.115-1.417.883v2.854c0,1.217.429,1.87,1.592,1.87a6.23,6.23,0,0,0,2.231-.619v.733c0,.769-.558.871-1.162.895a14.982,14.982,0,0,1-1.964-.092l-.14,1.159a18.321,18.321,0,0,0,2.021.114c1.743-.034,2.66-.515,2.66-2.005Z" transform="translate(-486.358 88.29)" fill="#e1e1e1"/>
      <path id="Path_38288" data-name="Path 38288" d="M230.057-82.017c-1.5.034-2.258.516-2.258,2.008v3.663h1.419v-3.663c0-.7.268-.8.816-.826.348-.024.472.046.785-.127.29-.148.407-.5.4-1.01-.385-.023-.693-.057-1.159-.046" transform="translate(-197.636 88.01)" fill="#e1e1e1"/>
      <path id="Path_38289" data-name="Path 38289" d="M610.328-52.391a.669.669,0,0,1,.7.693.669.669,0,0,1-.7.693.673.673,0,0,1-.7-.693.673.673,0,0,1,.7-.693m0,1.233a.506.506,0,0,0,.535-.539.507.507,0,0,0-.535-.539.508.508,0,0,0-.54.539.507.507,0,0,0,.54.539m.023-.447h-.132v.212h-.108v-.635h.25c.144,0,.2.06.2.168v.088a.154.154,0,0,1-.091.149l.17.23h-.132Zm.008-.325h-.14v.225h.14c.068,0,.092-.026.092-.072v-.078c0-.059-.027-.075-.092-.075" transform="translate(-523.68 62.711)" fill="#e1e1e1"/>
      <path id="Path_38290" data-name="Path 38290" d="M29.279-115.15a11.224,11.224,0,0,0-.731-4.59,11.327,11.327,0,0,1-.847,1.551,9.855,9.855,0,0,1,.441-4.838H21.334v7.453a21.232,21.232,0,0,0,7.945.424" transform="translate(-21.334 123.027)" fill="#e1e1e1"/>
      <path id="Path_38291" data-name="Path 38291" d="M28.755-62.152c-.114-.084.5-2.674.453-2.81s-2.055-.087-3.513-.4c0,0,.991.722.758.72a11.324,11.324,0,0,1-5.12-.926v7.838h7.349a31.625,31.625,0,0,0,.865-4.971,4.6,4.6,0,0,1-.793.551" transform="translate(-21.334 73.964)" fill="#e1e1e1"/>
      <path id="Path_38292" data-name="Path 38292" d="M72.128-123.027a7.414,7.414,0,0,0,.072,2.721c.315-.419.655-.995.786-.936a10.593,10.593,0,0,1,.765,2.834,28.255,28.255,0,0,1,.271,2.852c.132.034,1.307-.871,1.434-.886s.007.668-.493,1.209a12.05,12.05,0,0,1,6.123-1.058v-6.737Z" transform="translate(-64.635 123.027)" fill="#e1e1e1"/>
      <path id="Path_38293" data-name="Path 38293" d="M79.021-71s-2.764.156-2.823.209-.1.73-.374,1.734c0,0,.805-.931.922-.909a20.476,20.476,0,0,1-1.969,6.339H83.42v-8.846c-1.869.245-4.195.7-4.4,1.471" transform="translate(-66.969 79.855)" fill="#e1e1e1"/>
    </g>
    <g id="Energia_Group" data-name="Energia Group" transform="translate(436.235 582.83)">
      <path id="path8" d="M472.032,355.028c1.1-.016,1.611-.636,1.674-1.707l.068-1.307h-.017a2.273,2.273,0,0,1-1.889.977c-1.487,0-2.416-1.257-2.556-3.266-.26-3.7,1.811-5.344,4.872-5.344a8.742,8.742,0,0,1,2.078.207l-.42,8.189-.023.449c-.119,2.073-1.057,3.684-3.552,3.714h-.018c-2.334-.032-2.7-1.156-2.745-2.185v-.72l.085.007a3.337,3.337,0,0,0,2.44.987h0Zm1.463-8.747c-1.314,0-2.2,1.013-2.052,3.18.079,1.119.452,1.7,1.167,1.7a1.754,1.754,0,0,0,1.246-.716l.2-4.125a3.549,3.549,0,0,0-.563-.035" transform="translate(-439.927 -340.976)" fill="#e1e1e1"/>
      <path id="path10" d="M825.462,355.028c1.1-.016,1.611-.636,1.674-1.707l.068-1.307h-.018a2.274,2.274,0,0,1-1.889.977c-1.487,0-2.416-1.257-2.556-3.266-.26-3.7,1.814-5.344,4.872-5.344a8.742,8.742,0,0,1,2.078.207l-.42,8.189-.024.449c-.118,2.073-1.057,3.684-3.551,3.714h-.019c-2.333-.032-2.7-1.156-2.745-2.185v-.72l.085.007a3.338,3.338,0,0,0,2.44.987h0Zm1.463-8.747c-1.314,0-2.2,1.013-2.052,3.18.078,1.119.452,1.7,1.167,1.7a1.753,1.753,0,0,0,1.245-.716l.2-4.125a3.531,3.531,0,0,0-.563-.035" transform="translate(-771.246 -340.976)" fill="#e1e1e1"/>
      <path id="path12" d="M598.728,291.231a1.352,1.352,0,0,1,1.333-1.251,1.148,1.148,0,0,1,1.175,1.251,1.381,1.381,0,0,1-1.349,1.264,1.164,1.164,0,0,1-1.163-1.166q0-.049,0-.1m1.67,10.553.1-2.2.318-5.994a9.141,9.141,0,0,0-2.119-.209l-.362,6.992a1.309,1.309,0,0,0,1.423,1.409Z" transform="translate(-560.897 -289.98)" fill="#e1e1e1"/>
      <path id="path14" d="M658.579,352.014a2.34,2.34,0,0,1-1.912.977c-1.485,0-2.386-1.256-2.525-3.266-.259-3.705,1.807-5.344,4.861-5.344a8.738,8.738,0,0,1,2.075.207l-.42,8.2h-.681a1.464,1.464,0,0,1-1.38-.768Zm-.261-5.732c-1.307,0-2.2,1.013-2.045,3.18.078,1.119.45,1.7,1.165,1.7a1.75,1.75,0,0,0,1.241-.716l.2-4.125a3.533,3.533,0,0,0-.563-.035" transform="translate(-613.194 -340.976)" fill="#e1e1e1"/>
      <path id="path16" d="M392.516,351.525h-.661a1.354,1.354,0,0,1-1.464-1.47l.338-6.721a9.346,9.346,0,0,1,2-.206l-.062,1.126h.018a3.06,3.06,0,0,1,2.539-1.214l-.106,2.035a2.8,2.8,0,0,0-2.311.84l-.292,5.61" transform="translate(-365.963 -339.72)" fill="#e1e1e1"/>
      <path id="path18" d="M952.937,351.525h-.662a1.354,1.354,0,0,1-1.464-1.47l.34-6.721a9.349,9.349,0,0,1,2-.206l-.063,1.126h.018a3.06,3.06,0,0,1,2.539-1.214l-.106,2.035a2.8,2.8,0,0,0-2.31.84l-.294,5.61" transform="translate(-891.32 -339.72)" fill="#e1e1e1"/>
      <path id="path20" d="M130.289,351.308a1.364,1.364,0,0,0,1.475,1.473h.664l.25-4.921c.131-2.456-.756-3.48-2.911-3.48a5.851,5.851,0,0,0-3.934,1.553l-.28,5.374a1.364,1.364,0,0,0,1.473,1.473h.663l.313-5.961a2.034,2.034,0,0,1,1.409-.6c1.232,0,1.081,1.3,1.081,1.3Z" transform="translate(-117.694 -340.976)" fill="#e1e1e1"/>
      <path id="path22" d="M3.185,349.492H1.926a1.881,1.881,0,0,0,2.05,1.714,3.5,3.5,0,0,0,2.412-.788h.073l-.043.647c-.069,1.064-.813,1.886-2.934,1.886a3.666,3.666,0,0,1-3.5-4.187c.18-2.78,1.868-4.423,4.071-4.423a2.784,2.784,0,0,1,2.882,3.128c-.1,1.529-1.2,2.023-3.754,2.023m.591-3.511a1.854,1.854,0,0,0-1.733,1.765l-.033.278h.86c1.817,0,2.247-.217,2.284-.8.055-.835-.491-1.251-1.376-1.251" transform="translate(0.029 -340.939)" fill="#e1e1e1"/>
      <path id="path24" d="M264.068,312.863s-.009.474-.027.573c-.226,1.225-1.412,1.784-2.829,1.784a4.141,4.141,0,0,1-3.088-1.37,3.772,3.772,0,0,1-.988-2.753,4.92,4.92,0,0,1,.575-2.244,3.989,3.989,0,0,1-.086-1.752,4.718,4.718,0,0,1,1.42-2.648,4.931,4.931,0,0,1,3.21-1.373,3.861,3.861,0,0,1,1.948.429,2.573,2.573,0,0,1,.757.59.469.469,0,0,1,.081.6.4.4,0,0,1-.4.085,6.092,6.092,0,0,0-1.612-.322,3.941,3.941,0,0,0-2.239.7,3.4,3.4,0,0,0-1.376,1.826,4.5,4.5,0,0,1,2.484-.8,2.491,2.491,0,0,1,2.538,2.677,2.975,2.975,0,0,1-.763,1.881,2.85,2.85,0,0,1-2.147.989,3.784,3.784,0,0,1-2.553-.91,2.9,2.9,0,0,0,2.808,2.805,3.342,3.342,0,0,0,2.228-.766Zm-4.236-3.675a2.347,2.347,0,0,0,2.061.546,1.123,1.123,0,0,0,.858-.988c-.039-.4-.4-.652-.984-.651a2.816,2.816,0,0,0-2.086.947Z" transform="translate(-241.047 -302.26)" fill="#e1e1e1"/>
      <path id="path26" d="M1160.088,344.523c1.406-.265,2.052.034,1.981,1.43-.421,4.4-.324,5.263.88,5.263a1.627,1.627,0,0,0,1.2-.716l.327-6.051a8.776,8.776,0,0,1,2.079.206l-.418,8.177h-.688a1.465,1.465,0,0,1-1.383-.766h-.018a2.346,2.346,0,0,1-1.913.976c-1.488,0-2.481-1.274-2.377-3.261Z" transform="translate(-1087.192 -341.029)" fill="#e1e1e1"/>
      <path id="path28" d="M1042.97,348.686c-.1,2.825-1.413,4.305-3.5,4.305-1.837,0-3.3-1.48-3.206-4.305.091-2.6,1.422-4.306,3.5-4.306C1041.725,344.38,1043.057,346.2,1042.97,348.686Zm-3.3-2.541c-.719,0-1.369,1.117-1.4,2.541-.042,1.78.438,2.541,1.282,2.541.722,0,1.366-.985,1.4-2.541.037-1.582-.388-2.541-1.282-2.541Z" transform="translate(-971.421 -340.976)" fill="#e1e1e1"/>
      <path id="path30" d="M1287.687,343.04a2.527,2.527,0,0,0-1.927,1.009l.041-.921a9.425,9.425,0,0,0-2.011.206l-.51,10.626a1.358,1.358,0,0,0,1.473,1.47h.492l.188-4.152a2.64,2.64,0,0,0,1.543.454c1.877,0,2.927-1.673,3.233-3.333C1290.66,345.956,1289.91,343.04,1287.687,343.04Zm.434,4.886c-.366,2.561-2.152,2.235-2.623,1.921l.176-3.879c.216-.594.808-1.178,1.278-1.178,1.179,0,1.367,1.77,1.17,3.136Z" transform="translate(-1202.989 -339.72)" fill="#e1e1e1"/>
    </g>
    <g id="Eversource" transform="translate(552.955 547.461)">
      <path id="Path_38294" data-name="Path 38294" d="M247.142,227.966a5.523,5.523,0,0,0-4.953,2.867h9.9a5.507,5.507,0,0,0-4.947-2.867" transform="translate(-197.9 -227.966)" fill="#e1e1e1"/>
      <path id="Path_38295" data-name="Path 38295" d="M247.278,263.6a5.486,5.486,0,0,0,4.9-2.865h-9.81a5.5,5.5,0,0,0,4.907,2.865" transform="translate(-198.036 -252.426)" fill="#e1e1e1"/>
      <path id="Path_38296" data-name="Path 38296" d="M250.641,244.083H239.8a5.715,5.715,0,0,0-.18,1.428,5.959,5.959,0,0,0,.209,1.573h10.786a5.941,5.941,0,0,0,.209-1.573,5.776,5.776,0,0,0-.179-1.428" transform="translate(-195.98 -239.997)" fill="#e1e1e1"/>
      <path id="Path_38297" data-name="Path 38297" d="M67.5,228.685h6.526v1.8H69.583v2.669h4.076v1.795H69.583V237.7h4.678v1.8H67.5Z" transform="translate(-67.5 -228.502)" fill="#e1e1e1"/>
      <path id="Path_38298" data-name="Path 38298" d="M96.517,228.685h2.258l2.289,6.891c.206.631.411,1.612.411,1.612h.03s.206-.981.411-1.612l2.32-6.891h2.221l-3.894,10.808h-2.138Z" transform="translate(-89.161 -228.502)" fill="#e1e1e1"/>
      <path id="Path_38299" data-name="Path 38299" d="M139.79,228.685h6.525v1.8h-4.442v2.669h4.2v1.795h-4.2V237.7h4.678v1.8H139.79Z" transform="translate(-121.462 -228.502)" fill="#e1e1e1"/>
      <path id="Path_38300" data-name="Path 38300" d="M172.784,228.685h3.536a5.524,5.524,0,0,1,2.062.252,3.05,3.05,0,0,1,1.908,3.034,3.11,3.11,0,0,1-1.779,2.936v.031a4.425,4.425,0,0,1,.366.571l2.2,3.986h-2.335l-2.1-3.971h-1.772v3.971h-2.084Zm2.084,1.8v3.247h1.658a1.514,1.514,0,0,0,1.643-1.643,1.408,1.408,0,0,0-.724-1.4,2.744,2.744,0,0,0-1.261-.205Z" transform="translate(-146.092 -228.502)" fill="#e1e1e1"/>
      <path id="Path_38301" data-name="Path 38301" d="M208.782,236.074a4.363,4.363,0,0,0,2.669,1.14c.775,0,1.5-.387,1.5-1.224,0-1.811-5.05-1.536-5.05-4.86,0-1.841,1.567-3.164,3.658-3.164a4.666,4.666,0,0,1,3.271,1.156l-.9,1.711a3.971,3.971,0,0,0-2.382-.943c-.844,0-1.55.48-1.55,1.209,0,1.794,5.049,1.377,5.049,4.837,0,1.734-1.33,3.2-3.62,3.2a5.316,5.316,0,0,1-3.764-1.483Z" transform="translate(-172.123 -227.965)" fill="#e1e1e1"/>
      <path id="Path_38302" data-name="Path 38302" d="M288.1,228.685h2.083v6.906a2.308,2.308,0,0,0,4.61-.015v-6.891h2.083v6.906c0,2.419-1.756,4.084-4.38,4.084-2.64,0-4.4-1.665-4.4-4.084Z" transform="translate(-232.172 -228.502)" fill="#e1e1e1"/>
      <path id="Path_38303" data-name="Path 38303" d="M329.1,228.685h3.538a5.515,5.515,0,0,1,2.06.252,3.05,3.05,0,0,1,1.909,3.034,3.11,3.11,0,0,1-1.781,2.936v.031a4.4,4.4,0,0,1,.366.571l2.2,3.986H335.05l-2.1-3.971h-1.772v3.971H329.1Zm2.084,1.8v3.247h1.658a1.515,1.515,0,0,0,1.643-1.643,1.408,1.408,0,0,0-.724-1.4,2.748,2.748,0,0,0-1.262-.205Z" transform="translate(-262.773 -228.502)" fill="#e1e1e1"/>
      <path id="Path_38304" data-name="Path 38304" d="M368.289,227.966a5.6,5.6,0,0,1,3.993,1.476l-.989,1.566a4.73,4.73,0,0,0-2.914-1.141,3.421,3.421,0,0,0-3.519,3.605,3.563,3.563,0,0,0,3.528,3.757,4.652,4.652,0,0,0,3.1-1.369l1.088,1.514a5.863,5.863,0,0,1-4.275,1.765,5.586,5.586,0,1,1-.014-11.173" transform="translate(-287.863 -227.966)" fill="#e1e1e1"/>
      <path id="Path_38305" data-name="Path 38305" d="M405.835,228.685h6.525v1.8h-4.442v2.669h4.076v1.795h-4.076V237.7H412.6v1.8h-6.76Z" transform="translate(-320.057 -228.502)" fill="#e1e1e1"/>
    </g>
    <g id="Thames_Water" data-name="Thames Water" transform="translate(552.955 577.001)">
      <path id="Path_38313" data-name="Path 38313" d="M255.235,24.632h-3.158v.9h1.063v3.9H254.2v-3.9h1.07v-.9h-.037" transform="translate(-248.151 -17.49)" fill="#e1e1e1"/>
      <path id="Path_38314" data-name="Path 38314" d="M276.135,24.656h-.991v4.792h1.027V27.634c0-.385.066-1,.511-1,.333,0,.4.19.4.513v2.305h1.027V27.126c0-.9-.372-1.364-1.078-1.364a1.126,1.126,0,0,0-.858.359V24.656h-.037" transform="translate(-267.622 -17.51)" fill="#e1e1e1"/>
      <path id="Path_38315" data-name="Path 38315" d="M298.087,34.361c0-.474.456-.588.888-.631V34.1c0,.323-.089.679-.484.679a.379.379,0,0,1-.4-.419M297.339,32l-.021.012.2.759.039-.017a2.294,2.294,0,0,1,.923-.221c.329,0,.455.117.455.447V33.1c-.785.057-1.814.273-1.814,1.323a.987.987,0,0,0,1.042,1.092,1.076,1.076,0,0,0,.876-.4c.012.1.038.325.038.325h.907V33.047c0-.918-.381-1.294-1.287-1.294A3.532,3.532,0,0,0,297.339,32Z" transform="translate(-286.17 -23.501)" fill="#e1e1e1"/>
      <path id="Path_38316" data-name="Path 38316" d="M322.384,32.277a.87.87,0,0,0-.851-.524,1.038,1.038,0,0,0-.883.485c-.013-.117-.044-.413-.044-.413h-.9v3.614h1.028V33.6c0-.652.143-.983.443-.983s.36.213.36.528v2.3h1.027V33.588c0-.637.15-.975.448-.975.333,0,.36.244.36.534v2.291H324.4V33.053c0-.849-.359-1.3-1.012-1.3a1.219,1.219,0,0,0-1.006.524" transform="translate(-305.239 -23.501)" fill="#e1e1e1"/>
      <path id="Path_38317" data-name="Path 38317" d="M354.456,32.477c.306,0,.471.247.5.736H353.89c.049-.476.239-.736.565-.736m-1.541,1.191a1.623,1.623,0,0,0,1.677,1.843,4.09,4.09,0,0,0,1.187-.182l.033-.01-.191-.789-.038.011a2.6,2.6,0,0,1-.854.167.762.762,0,0,1-.793-.766h1.986v-.369c0-1.146-.524-1.82-1.443-1.82C353.306,31.753,352.915,32.8,352.915,33.668Z" transform="translate(-333.27 -23.501)" fill="#e1e1e1"/>
      <path id="Path_38318" data-name="Path 38318" d="M374.442,32.837c0,.663.535.948.964,1.178.243.143.475.266.475.448,0,.225-.329.246-.417.246a2.527,2.527,0,0,1-.819-.173l-.038-.011-.222.8.034.01a3.632,3.632,0,0,0,1.076.175c.939,0,1.407-.381,1.407-1.106s-.523-.984-.954-1.2c-.274-.122-.476-.212-.476-.393,0-.24.3-.252.367-.252a2.015,2.015,0,0,1,.68.128l.038.014.191-.8-.034-.01a3.512,3.512,0,0,0-.956-.146c-.473,0-1.316.141-1.316,1.084" transform="translate(-351.392 -23.501)" fill="#e1e1e1"/>
      <path id="Path_38319" data-name="Path 38319" d="M273.959,65.73h-1.035s-.508,2.608-.566,2.909c-.071-.3-.707-2.909-.707-2.909h-1.083s-.607,2.611-.679,2.909c-.058-.3-.566-2.909-.566-2.909h-1.082l1.09,4.541H270.4s.656-2.68.72-2.92c.065.241.693,2.92.693,2.92h1.1l1.089-4.541h-.047" transform="translate(-261.796 -52.181)" fill="#e1e1e1"/>
      <path id="Path_38320" data-name="Path 38320" d="M305.316,73.8c0-.446.456-.56.915-.6v.365c0,.3-.089.684-.512.684-.256,0-.4-.163-.4-.447m-.738-2.332-.031.012.223.731.039-.017a2.525,2.525,0,0,1,.9-.192c.357,0,.483.116.483.419v.132c-.813.068-1.841.283-1.841,1.306a1.009,1.009,0,0,0,1.041,1.119,1.133,1.133,0,0,0,.9-.4c.011.1.032.324.032.324h.882V72.5c0-.9-.38-1.273-1.283-1.273A3.435,3.435,0,0,0,304.578,71.472Z" transform="translate(-292.272 -56.819)" fill="#e1e1e1"/>
      <path id="Path_38321" data-name="Path 38321" d="M326.461,65.752h-1.012v.926h-.441v.832h.441V69.1c0,.771.184,1.249,1.1,1.249a3.131,3.131,0,0,0,.667-.08l.033-.007-.1-.813-.342.04c-.255,0-.3-.1-.3-.4V67.51h.7v-.832h-.7v-.926h-.037" transform="translate(-309.713 -52.2)" fill="#e1e1e1"/>
      <path id="Path_38322" data-name="Path 38322" d="M342.791,71.948c.329,0,.466.218.494.735h-1.063c.048-.5.238-.735.569-.735m-1.547,1.192a1.63,1.63,0,0,0,1.706,1.842,4.052,4.052,0,0,0,1.16-.182l.033-.01-.192-.8-.038.014a2.467,2.467,0,0,1-.826.172.786.786,0,0,1-.82-.765h2v-.37c0-1.147-.537-1.82-1.446-1.82C341.664,71.224,341.244,72.243,341.244,73.139Z" transform="translate(-323.418 -56.819)" fill="#e1e1e1"/>
      <path id="Path_38323" data-name="Path 38323" d="M366.061,71.31a1.018,1.018,0,0,0-1.056.63c-.013-.165-.044-.571-.044-.571h-.909v3.613h1.055V73.47c0-.726.254-1.049.89-1.082l.034,0,.069-1.078h-.04" transform="translate(-342.67 -56.89)" fill="#e1e1e1"/>
      <path id="Path_38324" data-name="Path 38324" d="M259.413,103.687a8.663,8.663,0,0,1,3.259.74c2.2.916,5.913,1.243,8.152-3.113.027-.048-.015-.061-.044-.029a6.552,6.552,0,0,1-7.6,1.48,9.247,9.247,0,0,0-7.531,0,6.555,6.555,0,0,1-7.6-1.48c-.03-.033-.072-.02-.045.029,2.241,4.356,5.948,4.029,8.151,3.113a8.7,8.7,0,0,1,3.26-.74" transform="translate(-244.703 -82.179)" fill="#e1e1e1"/>
      <path id="Path_38325" data-name="Path 38325" d="M276.328,149.535a15.881,15.881,0,0,0,8.259-2.377c.016-.01.008-.035-.014-.025a7.653,7.653,0,0,1-2.607.637,8.168,8.168,0,0,1-3.217-.541,8.359,8.359,0,0,0-2.421-.5,7.967,7.967,0,0,0-2.423.5,8.092,8.092,0,0,1-3.216.541,7.758,7.758,0,0,1-2.606-.637c-.023-.01-.031.015-.015.025a15.882,15.882,0,0,0,8.26,2.377" transform="translate(-261.642 -120.556)" fill="#e1e1e1"/>
      <path id="Path_38326" data-name="Path 38326" d="M241.578,3.67c1.6,0,3.414,1.149,5.879,1.16,3.922.018,8.7-3.583,8.808-11.555a14.682,14.682,0,0,0-11.591-14.458c-.046-.008-.064.059,0,.077A14.481,14.481,0,0,1,255.08-7.235c0,4.476-2.488,10.105-7.634,10.238-1.963.05-3.976-1.356-5.868-1.356S237.673,3.054,235.711,3c-5.147-.133-7.623-5.762-7.623-10.238a14.472,14.472,0,0,1,10.4-13.872c.06-.017.042-.085,0-.077A14.681,14.681,0,0,0,226.893-6.725C227,1.247,231.778,4.848,235.7,4.83c2.465-.011,4.277-1.16,5.878-1.16" transform="translate(-226.892 21.184)" fill="#e1e1e1"/>
    </g>
  </g>
</svg>
