<svg xmlns="http://www.w3.org/2000/svg" width="200.119" height="102.866" viewBox="0 0 200.119 102.866">
  <g id="Group_33337" data-name="Group 33337" transform="translate(-79 -99.444)">
    <g id="HSBC" transform="translate(79 100.623)">
      <g id="g11" transform="translate(0 0.226)">
        <path id="path9" d="M13.589,11.02c-.01,0,0,5.462,0,5.462a1.331,1.331,0,0,1-1.362,1.289h-.74v.278h6.266v-.278h-.74a1.344,1.344,0,0,1-1.363-1.289V4.314a1.343,1.343,0,0,1,1.363-1.287h.74v-.28H11.486v.28h.74a1.336,1.336,0,0,1,1.362,1.287v5.933H6.164V4.314A1.35,1.35,0,0,1,7.527,3.027h.74v-.28H2v.28h.741A1.344,1.344,0,0,1,4.1,4.314V16.482a1.338,1.338,0,0,1-1.363,1.289H2v.278H8.266v-.278h-.74a1.344,1.344,0,0,1-1.363-1.289s.01-5.462,0-5.462Z" transform="translate(-2 -2.747)" fill="#e1e1e1"/>
      </g>
      <g id="g15" transform="translate(16.802 0)">
        <path id="path13" d="M67.193,13.524a4.279,4.279,0,0,1-1.277,2.961A4.706,4.706,0,0,1,62.7,17.741a8.568,8.568,0,0,1-3.5-1.052,1.162,1.162,0,0,0-.945.043,1.184,1.184,0,0,0-.515.966H57.5V12.4h.236a5.685,5.685,0,0,0,1.449,3.133,4.1,4.1,0,0,0,3.637,1.17,2.784,2.784,0,0,0,2.2-2.892,2.481,2.481,0,0,0-1.292-2.065c-.707-.462-1.711-1.118-2.662-1.749a17.685,17.685,0,0,1-2.6-2.007,3.133,3.133,0,0,1-.9-2.168A3.668,3.668,0,0,1,58.652,3.2,4.369,4.369,0,0,1,61.785,2a5.921,5.921,0,0,1,2.855.922,1.142,1.142,0,0,0,1,0c.226-.129.376-.322.44-.837h.236V7.107h-.236a5.872,5.872,0,0,0-1.417-3.3,3.242,3.242,0,0,0-2.9-.794c-1.38.268-2.051.891-2.178,2a2.1,2.1,0,0,0,.622,1.674c.537.644,3.941,2.573,5.483,3.906a3.9,3.9,0,0,1,1.5,2.941" transform="translate(-57.504 -2)" fill="#e1e1e1"/>
      </g>
      <g id="g19" transform="translate(27.311 0.311)">
        <path id="path17" d="M96.389,17.379a5.428,5.428,0,0,0,4.484-.428,3.435,3.435,0,0,0-.339-5.7c-.959-.62-3.351-.577-4.146-.39Zm0-7.376a6.861,6.861,0,0,0,3.82-.3,3.26,3.26,0,0,0,1.563-3.434,2.96,2.96,0,0,0-1.2-1.866,5.2,5.2,0,0,0-4.184-.473Zm4.936.429c2.727.936,3.505,2.862,3,4.845-.594,2.332-3.224,2.806-4.077,2.919-.385.05-1.368.046-2.339.046-1.734,0-3.927,0-5.688,0v-.279h.9a1.248,1.248,0,0,0,1.228-1.212V4.53a1.256,1.256,0,0,0-1.223-1.223h-.9v-.28h5.44a11.933,11.933,0,0,1,2.479.215c.772.15,3.026.816,3.562,2.918a3.548,3.548,0,0,1-2.382,4.271" transform="translate(-92.22 -3.027)" fill="#e1e1e1"/>
      </g>
      <g id="g23" transform="translate(40.953 0.283)">
        <path id="path21" d="M150.091,3.147l.221,5.182L150,8.341a4.544,4.544,0,0,0-1.267-2.834,5.959,5.959,0,0,0-1.009-.832,4.881,4.881,0,0,0-3.476-.713,4.948,4.948,0,0,0-3.842,3.2,9.233,9.233,0,0,0,.044,7.04,5.463,5.463,0,0,0,4.163,3.025,6.075,6.075,0,0,0,5.859-2.6l.322.214c-1.567,2.211-3.649,3.627-6.03,3.6a7.794,7.794,0,0,1-5.837-2.7,8.03,8.03,0,0,1-1.64-4.786,9.689,9.689,0,0,1,.888-4.271,7.33,7.33,0,0,1,5.58-3.7,6.879,6.879,0,0,1,4.368.826c.552.317.863.354,1.163.226a.879.879,0,0,0,.542-.891Z" transform="translate(-137.287 -2.936)" fill="#e1e1e1"/>
      </g>
      <g id="g29" transform="translate(59.023 0.24)">
        <path id="path27" d="M196.981,10.437l7.645,7.644V2.792Z" transform="translate(-196.981 -2.792)" fill="#e1e1e1"/>
      </g>
      <g id="g33" transform="translate(66.669 7.884)">
        <path id="path31" d="M222.239,35.688h15.288l-7.644-7.644Z" transform="translate(-222.239 -28.044)" fill="#e1e1e1"/>
      </g>
      <g id="g37" transform="translate(66.669 0.239)">
        <path id="path35" d="M229.884,10.436l7.644-7.645H222.24Z" transform="translate(-222.24 -2.791)" fill="#e1e1e1"/>
      </g>
      <g id="g41" transform="translate(81.958 0.24)">
        <path id="path39" d="M272.746,2.792V18.08l7.645-7.644Z" transform="translate(-272.746 -2.792)" fill="#e1e1e1"/>
      </g>
    </g>
    <g id="lv_" data-name="lv=" transform="translate(194.541 140.708)">
      <path id="Path_38169" data-name="Path 38169" d="M318.712,326.391v-8.025H313.3v13.162h13.195v-5.137Z" transform="translate(-313.299 -318.269)" fill="#e1e1e1"/>
      <rect id="Rectangle_648" data-name="Rectangle 648" width="13.201" height="5.137" transform="translate(34.447 8.122)" fill="#e1e1e1"/>
      <rect id="Rectangle_649" data-name="Rectangle 649" width="13.201" height="5.137" transform="translate(34.447 0.101)" fill="#e1e1e1"/>
      <path id="Path_38170" data-name="Path 38170" d="M441.414,322.069a2.6,2.6,0,0,0,.758-1.818,2.889,2.889,0,0,0-.832-1.946,2.719,2.719,0,0,0-2.117-.746,2.574,2.574,0,0,0-1.6.764l-4.861,5.137-4.893-5.151a2.578,2.578,0,0,0-1.535-.741,2.714,2.714,0,0,0-2.186.759,2.949,2.949,0,0,0-.826,2.047,2.564,2.564,0,0,0,.761,1.747l8.681,9Z" transform="translate(-410.186 -317.549)" fill="#e1e1e1"/>
    </g>
    <g id="AA" transform="translate(194.541 180.794)">
      <g id="AA-2" data-name="AA" transform="translate(0 0)">
        <path id="path3009" d="M62.386,140.17l1.059-2.123H68.5l.023,2.1.023,2.1,3.97.022,3.97.022,1.063-2.124,1.063-2.124h5.1v4.247H87.44v-21.32L84.659,121l-2.781.022-4.8,10.5-4.8,10.5-.022-10.521-.022-10.521L69.474,121l-2.763.022-4.835,10.574c-2.659,5.816-4.837,10.6-4.838,10.638a18.126,18.126,0,0,0,2.143.064h2.146Zm3.134-6.646c.623-1.384,2.924-6.4,2.951-6.426s.03,1.538.03,3.461v3.5H65.28Zm14.957.5c0-.025,1.975-4.352,3.067-6.719.155-.337.157-.308.159,3.206l0,3.546H82.09c-.888,0-1.614-.015-1.614-.033Z" transform="translate(-57.038 -120.973)" fill="#e1e1e1"/>
      </g>
    </g>
    <g id="Allstate" transform="translate(194.542 99.444)">
      <path id="Path_38173" data-name="Path 38173" d="M86.761,19.4a.978.978,0,1,1,.956-.975A.919.919,0,0,1,86.761,19.4Zm0-1.841a.865.865,0,1,0,.82.866A.8.8,0,0,0,86.761,17.561Zm.283,1.388-.323-.462h-.105v.446h-.186v-1.08h.329c.228,0,.379.112.379.314a.294.294,0,0,1-.22.3l.313.441Zm-.288-.929h-.141v.32h.134c.121,0,.2-.049.2-.16s-.069-.16-.191-.16ZM36.182,7.561,28.815,19.4h2.5s1.817-2.948,1.88-3.048h4.227l0,3.05H39.8V7.561Zm1.24,6.7H34.516c.181-.288,2.906-4.716,2.906-4.716v4.716Zm4.069-6.7H43.8V19.4h-2.31Zm3.992,0H47.79V19.4H45.483Zm7.391,6.249c-1.256-.329-1.52-.511-1.486-1.035.026-.474.413-.747,1.059-.747a5.666,5.666,0,0,1,2.614.752l.132.076.318-1.977-.076-.035a7.237,7.237,0,0,0-2.988-.6,3.485,3.485,0,0,0-2.53.915,2.4,2.4,0,0,0-.682,1.755c.04,1.825.91,2.342,2.973,2.873,1.363.336,1.641.536,1.63,1.186-.007.583-.357.8-1.283.8a5.7,5.7,0,0,1-3.011-.977l-.137-.091-.32,1.984.069.039a7.338,7.338,0,0,0,3.331.833,3.863,3.863,0,0,0,2.83-.9,2.526,2.526,0,0,0,.675-1.882C55.958,14.817,54.968,14.349,52.874,13.81Zm8.723,3.6-.119.032a2.4,2.4,0,0,1-.634.067c-.685,0-1-.309-1-.977V12.336h1.694l.033-1.929H59.842V7.559H57.57v2.848H56.383v1.929H57.57v4.542c0,1.8.938,2.678,2.876,2.678a5.761,5.761,0,0,0,1.348-.146l.1-.019-.3-1.982Zm4.918-7.186a8.878,8.878,0,0,0-3.384.689l-.083.032.3,1.9.13-.056a6.766,6.766,0,0,1,2.765-.671c.91,0,1.339.376,1.339,1.188v.232c-3.412.351-5.072,1.514-5.072,3.559A2.332,2.332,0,0,0,65,19.578a3.745,3.745,0,0,0,2.727-1.165c.044.262.162.991.162.991h2V13.239c-.005-2.056-1.073-3.017-3.373-3.017Zm-.8,7.553a.848.848,0,0,1-.921-.908c0-1,.961-1.648,2.781-1.892v1.95A2.671,2.671,0,0,1,65.715,17.775Zm10.093-.367-.118.032a2.4,2.4,0,0,1-.631.067c-.687,0-1.008-.309-1.008-.977V12.336h1.7l.03-1.929H74.05V7.559H71.775v2.848H70.594v1.929h1.181v4.542c0,1.8.945,2.678,2.883,2.678a5.76,5.76,0,0,0,1.348-.146l.1-.019-.3-1.982Zm7.92-.694A4.769,4.769,0,0,1,80.9,17.74c-1.24,0-2.01-.84-2.142-2.3h5.383l.023-.615c0-3.048-1.267-4.6-3.77-4.6a3.618,3.618,0,0,0-2.679,1.023,5.072,5.072,0,0,0-1.263,3.686c0,2.869,1.622,4.647,4.222,4.647a5.93,5.93,0,0,0,3.426-1.045l.056-.037-.281-1.882-.141.1Zm-4.944-2.8c.1-1.29.666-2.031,1.553-2.031,1.195,0,1.511,1.077,1.558,2.031ZM15.308,3.46C8.6,3.46,3.14,7.6,3.14,12.7S8.6,22.257,15.308,22.257,27.475,17.789,27.475,12.7,22.018,3.46,15.308,3.46Zm0,18.166c-5.808,0-10.534-4.167-10.534-8.918S9.5,4.091,15.31,4.091s10.534,3.865,10.534,8.618S21.12,21.626,15.31,21.626Z" transform="translate(-3.14 -3.46)" fill="#e1e1e1"/>
      <g id="Group_33260" data-name="Group 33260" transform="translate(3.591 1.093)">
        <path id="a" d="M29.836,21.8l.209.213s.422.235.422.235l.4.218.051.028.293.163.5.271a.435.435,0,0,0,.09.009l.636-.04a2.718,2.718,0,0,1,1.077.13.368.368,0,0,1,.207.453s.325-.232.264-.508c-.032-.234-.313-.541-1.24-.6a6.094,6.094,0,0,0-.731.023h-.04c0-.007-.416-.274-.416-.274l-.174-.1c-.025-.011-.576-.3-.576-.3s-.35-.137-.351-.139-.313-.448-.313-.448l-.114-.162-.334-.481-.142-.209c-.009-.012-.191-.3-.191-.3a.84.84,0,0,0,.17-.548c-.025.039-.042.047-.172.16a2.773,2.773,0,0,1-.784.351l-.118.032.931,1.223Zm1.529-.692.063.081c.026.023.42.179.42.179a6.938,6.938,0,0,1,.791.374l.444.262c.035.014.494-.019.794.005a1.072,1.072,0,0,1,.824.394.531.531,0,0,1-.044.6.867.867,0,0,0,.452-.731c-.028-.415-.387-.8-1.716-.787,0,0-.365-.216-.365-.216l-.107-.063-.59-.3-.481-.163a2.3,2.3,0,0,0-.112-.211,7.185,7.185,0,0,0-.559-.8l-.058-.07s-.327-.452-.365-.508a.942.942,0,0,0,.016-.545,1.446,1.446,0,0,1-.146.221,2.034,2.034,0,0,1-.5.4l-.09.058,1.207,1.648.125.176Zm.545-2.95a.789.789,0,0,0-.067-.525l-.072.169a1.183,1.183,0,0,1-.467.473l-.074.04L32.2,19.71s.058.091.058.091l.186.251c.025.025.408.241.408.241l.144.081.439.262.4.269.03.009.6.039a1.3,1.3,0,0,1,.682.242.546.546,0,0,1,.176.683.822.822,0,0,0,.174-1,.968.968,0,0,0-.8-.409l-.62-.086c0-.005-.334-.23-.334-.23l-.436-.271-.112-.067-.358-.156-.931-1.5ZM27.855,9.882c.032.032.134.134.134.135l.492.45s.281.265.281.265c.207.2.257.3.249.341s-.047.056-.084.077a.445.445,0,0,1-.095.035l-.023.186.116-.005a2.527,2.527,0,0,1,1.653.8,4.685,4.685,0,0,1,1.318,2.7l.536,2.786.2.429.039.088.088.183a1.715,1.715,0,0,0,.2.353c.012.012.278.223.278.223l.387.4.114.123.184.184c.014.011.56.081.56.081.95.158.908.685.908.685s.566-.868-.784-1.172c0,0-.425-.081-.434-.081v0c0-.011-.151-.216-.151-.216l-.051-.056c-.009-.011-.411-.408-.411-.408l-.184-.176s-.169-.452-.169-.452l-.239-.578a5.391,5.391,0,0,1-.155-.854c0-.016-.042-.283-.042-.283L32.6,14.951c0-.019.04-.228.04-.228a5.73,5.73,0,0,1,.488-1.442,2.92,2.92,0,0,1,.917-1.038,4.8,4.8,0,0,1,1.486-.508.218.218,0,0,0,.206-.176l.016-.047-.046-.007a1.251,1.251,0,0,1-.446-.141.1.1,0,0,1-.007-.035.369.369,0,0,1,.074-.163s.293-.281.293-.281l.17-.169.808-.782-.662-.223c-.088.09-.733.759-.733.759a7.061,7.061,0,0,1-1.283,1.212,3.015,3.015,0,0,0-1.5,1.428s-.109.285-.169.439a4.353,4.353,0,0,0-.738-1.37,3.244,3.244,0,0,0-1.3-.943c-.286-.272-1.23-1.135-1.741-1.555Zm2.518,14.064c-.866.441-1.346.058-1.135-.406A3.242,3.242,0,0,0,30.372,23.946Zm-1.486-.659c-.59.162-.808-.253-.669-.59A5.161,5.161,0,0,0,28.886,23.287ZM23.58,12.726c.046.032.162.116.162.116.016.011.748.618.857.71-.018.047-.32.882-.32.882a6.56,6.56,0,0,0-.569,1.95l.005.09c0,.012.239,1.253.239,1.253l.018.091c.134.652.285,1.393.348,1.926.014.151.051.242.109.278a10.292,10.292,0,0,1,1.666,2.6c.021.039.032.061.042.077a.749.749,0,0,0,.257.4.611.611,0,0,0,.539,0,2.033,2.033,0,0,0,.784-.98c.056.067.207.265.232.293a.816.816,0,0,0,.857,1.307c-.223.645.6,1.163,1.376.819a.817.817,0,0,0,.748.6,4.939,4.939,0,0,0,1.441.033,7.194,7.194,0,0,0,2.388-.606,4.025,4.025,0,0,0,1.511-1.307c0-.009.051-.065.083-.109a2.117,2.117,0,0,0,.278.4.87.87,0,0,0,.7.33.437.437,0,0,0,.325-.274,11.458,11.458,0,0,1,1.76-2.649s.058-.114.058-.114c.135-.508.613-1.766.868-2.446l.181-.488s.035-.118.035-.118c.012-.2.019-.39.019-.582a7.607,7.607,0,0,0-.367-2.417,4.408,4.408,0,0,0-.35-.785l-.13-.237a4.878,4.878,0,0,1,1.095-.88.351.351,0,0,1,.032-.018l-.5-.55L40,12.567a1.157,1.157,0,0,1-.965.258c-.033-.012-.337-.184-.337-.184a.715.715,0,0,0-.072-.037l-.1-.014c-.012,0-.112.023-.112.023l-.067.016.1.119a3.768,3.768,0,0,1,.48.77l.093.174.088.206.018.042.116.3.021.063.063.172.242.85a10.016,10.016,0,0,1,.314,2.189c0,.009-.009.07-.009.07s-.285.8-.285.8c-.293.829-.661,1.861-.743,2.286l-.018.051a8.3,8.3,0,0,0-1.579,2.361c-.037.076-.063.086-.074.088-.037.007-.128-.077-.177-.123a1.253,1.253,0,0,1-.3-.938,1.549,1.549,0,0,1,.569-1.174c.056-.042.035-.121.023-.167a1.952,1.952,0,0,1,.4-1.616l.086-.063-.084-.065a4.408,4.408,0,0,1-1.474-3.155l-.005-.135-.149.063a.868.868,0,0,0-.074.1,3.185,3.185,0,0,0-.054.6,4.956,4.956,0,0,0,.144,1.156,3.653,3.653,0,0,0,.828,1.569l.018.021a2.318,2.318,0,0,0-.258,1.195,1.993,1.993,0,0,0,.023.332,1.756,1.756,0,0,0-.6,1.232s.014.372.014.376-.22.278-.22.278l-.042.061a3.733,3.733,0,0,1-1.442,1.367,7.051,7.051,0,0,1-3.268.587.335.335,0,0,1-.322-.379.217.217,0,0,1,.049-.134l.093-.1a4.467,4.467,0,0,0,2.179-.2c.016-.014.128-.183.128-.183l.044-.079-.09.021a6.457,6.457,0,0,1-3.184-.413,4.214,4.214,0,0,1-1.955-1.76l-.211-.276a1.754,1.754,0,0,0-.216-.8,1.451,1.451,0,0,0-.343-.4,2.121,2.121,0,0,0,.09-.645,1.8,1.8,0,0,0-.177-.859,1.769,1.769,0,0,0,.836-1.4,2.536,2.536,0,0,0-.139-.617l-.214-.1.014.142c.086.873-.727,1.439-1.267,1.817,0,0-.158.109-.158.109l.1.065c.422.264.429,1.151.332,1.65l-.005.028.023.04.025.012s.2.163.2.163a1.627,1.627,0,0,1-.077,1.977c-.095.1-.146.111-.172.109-.07-.014-.125-.177-.141-.232l-.132-.274a9.4,9.4,0,0,0-1.391-2.263s-.018-.069-.018-.069c-.139-1.119-.313-1.948-.483-2.748l-.093-.434s-.011-.112-.011-.112a7.065,7.065,0,0,1,.622-2.291l.186-.483.155-.369s.028-.054.028-.054a3.4,3.4,0,0,1,.72-.731l.132-.1-.172-.072a2.264,2.264,0,0,0-.669.2l-.06.028a1.023,1.023,0,0,1-.74.121l-.592-.351-.476.506Z" transform="translate(-23.58 -9.68)" fill="#e1e1e1"/>
      </g>
    </g>
    <g id="Experian" transform="translate(79 135.992)">
      <g id="g135" transform="translate(0 0)">
        <path id="path12" d="M28.113,6.782H25.536a1.382,1.382,0,0,1-1.394-1.394V2.811a1.4,1.4,0,0,1,1.394-1.394h2.576a1.4,1.4,0,0,1,1.394,1.394V5.388a1.382,1.382,0,0,1-1.394,1.394" transform="translate(-16.981 -1.417)" fill="#e1e1e1"/>
        <path id="path14" d="M5.86,23.719H2.977a1.558,1.558,0,0,1-1.56-1.56V19.252a1.574,1.574,0,0,1,1.56-1.56H5.884a1.558,1.558,0,0,1,1.56,1.56v2.907a1.564,1.564,0,0,1-1.583,1.56" transform="translate(-1.417 -12.563)" fill="#e1e1e1"/>
        <path id="path16" d="M8.785,47.98H7.012a.948.948,0,0,1-.945-.945V45.262a.948.948,0,0,1,.945-.945H8.785a.948.948,0,0,1,.945.945v1.773a.948.948,0,0,1-.945.945" transform="translate(-4.602 -30.798)" fill="#e1e1e1"/>
        <path id="path18" d="M22.73,64.214h-2.1a1.135,1.135,0,0,1-1.134-1.134v-2.1a1.135,1.135,0,0,1,1.134-1.134h2.1a1.135,1.135,0,0,1,1.134,1.134v2.1a1.12,1.12,0,0,1-1.134,1.134" transform="translate(-13.796 -41.431)" fill="#e1e1e1"/>
        <path id="path20" d="M49.314,15.294H47.872a.787.787,0,0,1-.78-.78V13.072a.787.787,0,0,1,.78-.78h1.442a.787.787,0,0,1,.78.78v1.442a.757.757,0,0,1-.78.78" transform="translate(-32.699 -8.865)" fill="#e1e1e1"/>
        <path id="path22" d="M153.243,21.3a.827.827,0,1,0,0-1.654.828.828,0,1,0,0,1.654Z" transform="translate(-104.817 -13.899)" fill="#e1e1e1"/>
        <path id="path24" d="M55.395,36.188a.645.645,0,0,1-.567.284.694.694,0,0,1-.378-.095.707.707,0,0,1-.307-.591.543.543,0,0,1,.095-.331l1.938-3.049-1.938-3.049a.591.591,0,0,1-.095-.331.674.674,0,0,1,.331-.591.667.667,0,0,1,.355-.095.717.717,0,0,1,.591.284L57,31.131l1.607-2.505a.687.687,0,0,1,.591-.284.667.667,0,0,1,.355.095.674.674,0,0,1,.331.591.543.543,0,0,1-.095.331l-1.938,3.049,1.938,3.049a.543.543,0,0,1,.095.331.677.677,0,0,1-.307.591.748.748,0,0,1-.378.095.674.674,0,0,1-.567-.284l-1.607-2.482Z" transform="translate(-37.527 -19.857)" fill="#e1e1e1"/>
        <path id="path26" d="M77.113,28.956a4.171,4.171,0,1,1,0,6.216V38.74a.7.7,0,0,1-.685.662.715.715,0,0,1-.685-.662V28.625a.7.7,0,0,1,.685-.662.681.681,0,0,1,.685.662Zm2.765.331a2.789,2.789,0,1,0,2.789,2.789A2.735,2.735,0,0,0,79.878,29.286Z" transform="translate(-52.321 -19.549)" fill="#e1e1e1"/>
        <path id="path28" d="M136.813,31.37v4.183a.7.7,0,0,1-.685.662.681.681,0,0,1-.685-.662V28.676a.7.7,0,0,1,.685-.662.711.711,0,0,1,.685.638,3.483,3.483,0,0,1,2.08-.685.7.7,0,1,1,0,1.394C137.829,29.385,136.813,29.763,136.813,31.37Z" transform="translate(-93.208 -19.601)" fill="#e1e1e1"/>
        <path id="path30" d="M153.6,28.117a.681.681,0,0,0-.685.662v6.9a.7.7,0,0,0,.685.662.715.715,0,0,0,.685-.662v-6.9a.7.7,0,0,0-.685-.662Z" transform="translate(-105.176 -19.703)" fill="#e1e1e1"/>
        <path id="path32" d="M167.839,28.676a.7.7,0,0,1,.685-.662.715.715,0,0,1,.685.662v6.9a.7.7,0,0,1-.685.662.681.681,0,0,1-.685-.662v-.331a4.216,4.216,0,0,1-2.789,1.064,4.171,4.171,0,1,1,0-8.343,4.216,4.216,0,0,1,2.789,1.064Zm-2.789,6.239a2.789,2.789,0,1,0-2.789-2.789,2.764,2.764,0,0,0,2.789,2.789Z" transform="translate(-110.621 -19.601)" fill="#e1e1e1"/>
        <path id="path34" d="M197.289,31.465a2.19,2.19,0,0,0-2.151-2.151,1.892,1.892,0,0,0-2.151,2.08v4.183a.7.7,0,0,1-.685.662.681.681,0,0,1-.685-.662v-6.9a.7.7,0,0,1,.685-.662.711.711,0,0,1,.685.638,3.577,3.577,0,0,1,5.672,2.623v4.3a.7.7,0,0,1-.685.662.681.681,0,0,1-.685-.662Z" transform="translate(-131.681 -19.601)" fill="#e1e1e1"/>
        <path id="path36" d="M34.735,31.89a4.168,4.168,0,1,0-1.253,3.238.716.716,0,0,0,.236-.52.7.7,0,0,0-.685-.685.732.732,0,0,0-.544.284,2.565,2.565,0,0,1-1.891.733,2.756,2.756,0,0,1-2.765-2.269h6.31a.087.087,0,0,0,.071-.024.832.832,0,0,0,.52-.756Zm-4.16-2.552a2.752,2.752,0,0,1,2.647,1.938H27.9A2.76,2.76,0,0,1,30.575,29.338Z" transform="translate(-18.522 -19.601)" fill="#e1e1e1"/>
        <path id="path38" d="M113.635,31.89a4.175,4.175,0,1,0-4.16,4.42,4.091,4.091,0,0,0,2.907-1.182.716.716,0,0,0,.236-.52.7.7,0,0,0-.685-.685.732.732,0,0,0-.544.284,2.565,2.565,0,0,1-1.891.733,2.756,2.756,0,0,1-2.765-2.269h6.358a.888.888,0,0,0,.544-.78Zm-4.16-2.552a2.752,2.752,0,0,1,2.647,1.938H106.8A2.76,2.76,0,0,1,109.475,29.338Z" transform="translate(-72.559 -19.601)" fill="#e1e1e1"/>
        <path id="path40" d="M217.538,50.93a.112.112,0,0,1-.118-.118V49.653h-.26a.118.118,0,0,1,0-.236h.756a.118.118,0,0,1,0,.236h-.26v1.158A.112.112,0,0,1,217.538,50.93Z" transform="translate(-149.095 -34.291)" fill="#e1e1e1"/>
        <path id="path42" d="M221.4,50.93c-.071,0-.095-.047-.118-.095l-.331-.945v.922a.118.118,0,0,1-.236,0V49.582a.162.162,0,0,1,.165-.165.178.178,0,0,1,.165.118l.331.969.331-.969a.178.178,0,0,1,.165-.118.162.162,0,0,1,.165.165v1.229a.118.118,0,0,1-.236,0V49.89c-.047.142-.118.378-.189.567-.118.378-.142.378-.142.378.024.071-.024.095-.071.095Z" transform="translate(-151.611 -34.291)" fill="#e1e1e1"/>
      </g>
    </g>
    <g id="Lloyds" transform="translate(79 180.794)">
      <g id="g28" transform="translate(26.864 1.939)">
        <path id="path30-2" data-name="path30" d="M192.521,302.7c.4.293.813.506.813.972,0,.135-.173.268-.56.268a.92.92,0,0,1-.759-.295c-.12-.16.053-.373-.053-.533-.08-.133-.266-.067-.387-.133-.146-.08-.159-.147-.253-.346a4.97,4.97,0,0,0-.893-1.066,1.591,1.591,0,0,0-.919-.533,2.016,2.016,0,0,1-.281.013c-.306,0-.574.294-1.013.48a2.632,2.632,0,0,1-.679.24l-.066.08.4-.013c.373,0,.866-.054,1.239-.054.388,0,.575.347.721.706a20.232,20.232,0,0,0,1.253,2.665,2.064,2.064,0,0,1,.466,1.188c0,.16-.014.373-.227.373-.292,0-1.039-.306-1.039-.641,0-.254.2-.361.2-.613,0-.16-.24-.133-.293-.28a4.545,4.545,0,0,0-.854-2.027c-.227-.24-.253-.347-.48-.347a.989.989,0,0,0-.347.067,22.853,22.853,0,0,1-2.438,1.214c-.386.12-.453-.106-.852-.027h.027c-.322.066-.575.253-1.014.373a7.216,7.216,0,0,1-2.5.147,15.11,15.11,0,0,0-1.707-.186,3.618,3.618,0,0,1-1.6,2.067.672.672,0,0,0-.426.931c.16.6.693,1.04.972,1.546a3.723,3.723,0,0,0,1.106,1.359,1.125,1.125,0,0,1,.708.838c0,.133-.055.214-.188.214h-.879a.243.243,0,0,1-.227-.134c-.12-.226-.04-.438-.2-.638-.12-.147-.213-.107-.36-.226-.266-.253-.067-.4-.266-.721a20.48,20.48,0,0,0-1.266-1.718c-.266-.332-.586-.493-.586-.932,0-.532.533-.625.52-1.16a2.77,2.77,0,0,1-1.36.535,1.121,1.121,0,0,0-.387.28,1.07,1.07,0,0,0-.32.745,9.985,9.985,0,0,0-.12,2.171,1.159,1.159,0,0,0,.586.88,1.042,1.042,0,0,1,.546.719c0,.093-.027.2-.16.2h-.946a.24.24,0,0,1-.2-.12c-.107-.186-.04-.319-.08-.533-.093-.439-.586-.413-.586-.865,0-.134.08-.307.093-.587a11.657,11.657,0,0,0,.027-2.8c-.08-.7.64-.721,1.013-1.334a3.528,3.528,0,0,0,.292-.453,1,1,0,0,0,.094-.613,4.119,4.119,0,0,1-.067-1.494,2.426,2.426,0,0,1,.493-1.105c0-.013,0-.066-.08-.066-.373.027-.373-.066-.626-.066a.551.551,0,0,0-.466.305.31.31,0,0,1-.173-.265.493.493,0,0,1,.159-.387c.053-.053,0-.08-.067-.08-.293,0-.573.36-.639.613-.174-.027-.187-.253-.267-.253s-.133.12-.133.24c0,.852,1.386,1.039,1.386,2.157,0,1.294-1.559,1.027-1.559,1.493,0,.094.067.173.187.227a.342.342,0,0,1-.333.173.581.581,0,0,1-.6-.6c0-.706.946-.72.946-1.254,0-.253-.159-.333-.306-.453a2.689,2.689,0,0,1-1.412-2.331,1.88,1.88,0,0,1,1.812-2c1.492,0,1.532,1.72,2.892,1.867a3.042,3.042,0,0,1,1.692-.546c.88,0,1.265.227,2.2.227a3.146,3.146,0,0,0,1.745-.613,4.359,4.359,0,0,0,.653-.453,3.446,3.446,0,0,0,1.132-2.2v.039c0-.226-.053-.36-.16-.36-.32,0-.6.294-.919.6-.2.213.106.306-.346.559-.16.08-.346-.067-.52-.067-.36,0-.519-.426-.519-.8,0-.188.146-.241.226-.413.187-.361.174-.493.346-.853.107-.24.294-.4.281-.573,0-.066-.053-.106-.053-.173,0-.361.479-.6.479-.96,0-.2-.227-.293-.28-.453s-.013-.2-.013-.2a.074.074,0,0,1,.066-.041c.187,0,.267.2.439.307.014-.24-.066-.293-.066-.466,0-.093-.013-.24.08-.24.12,0,.106.16.213.24.133.106.253.094.4.187.187.12.293.32.36.333.187.027.24-.2.147-.333.213-.013.426.16.708.16a.9.9,0,0,1,.666.186c.28.24.333.426.639.426a.356.356,0,0,0,.28-.186.677.677,0,0,1,0,.892c.093.282.492.307.679.441s.16.2.293.28a.238.238,0,0,0,.28,0,.66.66,0,0,1-.613.759c.013.48.52.773.746.893a.788.788,0,0,1-.586.439c.066.293.387.72.226,1.105a.243.243,0,0,0-.359.214c0,.24.306.362-.013.534-.147.08-.173.293.093.493a3.994,3.994,0,0,1,1.065-.08c.241,0,.561-.067.773-.067a1.163,1.163,0,0,1,.934.48,17.986,17.986,0,0,0,2.158,2.211" transform="translate(-172.266 -293.09)" fill="#e1e1e1"/>
      </g>
      <g id="g32" transform="translate(27.283 7.949)">
        <path id="path34-2" data-name="path34" d="M174.427,324.641c.16,0,.453-.88,1.052-.88.173,0,.213.067.213.133,0,.12-.2.227-.2.387a.062.062,0,0,0,.067.067c.146,0,.253-.32.852-.32a1.593,1.593,0,0,1,.439.053c.067.013.2.081.147-.106a1.289,1.289,0,0,0-1.239-.8,1.489,1.489,0,0,0-1.385,1.267c-.014.12-.014.2.054.2" transform="translate(-174.366 -323.174)" fill="#e1e1e1"/>
      </g>
      <g id="g36" transform="translate(36.773 3.198)">
        <path id="path38-2" data-name="path38" d="M223.5,300.119c-.173-.068-.2-.161-.146-.374s.053-.32-.054-.347-.213.027-.333.16a2.535,2.535,0,0,0-.333.466c-.054.188.173.161.014.467a5.746,5.746,0,0,0-.48.973,1.685,1.685,0,0,1-.279.546c-.08.107.107.12.319.054s.24.186.16.372c-.067.133-.013.187.173.04s-.093-.24-.027-.666a2.327,2.327,0,0,1,.387-.985c.2-.334.373-.574.719-.454.133.067.067-.173-.12-.253" transform="translate(-221.872 -299.391)" fill="#e1e1e1"/>
      </g>
      <g id="g40" transform="translate(45.467 14.479)">
        <path id="path42-2" data-name="path42" d="M265.741,356.628c.067,0,.08-.094.08-.175a.876.876,0,0,0-.253-.587c-.04.281-.173.467-.173.587,0,.095.254.175.346.175" transform="translate(-265.395 -355.867)" fill="#e1e1e1"/>
      </g>
      <g id="g44" transform="translate(47.279 11.933)">
        <path id="path46" d="M274.652,343.748c.107,0,.267-.041.267-.121a.734.734,0,0,0-.453-.506c.146.279,0,.626.186.626" transform="translate(-274.466 -343.122)" fill="#e1e1e1"/>
      </g>
      <g id="g48" transform="translate(39.652 3.539)">
        <path id="path50" d="M236.785,306.482c1.505.692,1.412,1.958,1.545,1.637a1.313,1.313,0,0,0-.28-1.358c-.413-.48-.572-.36-.413-.759.653-1.587,1.066-3.985-.892-4.826-.227-.094-.415-.094-.415-.053s.214.107.468.279c1.305.867.905,3.225-.293,4.371-.4.388-.215.482.28.708" transform="translate(-236.287 -301.098)" fill="#e1e1e1"/>
      </g>
      <g id="g52" transform="translate(34.605 19.409)">
        <path id="path54" d="M211.42,381.107c.107,0,.053-.16.013-.227a.906.906,0,0,0-.413-.333c.04.16.053.559.214.559h.186" transform="translate(-211.02 -380.548)" fill="#e1e1e1"/>
      </g>
      <g id="g56" transform="translate(30.021 19.422)">
        <path id="path58" d="M188.512,381.16c.107,0,.027-.16-.013-.227a.915.915,0,0,0-.427-.32c.04.16.067.546.226.546h.214" transform="translate(-188.072 -380.614)" fill="#e1e1e1"/>
      </g>
      <path id="path64" d="M40.029,388.178H82.156v-.728H40.029Z" transform="translate(-39.58 -366.663)" fill="#e1e1e1"/>
      <g id="g60" transform="translate(30.704 8.677)">
        <path id="path62" d="M196.753,329.091c.826-.094.959-.279,1.106-.906a1.914,1.914,0,0,1,.466-.8,2.551,2.551,0,0,0,.36-.44c.04-.08.067-.147,0-.119-.093.066-.373.253-.493.346a3.9,3.9,0,0,1-1.838.613c-.761,0-1.414-.226-2.106-.226a2.518,2.518,0,0,0-2.746,2.571c.013.147.04.16.094.16.147,0,.268-.56.787-1.052a3.751,3.751,0,0,1,2.758-1.132c.853,0,1.2.279,1.2.386,0,.213-.362.227-.335.44,0,.067.2.227.748.16" transform="translate(-191.491 -326.821)" fill="#e1e1e1"/>
      </g>
      <g id="g66" transform="translate(0 0)">
        <path id="path68" d="M43.05,290.272l.494,1.3h-1Zm-3.689-.206c.244,0,.533.115.533.423a.462.462,0,0,1-.507.462h-.7v-.885Zm3.8,5.968c.347,0,.6.147.6.506a.49.49,0,0,1-.565.513h-.571v-1.02Zm12.149.013a.54.54,0,0,1,.609.558c0,.34-.243.552-.648.552h-.481v-1.11Zm-15.857-4.435a.486.486,0,0,1,.545.469c0,.4-.365.493-.667.493h-.648v-.962ZM53.9,293.261h.75v-3.875H53.9Zm-.535-9.122a1.232,1.232,0,0,1,0,2.463h-.513v-2.463Zm-15.421-.705v3.874h2.476v-.724H38.693v-3.15Zm3.131,0v3.874h2.482v-.724H41.83v-3.15Zm9.711,0-.988,1.68-1.045-1.68h-.879l1.507,2.328-.936,1.546H49.3l2.335-3.874Zm-5.036.661a1.28,1.28,0,1,1-1.244,1.27,1.256,1.256,0,0,1,1.244-1.27M47.187,296a1.28,1.28,0,1,1-1.245,1.27A1.255,1.255,0,0,1,47.187,296m8.795-11.5c0,.532.34.9,1.039,1.116.436.141.783.256.783.6,0,.315-.314.455-.629.455a2.186,2.186,0,0,1-1.129-.372v.751a2.42,2.42,0,0,0,1.148.3,1.244,1.244,0,0,0,1.341-1.167c0-.738-.577-1.02-1.078-1.174-.648-.2-.763-.34-.763-.526,0-.27.243-.4.621-.4a2.373,2.373,0,0,1,.963.244v-.706a2.193,2.193,0,0,0-.975-.212c-.776,0-1.321.43-1.321,1.1M60,291.323a1.987,1.987,0,0,0,2.078,1.989,3.78,3.78,0,0,0,1.027-.161v-1.988h-.718v1.424a2.019,2.019,0,0,1-.3.026,1.281,1.281,0,1,1,.032-2.559,2.8,2.8,0,0,1,.9.16v-.718a3,3,0,0,0-.9-.147A1.982,1.982,0,0,0,60,291.323m-22.223,5.955a1.987,1.987,0,0,0,2.078,1.989,3.8,3.8,0,0,0,1.027-.16v-1.988h-.719v1.424a2.037,2.037,0,0,1-.3.025,1.281,1.281,0,1,1,.032-2.559,2.792,2.792,0,0,1,.9.161v-.719a2.988,2.988,0,0,0-.9-.147,1.983,1.983,0,0,0-2.111,1.975m14.556-1.937v2.437a.736.736,0,0,1-.783.776.753.753,0,0,1-.8-.776v-2.437h-.738V297.8a1.535,1.535,0,0,0,3.066,0v-2.457Zm-1.455-5.955h-.738v3.875h.738v-1.828l1.578,1.828h.968L51.7,291.3l1.623-1.912h-.9l-1.545,1.835Zm3.187,5.955v3.869h.725v-1.341h.513a1.267,1.267,0,0,0,1.367-1.27,1.241,1.241,0,0,0-1.322-1.257Zm-9.879-2.081H45l-1.591-3.894h-.7l-1.6,3.894h.776l.4-1.02H43.8Zm14.287-3.875v2.547l-2.046-2.547H55.8v3.875h.731v-2.675l2.13,2.675H59.2v-3.875Zm-10.181,0v2.547l-2.046-2.547h-.629v3.875h.731v-2.675l2.13,2.675h.533v-3.875Zm-6.409,5.955v3.869h.732v-1.47h.468l.814,1.47h.847l-.937-1.6a1.151,1.151,0,0,0,.7-1.072,1.179,1.179,0,0,0-1.309-1.2Zm-3.939-5.955v3.875h1.424c.866,0,1.379-.436,1.379-1.155a1.035,1.035,0,0,0-.558-.9.912.912,0,0,0,.43-.751,1.07,1.07,0,0,0-1.206-1.065Zm14.17-5.952v3.874h1.245a1.938,1.938,0,1,0,0-3.874Zm-8.371,1.93a2.008,2.008,0,0,0,4.016,0,2.008,2.008,0,0,0-4.016,0m1.431,11.9a2.008,2.008,0,0,0,4.016,0,2.008,2.008,0,0,0-4.016,0" transform="translate(-37.782 -283.382)" fill="#e1e1e1"/>
      </g>
    </g>
  </g>
</svg>
