<svg xmlns="http://www.w3.org/2000/svg" xmlns:xlink="http://www.w3.org/1999/xlink" width="213.295" height="100.336" viewBox="0 0 213.295 100.336">
  <defs>
    <clipPath id="clip-path">
      <path id="Path_37644" data-name="Path 37644" d="M0-6.08H59.069V-19.8H0Z" transform="translate(0 19.803)" fill="#e1e1e1"/>
    </clipPath>
    <clipPath id="clip-path-3">
      <path id="Path_38179" data-name="Path 38179" d="M881.366-121.506a14.1,14.1,0,0,1-4.306,2.286c-1.482.556-2.139.753-2.968,1.023-.937.3-2.814.873-2.814.873a46.3,46.3,0,0,0,6.628,1.511,21.017,21.017,0,0,0,3.3-1.476,8.484,8.484,0,0,0,2.019-1.29,1.951,1.951,0,0,0,.6-1,1.441,1.441,0,0,0,.023-.22s0-.065-.005-.121a.534.534,0,0,0-.014-.109,1.667,1.667,0,0,0-.05-.2,1.328,1.328,0,0,0-.359-.495,3,3,0,0,0-1.217-.683,7.367,7.367,0,0,0-.755-.193Zm0,0" transform="translate(-871.278 121.598)" fill="#e1e1e1"/>
    </clipPath>
  </defs>
  <g id="Group_33349" data-name="Group 33349" transform="translate(-1166.029 -501.48)">
    <path id="Sony" d="M25.127,12.923a9.389,9.389,0,0,1-6.251-2.1,5.128,5.128,0,0,1-1.7-3.872,5.2,5.2,0,0,1,1.7-3.859A9.806,9.806,0,0,1,25.127,1a8.912,8.912,0,0,1,6.264,2.1,5.149,5.149,0,0,1,1.677,3.855,5.369,5.369,0,0,1-1.677,3.872,9.294,9.294,0,0,1-6.264,2.1V11.351a4.714,4.714,0,0,0,3.354-1.289,4.17,4.17,0,0,0,1.228-3.111,4.329,4.329,0,0,0-1.228-3.117,5.037,5.037,0,0,0-6.713,0,4.349,4.349,0,0,0-1.225,3.117,4.358,4.358,0,0,0,1.225,3.111,4.77,4.77,0,0,0,3.359,1.289v1.573ZM7.2,1.006a10.288,10.288,0,0,0-4.07.811A3.048,3.048,0,0,0,1,4.581a2.87,2.87,0,0,0,.778,1.977A4.338,4.338,0,0,0,4.1,7.719c.641.14,2.01.355,3.374.5s2.686.279,3.228.416c.431.11,1.155.259,1.155,1.072a1.214,1.214,0,0,1-.9,1.11,6.73,6.73,0,0,1-2.693.472,11.421,11.421,0,0,1-3.207-.556A3.869,3.869,0,0,1,3.2,9.49a2.133,2.133,0,0,1-.385-1.177H1.33v4.172H2.986v-.564a.236.236,0,0,1,.358-.2,13.059,13.059,0,0,0,2.421.783,10.345,10.345,0,0,0,2.512.312,10.776,10.776,0,0,0,3.368-.475,5.891,5.891,0,0,0,2-.988,2.74,2.74,0,0,0,1.072-2.2A3.072,3.072,0,0,0,13.851,7a3.781,3.781,0,0,0-1.073-.729,7.878,7.878,0,0,0-1.317-.46c-.853-.209-2.782-.468-3.7-.564a25.634,25.634,0,0,1-3.316-.447.8.8,0,0,1-.617-.741,1.02,1.02,0,0,1,.564-.866,6.491,6.491,0,0,1,3.046-.6,8.826,8.826,0,0,1,3.529.689,3.878,3.878,0,0,1,.84.5,2.526,2.526,0,0,1,.828,1.385h1.337V1.526H12.475v.422c0,.136-.141.313-.407.167A11.338,11.338,0,0,0,7.2,1.006m32.711.66,7.281,6.571-.075-4.424c-.007-.58-.114-.822-.742-.822H45V1.667h6.226V2.99H49.893c-.64,0-.68.2-.688.822l.113,8.454H47.186L38.8,4.781l0,5.312c.007.577.034.849.629.849h1.5v1.323H34.811V10.943h1.429c.534,0,.513-.509.513-.88v-6.2c0-.4-.056-.872-.894-.872H34.7V1.666ZM58.343,10.94a2.871,2.871,0,0,0,.369-.023A.457.457,0,0,0,59,10.663a1.477,1.477,0,0,0,.029-.287V8.285c0-.05,0-.072-.089-.184s-3.814-4.338-3.984-4.524a1.56,1.56,0,0,0-1.147-.587H52.514V1.666h7.3V2.989h-.88c-.2,0-.339.193-.165.408,0,0,2.456,2.938,2.48,2.969s.042.039.074.01S63.841,3.423,63.861,3.4a.255.255,0,0,0-.217-.41h-.9V1.666h5.984V2.99H67.388a1.138,1.138,0,0,0-1.047.5c-.167.189-3.927,4.48-4.029,4.6a.282.282,0,0,0-.049.2v2.091a1.473,1.473,0,0,0,.029.286.455.455,0,0,0,.287.254,2.791,2.791,0,0,0,.365.023h1.367v1.324H57.047V10.939h1.3Z" transform="translate(1165.029 502.387)" fill="#e1e1e1"/>
    <g id="Adidas" transform="translate(1166.03 543.924)">
      <g id="Group_32959" data-name="Group 32959" transform="translate(0.001 0)" clip-path="url(#clip-path)">
        <g id="Group_32955" data-name="Group 32955" transform="translate(26.86 0)">
          <path id="Path_37640" data-name="Path 37640" d="M-3.6-3.985A2.915,2.915,0,0,1-6.443-1.63H-6.47A2.913,2.913,0,0,1-9.35-4.536a2.9,2.9,0,0,1,2.879-2.9h.027A2.907,2.907,0,0,1-3.6-5.088Zm0-4.986a5.21,5.21,0,0,0-2.844-.845H-6.47a5.292,5.292,0,0,0-5.253,5.28A5.291,5.291,0,0,0-6.47.743h.027A5.216,5.216,0,0,0-3.6-.1V.45h2.427V-12.98H-3.6Z" transform="translate(11.723 12.98)" fill="#e1e1e1"/>
        </g>
        <g id="Group_32956" data-name="Group 32956" transform="translate(38.254 3.164)">
          <path id="Path_37641" data-name="Path 37641" d="M-3.6-2.583A2.915,2.915,0,0,1-6.444-.228H-6.47A2.914,2.914,0,0,1-9.35-3.134a2.9,2.9,0,0,1,2.88-2.9h.026A2.907,2.907,0,0,1-3.6-3.686Zm0-4.986a5.19,5.19,0,0,0-2.845-.845H-6.47a5.292,5.292,0,0,0-5.253,5.28A5.291,5.291,0,0,0-6.47,2.145h.026A5.2,5.2,0,0,0-3.6,1.3v.551h2.426v-10H-3.6Z" transform="translate(11.723 8.414)" fill="#e1e1e1"/>
        </g>
        <g id="Group_32957" data-name="Group 32957" transform="translate(49.888 3.049)">
          <path id="Path_37642" data-name="Path 37642" d="M-3.343-2.1c-.089-.045-.213-.089-.355-.143a25.8,25.8,0,0,0-2.649-.684c-1.075-.24-1.617-.551-1.617-.942a.829.829,0,0,1,.284-.658,2.089,2.089,0,0,1,1.333-.319,1.94,1.94,0,0,1,1.4.418,1.73,1.73,0,0,1,.374.9H-2A2.863,2.863,0,0,0-3.53-6.25,1,1,0,0,0-3.7-6.338a6.671,6.671,0,0,0-2.8-.5,4.181,4.181,0,0,0-3.19,1.128,3.1,3.1,0,0,0-.845,2.213A2.479,2.479,0,0,0-8.916-1.121a17.421,17.421,0,0,0,2.987.809c1.057.231,1.59.56,1.59.977a.833.833,0,0,1-.337.658A2.021,2.021,0,0,1-6.009,1.7a2.784,2.784,0,0,1-1.68-.39,1.281,1.281,0,0,1-.5-1.076h-2.7A2.968,2.968,0,0,0-9.333,2.976a6.532,6.532,0,0,0,3.253.711A6.026,6.026,0,0,0-3.7,3.243c.143-.062.267-.125.4-.2a2.975,2.975,0,0,0,1.59-2.8A2.488,2.488,0,0,0-3.343-2.1" transform="translate(10.889 6.836)" fill="#e1e1e1"/>
        </g>
        <g id="Group_32958" data-name="Group 32958" transform="translate(0 3.164)">
          <path id="Path_37643" data-name="Path 37643" d="M-3.6-2.583A2.918,2.918,0,0,1-6.452-.228h-.027A2.911,2.911,0,0,1-9.35-3.134a2.9,2.9,0,0,1,2.87-2.9h.027A2.91,2.91,0,0,1-3.6-3.686Zm0-4.986a5.242,5.242,0,0,0-2.853-.845h-.027a5.29,5.29,0,0,0-5.244,5.28A5.289,5.289,0,0,0-6.479,2.145h.027A5.248,5.248,0,0,0-3.6,1.3v.551h2.426v-10H-3.6Z" transform="translate(11.723 8.414)" fill="#e1e1e1"/>
        </g>
      </g>
      <path id="Path_37645" data-name="Path 37645" d="M33.578-17.406h2.64v-2.32h-2.64Z" transform="translate(-10.309 19.779)" fill="#e1e1e1"/>
      <path id="Path_37646" data-name="Path 37646" d="M33.578-4.971h2.64V-15.237h-2.64Z" transform="translate(-10.309 18.401)" fill="#e1e1e1"/>
      <g id="Group_32961" data-name="Group 32961" transform="translate(0.001 0)" clip-path="url(#clip-path)">
        <g id="Group_32960" data-name="Group 32960" transform="translate(11.501 0)">
          <path id="Path_37647" data-name="Path 37647" d="M-3.6-3.985A2.918,2.918,0,0,1-6.456-1.63h-.026a2.914,2.914,0,0,1-2.88-2.906,2.9,2.9,0,0,1,2.88-2.9h.026A2.91,2.91,0,0,1-3.6-5.088Zm0-4.986a5.239,5.239,0,0,0-2.853-.845h-.026a5.292,5.292,0,0,0-5.253,5.28A5.291,5.291,0,0,0-6.482.743h.026A5.244,5.244,0,0,0-3.6-.1V.45h2.427V-12.98H-3.6Z" transform="translate(11.735 12.98)" fill="#e1e1e1"/>
        </g>
      </g>
    </g>
    <g id="Siemens" transform="translate(1281.572 545.103)">
      <path id="Path_37589" data-name="Path 37589" d="M878.9,526.751V529.1a10.625,10.625,0,0,0-3.313-.618c-1.2,0-1.872.367-1.872,1.025,0,.42.293.7,1.134,1.076l2.261,1.014c1.808.812,2.719,2,2.719,3.538,0,2.377-2.057,3.876-5.319,3.876a18.645,18.645,0,0,1-4.023-.5v-2.426a15.2,15.2,0,0,0,3.8.6c1.348,0,2.07-.376,2.07-1.075,0-.422-.282-.731-.928-1.018l-2.474-1.1c-1.834-.818-2.68-1.92-2.68-3.491,0-2.251,1.983-3.686,5.094-3.686a15.888,15.888,0,0,1,3.534.436Z" transform="translate(-870.275 -526.315)" fill="#e1e1e1" fill-rule="evenodd"/>
      <path id="Path_37590" data-name="Path 37590" d="M895.345,526.86H899v12.2h-3.656v-12.2Z" transform="translate(-884.03 -526.614)" fill="#e1e1e1" fill-rule="evenodd"/>
      <path id="Path_37591" data-name="Path 37591" d="M918.751,526.86V529.1h-5.519v2.752h4.821v2.021h-4.821v2.854h5.59v2.339H909.68v-12.2Z" transform="translate(-891.894 -526.614)" fill="#e1e1e1" fill-rule="evenodd"/>
      <path id="Path_37592" data-name="Path 37592" d="M949.659,526.86v12.2h-3.537v-8.032l-3.464,8.127h-2.236l-3.441-8.127v8.032h-2.442v-12.2H939l3.156,7.422,3.14-7.422Z" transform="translate(-905.532 -526.614)" fill="#e1e1e1" fill-rule="evenodd"/>
      <path id="Path_37593" data-name="Path 37593" d="M983.345,526.86V529.1h-5.527v2.752h4.82v2.021h-4.82v2.854h5.59v2.339h-9.151v-12.2Z" transform="translate(-927.323 -526.614)" fill="#e1e1e1" fill-rule="evenodd"/>
      <path id="Path_37594" data-name="Path 37594" d="M1009.87,526.86v12.2h-3.9l-4.393-7.827v7.827h-2.443v-12.2h4l4.3,7.723V526.86Z" transform="translate(-940.972 -526.614)" fill="#e1e1e1" fill-rule="evenodd"/>
      <path id="Path_37595" data-name="Path 37595" d="M1035.938,526.752V529.1a10.651,10.651,0,0,0-3.295-.618c-1.222,0-1.891.361-1.891,1.021,0,.431.273.688,1.143,1.081l2.251,1.014c1.821.821,2.721,2,2.721,3.554,0,2.364-2.059,3.86-5.313,3.86a18.71,18.71,0,0,1-4.028-.5v-2.426a15.189,15.189,0,0,0,3.787.6c1.339,0,2.081-.375,2.081-1.053,0-.449-.26-.738-.937-1.04l-2.465-1.1c-1.845-.825-2.682-1.913-2.682-3.49,0-2.25,1.984-3.686,5.088-3.686a15.928,15.928,0,0,1,3.54.436Z" transform="translate(-956.43 -526.316)" fill="#e1e1e1" fill-rule="evenodd"/>
    </g>
    <g id="Allstate" transform="translate(1281.693 501.48)">
      <path id="Path_38173" data-name="Path 38173" d="M73.8,16.932a.826.826,0,1,1,.808-.824A.777.777,0,0,1,73.8,16.932Zm0-1.556a.731.731,0,1,0,.693.732A.672.672,0,0,0,73.8,15.376Zm.239,1.173-.273-.39h-.089v.377h-.157v-.913H73.8c.193,0,.321.1.321.266a.248.248,0,0,1-.186.252l.264.373Zm-.243-.785h-.119v.27h.113c.1,0,.168-.042.168-.135s-.058-.135-.162-.135ZM31.062,6.925,24.837,16.932h2.116s1.535-2.491,1.589-2.576h3.572v2.577h2.009V6.925Zm1.048,5.658H29.655C29.807,12.34,32.11,8.6,32.11,8.6v3.985Zm3.438-5.658H37.5V16.933H35.549Zm3.373,0h1.949V16.933H38.922Zm6.246,5.281c-1.062-.278-1.284-.432-1.256-.874.022-.4.349-.631.9-.631a4.788,4.788,0,0,1,2.209.635l.111.064L47.4,9.73l-.064-.03a6.116,6.116,0,0,0-2.525-.509,2.945,2.945,0,0,0-2.138.774,2.027,2.027,0,0,0-.576,1.483c.034,1.543.769,1.979,2.512,2.427,1.152.284,1.387.453,1.378,1-.006.493-.3.68-1.084.68a4.82,4.82,0,0,1-2.545-.825l-.116-.077-.27,1.676.058.033a6.2,6.2,0,0,0,2.815.7,3.265,3.265,0,0,0,2.392-.762,2.134,2.134,0,0,0,.57-1.59C47.773,13.057,46.937,12.662,45.168,12.206Zm7.371,3.041-.1.027a2.027,2.027,0,0,1-.536.056c-.579,0-.848-.261-.848-.825V10.961h1.431l.028-1.63H51.056V6.924h-1.92V9.33h-1v1.63h1V14.8c0,1.52.793,2.263,2.43,2.263a4.868,4.868,0,0,0,1.139-.123l.088-.016-.254-1.675Zm4.156-6.072a7.5,7.5,0,0,0-2.859.582l-.07.027.251,1.6.11-.048a5.717,5.717,0,0,1,2.337-.567c.769,0,1.131.318,1.131,1v.2c-2.883.3-4.286,1.28-4.286,3.008a1.971,1.971,0,0,0,2.11,2.1,3.164,3.164,0,0,0,2.3-.984c.037.221.137.837.137.837h1.687v-5.21c0-1.737-.907-2.549-2.851-2.549Zm-.676,6.383a.716.716,0,0,1-.778-.768c0-.842.812-1.393,2.35-1.6v1.648A2.258,2.258,0,0,1,56.019,15.557Zm8.529-.31-.1.027a2.025,2.025,0,0,1-.533.056c-.58,0-.852-.261-.852-.825V10.961H64.5l.025-1.63H63.062V6.924H61.14V9.33h-1v1.63h1V14.8c0,1.52.8,2.263,2.436,2.263a4.867,4.867,0,0,0,1.139-.123l.086-.016-.252-1.675Zm6.693-.586a4.03,4.03,0,0,1-2.395.867c-1.048,0-1.7-.71-1.81-1.943h4.549l.019-.52c0-2.576-1.07-3.885-3.186-3.89a3.057,3.057,0,0,0-2.264.864,4.286,4.286,0,0,0-1.067,3.115c0,2.424,1.37,3.927,3.568,3.927a5.011,5.011,0,0,0,2.9-.883l.048-.031-.238-1.59-.119.085ZM67.064,12.3c.088-1.09.563-1.716,1.312-1.716,1.01,0,1.277.91,1.317,1.716ZM13.423,3.46c-5.668,0-10.283,3.5-10.283,7.806s4.613,8.078,10.283,8.078S23.7,15.569,23.7,11.266,19.093,3.46,13.423,3.46Zm0,15.351c-4.908,0-8.9-3.522-8.9-7.536s3.994-7.282,8.9-7.282,8.9,3.266,8.9,7.282S18.334,18.811,13.424,18.811Z" transform="translate(-3.14 -3.46)" fill="#e1e1e1"/>
      <g id="Group_33260" data-name="Group 33260" transform="translate(3.035 0.923)">
        <path id="a" d="M28.867,19.923l.177.18s.356.2.356.2l.337.184.043.024.248.138.419.229a.367.367,0,0,0,.076.007l.537-.034a2.3,2.3,0,0,1,.91.11.311.311,0,0,1,.175.383s.275-.2.223-.429c-.027-.2-.264-.457-1.048-.5a5.149,5.149,0,0,0-.618.019h-.034c0-.006-.352-.232-.352-.232l-.147-.085c-.021-.009-.487-.255-.487-.255l-.3-.117c0-.009-.264-.379-.264-.379l-.1-.137-.282-.407-.12-.177c-.007-.01-.162-.249-.162-.249a.71.71,0,0,0,.144-.463c-.021.033-.036.04-.145.135a2.343,2.343,0,0,1-.662.3l-.1.027.787,1.033Zm1.292-.585.053.068c.022.019.355.151.355.151a5.864,5.864,0,0,1,.668.316l.376.221c.03.012.417-.016.671,0a.906.906,0,0,1,.7.333.448.448,0,0,1-.037.511.733.733,0,0,0,.382-.618c-.024-.35-.327-.678-1.451-.665,0,0-.309-.183-.309-.183l-.091-.053-.5-.255-.407-.138a1.941,1.941,0,0,0-.1-.178,6.07,6.07,0,0,0-.472-.68l-.049-.059s-.276-.382-.309-.429a.8.8,0,0,0,.013-.46,1.222,1.222,0,0,1-.123.187,1.718,1.718,0,0,1-.423.337l-.076.049,1.02,1.393.105.148Zm.46-2.493a.667.667,0,0,0-.056-.444l-.061.143a1,1,0,0,1-.395.4l-.062.034.824,1.179s.049.077.049.077l.157.212c.021.021.344.2.344.2l.122.068.371.221.34.227.025.007.508.033a1.1,1.1,0,0,1,.576.2.462.462,0,0,1,.148.578.7.7,0,0,0,.147-.843.818.818,0,0,0-.678-.346l-.524-.073s-.282-.194-.282-.194L31.8,18.3l-.1-.056-.3-.132-.787-1.269ZM27.192,9.851c.027.027.113.113.113.114l.416.38s.238.224.238.224c.175.168.217.254.211.288s-.04.048-.071.065a.376.376,0,0,1-.08.03L28,11.11l.1,0a2.135,2.135,0,0,1,1.4.673,3.959,3.959,0,0,1,1.113,2.283l.453,2.355.171.362.033.074.074.154a1.449,1.449,0,0,0,.172.3c.01.01.235.189.235.189l.327.334.1.1.156.156c.012.009.474.068.474.068.8.134.768.579.768.579s.478-.733-.662-.99c0,0-.359-.068-.367-.068h0c0-.009-.128-.183-.128-.183l-.043-.048c-.007-.009-.347-.344-.347-.344l-.156-.148s-.143-.382-.143-.382l-.2-.488a4.556,4.556,0,0,1-.131-.722c0-.013-.036-.239-.036-.239l-.15-.987c0-.016.034-.193.034-.193a4.842,4.842,0,0,1,.413-1.219,2.468,2.468,0,0,1,.775-.877,4.053,4.053,0,0,1,1.256-.429.184.184,0,0,0,.174-.148l.013-.04-.039-.006a1.057,1.057,0,0,1-.377-.119.081.081,0,0,1-.006-.03.312.312,0,0,1,.062-.138s.248-.238.248-.238l.144-.143.683-.661-.56-.189c-.074.076-.619.641-.619.641a5.967,5.967,0,0,1-1.084,1.024,2.548,2.548,0,0,0-1.263,1.207s-.092.241-.143.371a3.678,3.678,0,0,0-.624-1.158,2.741,2.741,0,0,0-1.1-.8c-.242-.23-1.039-.959-1.471-1.314ZM29.32,21.735c-.732.373-1.137.049-.959-.343A2.74,2.74,0,0,0,29.32,21.735Zm-1.256-.557c-.5.137-.683-.214-.566-.5A4.361,4.361,0,0,0,28.064,21.179ZM23.58,12.254l.137.1c.013.009.632.523.725.6l-.27.745a5.544,5.544,0,0,0-.481,1.648l0,.076c0,.01.2,1.059.2,1.059l.015.077c.113.551.241,1.177.294,1.627.012.128.043.2.092.235a8.7,8.7,0,0,1,1.407,2.2c.018.033.027.052.036.065a.633.633,0,0,0,.217.339.517.517,0,0,0,.456,0,1.718,1.718,0,0,0,.662-.828c.048.056.175.224.2.248a.689.689,0,0,0,.725,1.1c-.189.545.508.983,1.162.692a.69.69,0,0,0,.632.508,4.174,4.174,0,0,0,1.217.028,6.079,6.079,0,0,0,2.018-.512,3.4,3.4,0,0,0,1.277-1.1c0-.007.043-.055.07-.092a1.789,1.789,0,0,0,.235.341.735.735,0,0,0,.591.279.37.37,0,0,0,.275-.232,9.682,9.682,0,0,1,1.488-2.239s.049-.1.049-.1c.114-.429.518-1.492.733-2.067l.153-.413s.03-.1.03-.1c.01-.165.016-.33.016-.491A6.428,6.428,0,0,0,37.631,14a3.725,3.725,0,0,0-.3-.664l-.11-.2a4.122,4.122,0,0,1,.925-.744.3.3,0,0,1,.027-.015l-.425-.465-.3.2a.978.978,0,0,1-.815.218c-.028-.01-.285-.156-.285-.156a.6.6,0,0,0-.061-.031l-.088-.012c-.01,0-.1.019-.1.019l-.056.013.088.1a3.184,3.184,0,0,1,.405.65l.079.147.074.174.015.036.1.252.018.053.053.145.2.719a8.465,8.465,0,0,1,.266,1.85c0,.007-.007.059-.007.059s-.241.677-.241.677c-.248.7-.558,1.572-.628,1.932l-.015.043a7.012,7.012,0,0,0-1.335,2c-.031.064-.053.073-.062.074-.031.006-.108-.065-.15-.1a1.059,1.059,0,0,1-.254-.793,1.309,1.309,0,0,1,.481-.992c.048-.036.03-.1.019-.141a1.649,1.649,0,0,1,.334-1.366l.073-.053-.071-.055a3.725,3.725,0,0,1-1.246-2.666l0-.114-.126.053a.734.734,0,0,0-.062.086,2.692,2.692,0,0,0-.046.508,4.188,4.188,0,0,0,.122.977,3.087,3.087,0,0,0,.7,1.326l.015.018a1.959,1.959,0,0,0-.218,1.01,1.685,1.685,0,0,0,.019.281,1.484,1.484,0,0,0-.506,1.041s.012.315.012.318-.186.235-.186.235l-.036.052a3.155,3.155,0,0,1-1.219,1.155,5.958,5.958,0,0,1-2.761.5.283.283,0,0,1-.272-.321.183.183,0,0,1,.042-.113l.079-.085a3.775,3.775,0,0,0,1.841-.171c.013-.012.108-.154.108-.154l.037-.067-.076.018a5.456,5.456,0,0,1-2.69-.349,3.561,3.561,0,0,1-1.652-1.488l-.178-.233a1.482,1.482,0,0,0-.183-.676,1.226,1.226,0,0,0-.29-.341,1.792,1.792,0,0,0,.076-.545,1.523,1.523,0,0,0-.15-.726,1.5,1.5,0,0,0,.707-1.186,2.143,2.143,0,0,0-.117-.521l-.181-.085.012.12c.073.738-.615,1.216-1.07,1.535,0,0-.134.092-.134.092l.088.055c.356.223.362.972.281,1.394l0,.024.019.034.021.01.171.138a1.375,1.375,0,0,1-.065,1.67c-.08.083-.123.094-.146.092-.059-.012-.105-.15-.119-.2L26,20.044a7.939,7.939,0,0,0-1.176-1.912s-.015-.058-.015-.058c-.117-.946-.264-1.646-.408-2.322l-.079-.367s-.009-.1-.009-.1a5.97,5.97,0,0,1,.526-1.936l.157-.408.131-.312s.024-.046.024-.046a2.877,2.877,0,0,1,.609-.618l.111-.083-.145-.061a1.913,1.913,0,0,0-.566.171l-.05.024a.865.865,0,0,1-.625.1l-.5-.3-.4.428Z" transform="translate(-23.58 -9.68)" fill="#e1e1e1"/>
      </g>
    </g>
    <path id="CVS_pharmacy" data-name="CVS pharmacy" d="M75.554,172.052H76.9v.823h.031a2.279,2.279,0,0,1,1.92-.99c1.63,0,2.712,1.31,2.712,3.321,0,2.026-1.066,3.306-2.712,3.306a2.148,2.148,0,0,1-1.874-.9h-.031v3.032H75.57v-8.592h-.015Zm4.586,3.184c0-1.265-.488-2.209-1.585-2.209-1.173,0-1.676.99-1.676,2.209,0,1.234.533,2.118,1.722,2.118.975,0,1.539-.823,1.539-2.118Zm3.687-2.346h.031a2.125,2.125,0,0,1,1.889-.99,2.041,2.041,0,0,1,2.133,2.224v4.22H86.508v-4.052A1.113,1.113,0,0,0,85.29,173.1a1.459,1.459,0,0,0-1.463,1.554v3.687H82.456v-8.73h1.371Zm8.973,4.631a2.2,2.2,0,0,1-1.95.945c-1.219,0-2.1-.625-2.1-1.843,0-1.432,1.127-1.813,2.575-2.026.945-.152,1.478-.229,1.478-.792,0-.533-.427-.868-1.188-.868-.838,0-1.249.335-1.28,1.066h-1.31c.031-1.143.823-2.087,2.575-2.087,1.691,0,2.56.7,2.56,2.163v2.742c0,.457.091.64.533.564h.031v.884a1.244,1.244,0,0,1-.64.137c-.762.015-1.158-.244-1.28-.884Zm.015-1.447v-.99a4.2,4.2,0,0,1-1.234.4c-.9.2-1.432.366-1.432,1.1,0,.686.457.884,1.051.884A1.456,1.456,0,0,0,92.816,176.074Zm4.022-2.986h.031a1.834,1.834,0,0,1,1.676-1.082,1.341,1.341,0,0,1,.4.046V173.3H98.91a1.089,1.089,0,0,0-.335-.031,1.66,1.66,0,0,0-1.691,1.843v3.215H95.512v-6.277h1.341v1.036h-.015Zm2.757-1.036h1.341v.868h.031a2.1,2.1,0,0,1,1.828-1.021,1.782,1.782,0,0,1,1.691,1.112h.031a2.183,2.183,0,0,1,1.9-1.112,1.917,1.917,0,0,1,2,2.148v4.3H107.03V174.23a1.008,1.008,0,0,0-1.036-1.143,1.361,1.361,0,0,0-1.31,1.493v3.748h-1.371v-4.113c0-.746-.4-1.143-1.006-1.143a1.39,1.39,0,0,0-1.325,1.493v3.748H99.611v-6.262H99.6Zm13.727,5.469a2.2,2.2,0,0,1-1.95.945c-1.219,0-2.1-.625-2.1-1.843,0-1.432,1.127-1.813,2.575-2.026.945-.152,1.478-.229,1.478-.792,0-.533-.427-.868-1.188-.868-.838,0-1.249.335-1.28,1.066h-1.31c.031-1.143.823-2.087,2.575-2.087,1.691,0,2.56.7,2.56,2.163v2.742c0,.457.091.64.533.564h.031v.884a1.243,1.243,0,0,1-.64.137c-.746.015-1.158-.244-1.28-.884Zm.015-1.447v-.99a4.2,4.2,0,0,1-1.234.4c-.9.2-1.432.366-1.432,1.1,0,.686.457.884,1.051.884A1.456,1.456,0,0,0,113.337,176.073Zm2.346-.884a3.063,3.063,0,0,1,3.077-3.306,2.587,2.587,0,0,1,2.773,2.24h-1.371A1.32,1.32,0,0,0,118.791,173c-1.143,0-1.737.9-1.737,2.179,0,1.265.579,2.179,1.722,2.179a1.309,1.309,0,0,0,1.432-1.249h1.341a2.541,2.541,0,0,1-2.757,2.392,3.079,3.079,0,0,1-3.108-3.306Zm6.658,5.454v-1.127h.031a1.9,1.9,0,0,0,.548.076.864.864,0,0,0,.945-.7l.259-.716-2.362-6.125h1.463l1.158,3.275c.2.548.411,1.31.411,1.31h.031s.2-.762.4-1.31l1.112-3.275h1.417l-2.529,6.917c-.472,1.341-.945,1.752-2.026,1.752a3.069,3.069,0,0,1-.853-.076Zm-55.41-5.576c.168.777.609,1.051,1.523,1.051.808,0,1.249-.289,1.249-.746,0-.655-.594-.7-1.828-1.021a10.214,10.214,0,0,1-2.8-1.006,2.739,2.739,0,0,1-1.188-2.392c0-2.011,1.585-3.321,4.342-3.321,2.681,0,4.251,1.173,4.433,3.275H69.506c-.107-.625-.533-.914-1.341-.914-.7,0-1.051.229-1.051.7,0,.548.533.655,1.539.914a10.149,10.149,0,0,1,2.971.99,2.68,2.68,0,0,1,1.325,2.422c0,2.255-1.615,3.58-4.631,3.58-2.788,0-4.418-1.31-4.631-3.534h3.245Zm-12.249-.792C54.5,177,52.7,178.6,49.716,178.6c-3.321,0-5.332-2.1-5.332-5.485,0-3.4,2.042-5.485,5.271-5.485,3.017,0,4.784,1.523,4.982,4.22H51.468a1.594,1.594,0,0,0-1.767-1.615c-1.31,0-1.95.96-1.95,2.879,0,1.889.7,2.864,2.057,2.864a1.678,1.678,0,0,0,1.752-1.722h3.123v.015Zm-.716-6.338h3.4l1.752,6.7,1.874-6.7h3.275l-3.489,10.39H57.455ZM33.7,167.649a1.487,1.487,0,0,0-1.082.457l-2.179,2.179a1.554,1.554,0,0,0,0,2.179L36.6,178.6l6.14-6.155a1.554,1.554,0,0,0,0-2.179l-2.179-2.163a1.527,1.527,0,0,0-2.179,0L36.6,169.9l-1.8-1.8a1.546,1.546,0,0,0-1.1-.457Z" transform="translate(1251.575 421.092)" fill="#e1e1e1" fill-rule="evenodd"/>
    <g id="British_Airways" data-name="British Airways" transform="translate(1166.03 585.605)">
      <path id="Path_38176" data-name="Path 38176" d="M715.864-106.817a.6.6,0,0,0,.282-.538v-4.966a.609.609,0,0,0-.282-.546h2.368c1.055,0,2.086.433,2.086,1.631a1.363,1.363,0,0,1-1.152,1.25,1.541,1.541,0,0,1,1.693,1.467c0,1.357-1.425,1.7-2.425,1.7h-2.569Zm1.917-5.529a2.628,2.628,0,0,0-.389.025v2.117h.24c.726,0,1.426-.222,1.426-1.064s-.56-1.077-1.277-1.077Zm.15,2.688c-.173,0-.328,0-.539.015v2.238a4.249,4.249,0,0,0,.809.067,1.1,1.1,0,0,0,1.225-1.2c0-.916-.73-1.121-1.5-1.121Zm5.268-2.688a2.133,2.133,0,0,0-.311.032v2.094c.1.005.188.017.288.017a1.067,1.067,0,0,0,1.185-1.118c0-.756-.5-1.026-1.162-1.026Zm3.05,5.566a2.576,2.576,0,0,1-.709-.058c-.412-.121-.98-1.048-1.206-1.413-.351-.592-.658-1.407-1.446-1.416v2.312a.593.593,0,0,0,.288.538h-1.817a.6.6,0,0,0,.282-.538v-4.966a.621.621,0,0,0-.282-.546h2.187c.953,0,2.144.366,2.144,1.509a1.5,1.5,0,0,1-1.68,1.451c1.26.008,2,2.962,3.39,2.972a4.078,4.078,0,0,1-1.15.156Zm1.242-.037a.588.588,0,0,0,.307-.538v-4.966a.607.607,0,0,0-.307-.546h1.862a.589.589,0,0,0-.3.546v4.966a.571.571,0,0,0,.3.538Zm4.042,0a.583.583,0,0,0,.3-.538v-4.818h-1.338a1.919,1.919,0,0,0-.941.2l.416-.89H734.4a5.146,5.146,0,0,0,1.076-.082,1.278,1.278,0,0,1-.963.794c-.353-.009-.935-.032-1.438-.032v4.833a.593.593,0,0,0,.3.538Zm4.166,0a.587.587,0,0,0,.3-.538v-4.966a.606.606,0,0,0-.3-.546h1.862a.6.6,0,0,0-.309.546v4.966a.577.577,0,0,0,.309.538Zm5.489-1.369c0-1.152-2.715-1.413-2.715-3.252,0-1.139,1.083-1.513,2.036-1.513a3.876,3.876,0,0,1,1.428.238l.067,1.131a1.622,1.622,0,0,0-1.392-.861c-.439,0-.9.217-.9.719,0,1.2,2.761,1.488,2.761,3.23,0,1.265-1.106,1.789-2.22,1.789a3.605,3.605,0,0,1-1.869-.449,4.159,4.159,0,0,1-.044-.621,5,5,0,0,1,.057-.738,1.949,1.949,0,0,0,1.737,1.246c.6,0,1.053-.263,1.053-.92ZM747-106.817a.592.592,0,0,0,.273-.538v-2.251a12.328,12.328,0,0,0-1.285-.052,12.723,12.723,0,0,0-1.3.052v2.251a.6.6,0,0,0,.268.538h-1.792a.59.59,0,0,0,.274-.538v-4.966a.612.612,0,0,0-.274-.546h1.792a.614.614,0,0,0-.268.546v2.034c.332.034.778.052,1.3.052.508,0,.961-.023,1.285-.052v-2.034a.614.614,0,0,0-.273-.546h1.791a.607.607,0,0,0-.266.546v4.966a.6.6,0,0,0,.266.538Zm0,0" transform="translate(-715.864 120.421)" fill="#e1e1e1"/>
      <path id="Path_38177" data-name="Path 38177" d="M791.844-106.817a.266.266,0,0,0,.109-.209.635.635,0,0,0-.057-.209s-.5-1.354-.556-1.511a9.383,9.383,0,0,0-1.143-.046,10.174,10.174,0,0,0-1.087.046c-.05.136-.583,1.48-.583,1.48a1.147,1.147,0,0,0-.1.284c0,.09.077.134.142.165h-1.218a.931.931,0,0,0,.412-.466l2-5.167a.168.168,0,0,0,.012-.073.406.406,0,0,0-.221-.345h1.57l2.036,5.581a.928.928,0,0,0,.408.47Zm-1.582-4.9-.918,2.356a8.154,8.154,0,0,0,.834.036,8.023,8.023,0,0,0,.939-.036Zm3.624,4.9a.587.587,0,0,0,.3-.538v-4.966a.606.606,0,0,0-.3-.546h1.862a.59.59,0,0,0-.307.546v4.966a.572.572,0,0,0,.307.538Zm4.691-5.529a2.109,2.109,0,0,0-.3.032v2.094c.1.005.186.017.282.017a1.067,1.067,0,0,0,1.185-1.118c0-.756-.5-1.026-1.164-1.026Zm3.2,5.566a2.572,2.572,0,0,1-.707-.058c-.414-.121-.982-1.048-1.208-1.413-.349-.592-.805-1.416-1.59-1.416v2.312a.592.592,0,0,0,.282.538h-1.817a.592.592,0,0,0,.288-.538v-4.966a.613.613,0,0,0-.288-.546h2.193c.949,0,2.14.366,2.14,1.509a1.5,1.5,0,0,1-1.524,1.451c1.305.077,2.092,2.972,3.387,2.972a4.122,4.122,0,0,1-1.156.156Zm7.55-5.5-1.838,5.46a.719.719,0,0,1-.386-.111,5.119,5.119,0,0,1-.569-1.175l-.832-2.1-1.2,3.387h-.572l-2.057-5.473a1.072,1.072,0,0,0-.464-.577H803.2a.29.29,0,0,0-.127.253.732.732,0,0,0,.052.211l1.34,3.622,1.427-4.085,1.572,3.938,1.191-3.564a.667.667,0,0,0,.046-.194.212.212,0,0,0-.105-.18h1.183a1.063,1.063,0,0,0-.453.59Zm2.2.562-.918,2.356a8.239,8.239,0,0,0,.836.036,8.059,8.059,0,0,0,.94-.036Zm1.58,4.9a.256.256,0,0,0,.109-.209.879.879,0,0,0-.056-.209s-.493-1.354-.552-1.511a9.494,9.494,0,0,0-1.146-.046,10.161,10.161,0,0,0-1.085.046c-.052.136-.581,1.48-.581,1.48a.969.969,0,0,0-.1.284c0,.09.075.134.138.165h-1.218a.916.916,0,0,0,.41-.466l2.009-5.167a.26.26,0,0,0,.012-.073.4.4,0,0,0-.226-.345H812.4l2.036,5.581a.94.94,0,0,0,.41.47Zm5.468-5.414-1.434,2.513v2.362a.6.6,0,0,0,.27.538h-1.783a.635.635,0,0,0,.267-.538v-2.372l-1.246-2c-.113-.186-.633-1.056-1.266-1.056a4.022,4.022,0,0,1,1.047-.165,1.165,1.165,0,0,1,1.237.615l1.152,1.827c.1-.178,1.011-1.765,1.011-1.765a1.315,1.315,0,0,0,.186-.4.228.228,0,0,0-.127-.2h1.285a1.582,1.582,0,0,0-.6.637Zm3.355,4.045c0-1.152-2.715-1.413-2.715-3.252,0-1.139,1.079-1.513,2.032-1.513a3.863,3.863,0,0,1,1.428.238l.069,1.131a1.629,1.629,0,0,0-1.394-.861c-.439,0-.9.217-.9.719,0,1.2,2.761,1.488,2.761,3.23,0,1.265-1.1,1.789-2.22,1.789a3.622,3.622,0,0,1-1.871-.449,3.925,3.925,0,0,1-.048-.621,4.762,4.762,0,0,1,.061-.738,1.947,1.947,0,0,0,1.737,1.246c.606,0,1.057-.263,1.057-.92Zm0,0" transform="translate(-752.267 120.421)" fill="#e1e1e1"/>
      <g id="Group_33266" data-name="Group 33266" transform="translate(76.278 3.227)">
        <path id="Path_38178" data-name="Path 38178" d="M881.366-121.506a14.1,14.1,0,0,1-4.306,2.286c-1.482.556-2.139.753-2.968,1.023-.937.3-2.814.873-2.814.873a46.3,46.3,0,0,0,6.628,1.511,21.017,21.017,0,0,0,3.3-1.476,8.484,8.484,0,0,0,2.019-1.29,1.951,1.951,0,0,0,.6-1,1.441,1.441,0,0,0,.023-.22s0-.065-.005-.121a.534.534,0,0,0-.014-.109,1.667,1.667,0,0,0-.05-.2,1.328,1.328,0,0,0-.359-.495,3,3,0,0,0-1.217-.683,7.367,7.367,0,0,0-.755-.193Zm0,0" transform="translate(-871.278 121.598)" fill="#e1e1e1"/>
        <g id="Group_33265" data-name="Group 33265" clip-path="url(#clip-path-3)">
          <g id="Group_33264" data-name="Group 33264" transform="translate(-0.066 -0.111)">
            <rect id="Rectangle_650" data-name="Rectangle 650" width="12.722" height="6.007" fill="#e1e1e1"/>
          </g>
        </g>
      </g>
      <g id="Group_33267" data-name="Group 33267" transform="translate(52.815 0)">
        <path id="Path_38180" data-name="Path 38180" d="M859.5-123.175a1,1,0,0,0-.032-.2.713.713,0,0,0-.111-.241,2.084,2.084,0,0,0-.287-.34,2.591,2.591,0,0,0-.342-.265,4.525,4.525,0,0,0-1.821-.627,16.893,16.893,0,0,0-2.118-.106c-.345-.006-2.585.013-3.16.023-2.554.052-5.682.059-6.5.059-8.458.038-12.139-.144-16.239-.964a46.826,46.826,0,0,1-5.42-1.352c3.075-.105,21.017-.849,24.289-.937,2.141-.059,3.664-.073,4.881,0a16.658,16.658,0,0,1,1.934.211,9.406,9.406,0,0,1,1.595.431,3.793,3.793,0,0,1,1.647,1.06,3.051,3.051,0,0,1,.211.255c.136.19.295.424.348.51a11.38,11.38,0,0,1,.727,1.242c.08.155.15.314.218.472a3.323,3.323,0,0,1,.115.318,1.825,1.825,0,0,1,.059.349Zm0,0" transform="translate(-823.473 128.173)" fill="#e1e1e1"/>
      </g>
    </g>
  </g>
</svg>
