<svg xmlns="http://www.w3.org/2000/svg" width="209.757" height="103.13" viewBox="0 0 209.757 103.13">
  <g id="Group_33338" data-name="Group 33338" transform="translate(-801.722 -499.122)">
    <path id="Moo" d="M95.924,205.044l4.818-9.322a.85.85,0,0,1,.838-.576.8.8,0,0,1,.838.838v11.26a.839.839,0,0,1-.838.89.851.851,0,0,1-.89-.89v-7.856l-3.823,7.332a1.119,1.119,0,0,1-.943.576,1.057,1.057,0,0,1-.943-.576l-3.823-7.332v7.856a.851.851,0,0,1-.89.89.839.839,0,0,1-.838-.89V196.036a.77.77,0,0,1,.838-.838.9.9,0,0,1,.838.576l4.818,9.27Zm14.873,1.571a4.975,4.975,0,1,1,4.975-4.975,4.973,4.973,0,0,1-4.975,4.975m6.651-4.975a6.651,6.651,0,1,0-6.651,6.651,6.661,6.661,0,0,0,6.651-6.651m8.222,4.975a4.975,4.975,0,1,1,4.975-4.975,4.973,4.973,0,0,1-4.975,4.975m6.651-4.975a6.651,6.651,0,1,0-6.651,6.651,6.661,6.661,0,0,0,6.651-6.651m-55.513,8.013a5.08,5.08,0,0,0,5.132-5.132,7.113,7.113,0,0,0-.1-1.048,22.675,22.675,0,0,0-2.619-5.813c-1.152-2.043-2.147-3.509-2.147-3.509l-.262-.367-.209.314s-1,1.519-2.147,3.509a19.417,19.417,0,0,0-2.619,5.813,7.11,7.11,0,0,0-.1,1.047,5.269,5.269,0,0,0,1.048,3.142,4.892,4.892,0,0,0,4.033,2.042m0,1.781A6.834,6.834,0,0,1,70,204.625a5.7,5.7,0,0,1,.157-1.362c.262-1.519,1.362-3.98,3.352-7.384,1.466-2.514,2.671-4.4,2.723-4.4.1-.209.262-.471.576-.471s.471.262.628.471c0,0,1.257,1.885,2.723,4.4,1.99,3.4,3.09,5.866,3.352,7.384a5.71,5.71,0,0,1,.157,1.362,6.6,6.6,0,0,1-1.414,4.137,7.054,7.054,0,0,1-5.447,2.671" transform="translate(731.723 308.114)" fill="#e1e1e1"/>
    <g id="News_UK" data-name="News UK" transform="translate(913.728 500.301)">
      <g id="Group_33333" data-name="Group 33333" transform="translate(0 0)">
        <path id="Path_38427" data-name="Path 38427" d="M737.238,242.949a8.423,8.423,0,0,1-2.054,2.041,1.592,1.592,0,0,1-2.624-.756,8.683,8.683,0,0,1-.536-1.707c-.3-.055-.454.178-.653.3a16.49,16.49,0,0,1-5.5,2.434,7.048,7.048,0,0,1-3.6-.166,3.166,3.166,0,0,1-2.283-2.431c-.079-.364-.226-.416-.554-.4a2.386,2.386,0,0,1-1.508-.377,1.154,1.154,0,0,1-.241-1.79.545.545,0,0,1,.808-.163,1.234,1.234,0,0,0,1.941-.633,6,6,0,0,1,5.3-3.683,1.84,1.84,0,0,1,1.948.878,1.792,1.792,0,0,1-.4,2.09,6.72,6.72,0,0,1-.89.856,13.626,13.626,0,0,1-3.941,2.2c-.549.2-.583.436-.329.891a2.259,2.259,0,0,0,1.849,1.143,5.056,5.056,0,0,0,2.11-.185,13.457,13.457,0,0,0,4.856-2.776,1.522,1.522,0,0,0,.711-1.123c0-.269.234-.255.39-.3a1.343,1.343,0,0,1,1.774,1.352,5.852,5.852,0,0,0,.208,1.7c.222.625.535.719.989.237a12.133,12.133,0,0,0,2.165-2.739.9.9,0,0,1,1.111-.572.948.948,0,0,1,.709.977c.048.709.079,1.42.155,2.126.028.261.068.6.354.7.3.111.5-.174.688-.356a24.556,24.556,0,0,0,1.94-2.321c.83-1.014,1.1-1.09,2.366-.712a3.791,3.791,0,0,0,2.872-.235,1.811,1.811,0,0,1,.994-.2,1.04,1.04,0,0,1,1.033.85.939.939,0,0,1-.659,1.083,5.812,5.812,0,0,1-3.957.4,1.122,1.122,0,0,0-1.287.344c-.353.392-.705.784-1.048,1.185a9.262,9.262,0,0,1-2,1.872,1.71,1.71,0,0,1-2.708-.665A5.066,5.066,0,0,1,737.238,242.949Zm-14.867-3.42a8.276,8.276,0,0,0,2.976-1.5c.131-.116.312-.268.223-.458-.106-.227-.336-.18-.542-.121A4.377,4.377,0,0,0,722.371,239.529Z" transform="translate(-702.996 -227.866)" fill="#e1e1e1"/>
        <path id="Path_38428" data-name="Path 38428" d="M623.222,193.317c1.922-3.886,3.93-7.638,6.164-11.269.348-.566.7-1.13,1.086-1.671a2.234,2.234,0,0,1,1.1-.9,1.185,1.185,0,0,1,1.269.29.951.951,0,0,1,.1,1.208,4.1,4.1,0,0,1-.52.806c-3.236,3.7-5.369,8.069-7.47,12.453-.306.639-.555,1.306-.848,1.952a1.078,1.078,0,0,1-1.443.7c-.779-.162-1.013-.42-1.006-1.217a7.058,7.058,0,0,0-.319-2.031,26.061,26.061,0,0,1-.936-6.663c-.241.064-.263.266-.337.409q-1.758,3.383-3.5,6.774a4.9,4.9,0,0,0-.7,2.2c-.007.537-.5.82-.99.908a1.62,1.62,0,0,1-1.6-.383c-.418-.489-.084-1.016.168-1.466q1.346-2.4,2.745-4.763c.967-1.638,1.813-3.339,2.651-5.044a6.683,6.683,0,0,0,.7-2.146c.02-.168-.019-.358.206-.465a1.75,1.75,0,0,1,2.337,1.3c.223,2.143.107,4.314.536,6.438C622.782,191.6,623.015,192.457,623.222,193.317Z" transform="translate(-613.069 -179.402)" fill="#e1e1e1"/>
        <path id="Path_38429" data-name="Path 38429" d="M1056.332,213.223c.028.319.067.638.082.957.117,2.486,1.948,3.578,4.061,3.546a3.647,3.647,0,0,0,3.828-3.946c.035-2.728.01-5.457.012-8.185,0-.763.285-.959,1.051-.779.293.069.28.27.277.468-.041,3.071.132,6.146-.092,9.213a4.572,4.572,0,0,1-4.188,4.225,8.147,8.147,0,0,1-2.4-.037,4.437,4.437,0,0,1-3.854-4.438c-.063-2.91-.009-5.822,0-8.734.141-.337.272-.648.76-.553.52.1.323.489.325.76.016,2.263.006,4.527.013,6.79C1056.2,212.75,1056.111,213.018,1056.332,213.223Z" transform="translate(-994.183 -201.26)" fill="#e1e1e1"/>
        <path id="Path_38430" data-name="Path 38430" d="M937.831,243.322c-.569-.708-1.1-1.333-1.594-1.992-.784-1.055-1.453-2.176-.859-3.545.6-1.395,1.891-1.772,3.243-1.965a4.274,4.274,0,0,1,2.107.1c.543.2.927.53.819,1.168a1.133,1.133,0,0,1-1.236.959,13.539,13.539,0,0,0-1.974-.2c-.943.092-1.3.53-1.139,1.468a3.543,3.543,0,0,0,.848,1.625c.567.69,1.169,1.351,1.754,2.025a1.416,1.416,0,0,1,.324,1.64,1.488,1.488,0,0,1-1.632.873q-2.666-.27-5.329-.569c-.865-.1-1.1-.558-.72-1.331.413-.83.881-.993,1.772-.617A9.261,9.261,0,0,0,937.831,243.322Z" transform="translate(-888.29 -227.976)" fill="#e1e1e1"/>
        <path id="Path_38431" data-name="Path 38431" d="M1170.128,211.325c1.746-1.783,3.534-3.529,5.22-5.367a2.37,2.37,0,0,1,2.516-.835,9.782,9.782,0,0,1-1.185,1.2c-1.538,1.508-3.057,3.036-4.6,4.534-.323.313-.324.488-.015.821,2.062,2.212,4.1,4.446,6.143,6.676.1.113.261.193.26.44a2.274,2.274,0,0,1-2.276-.69c-1.958-2.3-4.033-4.5-6.062-6.743Z" transform="translate(-1093.38 -201.507)" fill="#e1e1e1"/>
        <path id="Path_38432" data-name="Path 38432" d="M1163.28,212.4l0,.04-.057.183c-.2.079-.41.413-.572-.068-.05-.149-.28-.2-.465-.21q0-3.029,0-6.058h.688a.61.61,0,0,1,.127.637,31.568,31.568,0,0,0-.122,4.486c-.012.354-.012.732.369.947Z" transform="translate(-1086.533 -202.581)" fill="#e1e1e1"/>
        <path id="Path_38433" data-name="Path 38433" d="M1161.333,250.263c.185.009.415.062.465.21.162.48.373.146.572.068.015,2.29.037,4.58.04,6.87,0,.477-.415.567-1.214.289.247-.242.091-.551.137-.827.078.041.178.063.228.126.1.125-.007.43.276.387s.132-.319.135-.457q.048-2.642.039-5.285c0-.319-.14-.586-.542-.555A1.4,1.4,0,0,1,1161.333,250.263Z" transform="translate(-1085.681 -240.501)" fill="#e1e1e1"/>
        <path id="Path_38434" data-name="Path 38434" d="M1167.455,211.455c-.38-.215-.381-.593-.369-.947a31.5,31.5,0,0,1,.122-4.486.611.611,0,0,0-.127-.637c0-.042,0-.084,0-.127.387-.084.4.157.4.438Q1167.46,208.575,1167.455,211.455Z" transform="translate(-1090.741 -201.681)" fill="#e1e1e1"/>
        <path id="Path_38435" data-name="Path 38435" d="M1161.189,218.949c-.046.275.11.584-.136.827a.112.112,0,0,1-.01-.121c0-.054,0-.109,0-.163q0-.2,0-.4v-.149q0-6.119,0-12.239,0-.149,0-.3a.132.132,0,0,1,0-.126h.141q0,3.029,0,6.058a1.4,1.4,0,0,0,.136.826,1.42,1.42,0,0,0-.138.795Q1161.191,216.455,1161.189,218.949Z" transform="translate(-1085.537 -202.577)" fill="#e1e1e1"/>
        <path id="Path_38436" data-name="Path 38436" d="M1056.293,213.5c-.221-.2-.128-.473-.129-.713-.007-2.263,0-4.527-.013-6.79,0-.271.2-.658-.325-.76-.488-.1-.619.215-.76.553-.079-.44-.052-.736.552-.713.494.019.722.078.712.664C1056.288,208.328,1056.3,210.915,1056.293,213.5Z" transform="translate(-994.144 -201.539)" fill="#e1e1e1"/>
        <path id="Path_38437" data-name="Path 38437" d="M1162.865,205.34c0,.042,0,.085,0,.127h-.689c0-.044,0-.087,0-.13Z" transform="translate(-1086.527 -201.763)" fill="#e1e1e1"/>
        <path id="Path_38438" data-name="Path 38438" d="M1160.8,207.2q0,.149,0,.3A.231.231,0,0,1,1160.8,207.2Z" transform="translate(-1085.29 -203.368)" fill="#e1e1e1"/>
        <path id="Path_38439" data-name="Path 38439" d="M1161.3,205.331c0,.044,0,.087,0,.13h-.14C1161.162,205.367,1161.209,205.324,1161.3,205.331Z" transform="translate(-1085.651 -201.758)" fill="#e1e1e1"/>
        <path id="Path_38440" data-name="Path 38440" d="M1160.963,298.194v.149a.6.6,0,0,1-.032-.1C1160.929,298.226,1160.952,298.209,1160.963,298.194Z" transform="translate(-1085.452 -281.828)" fill="#e1e1e1"/>
        <path id="Path_38441" data-name="Path 38441" d="M1160.948,302.175q0,.081,0,.163a.676.676,0,0,1-.029-.113C1160.913,302.209,1160.936,302.192,1160.948,302.175Z" transform="translate(-1085.438 -285.261)" fill="#e1e1e1"/>
        <path id="Path_38442" data-name="Path 38442" d="M1162.172,262.026q0-2.495,0-4.989a1.42,1.42,0,0,1,.138-.795c.4-.031.54.236.541.555,0,1.762-.007,3.523-.039,5.285,0,.137.149.415-.134.457s-.176-.263-.276-.387C1162.349,262.089,1162.249,262.067,1162.172,262.026Z" transform="translate(-1086.52 -245.654)" fill="#e1e1e1"/>
      </g>
    </g>
    <g id="Plenty_of_Fish" data-name="Plenty of Fish" transform="translate(801.723 543.924)">
      <path id="Path_38455" data-name="Path 38455" d="M-160.431,455.191a1.308,1.308,0,0,0,1.354-1.463,1.289,1.289,0,0,0-1.33-1.439h-1.4v2.9Zm-2.844-4.234h3.117a2.547,2.547,0,0,1,2.57,2.771,2.578,2.578,0,0,1-2.57,2.806h-1.649v2.939h-1.468Z" transform="translate(185.067 -448.447)" fill="#e1e1e1" fill-rule="evenodd"/>
      <path id="Path_38456" data-name="Path 38456" d="M-151.283,450.921h1.365v6.4c0,.674.206.842.564.842a1.871,1.871,0,0,0,.206-.012v1.336a2.787,2.787,0,0,1-.433.037c-.759,0-1.7-.217-1.7-1.974Z" transform="translate(179.747 -448.431)" fill="#e1e1e1" fill-rule="evenodd"/>
      <path id="Path_38457" data-name="Path 38457" d="M-142.362,457.253a1.166,1.166,0,0,0-1.167-1.281,1.394,1.394,0,0,0-1.409,1.281Zm-1.132-2.465a2.619,2.619,0,0,1,2.612,2.925c0,.181-.035.592-.035.592h-4.067a1.7,1.7,0,0,0,1.768,1.631,2.849,2.849,0,0,0,1.7-.677l.566,1.1a3.6,3.6,0,0,1-2.369.882,3.09,3.09,0,0,1-3.166-3.228A2.986,2.986,0,0,1-143.494,454.788Z" transform="translate(177.62 -450.147)" fill="#e1e1e1" fill-rule="evenodd"/>
      <path id="Path_38458" data-name="Path 38458" d="M-134.016,454.93h1.356v.7a3.991,3.991,0,0,1-.022.415h.022a2.192,2.192,0,0,1,2.012-1.256c1.257,0,1.968.7,1.968,2.3v3.886h-1.4V457.4c0-.735-.178-1.232-.9-1.232A1.584,1.584,0,0,0-132.5,457.4a2.7,2.7,0,0,0-.1.806v2.772h-1.412Z" transform="translate(172.087 -450.147)" fill="#e1e1e1" fill-rule="evenodd"/>
      <path id="Path_38459" data-name="Path 38459" d="M-121.727,454.845h-.778v-1.2h.813v-1.753h1.461v1.753h1.368v1.2h-1.368v2.361a1.072,1.072,0,0,0,1.191,1.145,1.321,1.321,0,0,0,.271-.025v1.324a2.523,2.523,0,0,1-.46.036,2.2,2.2,0,0,1-2.5-2.29Z" transform="translate(166.98 -448.86)" fill="#e1e1e1" fill-rule="evenodd"/>
      <path id="Path_38460" data-name="Path 38460" d="M-114.116,461.916a1.192,1.192,0,0,0,.635.252,1.084,1.084,0,0,0,.981-.792l.212-.54-2.4-6.022h1.594l1.193,3.527a8.009,8.009,0,0,1,.211.827h.022s.089-.48.19-.8l1.114-3.551h1.55l-2.542,7.041a2.142,2.142,0,0,1-2.051,1.6,2.092,2.092,0,0,1-1.182-.4Z" transform="translate(163.511 -450.159)" fill="#e1e1e1" fill-rule="evenodd"/>
      <path id="Path_38461" data-name="Path 38461" d="M-99.291,460.741a2.311,2.311,0,0,0,2.261-2.406A2.271,2.271,0,0,0-99.291,456a2.271,2.271,0,0,0-2.262,2.336A2.312,2.312,0,0,0-99.291,460.741Zm0-5.47a3.03,3.03,0,0,1,3.069,3.063,3.058,3.058,0,0,1-3.069,3.122,3.058,3.058,0,0,1-3.069-3.122A3.03,3.03,0,0,1-99.291,455.271Z" transform="translate(158.043 -450.361)" fill="#e1e1e1" fill-rule="evenodd"/>
      <path id="Path_38462" data-name="Path 38462" d="M-89.2,454.077h-.69v-.671h.69v-.283c0-1.955,1.282-2.2,1.906-2.2a2.091,2.091,0,0,1,.339.024v.718a1.36,1.36,0,0,0-.263-.024c-.427,0-1.238.165-1.238,1.484v.283h1.413v.671h-1.413v5.181H-89.2Z" transform="translate(152.511 -448.431)" fill="#e1e1e1" fill-rule="evenodd"/>
      <path id="Path_38463" data-name="Path 38463" d="M-80.3,450.921h4.537v1.3h-3.1v2.36h2.613v1.3h-2.613v3.37H-80.3Z" transform="translate(148.255 -448.431)" fill="#e1e1e1" fill-rule="evenodd"/>
      <path id="Path_38464" data-name="Path 38464" d="M-70.224,459.258h1.334v-5.988h-1.334Zm0-7.01H-68.9v-1.327h-1.324Z" transform="translate(143.787 -448.431)" fill="#e1e1e1" fill-rule="evenodd"/>
      <path id="Path_38465" data-name="Path 38465" d="M-64.757,459.26a2.415,2.415,0,0,0,1.6.677c.416,0,.773-.193.773-.556,0-.919-2.862-.8-2.862-2.78,0-1.148.981-1.813,2.251-1.813a2.756,2.756,0,0,1,1.974.7l-.542,1.136A2.185,2.185,0,0,0-63,456.093c-.381,0-.75.17-.75.556,0,.87,2.862.761,2.862,2.743,0,1.027-.855,1.849-2.251,1.849a3.226,3.226,0,0,1-2.286-.907Z" transform="translate(141.658 -450.147)" fill="#e1e1e1" fill-rule="evenodd"/>
      <path id="Path_38466" data-name="Path 38466" d="M-55.354,450.921h1.412v2.889c0,.293-.022.5-.022.5h.022a2.17,2.17,0,0,1,1.957-1.186c1.256,0,1.968.693,1.968,2.278v3.851h-1.4v-3.546c0-.728-.177-1.221-.9-1.221a1.612,1.612,0,0,0-1.534,1.245,2.819,2.819,0,0,0-.089.775v2.747h-1.412Z" transform="translate(137.19 -448.431)" fill="#e1e1e1" fill-rule="evenodd"/>
      <g id="Group_33336" data-name="Group 33336" transform="translate(0 0)">
        <path id="Path_38467" data-name="Path 38467" d="M-195.738,448.72c0,.056,0,.112,0,.168h0a10.764,10.764,0,0,1-1.238,4.864,10.746,10.746,0,0,1,1.194,4.033,10.848,10.848,0,0,0,2.7.339c.14,0,.279,0,.418-.009a10.752,10.752,0,0,1-.719,2.6.312.312,0,0,0,.473.373,9.732,9.732,0,0,0,2.9-3.41h0a10.817,10.817,0,0,0,4.381-2.528,10.829,10.829,0,0,0-4.81-7.021,10.778,10.778,0,0,0-5.532-1.685c-.092,0-.185,0-.278,0a10.835,10.835,0,0,0-1.71.135.293.293,0,0,0-.1.545,10.857,10.857,0,0,1,2.324,1.762c0-.056-.023-.118,0-.168" transform="translate(200.568 -446.446)" fill="#e1e1e1" fill-rule="evenodd"/>
        <path id="Path_38468" data-name="Path 38468" d="M-201.951,453.006a.308.308,0,0,0-.475.347,10.785,10.785,0,0,1,.607,3.58,10.934,10.934,0,0,1-.109,1.537,10.832,10.832,0,0,1-.259,1.269.313.313,0,0,0,.5.323,10.9,10.9,0,0,0,.869-.773,10.864,10.864,0,0,0,1.965-2.653A10.876,10.876,0,0,0-201.951,453.006Z" transform="translate(202.445 -449.328)" fill="#e1e1e1" fill-rule="evenodd"/>
      </g>
    </g>
    <g id="Siemens" transform="translate(913.727 545.103)">
      <path id="Path_37589" data-name="Path 37589" d="M878.9,526.751V529.1a10.625,10.625,0,0,0-3.313-.618c-1.2,0-1.872.367-1.872,1.025,0,.42.293.7,1.134,1.076l2.261,1.014c1.808.812,2.719,2,2.719,3.538,0,2.377-2.057,3.876-5.319,3.876a18.645,18.645,0,0,1-4.023-.5v-2.426a15.2,15.2,0,0,0,3.8.6c1.348,0,2.07-.376,2.07-1.075,0-.422-.282-.731-.928-1.018l-2.474-1.1c-1.834-.818-2.68-1.92-2.68-3.491,0-2.251,1.983-3.686,5.094-3.686a15.888,15.888,0,0,1,3.534.436Z" transform="translate(-870.275 -526.315)" fill="#e1e1e1" fill-rule="evenodd"/>
      <path id="Path_37590" data-name="Path 37590" d="M895.345,526.86H899v12.2h-3.656v-12.2Z" transform="translate(-884.03 -526.614)" fill="#e1e1e1" fill-rule="evenodd"/>
      <path id="Path_37591" data-name="Path 37591" d="M918.751,526.86V529.1h-5.519v2.752h4.821v2.021h-4.821v2.854h5.59v2.339H909.68v-12.2Z" transform="translate(-891.894 -526.614)" fill="#e1e1e1" fill-rule="evenodd"/>
      <path id="Path_37592" data-name="Path 37592" d="M949.659,526.86v12.2h-3.537v-8.032l-3.464,8.127h-2.236l-3.441-8.127v8.032h-2.442v-12.2H939l3.156,7.422,3.14-7.422Z" transform="translate(-905.532 -526.614)" fill="#e1e1e1" fill-rule="evenodd"/>
      <path id="Path_37593" data-name="Path 37593" d="M983.345,526.86V529.1h-5.527v2.752h4.82v2.021h-4.82v2.854h5.59v2.339h-9.151v-12.2Z" transform="translate(-927.324 -526.614)" fill="#e1e1e1" fill-rule="evenodd"/>
      <path id="Path_37594" data-name="Path 37594" d="M1009.87,526.86v12.2h-3.9l-4.393-7.827v7.827h-2.443v-12.2h4l4.3,7.723V526.86Z" transform="translate(-940.972 -526.614)" fill="#e1e1e1" fill-rule="evenodd"/>
      <path id="Path_37595" data-name="Path 37595" d="M1035.938,526.752V529.1a10.651,10.651,0,0,0-3.295-.618c-1.222,0-1.891.361-1.891,1.021,0,.431.273.688,1.143,1.081l2.251,1.014c1.821.821,2.721,2,2.721,3.554,0,2.364-2.059,3.86-5.313,3.86a18.71,18.71,0,0,1-4.028-.5v-2.426a15.189,15.189,0,0,0,3.787.6c1.339,0,2.081-.375,2.081-1.053,0-.449-.26-.738-.937-1.04l-2.465-1.1c-1.845-.825-2.682-1.913-2.682-3.49,0-2.25,1.984-3.686,5.088-3.686a15.928,15.928,0,0,1,3.54.436Z" transform="translate(-956.43 -526.316)" fill="#e1e1e1" fill-rule="evenodd"/>
    </g>
    <g id="Allstate" transform="translate(801.723 586.367)">
      <path id="Path_38173" data-name="Path 38173" d="M73.8,16.932a.826.826,0,1,1,.808-.824A.777.777,0,0,1,73.8,16.932Zm0-1.556a.731.731,0,1,0,.693.732A.672.672,0,0,0,73.8,15.376Zm.239,1.173-.273-.39h-.089v.377h-.157v-.913H73.8c.193,0,.321.1.321.266a.248.248,0,0,1-.186.252l.264.373Zm-.243-.785h-.119v.27h.113c.1,0,.168-.042.168-.135s-.058-.135-.162-.135ZM31.062,6.925,24.837,16.932h2.116s1.535-2.491,1.589-2.576h3.572v2.577h2.009V6.925Zm1.048,5.658H29.655C29.807,12.34,32.11,8.6,32.11,8.6v3.985Zm3.438-5.658H37.5V16.933H35.549Zm3.373,0h1.949V16.933H38.922Zm6.246,5.281c-1.062-.278-1.284-.432-1.256-.874.022-.4.349-.631.9-.631a4.788,4.788,0,0,1,2.209.635l.111.064L47.4,9.73l-.064-.03a6.116,6.116,0,0,0-2.525-.509,2.945,2.945,0,0,0-2.138.774,2.027,2.027,0,0,0-.576,1.483c.034,1.543.769,1.979,2.512,2.427,1.152.284,1.387.453,1.378,1-.006.493-.3.68-1.084.68a4.82,4.82,0,0,1-2.545-.825l-.116-.077-.27,1.676.058.033a6.2,6.2,0,0,0,2.815.7,3.265,3.265,0,0,0,2.392-.762,2.134,2.134,0,0,0,.57-1.59C47.773,13.057,46.937,12.662,45.168,12.206Zm7.371,3.041-.1.027a2.027,2.027,0,0,1-.536.056c-.579,0-.848-.261-.848-.825V10.961h1.431l.028-1.63H51.056V6.924h-1.92V9.33h-1v1.63h1V14.8c0,1.52.793,2.263,2.43,2.263a4.868,4.868,0,0,0,1.139-.123l.088-.016-.254-1.675Zm4.156-6.072a7.5,7.5,0,0,0-2.859.582l-.07.027.251,1.6.11-.048a5.717,5.717,0,0,1,2.337-.567c.769,0,1.131.318,1.131,1v.2c-2.883.3-4.286,1.28-4.286,3.008a1.971,1.971,0,0,0,2.11,2.1,3.164,3.164,0,0,0,2.3-.984c.037.221.137.837.137.837h1.687v-5.21c0-1.737-.907-2.549-2.851-2.549Zm-.676,6.383a.716.716,0,0,1-.778-.768c0-.842.812-1.393,2.35-1.6v1.648A2.258,2.258,0,0,1,56.019,15.557Zm8.529-.31-.1.027a2.025,2.025,0,0,1-.533.056c-.58,0-.852-.261-.852-.825V10.961H64.5l.025-1.63H63.062V6.924H61.14V9.33h-1v1.63h1V14.8c0,1.52.8,2.263,2.436,2.263a4.867,4.867,0,0,0,1.139-.123l.086-.016-.252-1.675Zm6.693-.586a4.03,4.03,0,0,1-2.395.867c-1.048,0-1.7-.71-1.81-1.943h4.549l.019-.52c0-2.576-1.07-3.885-3.186-3.89a3.057,3.057,0,0,0-2.264.864,4.286,4.286,0,0,0-1.067,3.115c0,2.424,1.37,3.927,3.568,3.927a5.011,5.011,0,0,0,2.9-.883l.048-.031-.238-1.59-.119.085ZM67.064,12.3c.088-1.09.563-1.716,1.312-1.716,1.01,0,1.277.91,1.317,1.716ZM13.423,3.46c-5.668,0-10.283,3.5-10.283,7.806s4.613,8.078,10.283,8.078S23.7,15.569,23.7,11.266,19.093,3.46,13.423,3.46Zm0,15.351c-4.908,0-8.9-3.522-8.9-7.536s3.994-7.282,8.9-7.282,8.9,3.266,8.9,7.282S18.334,18.811,13.424,18.811Z" transform="translate(-3.14 -3.46)" fill="#e1e1e1"/>
      <g id="Group_33260" data-name="Group 33260" transform="translate(3.034 0.923)">
        <path id="a" d="M28.867,19.923l.177.18s.356.2.356.2l.337.184.043.024.248.138.419.229a.367.367,0,0,0,.076.007l.537-.034a2.3,2.3,0,0,1,.91.11.311.311,0,0,1,.175.383s.275-.2.223-.429c-.027-.2-.264-.457-1.048-.5a5.149,5.149,0,0,0-.618.019h-.034c0-.006-.352-.232-.352-.232l-.147-.085c-.021-.009-.487-.255-.487-.255l-.3-.117c0-.009-.264-.379-.264-.379l-.1-.137-.282-.407-.12-.177c-.007-.01-.162-.249-.162-.249a.71.71,0,0,0,.144-.463c-.021.033-.036.04-.145.135a2.343,2.343,0,0,1-.662.3l-.1.027.787,1.033Zm1.292-.585.053.068c.022.019.355.151.355.151a5.864,5.864,0,0,1,.668.316l.376.221c.03.012.417-.016.671,0a.906.906,0,0,1,.7.333.448.448,0,0,1-.037.511.733.733,0,0,0,.382-.618c-.024-.35-.327-.678-1.451-.665,0,0-.309-.183-.309-.183l-.091-.053-.5-.255-.407-.138a1.941,1.941,0,0,0-.1-.178,6.07,6.07,0,0,0-.472-.68l-.049-.059s-.276-.382-.309-.429a.8.8,0,0,0,.013-.46,1.222,1.222,0,0,1-.123.187,1.718,1.718,0,0,1-.423.337l-.076.049,1.02,1.393.105.148Zm.46-2.493a.667.667,0,0,0-.056-.444l-.061.143a1,1,0,0,1-.395.4l-.062.034.824,1.179s.049.077.049.077l.157.212c.021.021.344.2.344.2l.122.068.371.221.34.227.025.007.508.033a1.1,1.1,0,0,1,.576.2.462.462,0,0,1,.148.578.7.7,0,0,0,.147-.843.818.818,0,0,0-.678-.346l-.524-.073s-.282-.194-.282-.194L31.8,18.3l-.1-.056-.3-.132-.787-1.269ZM27.192,9.851c.027.027.113.113.113.114l.416.38s.238.224.238.224c.175.168.217.254.211.288s-.04.048-.071.065a.376.376,0,0,1-.08.03L28,11.11l.1,0a2.135,2.135,0,0,1,1.4.673,3.959,3.959,0,0,1,1.113,2.283l.453,2.355.171.362.033.074.074.154a1.449,1.449,0,0,0,.172.3c.01.01.235.189.235.189l.327.334.1.1.156.156c.012.009.474.068.474.068.8.134.768.579.768.579s.478-.733-.662-.99c0,0-.359-.068-.367-.068h0c0-.009-.128-.183-.128-.183l-.043-.048c-.007-.009-.347-.344-.347-.344l-.156-.148s-.143-.382-.143-.382l-.2-.488a4.556,4.556,0,0,1-.131-.722c0-.013-.036-.239-.036-.239l-.15-.987c0-.016.034-.193.034-.193a4.842,4.842,0,0,1,.413-1.219,2.468,2.468,0,0,1,.775-.877,4.053,4.053,0,0,1,1.256-.429.184.184,0,0,0,.174-.148l.013-.04-.039-.006a1.057,1.057,0,0,1-.377-.119.081.081,0,0,1-.006-.03.312.312,0,0,1,.062-.138s.248-.238.248-.238l.144-.143.683-.661-.56-.189c-.074.076-.619.641-.619.641a5.967,5.967,0,0,1-1.084,1.024,2.548,2.548,0,0,0-1.263,1.207s-.092.241-.143.371a3.678,3.678,0,0,0-.624-1.158,2.741,2.741,0,0,0-1.1-.8c-.242-.23-1.039-.959-1.471-1.314ZM29.32,21.735c-.732.373-1.137.049-.959-.343A2.74,2.74,0,0,0,29.32,21.735Zm-1.256-.557c-.5.137-.683-.214-.566-.5A4.361,4.361,0,0,0,28.064,21.179ZM23.58,12.254l.137.1c.013.009.632.523.725.6l-.27.745a5.544,5.544,0,0,0-.481,1.648l0,.076c0,.01.2,1.059.2,1.059l.015.077c.113.551.241,1.177.294,1.627.012.128.043.2.092.235a8.7,8.7,0,0,1,1.407,2.2c.018.033.027.052.036.065a.633.633,0,0,0,.217.339.517.517,0,0,0,.456,0,1.718,1.718,0,0,0,.662-.828c.048.056.175.224.2.248a.689.689,0,0,0,.725,1.1c-.189.545.508.983,1.162.692a.69.69,0,0,0,.632.508,4.174,4.174,0,0,0,1.217.028,6.079,6.079,0,0,0,2.018-.512,3.4,3.4,0,0,0,1.277-1.1c0-.007.043-.055.07-.092a1.789,1.789,0,0,0,.235.341.735.735,0,0,0,.591.279.37.37,0,0,0,.275-.232,9.682,9.682,0,0,1,1.488-2.239s.049-.1.049-.1c.114-.429.518-1.492.733-2.067l.153-.413s.03-.1.03-.1c.01-.165.016-.33.016-.491A6.428,6.428,0,0,0,37.631,14a3.725,3.725,0,0,0-.3-.664l-.11-.2a4.122,4.122,0,0,1,.925-.744.3.3,0,0,1,.027-.015l-.425-.465-.3.2a.978.978,0,0,1-.815.218c-.028-.01-.285-.156-.285-.156a.6.6,0,0,0-.061-.031l-.088-.012c-.01,0-.1.019-.1.019l-.056.013.088.1a3.184,3.184,0,0,1,.405.65l.079.147.074.174.015.036.1.252.018.053.053.145.2.719a8.465,8.465,0,0,1,.266,1.85c0,.007-.007.059-.007.059s-.241.677-.241.677c-.248.7-.558,1.572-.628,1.932l-.015.043a7.012,7.012,0,0,0-1.335,2c-.031.064-.053.073-.062.074-.031.006-.108-.065-.15-.1a1.059,1.059,0,0,1-.254-.793,1.309,1.309,0,0,1,.481-.992c.048-.036.03-.1.019-.141a1.649,1.649,0,0,1,.334-1.366l.073-.053-.071-.055a3.725,3.725,0,0,1-1.246-2.666l0-.114-.126.053a.734.734,0,0,0-.062.086,2.692,2.692,0,0,0-.046.508,4.188,4.188,0,0,0,.122.977,3.087,3.087,0,0,0,.7,1.326l.015.018a1.959,1.959,0,0,0-.218,1.01,1.685,1.685,0,0,0,.019.281,1.484,1.484,0,0,0-.506,1.041s.012.315.012.318-.186.235-.186.235l-.036.052a3.155,3.155,0,0,1-1.219,1.155,5.958,5.958,0,0,1-2.761.5.283.283,0,0,1-.272-.321.183.183,0,0,1,.042-.113l.079-.085a3.775,3.775,0,0,0,1.841-.171c.013-.012.108-.154.108-.154l.037-.067-.076.018a5.456,5.456,0,0,1-2.69-.349,3.561,3.561,0,0,1-1.652-1.488l-.178-.233a1.482,1.482,0,0,0-.183-.676,1.226,1.226,0,0,0-.29-.341,1.792,1.792,0,0,0,.076-.545,1.523,1.523,0,0,0-.15-.726,1.5,1.5,0,0,0,.707-1.186,2.143,2.143,0,0,0-.117-.521l-.181-.085.012.12c.073.738-.615,1.216-1.07,1.535,0,0-.134.092-.134.092l.088.055c.356.223.362.972.281,1.394l0,.024.019.034.021.01.171.138a1.375,1.375,0,0,1-.065,1.67c-.08.083-.123.094-.146.092-.059-.012-.105-.15-.119-.2L26,20.044a7.939,7.939,0,0,0-1.176-1.912s-.015-.058-.015-.058c-.117-.946-.264-1.646-.408-2.322l-.079-.367s-.009-.1-.009-.1a5.97,5.97,0,0,1,.526-1.936l.157-.408.131-.312s.024-.046.024-.046a2.877,2.877,0,0,1,.609-.618l.111-.083-.145-.061a1.913,1.913,0,0,0-.566.171l-.05.024a.865.865,0,0,1-.625.1l-.5-.3-.4.428Z" transform="translate(-23.58 -9.68)" fill="#e1e1e1"/>
      </g>
    </g>
    <path id="CVS_pharmacy" data-name="CVS pharmacy" d="M75.554,172.052H76.9v.823h.031a2.279,2.279,0,0,1,1.92-.99c1.63,0,2.712,1.31,2.712,3.321,0,2.026-1.066,3.306-2.712,3.306a2.148,2.148,0,0,1-1.874-.9h-.031v3.032H75.57v-8.592h-.015Zm4.586,3.184c0-1.265-.488-2.209-1.585-2.209-1.173,0-1.676.99-1.676,2.209,0,1.234.533,2.118,1.722,2.118.975,0,1.539-.823,1.539-2.118Zm3.687-2.346h.031a2.125,2.125,0,0,1,1.889-.99,2.041,2.041,0,0,1,2.133,2.224v4.22H86.508v-4.052A1.113,1.113,0,0,0,85.29,173.1a1.459,1.459,0,0,0-1.463,1.554v3.687H82.456v-8.73h1.371Zm8.973,4.631a2.2,2.2,0,0,1-1.95.945c-1.219,0-2.1-.625-2.1-1.843,0-1.432,1.127-1.813,2.575-2.026.945-.152,1.478-.229,1.478-.792,0-.533-.427-.868-1.188-.868-.838,0-1.249.335-1.28,1.066h-1.31c.031-1.143.823-2.087,2.575-2.087,1.691,0,2.56.7,2.56,2.163v2.742c0,.457.091.64.533.564h.031v.884a1.244,1.244,0,0,1-.64.137c-.762.015-1.158-.244-1.28-.884Zm.015-1.447v-.99a4.2,4.2,0,0,1-1.234.4c-.9.2-1.432.366-1.432,1.1,0,.686.457.884,1.051.884A1.456,1.456,0,0,0,92.816,176.074Zm4.022-2.986h.031a1.834,1.834,0,0,1,1.676-1.082,1.341,1.341,0,0,1,.4.046V173.3H98.91a1.089,1.089,0,0,0-.335-.031,1.66,1.66,0,0,0-1.691,1.843v3.215H95.512v-6.277h1.341v1.036h-.015Zm2.757-1.036h1.341v.868h.031a2.1,2.1,0,0,1,1.828-1.021,1.782,1.782,0,0,1,1.691,1.112h.031a2.183,2.183,0,0,1,1.9-1.112,1.917,1.917,0,0,1,2,2.148v4.3H107.03V174.23a1.008,1.008,0,0,0-1.036-1.143,1.361,1.361,0,0,0-1.31,1.493v3.748h-1.371v-4.113c0-.746-.4-1.143-1.006-1.143a1.39,1.39,0,0,0-1.325,1.493v3.748H99.611v-6.262H99.6Zm13.727,5.469a2.2,2.2,0,0,1-1.95.945c-1.219,0-2.1-.625-2.1-1.843,0-1.432,1.127-1.813,2.575-2.026.945-.152,1.478-.229,1.478-.792,0-.533-.427-.868-1.188-.868-.838,0-1.249.335-1.28,1.066h-1.31c.031-1.143.823-2.087,2.575-2.087,1.691,0,2.56.7,2.56,2.163v2.742c0,.457.091.64.533.564h.031v.884a1.243,1.243,0,0,1-.64.137c-.746.015-1.158-.244-1.28-.884Zm.015-1.447v-.99a4.2,4.2,0,0,1-1.234.4c-.9.2-1.432.366-1.432,1.1,0,.686.457.884,1.051.884A1.456,1.456,0,0,0,113.337,176.073Zm2.346-.884a3.063,3.063,0,0,1,3.077-3.306,2.587,2.587,0,0,1,2.773,2.24h-1.371A1.32,1.32,0,0,0,118.791,173c-1.143,0-1.737.9-1.737,2.179,0,1.265.579,2.179,1.722,2.179a1.309,1.309,0,0,0,1.432-1.249h1.341a2.541,2.541,0,0,1-2.757,2.392,3.079,3.079,0,0,1-3.108-3.306Zm6.658,5.454v-1.127h.031a1.9,1.9,0,0,0,.548.076.864.864,0,0,0,.945-.7l.259-.716-2.362-6.125h1.463l1.158,3.275c.2.548.411,1.31.411,1.31h.031s.2-.762.4-1.31l1.112-3.275h1.417l-2.529,6.917c-.472,1.341-.945,1.752-2.026,1.752a3.069,3.069,0,0,1-.853-.076Zm-55.41-5.576c.168.777.609,1.051,1.523,1.051.808,0,1.249-.289,1.249-.746,0-.655-.594-.7-1.828-1.021a10.214,10.214,0,0,1-2.8-1.006,2.739,2.739,0,0,1-1.188-2.392c0-2.011,1.585-3.321,4.342-3.321,2.681,0,4.251,1.173,4.433,3.275H69.506c-.107-.625-.533-.914-1.341-.914-.7,0-1.051.229-1.051.7,0,.548.533.655,1.539.914a10.149,10.149,0,0,1,2.971.99,2.68,2.68,0,0,1,1.325,2.422c0,2.255-1.615,3.58-4.631,3.58-2.788,0-4.418-1.31-4.631-3.534h3.245Zm-12.249-.792C54.5,177,52.7,178.6,49.716,178.6c-3.321,0-5.332-2.1-5.332-5.485,0-3.4,2.042-5.485,5.271-5.485,3.017,0,4.784,1.523,4.982,4.22H51.468a1.594,1.594,0,0,0-1.767-1.615c-1.31,0-1.95.96-1.95,2.879,0,1.889.7,2.864,2.057,2.864a1.678,1.678,0,0,0,1.752-1.722h3.123v.015Zm-.716-6.338h3.4l1.752,6.7,1.874-6.7h3.275l-3.489,10.39H57.455ZM33.7,167.649a1.487,1.487,0,0,0-1.082.457l-2.179,2.179a1.554,1.554,0,0,0,0,2.179L36.6,178.6l6.14-6.155a1.554,1.554,0,0,0,0-2.179l-2.179-2.163a1.527,1.527,0,0,0-2.179,0L36.6,169.9l-1.8-1.8a1.546,1.546,0,0,0-1.1-.457Z" transform="translate(883.729 421.092)" fill="#e1e1e1" fill-rule="evenodd"/>
  </g>
</svg>
